%TF.GenerationSoftware,KiCad,Pcbnew,9.0.6*%
%TF.CreationDate,2026-01-13T22:19:31-05:00*%
%TF.ProjectId,USB_PD_Module,5553425f-5044-45f4-9d6f-64756c652e6b,rev?*%
%TF.SameCoordinates,Original*%
%TF.FileFunction,Soldermask,Top*%
%TF.FilePolarity,Negative*%
%FSLAX46Y46*%
G04 Gerber Fmt 4.6, Leading zero omitted, Abs format (unit mm)*
G04 Created by KiCad (PCBNEW 9.0.6) date 2026-01-13 22:19:31*
%MOMM*%
%LPD*%
G01*
G04 APERTURE LIST*
G04 Aperture macros list*
%AMRoundRect*
0 Rectangle with rounded corners*
0 $1 Rounding radius*
0 $2 $3 $4 $5 $6 $7 $8 $9 X,Y pos of 4 corners*
0 Add a 4 corners polygon primitive as box body*
4,1,4,$2,$3,$4,$5,$6,$7,$8,$9,$2,$3,0*
0 Add four circle primitives for the rounded corners*
1,1,$1+$1,$2,$3*
1,1,$1+$1,$4,$5*
1,1,$1+$1,$6,$7*
1,1,$1+$1,$8,$9*
0 Add four rect primitives between the rounded corners*
20,1,$1+$1,$2,$3,$4,$5,0*
20,1,$1+$1,$4,$5,$6,$7,0*
20,1,$1+$1,$6,$7,$8,$9,0*
20,1,$1+$1,$8,$9,$2,$3,0*%
%AMFreePoly0*
4,1,13,0.549497,1.399497,0.570000,1.350000,0.570000,-0.250000,0.549497,-0.299497,0.500000,-0.320000,-0.500000,-0.320000,-0.549497,-0.299497,-0.570000,-0.250000,-0.570000,1.350000,-0.549497,1.399497,-0.500000,1.420000,0.500000,1.420000,0.549497,1.399497,0.549497,1.399497,$1*%
G04 Aperture macros list end*
%ADD10C,2.200000*%
%ADD11RoundRect,0.225000X-0.250000X0.225000X-0.250000X-0.225000X0.250000X-0.225000X0.250000X0.225000X0*%
%ADD12RoundRect,0.073333X0.246667X-0.146667X0.246667X0.146667X-0.246667X0.146667X-0.246667X-0.146667X0*%
%ADD13RoundRect,0.140000X-0.170000X0.140000X-0.170000X-0.140000X0.170000X-0.140000X0.170000X0.140000X0*%
%ADD14RoundRect,0.225000X0.250000X-0.225000X0.250000X0.225000X-0.250000X0.225000X-0.250000X-0.225000X0*%
%ADD15RoundRect,0.250000X-0.650000X-0.250000X0.650000X-0.250000X0.650000X0.250000X-0.650000X0.250000X0*%
%ADD16RoundRect,0.073333X-0.246667X0.146667X-0.246667X-0.146667X0.246667X-0.146667X0.246667X0.146667X0*%
%ADD17RoundRect,0.200000X0.275000X-0.200000X0.275000X0.200000X-0.275000X0.200000X-0.275000X-0.200000X0*%
%ADD18RoundRect,0.200000X-0.275000X0.200000X-0.275000X-0.200000X0.275000X-0.200000X0.275000X0.200000X0*%
%ADD19O,1.800000X3.000000*%
%ADD20RoundRect,0.200000X0.200000X0.275000X-0.200000X0.275000X-0.200000X-0.275000X0.200000X-0.275000X0*%
%ADD21RoundRect,0.250000X0.650000X0.250000X-0.650000X0.250000X-0.650000X-0.250000X0.650000X-0.250000X0*%
%ADD22RoundRect,0.200000X-0.200000X-0.275000X0.200000X-0.275000X0.200000X0.275000X-0.200000X0.275000X0*%
%ADD23RoundRect,0.135000X-0.185000X0.135000X-0.185000X-0.135000X0.185000X-0.135000X0.185000X0.135000X0*%
%ADD24RoundRect,0.250000X0.250000X-0.650000X0.250000X0.650000X-0.250000X0.650000X-0.250000X-0.650000X0*%
%ADD25C,0.350000*%
%ADD26RoundRect,0.140000X0.140000X0.170000X-0.140000X0.170000X-0.140000X-0.170000X0.140000X-0.170000X0*%
%ADD27R,2.790000X1.905000*%
%ADD28C,0.750000*%
%ADD29R,0.280000X1.050000*%
%ADD30O,1.700000X0.850000*%
%ADD31O,2.000000X1.000000*%
%ADD32O,2.200000X1.100000*%
%ADD33RoundRect,0.048888X-0.171112X0.246112X-0.171112X-0.246112X0.171112X-0.246112X0.171112X0.246112X0*%
%ADD34C,0.540000*%
%ADD35FreePoly0,270.000000*%
%ADD36RoundRect,0.250000X0.450000X-0.262500X0.450000X0.262500X-0.450000X0.262500X-0.450000X-0.262500X0*%
%ADD37RoundRect,0.120000X-0.680000X-0.380000X0.680000X-0.380000X0.680000X0.380000X-0.680000X0.380000X0*%
%ADD38RoundRect,0.250000X0.262500X0.450000X-0.262500X0.450000X-0.262500X-0.450000X0.262500X-0.450000X0*%
G04 APERTURE END LIST*
D10*
X110000000Y-114500000D03*
D11*
X96300000Y-110025000D03*
X96300000Y-108475000D03*
D12*
X137600000Y-116700000D03*
X137600000Y-117400000D03*
D13*
X146000000Y-111000000D03*
X146000000Y-110040000D03*
D14*
X104300000Y-117025000D03*
X104300000Y-118575000D03*
D15*
X164850000Y-118850000D03*
X136500000Y-119000000D03*
D16*
X131000000Y-111000000D03*
X131000000Y-110300000D03*
D17*
X138200000Y-107975000D03*
X138200000Y-109625000D03*
D13*
X142000000Y-111000000D03*
X142000000Y-110040000D03*
D18*
X97900000Y-110075000D03*
X97900000Y-108425000D03*
D19*
X101500000Y-107000000D03*
X104040000Y-107000000D03*
X106580000Y-107000000D03*
X109120000Y-107000000D03*
X111660000Y-107000000D03*
X114200000Y-107000000D03*
X116740000Y-107000000D03*
X119280000Y-107000000D03*
X143720000Y-107000000D03*
X146260000Y-107000000D03*
X148800000Y-107000000D03*
X151340000Y-107000000D03*
X153880000Y-107000000D03*
X156420000Y-107000000D03*
X158960000Y-107000000D03*
X161500000Y-107000000D03*
D20*
X119600000Y-112700000D03*
X121250000Y-112700000D03*
D21*
X139500000Y-118000000D03*
D15*
X128500000Y-119000000D03*
D22*
X140500000Y-115500000D03*
X138850000Y-115500000D03*
D23*
X143500000Y-118000000D03*
X143500000Y-116980000D03*
D16*
X132000000Y-111000000D03*
X132000000Y-110300000D03*
D17*
X147000000Y-117350000D03*
X147000000Y-119000000D03*
D15*
X134000000Y-119000000D03*
D14*
X125000000Y-113675000D03*
X125000000Y-115225000D03*
D22*
X117850000Y-115450000D03*
X116200000Y-115450000D03*
X114550000Y-115450000D03*
D17*
X136700000Y-107975000D03*
X136700000Y-109625000D03*
D24*
X136000000Y-112000000D03*
D25*
X143000000Y-112500000D03*
X143500000Y-112500000D03*
X144000000Y-112500000D03*
X144500000Y-112500000D03*
X145000000Y-112500000D03*
X145500000Y-112500000D03*
X143000000Y-113000000D03*
X143500000Y-113000000D03*
X144000000Y-113000000D03*
X144500000Y-113000000D03*
X145000000Y-113000000D03*
X145500000Y-113000000D03*
X143000000Y-113500000D03*
X143500000Y-113500000D03*
X144000000Y-113500000D03*
X144500000Y-113500000D03*
X145000000Y-113500000D03*
X145500000Y-113500000D03*
X143000000Y-114000000D03*
X143500000Y-114000000D03*
X144000000Y-114000000D03*
X144500000Y-114000000D03*
X145000000Y-114000000D03*
X145500000Y-114000000D03*
X143000000Y-114500000D03*
X143500000Y-114500000D03*
X144000000Y-114500000D03*
X144500000Y-114500000D03*
X145000000Y-114500000D03*
X145500000Y-114500000D03*
D18*
X102550000Y-115325000D03*
X102550000Y-113675000D03*
D13*
X143000000Y-111000000D03*
X143000000Y-110040000D03*
X144000000Y-111000000D03*
X144000000Y-110040000D03*
D15*
X140200000Y-110000000D03*
D26*
X147040000Y-114500000D03*
X148000000Y-114500000D03*
D14*
X145000000Y-116225000D03*
X145000000Y-117775000D03*
D27*
X97090000Y-113600000D03*
X97090000Y-118451000D03*
D20*
X138850000Y-112500000D03*
X140500000Y-112500000D03*
D13*
X147000000Y-111000000D03*
X147000000Y-110040000D03*
D17*
X148500000Y-117350000D03*
X148500000Y-119000000D03*
D25*
X120650000Y-115750000D03*
X120150000Y-115750000D03*
X120650000Y-115250000D03*
X120150000Y-115250000D03*
X120650000Y-114750000D03*
X120150000Y-114750000D03*
D22*
X140500000Y-114000000D03*
X138850000Y-114000000D03*
D25*
X101300000Y-117400000D03*
X101700000Y-117400000D03*
X102100000Y-117400000D03*
X101300000Y-117800000D03*
X101700000Y-117800000D03*
X102100000Y-117800000D03*
X101300000Y-118200000D03*
X101700000Y-118200000D03*
X102100000Y-118200000D03*
D26*
X147020000Y-113500000D03*
X147980000Y-113500000D03*
D28*
X127690000Y-115780000D03*
X135310000Y-113930000D03*
D29*
X134250000Y-113875000D03*
X133750000Y-113875000D03*
X133250000Y-113875000D03*
X132750000Y-113875000D03*
X132250000Y-113875000D03*
X131750000Y-113875000D03*
X131250000Y-113875000D03*
X130750000Y-113875000D03*
X130250000Y-113875000D03*
X129750000Y-113875000D03*
X129250000Y-113875000D03*
X128750000Y-113875000D03*
X128750000Y-115825000D03*
X129250000Y-115825000D03*
X129750000Y-115825000D03*
X130250000Y-115825000D03*
X130750000Y-115825000D03*
X131250000Y-115825000D03*
X131750000Y-115825000D03*
X132250000Y-115825000D03*
X132750000Y-115825000D03*
X133250000Y-115825000D03*
X133750000Y-115825000D03*
X134250000Y-115825000D03*
D30*
X127490000Y-114850000D03*
D31*
X129750000Y-112050000D03*
X133250000Y-112050000D03*
D30*
X135510000Y-114850000D03*
D32*
X131500000Y-117650000D03*
D10*
X153000000Y-114865000D03*
D33*
X125500000Y-110550000D03*
X124850000Y-110550000D03*
X124200000Y-110550000D03*
X124200000Y-112500000D03*
X124850000Y-112500000D03*
X125500000Y-112500000D03*
D34*
X125400000Y-111525000D03*
X124300000Y-111525000D03*
D35*
X124300000Y-111525000D03*
D23*
X142500000Y-118000000D03*
X142500000Y-116980000D03*
D16*
X128000000Y-117850000D03*
X128000000Y-117150000D03*
D26*
X147040000Y-112500000D03*
X148000000Y-112500000D03*
D15*
X167600000Y-118850000D03*
D36*
X123000000Y-115412500D03*
X123000000Y-113587500D03*
D37*
X165100000Y-110500000D03*
X165100000Y-113000000D03*
X165100000Y-115500000D03*
X167500000Y-110500000D03*
X167500000Y-113000000D03*
X167500000Y-115500000D03*
D18*
X101050000Y-115350000D03*
X101050000Y-113700000D03*
D17*
X104000000Y-109175000D03*
X104000000Y-110825000D03*
D16*
X134000000Y-117850000D03*
X134000000Y-117150000D03*
D15*
X120000000Y-111000000D03*
D16*
X136500000Y-117850000D03*
X136500000Y-117150000D03*
D38*
X119800000Y-118000000D03*
X117975000Y-118000000D03*
D13*
X145000000Y-111000000D03*
X145000000Y-110040000D03*
M02*
