M48
; DRILL file {KiCad 9.0.6} date 2026-01-13T22:21:31-0500
; FORMAT={-:-/ absolute / metric / decimal}
; #@! TF.CreationDate,2026-01-13T22:21:31-05:00
; #@! TF.GenerationSoftware,Kicad,Pcbnew,9.0.6
; #@! TF.FileFunction,Plated,1,4,PTH
FMAT,2
METRIC
; #@! TA.AperFunction,Plated,PTH,ViaDrill
T1C0.150
; #@! TA.AperFunction,Plated,PTH,ViaDrill
T2C0.200
; #@! TA.AperFunction,Plated,PTH,ComponentDrill
T3C0.200
; #@! TA.AperFunction,Plated,PTH,ComponentDrill
T4C0.500
; #@! TA.AperFunction,Plated,PTH,ComponentDrill
T5C1.100
%
G90
G05
T1
X101.5Y-118.3
X104.2Y-110.8
X117.6Y-109.8
X117.85Y-115.45
X120.65Y-114.75
X121.0Y-116.8
X121.2Y-112.8
X122.2Y-108.0
X123.48Y-116.25
X126.0Y-108.0
X126.4Y-119.6
X129.0Y-108.0
X130.75Y-115.825
X131.295Y-113.78
X131.725Y-113.0
X131.8Y-115.4
X132.0Y-108.0
X132.0Y-110.3
X132.0Y-111.0
X132.2Y-113.8
X133.4Y-109.4
X133.8Y-108.0
X134.4Y-109.2
X135.0Y-110.5
X136.0Y-112.0
X136.5Y-117.15
X137.5Y-111.5
X139.5Y-118.0
X139.6Y-108.8
X141.2Y-107.6
X141.2Y-114.4
X141.6Y-115.4
X142.153Y-115.553
X142.4Y-118.55
X142.4Y-119.05
X142.5Y-116.98
X142.777Y-115.602
X143.0Y-114.0
X143.5Y-113.0
X143.5Y-113.5
X143.5Y-114.0
X143.5Y-116.98
X144.0Y-113.0
X144.0Y-113.5
X144.2Y-115.2
X144.25Y-112.25
X144.5Y-113.0
X145.0Y-113.0
X145.0Y-114.0
X145.5Y-113.0
X145.5Y-114.5
X146.0Y-111.0
X146.4Y-112.5
X147.0Y-117.4
X147.0Y-119.0
X147.04Y-114.5
X147.4Y-111.4
X147.98Y-113.5
X148.6Y-119.0
X166.101Y-115.168
X166.455Y-114.815
T2
X93.7Y-107.9
X93.7Y-110.9
X93.7Y-113.9
X93.7Y-116.9
X93.7Y-119.9
X96.0Y-111.65
X96.6Y-111.65
X97.2Y-111.65
X97.8Y-111.65
X98.4Y-111.65
X102.0Y-111.0
X102.0Y-120.0
X102.35Y-116.55
X102.95Y-116.55
X102.95Y-117.15
X102.95Y-117.75
X102.95Y-118.35
X103.75Y-115.3
X104.05Y-115.8
X104.3Y-115.3
X104.6Y-115.8
X104.85Y-115.3
X105.0Y-114.0
X108.0Y-111.0
X108.0Y-117.0
X112.0Y-117.0
X114.0Y-111.0
X114.0Y-114.0
X115.4Y-114.4
X116.25Y-117.75
X116.25Y-118.3
X116.75Y-117.45
X116.75Y-118.0
X116.75Y-118.55
X117.0Y-111.0
X118.0Y-108.5
X122.0Y-118.0
X126.0Y-118.0
X126.15Y-112.9
X126.15Y-113.45
X126.65Y-112.6
X126.65Y-113.15
X126.65Y-113.7
X129.0Y-111.0
X130.3Y-114.85
X130.9Y-114.85
X131.15Y-116.646
X131.5Y-114.85
X131.85Y-116.646
X132.1Y-114.85
X132.7Y-114.85
X134.9Y-117.9
X135.6Y-108.0
X135.6Y-117.9
X137.0Y-113.0
X138.0Y-112.8
X139.0Y-108.0
X139.0Y-111.0
X139.0Y-117.0
X141.625Y-117.343
X141.625Y-118.043
X141.89Y-113.539
X142.0Y-113.0
X142.365Y-111.097
X143.0Y-111.5
X144.0Y-109.0
X148.0Y-109.0
X150.0Y-111.0
X150.0Y-114.0
X150.0Y-117.0
X150.0Y-119.0
X153.0Y-109.0
X153.0Y-111.0
X153.0Y-117.0
X153.0Y-119.0
X156.0Y-109.0
X156.0Y-111.0
X156.0Y-114.0
X156.0Y-117.0
X156.0Y-119.0
X159.0Y-111.0
X159.0Y-114.0
X160.0Y-120.0
X162.5Y-117.0
X162.5Y-120.0
X165.0Y-108.0
X165.0Y-120.0
X168.0Y-108.0
X168.0Y-120.0
X169.0Y-110.0
X169.0Y-113.0
X169.0Y-116.0
T3
X124.3Y-111.525
X125.4Y-111.525
T5
X101.5Y-107.0
X104.04Y-107.0
X106.58Y-107.0
X109.12Y-107.0
X111.66Y-107.0
X114.2Y-107.0
X116.74Y-107.0
X119.28Y-107.0
X143.72Y-107.0
X146.26Y-107.0
X148.8Y-107.0
X151.34Y-107.0
X153.88Y-107.0
X156.42Y-107.0
X158.96Y-107.0
X161.5Y-107.0
T4
X127.64Y-114.85G85X127.34Y-114.85
G05
X130.2Y-112.05G85X129.3Y-112.05
G05
X132.15Y-117.65G85X130.85Y-117.65
G05
X133.7Y-112.05G85X132.8Y-112.05
G05
X135.66Y-114.85G85X135.36Y-114.85
G05
M30
