M48
; DRILL file {KiCad 9.0.6} date 2026-08-28T14:09:39-0500
; FORMAT={-:-/ absolute / metric / decimal}
; #@! TF.CreationDate,2026-08-28T14:09:39-05:00
; #@! TF.GenerationSoftware,Kicad,Pcbnew,9.0.6
; #@! TF.FileFunction,Plated,1,4,PTH
FMAT,2
METRIC
; #@! TA.AperFunction,Plated,PTH,ViaDrill
T1C0.150
; #@! TA.AperFunction,Plated,PTH,ViaDrill
T2C0.200
; #@! TA.AperFunction,Plated,PTH,ComponentDrill
T3C0.200
; #@! TA.AperFunction,Plated,PTH,ComponentDrill
T4C0.300
; #@! TA.AperFunction,Plated,PTH,ComponentDrill
T5C0.350
; #@! TA.AperFunction,Plated,PTH,ComponentDrill
T6C0.500
; #@! TA.AperFunction,Plated,PTH,ComponentDrill
T7C1.000
; #@! TA.AperFunction,Plated,PTH,ComponentDrill
T8C1.170
; #@! TA.AperFunction,Plated,PTH,ComponentDrill
T9C1.200
; #@! TA.AperFunction,Plated,PTH,ComponentDrill
T10C1.300
%
G90
G05
T1
X71.45Y-107.9
X71.45Y-109.45
X75.35Y-107.85
X75.4Y-108.9
X79.277Y-113.006
X79.774Y-112.004
X79.775Y-112.504
X80.274Y-113.003
X80.55Y-114.6
X81.15Y-114.6
X83.195Y-110.073
X83.45Y-127.55
X84.05Y-126.5
X84.27Y-150.89
X84.27Y-151.78
X84.395Y-110.073
X85.97Y-91.52
X86.89Y-150.01
X91.08Y-150.51
X91.89Y-155.71
X95.02Y-147.65
X95.65Y-111.5
X96.05Y-111.4
X97.75Y-124.35
X98.3Y-124.3
X99.18Y-151.09
X99.29Y-154.48
X99.73Y-150.51
X99.746Y-152.486
X99.75Y-150.99
X99.98Y-144.41
X100.003Y-146.913
X100.2Y-153.13
X100.357Y-147.267
X100.76Y-153.15
X100.79Y-151.15
X103.672Y-125.1
X104.344Y-127.657
X104.744Y-126.857
X104.744Y-127.657
X104.744Y-128.057
X105.144Y-127.257
X105.144Y-127.657
X105.147Y-128.409
X105.17Y-158.45
X105.17Y-158.95
X105.544Y-127.257
X105.59Y-157.07
X105.944Y-127.257
X106.344Y-127.257
X106.744Y-127.257
X107.04Y-154.87
X107.09Y-109.155
X107.47Y-151.2
X107.47Y-156.12
X107.488Y-107.893
X107.49Y-108.755
X107.49Y-109.155
X107.89Y-108.355
X107.89Y-108.755
X107.89Y-109.155
X108.29Y-108.355
X108.29Y-108.755
X108.29Y-109.155
X110.79Y-152.96
X111.5Y-152.3
X111.7Y-151.79
X111.85Y-99.09
X111.85Y-99.49
X111.85Y-100.69
X111.85Y-101.09
X111.85Y-101.49
X112.0Y-149.29
X112.25Y-99.09
X112.25Y-99.49
X112.25Y-100.69
X112.25Y-101.09
X112.25Y-101.49
X112.59Y-151.145
X112.63Y-152.69
X112.65Y-99.09
X112.65Y-99.49
X112.67Y-152.18
X112.709Y-150.67
X113.04Y-153.88
X113.05Y-99.09
X113.05Y-99.49
X113.05Y-100.29
X113.05Y-100.69
X113.05Y-101.09
X113.05Y-101.49
X113.05Y-149.41
X113.079Y-151.17
X113.17Y-151.64
X113.18Y-152.68
X113.45Y-99.09
X113.45Y-99.49
X113.54Y-154.06
X113.65Y-152.16
X113.65Y-152.67
X113.66Y-151.67
X113.681Y-151.17
X113.748Y-153.718
X114.15Y-151.67
X114.45Y-98.7
X114.74Y-156.63
X115.41Y-154.66
X115.67Y-154.08
X134.61Y-116.69
T2
X61.2Y-129.9
X61.2Y-134.9
X61.2Y-139.1
X61.4Y-125.6
X61.5Y-106.9
X61.5Y-107.5
X61.654Y-116.208
X62.1Y-106.9
X62.1Y-107.5
X62.52Y-145.8
X62.52Y-149.87
X62.52Y-153.87
X62.52Y-157.87
X62.7Y-106.9
X62.7Y-107.5
X62.95Y-119.15
X63.0Y-117.9
X63.05Y-121.2
X63.125Y-122.975
X63.3Y-106.9
X63.3Y-107.5
X63.35Y-117.15
X63.4Y-114.7
X63.45Y-134.2
X63.5Y-132.0
X63.9Y-106.9
X63.9Y-107.5
X64.5Y-107.5
X64.5Y-108.1
X64.7Y-108.7
X64.9Y-114.7
X65.1Y-108.1
X65.3Y-108.7
X65.6Y-127.25
X65.77Y-118.275
X66.0Y-136.0
X66.3Y-126.55
X66.3Y-129.65
X66.381Y-108.384
X66.381Y-108.9
X66.875Y-118.273
X66.895Y-120.173
X66.976Y-122.574
X67.269Y-118.868
X67.295Y-119.573
X67.569Y-124.788
X67.68Y-112.475
X67.75Y-116.5
X67.95Y-117.2
X68.295Y-127.873
X68.35Y-132.4
X68.4Y-105.3
X68.5Y-120.3
X68.7Y-142.0
X68.9Y-112.575
X69.05Y-131.3
X69.05Y-133.0
X69.177Y-103.03
X69.189Y-96.922
X69.5Y-139.8
X69.6Y-113.0
X70.0Y-121.4
X70.119Y-128.538
X70.151Y-139.851
X70.2Y-112.475
X70.3Y-134.3
X70.52Y-149.87
X70.52Y-153.87
X70.52Y-157.87
X70.645Y-142.955
X70.65Y-128.9
X70.695Y-121.673
X70.775Y-134.8
X70.775Y-139.875
X70.8Y-146.2
X70.884Y-119.235
X71.23Y-142.57
X71.291Y-121.216
X71.568Y-115.132
X71.594Y-139.847
X71.6Y-114.1
X71.8Y-99.15
X71.8Y-126.0
X71.943Y-119.191
X72.2Y-139.8
X72.295Y-121.173
X72.395Y-121.773
X72.4Y-114.5
X72.4Y-145.5
X72.47Y-128.14
X72.5Y-126.0
X72.5Y-134.25
X72.5Y-136.1
X72.535Y-119.438
X73.12Y-128.25
X73.2Y-141.6
X74.25Y-122.5
X74.25Y-123.55
X74.25Y-124.55
X74.4Y-140.073
X74.81Y-140.51
X74.954Y-118.414
X74.97Y-128.15
X75.65Y-133.35
X75.72Y-128.24
X76.025Y-114.532
X76.058Y-103.948
X76.058Y-104.698
X76.058Y-105.448
X76.058Y-106.198
X76.11Y-126.83
X76.195Y-97.191
X76.495Y-116.373
X76.71Y-122.173
X76.71Y-122.9
X76.808Y-103.948
X76.808Y-104.698
X76.808Y-105.448
X76.808Y-106.198
X76.895Y-119.173
X76.895Y-120.173
X76.995Y-121.028
X77.081Y-117.538
X77.1Y-127.1
X77.201Y-110.061
X77.4Y-126.3
X77.495Y-112.873
X77.495Y-113.773
X77.558Y-103.948
X77.558Y-104.698
X77.558Y-105.448
X77.558Y-106.198
X77.7Y-125.7
X77.76Y-98.97
X77.8Y-115.5
X78.05Y-118.3
X78.14Y-101.15
X78.5Y-145.765
X78.5Y-149.765
X78.73Y-157.78
X79.095Y-126.198
X79.1Y-127.1
X79.3Y-119.15
X79.3Y-120.2
X79.4Y-123.45
X79.4Y-124.2
X79.4Y-125.4
X79.5Y-132.0
X79.7Y-126.2
X80.3Y-100.2
X80.5Y-116.1
X81.795Y-114.673
X81.9Y-96.7
X82.392Y-115.958
X82.45Y-123.574
X82.54Y-138.96
X82.54Y-139.76
X82.9Y-119.7
X83.154Y-112.275
X83.34Y-138.96
X83.34Y-139.76
X83.5Y-135.15
X83.55Y-133.45
X83.6Y-121.65
X83.7Y-120.23
X83.9Y-141.6
X84.15Y-138.95
X84.15Y-139.75
X84.695Y-115.947
X84.7Y-142.1
X84.85Y-96.5
X85.5Y-114.8
X85.7Y-131.726
X85.8Y-124.0
X85.85Y-130.55
X86.1Y-103.35
X86.11Y-136.94
X86.4Y-99.9
X86.6Y-132.153
X86.69Y-137.6
X87.05Y-100.2
X87.1Y-97.15
X87.15Y-128.4
X87.2Y-103.45
X87.2Y-126.9
X87.75Y-100.45
X87.943Y-107.957
X88.0Y-95.45
X88.0Y-126.45
X88.1Y-110.2
X88.15Y-120.307
X88.2Y-121.1
X88.223Y-131.301
X88.674Y-130.9
X89.0Y-97.45
X89.25Y-129.95
X89.46Y-133.52
X90.075Y-125.375
X90.166Y-133.416
X90.25Y-127.3
X90.33Y-135.85
X90.7Y-149.5
X90.8Y-121.2
X91.0Y-140.5
X91.16Y-91.72
X91.3Y-142.5
X91.5Y-123.5
X91.6Y-121.2
X91.6Y-148.8
X91.789Y-110.732
X91.79Y-136.85
X91.91Y-94.8
X92.11Y-142.07
X92.2Y-123.65
X92.4Y-139.5
X92.6Y-118.2
X92.6Y-118.8
X92.75Y-95.95
X92.866Y-135.15
X93.15Y-106.8
X93.279Y-117.38
X93.3Y-116.8
X93.35Y-103.55
X93.6Y-127.65
X93.695Y-114.173
X93.695Y-114.973
X93.795Y-113.373
X93.931Y-116.803
X93.952Y-117.397
X94.05Y-111.45
X94.295Y-113.773
X94.295Y-114.573
X94.3Y-139.5
X94.35Y-96.15
X94.4Y-121.9
X94.43Y-140.73
X94.43Y-141.33
X94.91Y-101.68
X94.98Y-100.21
X94.995Y-113.073
X95.03Y-140.73
X95.03Y-141.33
X95.06Y-130.01
X95.06Y-131.16
X95.07Y-132.35
X95.07Y-133.54
X95.127Y-114.172
X95.142Y-117.113
X95.2Y-119.9
X95.395Y-107.973
X95.63Y-140.73
X95.63Y-141.33
X95.795Y-117.073
X95.85Y-96.15
X96.0Y-126.2
X96.1Y-139.65
X96.5Y-122.5
X97.0Y-117.0
X97.1Y-138.4
X97.15Y-137.35
X97.255Y-108.483
X97.35Y-96.15
X97.6Y-146.09
X97.62Y-152.85
X97.65Y-138.4
X97.7Y-137.35
X98.175Y-145.746
X98.22Y-152.86
X98.395Y-107.373
X98.5Y-105.6
X98.8Y-152.85
X98.9Y-122.3
X99.15Y-130.6
X99.2Y-129.55
X99.395Y-111.573
X99.57Y-138.0
X99.7Y-146.4
X99.8Y-123.3
X100.05Y-135.866
X100.08Y-138.34
X100.12Y-137.71
X100.195Y-107.373
X100.21Y-136.65
X100.25Y-98.5
X100.35Y-131.8
X100.395Y-111.573
X100.9Y-116.2
X100.9Y-116.95
X101.1Y-147.4
X101.19Y-136.61
X101.26Y-152.82
X101.295Y-112.973
X101.35Y-131.75
X101.595Y-111.573
X101.81Y-152.82
X101.95Y-91.6
X102.095Y-120.163
X102.115Y-120.833
X102.115Y-121.398
X102.115Y-121.963
X102.31Y-138.85
X102.35Y-136.4
X102.35Y-137.45
X102.455Y-125.25
X102.66Y-138.32
X102.695Y-120.173
X102.715Y-120.843
X102.715Y-121.408
X102.715Y-121.973
X102.852Y-125.572
X102.9Y-136.4
X102.9Y-137.45
X102.91Y-139.11
X102.995Y-111.573
X102.995Y-112.873
X103.117Y-116.017
X103.65Y-116.45
X103.82Y-143.77
X103.98Y-143.01
X104.5Y-159.4
X104.595Y-112.873
X104.65Y-106.075
X104.695Y-111.573
X104.75Y-120.6
X105.1Y-113.6
X105.9Y-116.8
X105.9Y-157.8
X106.15Y-133.719
X106.4Y-132.15
X106.861Y-111.658
X107.222Y-137.26
X107.292Y-129.256
X107.354Y-136.675
X107.7Y-133.72
X107.75Y-116.55
X108.25Y-96.35
X108.28Y-142.51
X108.847Y-126.959
X108.857Y-127.673
X109.0Y-119.15
X109.195Y-115.073
X109.35Y-100.3
X109.65Y-121.65
X109.7Y-91.55
X109.71Y-143.14
X109.8Y-133.0
X110.3Y-153.7
X110.3Y-155.0
X110.55Y-92.78
X110.74Y-93.53
X110.93Y-144.14
X111.1Y-103.7
X111.131Y-114.843
X111.2Y-119.7
X112.155Y-97.301
X112.3Y-122.0
X112.4Y-112.3
X112.45Y-109.9
X112.5Y-103.65
X112.65Y-97.8
X112.75Y-115.718
X112.9Y-114.8
X112.95Y-96.753
X113.3Y-97.9
X113.45Y-119.7
X113.695Y-111.573
X113.9Y-141.0
X114.388Y-95.623
X114.45Y-102.35
X114.5Y-131.82
X114.5Y-132.62
X114.5Y-133.42
X114.75Y-113.55
X115.05Y-107.35
X115.3Y-131.82
X115.3Y-132.62
X115.3Y-133.42
X115.6Y-112.85
X115.612Y-113.559
X115.65Y-114.35
X116.45Y-113.55
X116.5Y-96.75
X116.83Y-145.94
X117.1Y-143.6
X117.525Y-97.325
X117.621Y-108.124
X118.273Y-110.973
X118.35Y-94.0
X118.4Y-96.75
X118.8Y-124.425
X118.8Y-125.025
X118.8Y-125.59
X118.8Y-126.155
X118.85Y-112.9
X119.4Y-124.435
X119.4Y-125.035
X119.4Y-125.6
X119.4Y-126.165
X119.4Y-151.0
X119.4Y-155.0
X120.1Y-107.9
X120.1Y-108.5
X120.562Y-111.4
X120.8Y-142.3
X121.9Y-99.7
X122.0Y-106.5
X122.19Y-112.875
X122.195Y-115.473
X122.197Y-114.351
X122.25Y-94.9
X122.35Y-96.2
X122.409Y-118.199
X122.76Y-118.71
X123.0Y-108.0
X123.06Y-118.18
X123.395Y-113.473
X123.4Y-151.0
X123.4Y-155.0
X123.995Y-112.373
X124.0Y-107.0
X124.0Y-108.0
X124.795Y-120.763
X124.795Y-121.363
X124.795Y-121.928
X124.795Y-122.493
X125.0Y-106.0
X125.0Y-107.0
X125.0Y-108.0
X125.15Y-119.3
X125.395Y-120.773
X125.395Y-121.373
X125.395Y-121.938
X125.395Y-122.503
X125.43Y-125.34
X125.44Y-124.78
X125.88Y-116.66
X126.0Y-103.0
X126.0Y-106.0
X126.0Y-107.0
X126.0Y-108.0
X126.35Y-99.1
X126.62Y-120.06
X126.65Y-119.49
X127.0Y-102.0
X127.0Y-104.5
X127.0Y-107.0
X127.0Y-108.0
X127.25Y-118.71
X127.42Y-123.34
X127.58Y-97.476
X127.75Y-115.16
X127.887Y-99.154
X128.0Y-101.0
X128.0Y-103.0
X128.0Y-104.0
X128.0Y-105.0
X128.0Y-108.0
X128.282Y-97.514
X128.484Y-99.204
X128.881Y-97.504
X129.081Y-99.154
X129.689Y-93.192
X129.7Y-144.5
X129.7Y-148.5
X129.7Y-152.5
X129.92Y-125.1
X129.93Y-124.55
X130.07Y-123.34
X130.17Y-118.75
X130.6Y-107.0
X130.6Y-109.5
X130.8Y-96.9
X130.82Y-119.58
X130.82Y-120.13
X130.866Y-98.85
X132.1Y-137.8
X132.7Y-141.85
X133.0Y-107.0
X133.05Y-109.5
X133.1Y-112.2
X133.1Y-112.8
X133.7Y-114.35
X134.15Y-140.2
X134.19Y-112.85
X135.15Y-92.25
X135.25Y-152.65
X135.3Y-142.8
X135.5Y-150.85
X135.55Y-148.85
X135.6Y-100.95
X135.65Y-94.75
X136.425Y-101.05
X136.5Y-147.65
X136.75Y-115.55
X137.175Y-101.05
X137.385Y-115.115
X137.4Y-92.35
X137.915Y-114.585
X138.0Y-94.75
X138.0Y-101.0
X138.4Y-113.95
T3
X96.0Y-154.85
X97.1Y-154.85
X125.2Y-112.85
X126.3Y-112.85
T4
X70.317Y-136.85
X70.317Y-137.85
X71.317Y-136.85
X71.317Y-137.85
T5
X70.625Y-122.481
X70.625Y-123.756
X70.625Y-125.031
X71.9Y-122.481
X71.9Y-123.756
X71.9Y-125.031
X73.175Y-122.481
X73.175Y-123.756
X73.175Y-125.031
T6
X127.605Y-108.835
X127.605Y-110.835
T7
X68.99Y-92.27
X71.53Y-92.27
X74.07Y-92.27
X76.61Y-92.27
X79.15Y-92.27
T8
X64.4Y-142.5
X82.74Y-92.54
X116.8Y-121.57
X119.9Y-121.55
X135.3Y-128.1
X135.35Y-132.9
X135.55Y-118.9
T9
X107.1Y-92.1
X112.1Y-92.1
T10
X66.75Y-98.9
X87.75Y-98.85
T6
X95.84Y-152.85G85X96.14Y-152.85
G05
X97.8Y-150.05G85X98.7Y-150.05
G05
X99.35Y-155.65G85X100.65Y-155.65
G05
X101.3Y-150.05G85X102.2Y-150.05
G05
X103.86Y-152.85G85X104.16Y-152.85
G05
X123.81Y-91.69G85X123.81Y-92.29
G05
X124.17Y-97.64G85X124.17Y-98.24
G05
X132.43Y-97.64G85X132.43Y-98.24
G05
X132.79Y-91.69G85X132.79Y-92.29
G05
T7
X62.87Y-109.485G85X62.87Y-110.185
G05
X137.13Y-109.485G85X137.13Y-110.185
G05
M30
