G04 #@! TF.GenerationSoftware,KiCad,Pcbnew,9.0.6*
G04 #@! TF.CreationDate,2026-03-20T17:00:45-05:00*
G04 #@! TF.ProjectId,robot,726f626f-742e-46b6-9963-61645f706362,rev?*
G04 #@! TF.SameCoordinates,Original*
G04 #@! TF.FileFunction,AssemblyDrawing,Bot*
%FSLAX46Y46*%
G04 Gerber Fmt 4.6, Leading zero omitted, Abs format (unit mm)*
G04 Created by KiCad (PCBNEW 9.0.6) date 2026-03-20 17:00:45*
%MOMM*%
%LPD*%
G01*
G04 APERTURE LIST*
%ADD10C,0.060000*%
%ADD11C,0.040000*%
%ADD12C,0.062500*%
%ADD13C,0.150000*%
%ADD14C,0.120000*%
%ADD15C,0.100000*%
%ADD16C,0.010000*%
%ADD17C,0.200000*%
%ADD18C,0.127000*%
%ADD19C,0.025400*%
%ADD20C,0.508000*%
G04 APERTURE END LIST*
D10*
X92356927Y-128967857D02*
X92166451Y-128834524D01*
X92356927Y-128739286D02*
X91956927Y-128739286D01*
X91956927Y-128739286D02*
X91956927Y-128891667D01*
X91956927Y-128891667D02*
X91975975Y-128929762D01*
X91975975Y-128929762D02*
X91995022Y-128948809D01*
X91995022Y-128948809D02*
X92033118Y-128967857D01*
X92033118Y-128967857D02*
X92090260Y-128967857D01*
X92090260Y-128967857D02*
X92128356Y-128948809D01*
X92128356Y-128948809D02*
X92147403Y-128929762D01*
X92147403Y-128929762D02*
X92166451Y-128891667D01*
X92166451Y-128891667D02*
X92166451Y-128739286D01*
X92356927Y-129348809D02*
X92356927Y-129120238D01*
X92356927Y-129234524D02*
X91956927Y-129234524D01*
X91956927Y-129234524D02*
X92014070Y-129196428D01*
X92014070Y-129196428D02*
X92052165Y-129158333D01*
X92052165Y-129158333D02*
X92071213Y-129120238D01*
X91956927Y-129710714D02*
X91956927Y-129520238D01*
X91956927Y-129520238D02*
X92147403Y-129501190D01*
X92147403Y-129501190D02*
X92128356Y-129520238D01*
X92128356Y-129520238D02*
X92109308Y-129558333D01*
X92109308Y-129558333D02*
X92109308Y-129653571D01*
X92109308Y-129653571D02*
X92128356Y-129691666D01*
X92128356Y-129691666D02*
X92147403Y-129710714D01*
X92147403Y-129710714D02*
X92185499Y-129729761D01*
X92185499Y-129729761D02*
X92280737Y-129729761D01*
X92280737Y-129729761D02*
X92318832Y-129710714D01*
X92318832Y-129710714D02*
X92337880Y-129691666D01*
X92337880Y-129691666D02*
X92356927Y-129653571D01*
X92356927Y-129653571D02*
X92356927Y-129558333D01*
X92356927Y-129558333D02*
X92337880Y-129520238D01*
X92337880Y-129520238D02*
X92318832Y-129501190D01*
D11*
X115739765Y-92340238D02*
X115751670Y-92328334D01*
X115751670Y-92328334D02*
X115763574Y-92292619D01*
X115763574Y-92292619D02*
X115763574Y-92268810D01*
X115763574Y-92268810D02*
X115751670Y-92233096D01*
X115751670Y-92233096D02*
X115727860Y-92209286D01*
X115727860Y-92209286D02*
X115704050Y-92197381D01*
X115704050Y-92197381D02*
X115656431Y-92185477D01*
X115656431Y-92185477D02*
X115620717Y-92185477D01*
X115620717Y-92185477D02*
X115573098Y-92197381D01*
X115573098Y-92197381D02*
X115549289Y-92209286D01*
X115549289Y-92209286D02*
X115525479Y-92233096D01*
X115525479Y-92233096D02*
X115513574Y-92268810D01*
X115513574Y-92268810D02*
X115513574Y-92292619D01*
X115513574Y-92292619D02*
X115525479Y-92328334D01*
X115525479Y-92328334D02*
X115537384Y-92340238D01*
X115763574Y-92578334D02*
X115763574Y-92435477D01*
X115763574Y-92506905D02*
X115513574Y-92506905D01*
X115513574Y-92506905D02*
X115549289Y-92483096D01*
X115549289Y-92483096D02*
X115573098Y-92459286D01*
X115573098Y-92459286D02*
X115585003Y-92435477D01*
X115537384Y-92673572D02*
X115525479Y-92685476D01*
X115525479Y-92685476D02*
X115513574Y-92709286D01*
X115513574Y-92709286D02*
X115513574Y-92768810D01*
X115513574Y-92768810D02*
X115525479Y-92792619D01*
X115525479Y-92792619D02*
X115537384Y-92804524D01*
X115537384Y-92804524D02*
X115561193Y-92816429D01*
X115561193Y-92816429D02*
X115585003Y-92816429D01*
X115585003Y-92816429D02*
X115620717Y-92804524D01*
X115620717Y-92804524D02*
X115763574Y-92661667D01*
X115763574Y-92661667D02*
X115763574Y-92816429D01*
X115763574Y-93054524D02*
X115763574Y-92911667D01*
X115763574Y-92983095D02*
X115513574Y-92983095D01*
X115513574Y-92983095D02*
X115549289Y-92959286D01*
X115549289Y-92959286D02*
X115573098Y-92935476D01*
X115573098Y-92935476D02*
X115585003Y-92911667D01*
D10*
X123332142Y-121481927D02*
X123465475Y-121291451D01*
X123560713Y-121481927D02*
X123560713Y-121081927D01*
X123560713Y-121081927D02*
X123408332Y-121081927D01*
X123408332Y-121081927D02*
X123370237Y-121100975D01*
X123370237Y-121100975D02*
X123351190Y-121120022D01*
X123351190Y-121120022D02*
X123332142Y-121158118D01*
X123332142Y-121158118D02*
X123332142Y-121215260D01*
X123332142Y-121215260D02*
X123351190Y-121253356D01*
X123351190Y-121253356D02*
X123370237Y-121272403D01*
X123370237Y-121272403D02*
X123408332Y-121291451D01*
X123408332Y-121291451D02*
X123560713Y-121291451D01*
X123141666Y-121481927D02*
X123065475Y-121481927D01*
X123065475Y-121481927D02*
X123027380Y-121462880D01*
X123027380Y-121462880D02*
X123008332Y-121443832D01*
X123008332Y-121443832D02*
X122970237Y-121386689D01*
X122970237Y-121386689D02*
X122951190Y-121310499D01*
X122951190Y-121310499D02*
X122951190Y-121158118D01*
X122951190Y-121158118D02*
X122970237Y-121120022D01*
X122970237Y-121120022D02*
X122989285Y-121100975D01*
X122989285Y-121100975D02*
X123027380Y-121081927D01*
X123027380Y-121081927D02*
X123103571Y-121081927D01*
X123103571Y-121081927D02*
X123141666Y-121100975D01*
X123141666Y-121100975D02*
X123160713Y-121120022D01*
X123160713Y-121120022D02*
X123179761Y-121158118D01*
X123179761Y-121158118D02*
X123179761Y-121253356D01*
X123179761Y-121253356D02*
X123160713Y-121291451D01*
X123160713Y-121291451D02*
X123141666Y-121310499D01*
X123141666Y-121310499D02*
X123103571Y-121329546D01*
X123103571Y-121329546D02*
X123027380Y-121329546D01*
X123027380Y-121329546D02*
X122989285Y-121310499D01*
X122989285Y-121310499D02*
X122970237Y-121291451D01*
X122970237Y-121291451D02*
X122951190Y-121253356D01*
X122703571Y-121081927D02*
X122665476Y-121081927D01*
X122665476Y-121081927D02*
X122627380Y-121100975D01*
X122627380Y-121100975D02*
X122608333Y-121120022D01*
X122608333Y-121120022D02*
X122589285Y-121158118D01*
X122589285Y-121158118D02*
X122570238Y-121234308D01*
X122570238Y-121234308D02*
X122570238Y-121329546D01*
X122570238Y-121329546D02*
X122589285Y-121405737D01*
X122589285Y-121405737D02*
X122608333Y-121443832D01*
X122608333Y-121443832D02*
X122627380Y-121462880D01*
X122627380Y-121462880D02*
X122665476Y-121481927D01*
X122665476Y-121481927D02*
X122703571Y-121481927D01*
X122703571Y-121481927D02*
X122741666Y-121462880D01*
X122741666Y-121462880D02*
X122760714Y-121443832D01*
X122760714Y-121443832D02*
X122779761Y-121405737D01*
X122779761Y-121405737D02*
X122798809Y-121329546D01*
X122798809Y-121329546D02*
X122798809Y-121234308D01*
X122798809Y-121234308D02*
X122779761Y-121158118D01*
X122779761Y-121158118D02*
X122760714Y-121120022D01*
X122760714Y-121120022D02*
X122741666Y-121100975D01*
X122741666Y-121100975D02*
X122703571Y-121081927D01*
D11*
X130910714Y-100839765D02*
X130922618Y-100851670D01*
X130922618Y-100851670D02*
X130958333Y-100863574D01*
X130958333Y-100863574D02*
X130982142Y-100863574D01*
X130982142Y-100863574D02*
X131017856Y-100851670D01*
X131017856Y-100851670D02*
X131041666Y-100827860D01*
X131041666Y-100827860D02*
X131053571Y-100804050D01*
X131053571Y-100804050D02*
X131065475Y-100756431D01*
X131065475Y-100756431D02*
X131065475Y-100720717D01*
X131065475Y-100720717D02*
X131053571Y-100673098D01*
X131053571Y-100673098D02*
X131041666Y-100649289D01*
X131041666Y-100649289D02*
X131017856Y-100625479D01*
X131017856Y-100625479D02*
X130982142Y-100613574D01*
X130982142Y-100613574D02*
X130958333Y-100613574D01*
X130958333Y-100613574D02*
X130922618Y-100625479D01*
X130922618Y-100625479D02*
X130910714Y-100637384D01*
X130672618Y-100863574D02*
X130815475Y-100863574D01*
X130744047Y-100863574D02*
X130744047Y-100613574D01*
X130744047Y-100613574D02*
X130767856Y-100649289D01*
X130767856Y-100649289D02*
X130791666Y-100673098D01*
X130791666Y-100673098D02*
X130815475Y-100685003D01*
X130529761Y-100720717D02*
X130553571Y-100708812D01*
X130553571Y-100708812D02*
X130565476Y-100696908D01*
X130565476Y-100696908D02*
X130577380Y-100673098D01*
X130577380Y-100673098D02*
X130577380Y-100661193D01*
X130577380Y-100661193D02*
X130565476Y-100637384D01*
X130565476Y-100637384D02*
X130553571Y-100625479D01*
X130553571Y-100625479D02*
X130529761Y-100613574D01*
X130529761Y-100613574D02*
X130482142Y-100613574D01*
X130482142Y-100613574D02*
X130458333Y-100625479D01*
X130458333Y-100625479D02*
X130446428Y-100637384D01*
X130446428Y-100637384D02*
X130434523Y-100661193D01*
X130434523Y-100661193D02*
X130434523Y-100673098D01*
X130434523Y-100673098D02*
X130446428Y-100696908D01*
X130446428Y-100696908D02*
X130458333Y-100708812D01*
X130458333Y-100708812D02*
X130482142Y-100720717D01*
X130482142Y-100720717D02*
X130529761Y-100720717D01*
X130529761Y-100720717D02*
X130553571Y-100732622D01*
X130553571Y-100732622D02*
X130565476Y-100744527D01*
X130565476Y-100744527D02*
X130577380Y-100768336D01*
X130577380Y-100768336D02*
X130577380Y-100815955D01*
X130577380Y-100815955D02*
X130565476Y-100839765D01*
X130565476Y-100839765D02*
X130553571Y-100851670D01*
X130553571Y-100851670D02*
X130529761Y-100863574D01*
X130529761Y-100863574D02*
X130482142Y-100863574D01*
X130482142Y-100863574D02*
X130458333Y-100851670D01*
X130458333Y-100851670D02*
X130446428Y-100839765D01*
X130446428Y-100839765D02*
X130434523Y-100815955D01*
X130434523Y-100815955D02*
X130434523Y-100768336D01*
X130434523Y-100768336D02*
X130446428Y-100744527D01*
X130446428Y-100744527D02*
X130458333Y-100732622D01*
X130458333Y-100732622D02*
X130482142Y-100720717D01*
X114439765Y-94195238D02*
X114451670Y-94183334D01*
X114451670Y-94183334D02*
X114463574Y-94147619D01*
X114463574Y-94147619D02*
X114463574Y-94123810D01*
X114463574Y-94123810D02*
X114451670Y-94088096D01*
X114451670Y-94088096D02*
X114427860Y-94064286D01*
X114427860Y-94064286D02*
X114404050Y-94052381D01*
X114404050Y-94052381D02*
X114356431Y-94040477D01*
X114356431Y-94040477D02*
X114320717Y-94040477D01*
X114320717Y-94040477D02*
X114273098Y-94052381D01*
X114273098Y-94052381D02*
X114249289Y-94064286D01*
X114249289Y-94064286D02*
X114225479Y-94088096D01*
X114225479Y-94088096D02*
X114213574Y-94123810D01*
X114213574Y-94123810D02*
X114213574Y-94147619D01*
X114213574Y-94147619D02*
X114225479Y-94183334D01*
X114225479Y-94183334D02*
X114237384Y-94195238D01*
X114463574Y-94433334D02*
X114463574Y-94290477D01*
X114463574Y-94361905D02*
X114213574Y-94361905D01*
X114213574Y-94361905D02*
X114249289Y-94338096D01*
X114249289Y-94338096D02*
X114273098Y-94314286D01*
X114273098Y-94314286D02*
X114285003Y-94290477D01*
X114237384Y-94528572D02*
X114225479Y-94540476D01*
X114225479Y-94540476D02*
X114213574Y-94564286D01*
X114213574Y-94564286D02*
X114213574Y-94623810D01*
X114213574Y-94623810D02*
X114225479Y-94647619D01*
X114225479Y-94647619D02*
X114237384Y-94659524D01*
X114237384Y-94659524D02*
X114261193Y-94671429D01*
X114261193Y-94671429D02*
X114285003Y-94671429D01*
X114285003Y-94671429D02*
X114320717Y-94659524D01*
X114320717Y-94659524D02*
X114463574Y-94516667D01*
X114463574Y-94516667D02*
X114463574Y-94671429D01*
X114320717Y-94814286D02*
X114308812Y-94790476D01*
X114308812Y-94790476D02*
X114296908Y-94778571D01*
X114296908Y-94778571D02*
X114273098Y-94766667D01*
X114273098Y-94766667D02*
X114261193Y-94766667D01*
X114261193Y-94766667D02*
X114237384Y-94778571D01*
X114237384Y-94778571D02*
X114225479Y-94790476D01*
X114225479Y-94790476D02*
X114213574Y-94814286D01*
X114213574Y-94814286D02*
X114213574Y-94861905D01*
X114213574Y-94861905D02*
X114225479Y-94885714D01*
X114225479Y-94885714D02*
X114237384Y-94897619D01*
X114237384Y-94897619D02*
X114261193Y-94909524D01*
X114261193Y-94909524D02*
X114273098Y-94909524D01*
X114273098Y-94909524D02*
X114296908Y-94897619D01*
X114296908Y-94897619D02*
X114308812Y-94885714D01*
X114308812Y-94885714D02*
X114320717Y-94861905D01*
X114320717Y-94861905D02*
X114320717Y-94814286D01*
X114320717Y-94814286D02*
X114332622Y-94790476D01*
X114332622Y-94790476D02*
X114344527Y-94778571D01*
X114344527Y-94778571D02*
X114368336Y-94766667D01*
X114368336Y-94766667D02*
X114415955Y-94766667D01*
X114415955Y-94766667D02*
X114439765Y-94778571D01*
X114439765Y-94778571D02*
X114451670Y-94790476D01*
X114451670Y-94790476D02*
X114463574Y-94814286D01*
X114463574Y-94814286D02*
X114463574Y-94861905D01*
X114463574Y-94861905D02*
X114451670Y-94885714D01*
X114451670Y-94885714D02*
X114439765Y-94897619D01*
X114439765Y-94897619D02*
X114415955Y-94909524D01*
X114415955Y-94909524D02*
X114368336Y-94909524D01*
X114368336Y-94909524D02*
X114344527Y-94897619D01*
X114344527Y-94897619D02*
X114332622Y-94885714D01*
X114332622Y-94885714D02*
X114320717Y-94861905D01*
D12*
X131109523Y-97912404D02*
X131109523Y-98114785D01*
X131109523Y-98114785D02*
X131097618Y-98138595D01*
X131097618Y-98138595D02*
X131085713Y-98150500D01*
X131085713Y-98150500D02*
X131061904Y-98162404D01*
X131061904Y-98162404D02*
X131014285Y-98162404D01*
X131014285Y-98162404D02*
X130990475Y-98150500D01*
X130990475Y-98150500D02*
X130978570Y-98138595D01*
X130978570Y-98138595D02*
X130966666Y-98114785D01*
X130966666Y-98114785D02*
X130966666Y-97912404D01*
X130859522Y-97936214D02*
X130847618Y-97924309D01*
X130847618Y-97924309D02*
X130823808Y-97912404D01*
X130823808Y-97912404D02*
X130764284Y-97912404D01*
X130764284Y-97912404D02*
X130740475Y-97924309D01*
X130740475Y-97924309D02*
X130728570Y-97936214D01*
X130728570Y-97936214D02*
X130716665Y-97960023D01*
X130716665Y-97960023D02*
X130716665Y-97983833D01*
X130716665Y-97983833D02*
X130728570Y-98019547D01*
X130728570Y-98019547D02*
X130871427Y-98162404D01*
X130871427Y-98162404D02*
X130716665Y-98162404D01*
X130573808Y-98019547D02*
X130597618Y-98007642D01*
X130597618Y-98007642D02*
X130609523Y-97995738D01*
X130609523Y-97995738D02*
X130621427Y-97971928D01*
X130621427Y-97971928D02*
X130621427Y-97960023D01*
X130621427Y-97960023D02*
X130609523Y-97936214D01*
X130609523Y-97936214D02*
X130597618Y-97924309D01*
X130597618Y-97924309D02*
X130573808Y-97912404D01*
X130573808Y-97912404D02*
X130526189Y-97912404D01*
X130526189Y-97912404D02*
X130502380Y-97924309D01*
X130502380Y-97924309D02*
X130490475Y-97936214D01*
X130490475Y-97936214D02*
X130478570Y-97960023D01*
X130478570Y-97960023D02*
X130478570Y-97971928D01*
X130478570Y-97971928D02*
X130490475Y-97995738D01*
X130490475Y-97995738D02*
X130502380Y-98007642D01*
X130502380Y-98007642D02*
X130526189Y-98019547D01*
X130526189Y-98019547D02*
X130573808Y-98019547D01*
X130573808Y-98019547D02*
X130597618Y-98031452D01*
X130597618Y-98031452D02*
X130609523Y-98043357D01*
X130609523Y-98043357D02*
X130621427Y-98067166D01*
X130621427Y-98067166D02*
X130621427Y-98114785D01*
X130621427Y-98114785D02*
X130609523Y-98138595D01*
X130609523Y-98138595D02*
X130597618Y-98150500D01*
X130597618Y-98150500D02*
X130573808Y-98162404D01*
X130573808Y-98162404D02*
X130526189Y-98162404D01*
X130526189Y-98162404D02*
X130502380Y-98150500D01*
X130502380Y-98150500D02*
X130490475Y-98138595D01*
X130490475Y-98138595D02*
X130478570Y-98114785D01*
X130478570Y-98114785D02*
X130478570Y-98067166D01*
X130478570Y-98067166D02*
X130490475Y-98043357D01*
X130490475Y-98043357D02*
X130502380Y-98031452D01*
X130502380Y-98031452D02*
X130526189Y-98019547D01*
X130249999Y-98262404D02*
X130249999Y-98321928D01*
X130309523Y-98298119D02*
X130249999Y-98321928D01*
X130249999Y-98321928D02*
X130190476Y-98298119D01*
X130285714Y-98369547D02*
X130249999Y-98321928D01*
X130249999Y-98321928D02*
X130214285Y-98369547D01*
D11*
X70755921Y-126073596D02*
X70767825Y-126085501D01*
X70767825Y-126085501D02*
X70803540Y-126097405D01*
X70803540Y-126097405D02*
X70827349Y-126097405D01*
X70827349Y-126097405D02*
X70863063Y-126085501D01*
X70863063Y-126085501D02*
X70886873Y-126061691D01*
X70886873Y-126061691D02*
X70898778Y-126037881D01*
X70898778Y-126037881D02*
X70910682Y-125990262D01*
X70910682Y-125990262D02*
X70910682Y-125954548D01*
X70910682Y-125954548D02*
X70898778Y-125906929D01*
X70898778Y-125906929D02*
X70886873Y-125883120D01*
X70886873Y-125883120D02*
X70863063Y-125859310D01*
X70863063Y-125859310D02*
X70827349Y-125847405D01*
X70827349Y-125847405D02*
X70803540Y-125847405D01*
X70803540Y-125847405D02*
X70767825Y-125859310D01*
X70767825Y-125859310D02*
X70755921Y-125871215D01*
X70517825Y-126097405D02*
X70660682Y-126097405D01*
X70589254Y-126097405D02*
X70589254Y-125847405D01*
X70589254Y-125847405D02*
X70613063Y-125883120D01*
X70613063Y-125883120D02*
X70636873Y-125906929D01*
X70636873Y-125906929D02*
X70660682Y-125918834D01*
X70303540Y-125930739D02*
X70303540Y-126097405D01*
X70363064Y-125835501D02*
X70422587Y-126014072D01*
X70422587Y-126014072D02*
X70267826Y-126014072D01*
X113489765Y-94195238D02*
X113501670Y-94183334D01*
X113501670Y-94183334D02*
X113513574Y-94147619D01*
X113513574Y-94147619D02*
X113513574Y-94123810D01*
X113513574Y-94123810D02*
X113501670Y-94088096D01*
X113501670Y-94088096D02*
X113477860Y-94064286D01*
X113477860Y-94064286D02*
X113454050Y-94052381D01*
X113454050Y-94052381D02*
X113406431Y-94040477D01*
X113406431Y-94040477D02*
X113370717Y-94040477D01*
X113370717Y-94040477D02*
X113323098Y-94052381D01*
X113323098Y-94052381D02*
X113299289Y-94064286D01*
X113299289Y-94064286D02*
X113275479Y-94088096D01*
X113275479Y-94088096D02*
X113263574Y-94123810D01*
X113263574Y-94123810D02*
X113263574Y-94147619D01*
X113263574Y-94147619D02*
X113275479Y-94183334D01*
X113275479Y-94183334D02*
X113287384Y-94195238D01*
X113513574Y-94433334D02*
X113513574Y-94290477D01*
X113513574Y-94361905D02*
X113263574Y-94361905D01*
X113263574Y-94361905D02*
X113299289Y-94338096D01*
X113299289Y-94338096D02*
X113323098Y-94314286D01*
X113323098Y-94314286D02*
X113335003Y-94290477D01*
X113513574Y-94671429D02*
X113513574Y-94528572D01*
X113513574Y-94600000D02*
X113263574Y-94600000D01*
X113263574Y-94600000D02*
X113299289Y-94576191D01*
X113299289Y-94576191D02*
X113323098Y-94552381D01*
X113323098Y-94552381D02*
X113335003Y-94528572D01*
X113263574Y-94754762D02*
X113263574Y-94921428D01*
X113263574Y-94921428D02*
X113513574Y-94814286D01*
X107639765Y-94170238D02*
X107651670Y-94158334D01*
X107651670Y-94158334D02*
X107663574Y-94122619D01*
X107663574Y-94122619D02*
X107663574Y-94098810D01*
X107663574Y-94098810D02*
X107651670Y-94063096D01*
X107651670Y-94063096D02*
X107627860Y-94039286D01*
X107627860Y-94039286D02*
X107604050Y-94027381D01*
X107604050Y-94027381D02*
X107556431Y-94015477D01*
X107556431Y-94015477D02*
X107520717Y-94015477D01*
X107520717Y-94015477D02*
X107473098Y-94027381D01*
X107473098Y-94027381D02*
X107449289Y-94039286D01*
X107449289Y-94039286D02*
X107425479Y-94063096D01*
X107425479Y-94063096D02*
X107413574Y-94098810D01*
X107413574Y-94098810D02*
X107413574Y-94122619D01*
X107413574Y-94122619D02*
X107425479Y-94158334D01*
X107425479Y-94158334D02*
X107437384Y-94170238D01*
X107663574Y-94408334D02*
X107663574Y-94265477D01*
X107663574Y-94336905D02*
X107413574Y-94336905D01*
X107413574Y-94336905D02*
X107449289Y-94313096D01*
X107449289Y-94313096D02*
X107473098Y-94289286D01*
X107473098Y-94289286D02*
X107485003Y-94265477D01*
X107663574Y-94646429D02*
X107663574Y-94503572D01*
X107663574Y-94575000D02*
X107413574Y-94575000D01*
X107413574Y-94575000D02*
X107449289Y-94551191D01*
X107449289Y-94551191D02*
X107473098Y-94527381D01*
X107473098Y-94527381D02*
X107485003Y-94503572D01*
X107520717Y-94789286D02*
X107508812Y-94765476D01*
X107508812Y-94765476D02*
X107496908Y-94753571D01*
X107496908Y-94753571D02*
X107473098Y-94741667D01*
X107473098Y-94741667D02*
X107461193Y-94741667D01*
X107461193Y-94741667D02*
X107437384Y-94753571D01*
X107437384Y-94753571D02*
X107425479Y-94765476D01*
X107425479Y-94765476D02*
X107413574Y-94789286D01*
X107413574Y-94789286D02*
X107413574Y-94836905D01*
X107413574Y-94836905D02*
X107425479Y-94860714D01*
X107425479Y-94860714D02*
X107437384Y-94872619D01*
X107437384Y-94872619D02*
X107461193Y-94884524D01*
X107461193Y-94884524D02*
X107473098Y-94884524D01*
X107473098Y-94884524D02*
X107496908Y-94872619D01*
X107496908Y-94872619D02*
X107508812Y-94860714D01*
X107508812Y-94860714D02*
X107520717Y-94836905D01*
X107520717Y-94836905D02*
X107520717Y-94789286D01*
X107520717Y-94789286D02*
X107532622Y-94765476D01*
X107532622Y-94765476D02*
X107544527Y-94753571D01*
X107544527Y-94753571D02*
X107568336Y-94741667D01*
X107568336Y-94741667D02*
X107615955Y-94741667D01*
X107615955Y-94741667D02*
X107639765Y-94753571D01*
X107639765Y-94753571D02*
X107651670Y-94765476D01*
X107651670Y-94765476D02*
X107663574Y-94789286D01*
X107663574Y-94789286D02*
X107663574Y-94836905D01*
X107663574Y-94836905D02*
X107651670Y-94860714D01*
X107651670Y-94860714D02*
X107639765Y-94872619D01*
X107639765Y-94872619D02*
X107615955Y-94884524D01*
X107615955Y-94884524D02*
X107568336Y-94884524D01*
X107568336Y-94884524D02*
X107544527Y-94872619D01*
X107544527Y-94872619D02*
X107532622Y-94860714D01*
X107532622Y-94860714D02*
X107520717Y-94836905D01*
X106689765Y-94170238D02*
X106701670Y-94158334D01*
X106701670Y-94158334D02*
X106713574Y-94122619D01*
X106713574Y-94122619D02*
X106713574Y-94098810D01*
X106713574Y-94098810D02*
X106701670Y-94063096D01*
X106701670Y-94063096D02*
X106677860Y-94039286D01*
X106677860Y-94039286D02*
X106654050Y-94027381D01*
X106654050Y-94027381D02*
X106606431Y-94015477D01*
X106606431Y-94015477D02*
X106570717Y-94015477D01*
X106570717Y-94015477D02*
X106523098Y-94027381D01*
X106523098Y-94027381D02*
X106499289Y-94039286D01*
X106499289Y-94039286D02*
X106475479Y-94063096D01*
X106475479Y-94063096D02*
X106463574Y-94098810D01*
X106463574Y-94098810D02*
X106463574Y-94122619D01*
X106463574Y-94122619D02*
X106475479Y-94158334D01*
X106475479Y-94158334D02*
X106487384Y-94170238D01*
X106713574Y-94408334D02*
X106713574Y-94265477D01*
X106713574Y-94336905D02*
X106463574Y-94336905D01*
X106463574Y-94336905D02*
X106499289Y-94313096D01*
X106499289Y-94313096D02*
X106523098Y-94289286D01*
X106523098Y-94289286D02*
X106535003Y-94265477D01*
X106487384Y-94503572D02*
X106475479Y-94515476D01*
X106475479Y-94515476D02*
X106463574Y-94539286D01*
X106463574Y-94539286D02*
X106463574Y-94598810D01*
X106463574Y-94598810D02*
X106475479Y-94622619D01*
X106475479Y-94622619D02*
X106487384Y-94634524D01*
X106487384Y-94634524D02*
X106511193Y-94646429D01*
X106511193Y-94646429D02*
X106535003Y-94646429D01*
X106535003Y-94646429D02*
X106570717Y-94634524D01*
X106570717Y-94634524D02*
X106713574Y-94491667D01*
X106713574Y-94491667D02*
X106713574Y-94646429D01*
X106463574Y-94801190D02*
X106463574Y-94825000D01*
X106463574Y-94825000D02*
X106475479Y-94848809D01*
X106475479Y-94848809D02*
X106487384Y-94860714D01*
X106487384Y-94860714D02*
X106511193Y-94872619D01*
X106511193Y-94872619D02*
X106558812Y-94884524D01*
X106558812Y-94884524D02*
X106618336Y-94884524D01*
X106618336Y-94884524D02*
X106665955Y-94872619D01*
X106665955Y-94872619D02*
X106689765Y-94860714D01*
X106689765Y-94860714D02*
X106701670Y-94848809D01*
X106701670Y-94848809D02*
X106713574Y-94825000D01*
X106713574Y-94825000D02*
X106713574Y-94801190D01*
X106713574Y-94801190D02*
X106701670Y-94777381D01*
X106701670Y-94777381D02*
X106689765Y-94765476D01*
X106689765Y-94765476D02*
X106665955Y-94753571D01*
X106665955Y-94753571D02*
X106618336Y-94741667D01*
X106618336Y-94741667D02*
X106558812Y-94741667D01*
X106558812Y-94741667D02*
X106511193Y-94753571D01*
X106511193Y-94753571D02*
X106487384Y-94765476D01*
X106487384Y-94765476D02*
X106475479Y-94777381D01*
X106475479Y-94777381D02*
X106463574Y-94801190D01*
D12*
X126109523Y-99712404D02*
X126109523Y-99914785D01*
X126109523Y-99914785D02*
X126097618Y-99938595D01*
X126097618Y-99938595D02*
X126085713Y-99950500D01*
X126085713Y-99950500D02*
X126061904Y-99962404D01*
X126061904Y-99962404D02*
X126014285Y-99962404D01*
X126014285Y-99962404D02*
X125990475Y-99950500D01*
X125990475Y-99950500D02*
X125978570Y-99938595D01*
X125978570Y-99938595D02*
X125966666Y-99914785D01*
X125966666Y-99914785D02*
X125966666Y-99712404D01*
X125859522Y-99736214D02*
X125847618Y-99724309D01*
X125847618Y-99724309D02*
X125823808Y-99712404D01*
X125823808Y-99712404D02*
X125764284Y-99712404D01*
X125764284Y-99712404D02*
X125740475Y-99724309D01*
X125740475Y-99724309D02*
X125728570Y-99736214D01*
X125728570Y-99736214D02*
X125716665Y-99760023D01*
X125716665Y-99760023D02*
X125716665Y-99783833D01*
X125716665Y-99783833D02*
X125728570Y-99819547D01*
X125728570Y-99819547D02*
X125871427Y-99962404D01*
X125871427Y-99962404D02*
X125716665Y-99962404D01*
X125633332Y-99712404D02*
X125466666Y-99712404D01*
X125466666Y-99712404D02*
X125573808Y-99962404D01*
X126349999Y-99362404D02*
X126349999Y-99421928D01*
X126409523Y-99398119D02*
X126349999Y-99421928D01*
X126349999Y-99421928D02*
X126290476Y-99398119D01*
X126385714Y-99469547D02*
X126349999Y-99421928D01*
X126349999Y-99421928D02*
X126314285Y-99469547D01*
D10*
X68657142Y-121443832D02*
X68676190Y-121462880D01*
X68676190Y-121462880D02*
X68733332Y-121481927D01*
X68733332Y-121481927D02*
X68771428Y-121481927D01*
X68771428Y-121481927D02*
X68828571Y-121462880D01*
X68828571Y-121462880D02*
X68866666Y-121424784D01*
X68866666Y-121424784D02*
X68885713Y-121386689D01*
X68885713Y-121386689D02*
X68904761Y-121310499D01*
X68904761Y-121310499D02*
X68904761Y-121253356D01*
X68904761Y-121253356D02*
X68885713Y-121177165D01*
X68885713Y-121177165D02*
X68866666Y-121139070D01*
X68866666Y-121139070D02*
X68828571Y-121100975D01*
X68828571Y-121100975D02*
X68771428Y-121081927D01*
X68771428Y-121081927D02*
X68733332Y-121081927D01*
X68733332Y-121081927D02*
X68676190Y-121100975D01*
X68676190Y-121100975D02*
X68657142Y-121120022D01*
X68276190Y-121481927D02*
X68504761Y-121481927D01*
X68390475Y-121481927D02*
X68390475Y-121081927D01*
X68390475Y-121081927D02*
X68428571Y-121139070D01*
X68428571Y-121139070D02*
X68466666Y-121177165D01*
X68466666Y-121177165D02*
X68504761Y-121196213D01*
X68142857Y-121081927D02*
X67876190Y-121081927D01*
X67876190Y-121081927D02*
X68047619Y-121481927D01*
D12*
X130959523Y-99712404D02*
X130959523Y-99914785D01*
X130959523Y-99914785D02*
X130947618Y-99938595D01*
X130947618Y-99938595D02*
X130935713Y-99950500D01*
X130935713Y-99950500D02*
X130911904Y-99962404D01*
X130911904Y-99962404D02*
X130864285Y-99962404D01*
X130864285Y-99962404D02*
X130840475Y-99950500D01*
X130840475Y-99950500D02*
X130828570Y-99938595D01*
X130828570Y-99938595D02*
X130816666Y-99914785D01*
X130816666Y-99914785D02*
X130816666Y-99712404D01*
X130709522Y-99736214D02*
X130697618Y-99724309D01*
X130697618Y-99724309D02*
X130673808Y-99712404D01*
X130673808Y-99712404D02*
X130614284Y-99712404D01*
X130614284Y-99712404D02*
X130590475Y-99724309D01*
X130590475Y-99724309D02*
X130578570Y-99736214D01*
X130578570Y-99736214D02*
X130566665Y-99760023D01*
X130566665Y-99760023D02*
X130566665Y-99783833D01*
X130566665Y-99783833D02*
X130578570Y-99819547D01*
X130578570Y-99819547D02*
X130721427Y-99962404D01*
X130721427Y-99962404D02*
X130566665Y-99962404D01*
X130352380Y-99712404D02*
X130399999Y-99712404D01*
X130399999Y-99712404D02*
X130423808Y-99724309D01*
X130423808Y-99724309D02*
X130435713Y-99736214D01*
X130435713Y-99736214D02*
X130459523Y-99771928D01*
X130459523Y-99771928D02*
X130471427Y-99819547D01*
X130471427Y-99819547D02*
X130471427Y-99914785D01*
X130471427Y-99914785D02*
X130459523Y-99938595D01*
X130459523Y-99938595D02*
X130447618Y-99950500D01*
X130447618Y-99950500D02*
X130423808Y-99962404D01*
X130423808Y-99962404D02*
X130376189Y-99962404D01*
X130376189Y-99962404D02*
X130352380Y-99950500D01*
X130352380Y-99950500D02*
X130340475Y-99938595D01*
X130340475Y-99938595D02*
X130328570Y-99914785D01*
X130328570Y-99914785D02*
X130328570Y-99855261D01*
X130328570Y-99855261D02*
X130340475Y-99831452D01*
X130340475Y-99831452D02*
X130352380Y-99819547D01*
X130352380Y-99819547D02*
X130376189Y-99807642D01*
X130376189Y-99807642D02*
X130423808Y-99807642D01*
X130423808Y-99807642D02*
X130447618Y-99819547D01*
X130447618Y-99819547D02*
X130459523Y-99831452D01*
X130459523Y-99831452D02*
X130471427Y-99855261D01*
X130099999Y-100062404D02*
X130099999Y-100121928D01*
X130159523Y-100098119D02*
X130099999Y-100121928D01*
X130099999Y-100121928D02*
X130040476Y-100098119D01*
X130135714Y-100169547D02*
X130099999Y-100121928D01*
X130099999Y-100121928D02*
X130064285Y-100169547D01*
D11*
X112789765Y-94195238D02*
X112801670Y-94183334D01*
X112801670Y-94183334D02*
X112813574Y-94147619D01*
X112813574Y-94147619D02*
X112813574Y-94123810D01*
X112813574Y-94123810D02*
X112801670Y-94088096D01*
X112801670Y-94088096D02*
X112777860Y-94064286D01*
X112777860Y-94064286D02*
X112754050Y-94052381D01*
X112754050Y-94052381D02*
X112706431Y-94040477D01*
X112706431Y-94040477D02*
X112670717Y-94040477D01*
X112670717Y-94040477D02*
X112623098Y-94052381D01*
X112623098Y-94052381D02*
X112599289Y-94064286D01*
X112599289Y-94064286D02*
X112575479Y-94088096D01*
X112575479Y-94088096D02*
X112563574Y-94123810D01*
X112563574Y-94123810D02*
X112563574Y-94147619D01*
X112563574Y-94147619D02*
X112575479Y-94183334D01*
X112575479Y-94183334D02*
X112587384Y-94195238D01*
X112813574Y-94433334D02*
X112813574Y-94290477D01*
X112813574Y-94361905D02*
X112563574Y-94361905D01*
X112563574Y-94361905D02*
X112599289Y-94338096D01*
X112599289Y-94338096D02*
X112623098Y-94314286D01*
X112623098Y-94314286D02*
X112635003Y-94290477D01*
X112813574Y-94671429D02*
X112813574Y-94528572D01*
X112813574Y-94600000D02*
X112563574Y-94600000D01*
X112563574Y-94600000D02*
X112599289Y-94576191D01*
X112599289Y-94576191D02*
X112623098Y-94552381D01*
X112623098Y-94552381D02*
X112635003Y-94528572D01*
X112563574Y-94897619D02*
X112563574Y-94778571D01*
X112563574Y-94778571D02*
X112682622Y-94766667D01*
X112682622Y-94766667D02*
X112670717Y-94778571D01*
X112670717Y-94778571D02*
X112658812Y-94802381D01*
X112658812Y-94802381D02*
X112658812Y-94861905D01*
X112658812Y-94861905D02*
X112670717Y-94885714D01*
X112670717Y-94885714D02*
X112682622Y-94897619D01*
X112682622Y-94897619D02*
X112706431Y-94909524D01*
X112706431Y-94909524D02*
X112765955Y-94909524D01*
X112765955Y-94909524D02*
X112789765Y-94897619D01*
X112789765Y-94897619D02*
X112801670Y-94885714D01*
X112801670Y-94885714D02*
X112813574Y-94861905D01*
X112813574Y-94861905D02*
X112813574Y-94802381D01*
X112813574Y-94802381D02*
X112801670Y-94778571D01*
X112801670Y-94778571D02*
X112789765Y-94766667D01*
D13*
X100785714Y-109766009D02*
X100642857Y-109813628D01*
X100642857Y-109813628D02*
X100595238Y-109861247D01*
X100595238Y-109861247D02*
X100547619Y-109956485D01*
X100547619Y-109956485D02*
X100547619Y-110099342D01*
X100547619Y-110099342D02*
X100595238Y-110194580D01*
X100595238Y-110194580D02*
X100642857Y-110242200D01*
X100642857Y-110242200D02*
X100738095Y-110289819D01*
X100738095Y-110289819D02*
X101119047Y-110289819D01*
X101119047Y-110289819D02*
X101119047Y-109289819D01*
X101119047Y-109289819D02*
X100785714Y-109289819D01*
X100785714Y-109289819D02*
X100690476Y-109337438D01*
X100690476Y-109337438D02*
X100642857Y-109385057D01*
X100642857Y-109385057D02*
X100595238Y-109480295D01*
X100595238Y-109480295D02*
X100595238Y-109575533D01*
X100595238Y-109575533D02*
X100642857Y-109670771D01*
X100642857Y-109670771D02*
X100690476Y-109718390D01*
X100690476Y-109718390D02*
X100785714Y-109766009D01*
X100785714Y-109766009D02*
X101119047Y-109766009D01*
X100261904Y-109289819D02*
X99690476Y-109289819D01*
X99976190Y-110289819D02*
X99976190Y-109289819D01*
X98833333Y-110289819D02*
X99404761Y-110289819D01*
X99119047Y-110289819D02*
X99119047Y-109289819D01*
X99119047Y-109289819D02*
X99214285Y-109432676D01*
X99214285Y-109432676D02*
X99309523Y-109527914D01*
X99309523Y-109527914D02*
X99404761Y-109575533D01*
X98614042Y-109789819D02*
X101344047Y-109789819D01*
D11*
X114789765Y-92340238D02*
X114801670Y-92328334D01*
X114801670Y-92328334D02*
X114813574Y-92292619D01*
X114813574Y-92292619D02*
X114813574Y-92268810D01*
X114813574Y-92268810D02*
X114801670Y-92233096D01*
X114801670Y-92233096D02*
X114777860Y-92209286D01*
X114777860Y-92209286D02*
X114754050Y-92197381D01*
X114754050Y-92197381D02*
X114706431Y-92185477D01*
X114706431Y-92185477D02*
X114670717Y-92185477D01*
X114670717Y-92185477D02*
X114623098Y-92197381D01*
X114623098Y-92197381D02*
X114599289Y-92209286D01*
X114599289Y-92209286D02*
X114575479Y-92233096D01*
X114575479Y-92233096D02*
X114563574Y-92268810D01*
X114563574Y-92268810D02*
X114563574Y-92292619D01*
X114563574Y-92292619D02*
X114575479Y-92328334D01*
X114575479Y-92328334D02*
X114587384Y-92340238D01*
X114813574Y-92578334D02*
X114813574Y-92435477D01*
X114813574Y-92506905D02*
X114563574Y-92506905D01*
X114563574Y-92506905D02*
X114599289Y-92483096D01*
X114599289Y-92483096D02*
X114623098Y-92459286D01*
X114623098Y-92459286D02*
X114635003Y-92435477D01*
X114813574Y-92816429D02*
X114813574Y-92673572D01*
X114813574Y-92745000D02*
X114563574Y-92745000D01*
X114563574Y-92745000D02*
X114599289Y-92721191D01*
X114599289Y-92721191D02*
X114623098Y-92697381D01*
X114623098Y-92697381D02*
X114635003Y-92673572D01*
X114563574Y-93030714D02*
X114563574Y-92983095D01*
X114563574Y-92983095D02*
X114575479Y-92959286D01*
X114575479Y-92959286D02*
X114587384Y-92947381D01*
X114587384Y-92947381D02*
X114623098Y-92923571D01*
X114623098Y-92923571D02*
X114670717Y-92911667D01*
X114670717Y-92911667D02*
X114765955Y-92911667D01*
X114765955Y-92911667D02*
X114789765Y-92923571D01*
X114789765Y-92923571D02*
X114801670Y-92935476D01*
X114801670Y-92935476D02*
X114813574Y-92959286D01*
X114813574Y-92959286D02*
X114813574Y-93006905D01*
X114813574Y-93006905D02*
X114801670Y-93030714D01*
X114801670Y-93030714D02*
X114789765Y-93042619D01*
X114789765Y-93042619D02*
X114765955Y-93054524D01*
X114765955Y-93054524D02*
X114706431Y-93054524D01*
X114706431Y-93054524D02*
X114682622Y-93042619D01*
X114682622Y-93042619D02*
X114670717Y-93030714D01*
X114670717Y-93030714D02*
X114658812Y-93006905D01*
X114658812Y-93006905D02*
X114658812Y-92959286D01*
X114658812Y-92959286D02*
X114670717Y-92935476D01*
X114670717Y-92935476D02*
X114682622Y-92923571D01*
X114682622Y-92923571D02*
X114706431Y-92911667D01*
D10*
X82057142Y-121081927D02*
X82190475Y-120891451D01*
X82285713Y-121081927D02*
X82285713Y-120681927D01*
X82285713Y-120681927D02*
X82133332Y-120681927D01*
X82133332Y-120681927D02*
X82095237Y-120700975D01*
X82095237Y-120700975D02*
X82076190Y-120720022D01*
X82076190Y-120720022D02*
X82057142Y-120758118D01*
X82057142Y-120758118D02*
X82057142Y-120815260D01*
X82057142Y-120815260D02*
X82076190Y-120853356D01*
X82076190Y-120853356D02*
X82095237Y-120872403D01*
X82095237Y-120872403D02*
X82133332Y-120891451D01*
X82133332Y-120891451D02*
X82285713Y-120891451D01*
X81904761Y-120720022D02*
X81885713Y-120700975D01*
X81885713Y-120700975D02*
X81847618Y-120681927D01*
X81847618Y-120681927D02*
X81752380Y-120681927D01*
X81752380Y-120681927D02*
X81714285Y-120700975D01*
X81714285Y-120700975D02*
X81695237Y-120720022D01*
X81695237Y-120720022D02*
X81676190Y-120758118D01*
X81676190Y-120758118D02*
X81676190Y-120796213D01*
X81676190Y-120796213D02*
X81695237Y-120853356D01*
X81695237Y-120853356D02*
X81923809Y-121081927D01*
X81923809Y-121081927D02*
X81676190Y-121081927D01*
X81542857Y-120681927D02*
X81295238Y-120681927D01*
X81295238Y-120681927D02*
X81428571Y-120834308D01*
X81428571Y-120834308D02*
X81371428Y-120834308D01*
X81371428Y-120834308D02*
X81333333Y-120853356D01*
X81333333Y-120853356D02*
X81314285Y-120872403D01*
X81314285Y-120872403D02*
X81295238Y-120910499D01*
X81295238Y-120910499D02*
X81295238Y-121005737D01*
X81295238Y-121005737D02*
X81314285Y-121043832D01*
X81314285Y-121043832D02*
X81333333Y-121062880D01*
X81333333Y-121062880D02*
X81371428Y-121081927D01*
X81371428Y-121081927D02*
X81485714Y-121081927D01*
X81485714Y-121081927D02*
X81523809Y-121062880D01*
X81523809Y-121062880D02*
X81542857Y-121043832D01*
D11*
X125430714Y-100839765D02*
X125442618Y-100851670D01*
X125442618Y-100851670D02*
X125478333Y-100863574D01*
X125478333Y-100863574D02*
X125502142Y-100863574D01*
X125502142Y-100863574D02*
X125537856Y-100851670D01*
X125537856Y-100851670D02*
X125561666Y-100827860D01*
X125561666Y-100827860D02*
X125573571Y-100804050D01*
X125573571Y-100804050D02*
X125585475Y-100756431D01*
X125585475Y-100756431D02*
X125585475Y-100720717D01*
X125585475Y-100720717D02*
X125573571Y-100673098D01*
X125573571Y-100673098D02*
X125561666Y-100649289D01*
X125561666Y-100649289D02*
X125537856Y-100625479D01*
X125537856Y-100625479D02*
X125502142Y-100613574D01*
X125502142Y-100613574D02*
X125478333Y-100613574D01*
X125478333Y-100613574D02*
X125442618Y-100625479D01*
X125442618Y-100625479D02*
X125430714Y-100637384D01*
X125192618Y-100863574D02*
X125335475Y-100863574D01*
X125264047Y-100863574D02*
X125264047Y-100613574D01*
X125264047Y-100613574D02*
X125287856Y-100649289D01*
X125287856Y-100649289D02*
X125311666Y-100673098D01*
X125311666Y-100673098D02*
X125335475Y-100685003D01*
X125073571Y-100863574D02*
X125025952Y-100863574D01*
X125025952Y-100863574D02*
X125002142Y-100851670D01*
X125002142Y-100851670D02*
X124990238Y-100839765D01*
X124990238Y-100839765D02*
X124966428Y-100804050D01*
X124966428Y-100804050D02*
X124954523Y-100756431D01*
X124954523Y-100756431D02*
X124954523Y-100661193D01*
X124954523Y-100661193D02*
X124966428Y-100637384D01*
X124966428Y-100637384D02*
X124978333Y-100625479D01*
X124978333Y-100625479D02*
X125002142Y-100613574D01*
X125002142Y-100613574D02*
X125049761Y-100613574D01*
X125049761Y-100613574D02*
X125073571Y-100625479D01*
X125073571Y-100625479D02*
X125085476Y-100637384D01*
X125085476Y-100637384D02*
X125097380Y-100661193D01*
X125097380Y-100661193D02*
X125097380Y-100720717D01*
X125097380Y-100720717D02*
X125085476Y-100744527D01*
X125085476Y-100744527D02*
X125073571Y-100756431D01*
X125073571Y-100756431D02*
X125049761Y-100768336D01*
X125049761Y-100768336D02*
X125002142Y-100768336D01*
X125002142Y-100768336D02*
X124978333Y-100756431D01*
X124978333Y-100756431D02*
X124966428Y-100744527D01*
X124966428Y-100744527D02*
X124954523Y-100720717D01*
D13*
X100233332Y-155704819D02*
X100233332Y-156514342D01*
X100233332Y-156514342D02*
X100185713Y-156609580D01*
X100185713Y-156609580D02*
X100138094Y-156657200D01*
X100138094Y-156657200D02*
X100042856Y-156704819D01*
X100042856Y-156704819D02*
X99852380Y-156704819D01*
X99852380Y-156704819D02*
X99757142Y-156657200D01*
X99757142Y-156657200D02*
X99709523Y-156609580D01*
X99709523Y-156609580D02*
X99661904Y-156514342D01*
X99661904Y-156514342D02*
X99661904Y-155704819D01*
X99233332Y-156657200D02*
X99090475Y-156704819D01*
X99090475Y-156704819D02*
X98852380Y-156704819D01*
X98852380Y-156704819D02*
X98757142Y-156657200D01*
X98757142Y-156657200D02*
X98709523Y-156609580D01*
X98709523Y-156609580D02*
X98661904Y-156514342D01*
X98661904Y-156514342D02*
X98661904Y-156419104D01*
X98661904Y-156419104D02*
X98709523Y-156323866D01*
X98709523Y-156323866D02*
X98757142Y-156276247D01*
X98757142Y-156276247D02*
X98852380Y-156228628D01*
X98852380Y-156228628D02*
X99042856Y-156181009D01*
X99042856Y-156181009D02*
X99138094Y-156133390D01*
X99138094Y-156133390D02*
X99185713Y-156085771D01*
X99185713Y-156085771D02*
X99233332Y-155990533D01*
X99233332Y-155990533D02*
X99233332Y-155895295D01*
X99233332Y-155895295D02*
X99185713Y-155800057D01*
X99185713Y-155800057D02*
X99138094Y-155752438D01*
X99138094Y-155752438D02*
X99042856Y-155704819D01*
X99042856Y-155704819D02*
X98804761Y-155704819D01*
X98804761Y-155704819D02*
X98661904Y-155752438D01*
X97899999Y-156181009D02*
X97757142Y-156228628D01*
X97757142Y-156228628D02*
X97709523Y-156276247D01*
X97709523Y-156276247D02*
X97661904Y-156371485D01*
X97661904Y-156371485D02*
X97661904Y-156514342D01*
X97661904Y-156514342D02*
X97709523Y-156609580D01*
X97709523Y-156609580D02*
X97757142Y-156657200D01*
X97757142Y-156657200D02*
X97852380Y-156704819D01*
X97852380Y-156704819D02*
X98233332Y-156704819D01*
X98233332Y-156704819D02*
X98233332Y-155704819D01*
X98233332Y-155704819D02*
X97899999Y-155704819D01*
X97899999Y-155704819D02*
X97804761Y-155752438D01*
X97804761Y-155752438D02*
X97757142Y-155800057D01*
X97757142Y-155800057D02*
X97709523Y-155895295D01*
X97709523Y-155895295D02*
X97709523Y-155990533D01*
X97709523Y-155990533D02*
X97757142Y-156085771D01*
X97757142Y-156085771D02*
X97804761Y-156133390D01*
X97804761Y-156133390D02*
X97899999Y-156181009D01*
X97899999Y-156181009D02*
X98233332Y-156181009D01*
X96804761Y-156038152D02*
X96804761Y-156704819D01*
X97042856Y-155657200D02*
X97280951Y-156371485D01*
X97280951Y-156371485D02*
X96661904Y-156371485D01*
X95757142Y-156704819D02*
X96328570Y-156704819D01*
X96042856Y-156704819D02*
X96042856Y-155704819D01*
X96042856Y-155704819D02*
X96138094Y-155847676D01*
X96138094Y-155847676D02*
X96233332Y-155942914D01*
X96233332Y-155942914D02*
X96328570Y-155990533D01*
X94852380Y-155704819D02*
X95328570Y-155704819D01*
X95328570Y-155704819D02*
X95376189Y-156181009D01*
X95376189Y-156181009D02*
X95328570Y-156133390D01*
X95328570Y-156133390D02*
X95233332Y-156085771D01*
X95233332Y-156085771D02*
X94995237Y-156085771D01*
X94995237Y-156085771D02*
X94899999Y-156133390D01*
X94899999Y-156133390D02*
X94852380Y-156181009D01*
X94852380Y-156181009D02*
X94804761Y-156276247D01*
X94804761Y-156276247D02*
X94804761Y-156514342D01*
X94804761Y-156514342D02*
X94852380Y-156609580D01*
X94852380Y-156609580D02*
X94899999Y-156657200D01*
X94899999Y-156657200D02*
X94995237Y-156704819D01*
X94995237Y-156704819D02*
X95233332Y-156704819D01*
X95233332Y-156704819D02*
X95328570Y-156657200D01*
X95328570Y-156657200D02*
X95376189Y-156609580D01*
X93852380Y-156704819D02*
X94423808Y-156704819D01*
X94138094Y-156704819D02*
X94138094Y-155704819D01*
X94138094Y-155704819D02*
X94233332Y-155847676D01*
X94233332Y-155847676D02*
X94328570Y-155942914D01*
X94328570Y-155942914D02*
X94423808Y-155990533D01*
X93423808Y-156323866D02*
X92661904Y-156323866D01*
X91661904Y-155752438D02*
X91757142Y-155704819D01*
X91757142Y-155704819D02*
X91899999Y-155704819D01*
X91899999Y-155704819D02*
X92042856Y-155752438D01*
X92042856Y-155752438D02*
X92138094Y-155847676D01*
X92138094Y-155847676D02*
X92185713Y-155942914D01*
X92185713Y-155942914D02*
X92233332Y-156133390D01*
X92233332Y-156133390D02*
X92233332Y-156276247D01*
X92233332Y-156276247D02*
X92185713Y-156466723D01*
X92185713Y-156466723D02*
X92138094Y-156561961D01*
X92138094Y-156561961D02*
X92042856Y-156657200D01*
X92042856Y-156657200D02*
X91899999Y-156704819D01*
X91899999Y-156704819D02*
X91804761Y-156704819D01*
X91804761Y-156704819D02*
X91661904Y-156657200D01*
X91661904Y-156657200D02*
X91614285Y-156609580D01*
X91614285Y-156609580D02*
X91614285Y-156276247D01*
X91614285Y-156276247D02*
X91804761Y-156276247D01*
X90852380Y-156181009D02*
X91185713Y-156181009D01*
X91185713Y-156704819D02*
X91185713Y-155704819D01*
X91185713Y-155704819D02*
X90709523Y-155704819D01*
X90328570Y-156323866D02*
X89566666Y-156323866D01*
X88519047Y-156609580D02*
X88566666Y-156657200D01*
X88566666Y-156657200D02*
X88709523Y-156704819D01*
X88709523Y-156704819D02*
X88804761Y-156704819D01*
X88804761Y-156704819D02*
X88947618Y-156657200D01*
X88947618Y-156657200D02*
X89042856Y-156561961D01*
X89042856Y-156561961D02*
X89090475Y-156466723D01*
X89090475Y-156466723D02*
X89138094Y-156276247D01*
X89138094Y-156276247D02*
X89138094Y-156133390D01*
X89138094Y-156133390D02*
X89090475Y-155942914D01*
X89090475Y-155942914D02*
X89042856Y-155847676D01*
X89042856Y-155847676D02*
X88947618Y-155752438D01*
X88947618Y-155752438D02*
X88804761Y-155704819D01*
X88804761Y-155704819D02*
X88709523Y-155704819D01*
X88709523Y-155704819D02*
X88566666Y-155752438D01*
X88566666Y-155752438D02*
X88519047Y-155800057D01*
D11*
X78289765Y-120739285D02*
X78301670Y-120727381D01*
X78301670Y-120727381D02*
X78313574Y-120691666D01*
X78313574Y-120691666D02*
X78313574Y-120667857D01*
X78313574Y-120667857D02*
X78301670Y-120632143D01*
X78301670Y-120632143D02*
X78277860Y-120608333D01*
X78277860Y-120608333D02*
X78254050Y-120596428D01*
X78254050Y-120596428D02*
X78206431Y-120584524D01*
X78206431Y-120584524D02*
X78170717Y-120584524D01*
X78170717Y-120584524D02*
X78123098Y-120596428D01*
X78123098Y-120596428D02*
X78099289Y-120608333D01*
X78099289Y-120608333D02*
X78075479Y-120632143D01*
X78075479Y-120632143D02*
X78063574Y-120667857D01*
X78063574Y-120667857D02*
X78063574Y-120691666D01*
X78063574Y-120691666D02*
X78075479Y-120727381D01*
X78075479Y-120727381D02*
X78087384Y-120739285D01*
X78063574Y-120822619D02*
X78063574Y-120977381D01*
X78063574Y-120977381D02*
X78158812Y-120894047D01*
X78158812Y-120894047D02*
X78158812Y-120929762D01*
X78158812Y-120929762D02*
X78170717Y-120953571D01*
X78170717Y-120953571D02*
X78182622Y-120965476D01*
X78182622Y-120965476D02*
X78206431Y-120977381D01*
X78206431Y-120977381D02*
X78265955Y-120977381D01*
X78265955Y-120977381D02*
X78289765Y-120965476D01*
X78289765Y-120965476D02*
X78301670Y-120953571D01*
X78301670Y-120953571D02*
X78313574Y-120929762D01*
X78313574Y-120929762D02*
X78313574Y-120858333D01*
X78313574Y-120858333D02*
X78301670Y-120834524D01*
X78301670Y-120834524D02*
X78289765Y-120822619D01*
X78063574Y-121060714D02*
X78063574Y-121227380D01*
X78063574Y-121227380D02*
X78313574Y-121120238D01*
D10*
X115897618Y-100643832D02*
X115916666Y-100662880D01*
X115916666Y-100662880D02*
X115973808Y-100681927D01*
X115973808Y-100681927D02*
X116011904Y-100681927D01*
X116011904Y-100681927D02*
X116069047Y-100662880D01*
X116069047Y-100662880D02*
X116107142Y-100624784D01*
X116107142Y-100624784D02*
X116126189Y-100586689D01*
X116126189Y-100586689D02*
X116145237Y-100510499D01*
X116145237Y-100510499D02*
X116145237Y-100453356D01*
X116145237Y-100453356D02*
X116126189Y-100377165D01*
X116126189Y-100377165D02*
X116107142Y-100339070D01*
X116107142Y-100339070D02*
X116069047Y-100300975D01*
X116069047Y-100300975D02*
X116011904Y-100281927D01*
X116011904Y-100281927D02*
X115973808Y-100281927D01*
X115973808Y-100281927D02*
X115916666Y-100300975D01*
X115916666Y-100300975D02*
X115897618Y-100320022D01*
X115516666Y-100681927D02*
X115745237Y-100681927D01*
X115630951Y-100681927D02*
X115630951Y-100281927D01*
X115630951Y-100281927D02*
X115669047Y-100339070D01*
X115669047Y-100339070D02*
X115707142Y-100377165D01*
X115707142Y-100377165D02*
X115745237Y-100396213D01*
X115364285Y-100320022D02*
X115345237Y-100300975D01*
X115345237Y-100300975D02*
X115307142Y-100281927D01*
X115307142Y-100281927D02*
X115211904Y-100281927D01*
X115211904Y-100281927D02*
X115173809Y-100300975D01*
X115173809Y-100300975D02*
X115154761Y-100320022D01*
X115154761Y-100320022D02*
X115135714Y-100358118D01*
X115135714Y-100358118D02*
X115135714Y-100396213D01*
X115135714Y-100396213D02*
X115154761Y-100453356D01*
X115154761Y-100453356D02*
X115383333Y-100681927D01*
X115383333Y-100681927D02*
X115135714Y-100681927D01*
X114792857Y-100415260D02*
X114792857Y-100681927D01*
X114888095Y-100262880D02*
X114983333Y-100548594D01*
X114983333Y-100548594D02*
X114735714Y-100548594D01*
D11*
X115179761Y-101789765D02*
X115191665Y-101801670D01*
X115191665Y-101801670D02*
X115227380Y-101813574D01*
X115227380Y-101813574D02*
X115251189Y-101813574D01*
X115251189Y-101813574D02*
X115286903Y-101801670D01*
X115286903Y-101801670D02*
X115310713Y-101777860D01*
X115310713Y-101777860D02*
X115322618Y-101754050D01*
X115322618Y-101754050D02*
X115334522Y-101706431D01*
X115334522Y-101706431D02*
X115334522Y-101670717D01*
X115334522Y-101670717D02*
X115322618Y-101623098D01*
X115322618Y-101623098D02*
X115310713Y-101599289D01*
X115310713Y-101599289D02*
X115286903Y-101575479D01*
X115286903Y-101575479D02*
X115251189Y-101563574D01*
X115251189Y-101563574D02*
X115227380Y-101563574D01*
X115227380Y-101563574D02*
X115191665Y-101575479D01*
X115191665Y-101575479D02*
X115179761Y-101587384D01*
X114941665Y-101813574D02*
X115084522Y-101813574D01*
X115013094Y-101813574D02*
X115013094Y-101563574D01*
X115013094Y-101563574D02*
X115036903Y-101599289D01*
X115036903Y-101599289D02*
X115060713Y-101623098D01*
X115060713Y-101623098D02*
X115084522Y-101635003D01*
X114846427Y-101587384D02*
X114834523Y-101575479D01*
X114834523Y-101575479D02*
X114810713Y-101563574D01*
X114810713Y-101563574D02*
X114751189Y-101563574D01*
X114751189Y-101563574D02*
X114727380Y-101575479D01*
X114727380Y-101575479D02*
X114715475Y-101587384D01*
X114715475Y-101587384D02*
X114703570Y-101611193D01*
X114703570Y-101611193D02*
X114703570Y-101635003D01*
X114703570Y-101635003D02*
X114715475Y-101670717D01*
X114715475Y-101670717D02*
X114858332Y-101813574D01*
X114858332Y-101813574D02*
X114703570Y-101813574D01*
X114489285Y-101563574D02*
X114536904Y-101563574D01*
X114536904Y-101563574D02*
X114560713Y-101575479D01*
X114560713Y-101575479D02*
X114572618Y-101587384D01*
X114572618Y-101587384D02*
X114596428Y-101623098D01*
X114596428Y-101623098D02*
X114608332Y-101670717D01*
X114608332Y-101670717D02*
X114608332Y-101765955D01*
X114608332Y-101765955D02*
X114596428Y-101789765D01*
X114596428Y-101789765D02*
X114584523Y-101801670D01*
X114584523Y-101801670D02*
X114560713Y-101813574D01*
X114560713Y-101813574D02*
X114513094Y-101813574D01*
X114513094Y-101813574D02*
X114489285Y-101801670D01*
X114489285Y-101801670D02*
X114477380Y-101789765D01*
X114477380Y-101789765D02*
X114465475Y-101765955D01*
X114465475Y-101765955D02*
X114465475Y-101706431D01*
X114465475Y-101706431D02*
X114477380Y-101682622D01*
X114477380Y-101682622D02*
X114489285Y-101670717D01*
X114489285Y-101670717D02*
X114513094Y-101658812D01*
X114513094Y-101658812D02*
X114560713Y-101658812D01*
X114560713Y-101658812D02*
X114584523Y-101670717D01*
X114584523Y-101670717D02*
X114596428Y-101682622D01*
X114596428Y-101682622D02*
X114608332Y-101706431D01*
X69260714Y-119589765D02*
X69272618Y-119601670D01*
X69272618Y-119601670D02*
X69308333Y-119613574D01*
X69308333Y-119613574D02*
X69332142Y-119613574D01*
X69332142Y-119613574D02*
X69367856Y-119601670D01*
X69367856Y-119601670D02*
X69391666Y-119577860D01*
X69391666Y-119577860D02*
X69403571Y-119554050D01*
X69403571Y-119554050D02*
X69415475Y-119506431D01*
X69415475Y-119506431D02*
X69415475Y-119470717D01*
X69415475Y-119470717D02*
X69403571Y-119423098D01*
X69403571Y-119423098D02*
X69391666Y-119399289D01*
X69391666Y-119399289D02*
X69367856Y-119375479D01*
X69367856Y-119375479D02*
X69332142Y-119363574D01*
X69332142Y-119363574D02*
X69308333Y-119363574D01*
X69308333Y-119363574D02*
X69272618Y-119375479D01*
X69272618Y-119375479D02*
X69260714Y-119387384D01*
X69022618Y-119613574D02*
X69165475Y-119613574D01*
X69094047Y-119613574D02*
X69094047Y-119363574D01*
X69094047Y-119363574D02*
X69117856Y-119399289D01*
X69117856Y-119399289D02*
X69141666Y-119423098D01*
X69141666Y-119423098D02*
X69165475Y-119435003D01*
X68784523Y-119613574D02*
X68927380Y-119613574D01*
X68855952Y-119613574D02*
X68855952Y-119363574D01*
X68855952Y-119363574D02*
X68879761Y-119399289D01*
X68879761Y-119399289D02*
X68903571Y-119423098D01*
X68903571Y-119423098D02*
X68927380Y-119435003D01*
D13*
X100788200Y-128562267D02*
X100835819Y-128705124D01*
X100835819Y-128705124D02*
X100835819Y-128943219D01*
X100835819Y-128943219D02*
X100788200Y-129038457D01*
X100788200Y-129038457D02*
X100740580Y-129086076D01*
X100740580Y-129086076D02*
X100645342Y-129133695D01*
X100645342Y-129133695D02*
X100550104Y-129133695D01*
X100550104Y-129133695D02*
X100454866Y-129086076D01*
X100454866Y-129086076D02*
X100407247Y-129038457D01*
X100407247Y-129038457D02*
X100359628Y-128943219D01*
X100359628Y-128943219D02*
X100312009Y-128752743D01*
X100312009Y-128752743D02*
X100264390Y-128657505D01*
X100264390Y-128657505D02*
X100216771Y-128609886D01*
X100216771Y-128609886D02*
X100121533Y-128562267D01*
X100121533Y-128562267D02*
X100026295Y-128562267D01*
X100026295Y-128562267D02*
X99931057Y-128609886D01*
X99931057Y-128609886D02*
X99883438Y-128657505D01*
X99883438Y-128657505D02*
X99835819Y-128752743D01*
X99835819Y-128752743D02*
X99835819Y-128990838D01*
X99835819Y-128990838D02*
X99883438Y-129133695D01*
X99835819Y-129467029D02*
X100835819Y-129705124D01*
X100835819Y-129705124D02*
X100121533Y-129895600D01*
X100121533Y-129895600D02*
X100835819Y-130086076D01*
X100835819Y-130086076D02*
X99835819Y-130324172D01*
X100835819Y-131228933D02*
X100835819Y-130657505D01*
X100835819Y-130943219D02*
X99835819Y-130943219D01*
X99835819Y-130943219D02*
X99978676Y-130847981D01*
X99978676Y-130847981D02*
X100073914Y-130752743D01*
X100073914Y-130752743D02*
X100121533Y-130657505D01*
X94859819Y-131841666D02*
X95574104Y-131841666D01*
X95574104Y-131841666D02*
X95716961Y-131794047D01*
X95716961Y-131794047D02*
X95812200Y-131698809D01*
X95812200Y-131698809D02*
X95859819Y-131555952D01*
X95859819Y-131555952D02*
X95859819Y-131460714D01*
X94859819Y-132222619D02*
X94859819Y-132841666D01*
X94859819Y-132841666D02*
X95240771Y-132508333D01*
X95240771Y-132508333D02*
X95240771Y-132651190D01*
X95240771Y-132651190D02*
X95288390Y-132746428D01*
X95288390Y-132746428D02*
X95336009Y-132794047D01*
X95336009Y-132794047D02*
X95431247Y-132841666D01*
X95431247Y-132841666D02*
X95669342Y-132841666D01*
X95669342Y-132841666D02*
X95764580Y-132794047D01*
X95764580Y-132794047D02*
X95812200Y-132746428D01*
X95812200Y-132746428D02*
X95859819Y-132651190D01*
X95859819Y-132651190D02*
X95859819Y-132365476D01*
X95859819Y-132365476D02*
X95812200Y-132270238D01*
X95812200Y-132270238D02*
X95764580Y-132222619D01*
D11*
X113839765Y-92340238D02*
X113851670Y-92328334D01*
X113851670Y-92328334D02*
X113863574Y-92292619D01*
X113863574Y-92292619D02*
X113863574Y-92268810D01*
X113863574Y-92268810D02*
X113851670Y-92233096D01*
X113851670Y-92233096D02*
X113827860Y-92209286D01*
X113827860Y-92209286D02*
X113804050Y-92197381D01*
X113804050Y-92197381D02*
X113756431Y-92185477D01*
X113756431Y-92185477D02*
X113720717Y-92185477D01*
X113720717Y-92185477D02*
X113673098Y-92197381D01*
X113673098Y-92197381D02*
X113649289Y-92209286D01*
X113649289Y-92209286D02*
X113625479Y-92233096D01*
X113625479Y-92233096D02*
X113613574Y-92268810D01*
X113613574Y-92268810D02*
X113613574Y-92292619D01*
X113613574Y-92292619D02*
X113625479Y-92328334D01*
X113625479Y-92328334D02*
X113637384Y-92340238D01*
X113863574Y-92578334D02*
X113863574Y-92435477D01*
X113863574Y-92506905D02*
X113613574Y-92506905D01*
X113613574Y-92506905D02*
X113649289Y-92483096D01*
X113649289Y-92483096D02*
X113673098Y-92459286D01*
X113673098Y-92459286D02*
X113685003Y-92435477D01*
X113863574Y-92816429D02*
X113863574Y-92673572D01*
X113863574Y-92745000D02*
X113613574Y-92745000D01*
X113613574Y-92745000D02*
X113649289Y-92721191D01*
X113649289Y-92721191D02*
X113673098Y-92697381D01*
X113673098Y-92697381D02*
X113685003Y-92673572D01*
X113613574Y-92899762D02*
X113613574Y-93054524D01*
X113613574Y-93054524D02*
X113708812Y-92971190D01*
X113708812Y-92971190D02*
X113708812Y-93006905D01*
X113708812Y-93006905D02*
X113720717Y-93030714D01*
X113720717Y-93030714D02*
X113732622Y-93042619D01*
X113732622Y-93042619D02*
X113756431Y-93054524D01*
X113756431Y-93054524D02*
X113815955Y-93054524D01*
X113815955Y-93054524D02*
X113839765Y-93042619D01*
X113839765Y-93042619D02*
X113851670Y-93030714D01*
X113851670Y-93030714D02*
X113863574Y-93006905D01*
X113863574Y-93006905D02*
X113863574Y-92935476D01*
X113863574Y-92935476D02*
X113851670Y-92911667D01*
X113851670Y-92911667D02*
X113839765Y-92899762D01*
X117639765Y-92340238D02*
X117651670Y-92328334D01*
X117651670Y-92328334D02*
X117663574Y-92292619D01*
X117663574Y-92292619D02*
X117663574Y-92268810D01*
X117663574Y-92268810D02*
X117651670Y-92233096D01*
X117651670Y-92233096D02*
X117627860Y-92209286D01*
X117627860Y-92209286D02*
X117604050Y-92197381D01*
X117604050Y-92197381D02*
X117556431Y-92185477D01*
X117556431Y-92185477D02*
X117520717Y-92185477D01*
X117520717Y-92185477D02*
X117473098Y-92197381D01*
X117473098Y-92197381D02*
X117449289Y-92209286D01*
X117449289Y-92209286D02*
X117425479Y-92233096D01*
X117425479Y-92233096D02*
X117413574Y-92268810D01*
X117413574Y-92268810D02*
X117413574Y-92292619D01*
X117413574Y-92292619D02*
X117425479Y-92328334D01*
X117425479Y-92328334D02*
X117437384Y-92340238D01*
X117663574Y-92578334D02*
X117663574Y-92435477D01*
X117663574Y-92506905D02*
X117413574Y-92506905D01*
X117413574Y-92506905D02*
X117449289Y-92483096D01*
X117449289Y-92483096D02*
X117473098Y-92459286D01*
X117473098Y-92459286D02*
X117485003Y-92435477D01*
X117663574Y-92816429D02*
X117663574Y-92673572D01*
X117663574Y-92745000D02*
X117413574Y-92745000D01*
X117413574Y-92745000D02*
X117449289Y-92721191D01*
X117449289Y-92721191D02*
X117473098Y-92697381D01*
X117473098Y-92697381D02*
X117485003Y-92673572D01*
X117496908Y-93030714D02*
X117663574Y-93030714D01*
X117401670Y-92971190D02*
X117580241Y-92911667D01*
X117580241Y-92911667D02*
X117580241Y-93066428D01*
X111589765Y-94170238D02*
X111601670Y-94158334D01*
X111601670Y-94158334D02*
X111613574Y-94122619D01*
X111613574Y-94122619D02*
X111613574Y-94098810D01*
X111613574Y-94098810D02*
X111601670Y-94063096D01*
X111601670Y-94063096D02*
X111577860Y-94039286D01*
X111577860Y-94039286D02*
X111554050Y-94027381D01*
X111554050Y-94027381D02*
X111506431Y-94015477D01*
X111506431Y-94015477D02*
X111470717Y-94015477D01*
X111470717Y-94015477D02*
X111423098Y-94027381D01*
X111423098Y-94027381D02*
X111399289Y-94039286D01*
X111399289Y-94039286D02*
X111375479Y-94063096D01*
X111375479Y-94063096D02*
X111363574Y-94098810D01*
X111363574Y-94098810D02*
X111363574Y-94122619D01*
X111363574Y-94122619D02*
X111375479Y-94158334D01*
X111375479Y-94158334D02*
X111387384Y-94170238D01*
X111613574Y-94408334D02*
X111613574Y-94265477D01*
X111613574Y-94336905D02*
X111363574Y-94336905D01*
X111363574Y-94336905D02*
X111399289Y-94313096D01*
X111399289Y-94313096D02*
X111423098Y-94289286D01*
X111423098Y-94289286D02*
X111435003Y-94265477D01*
X111387384Y-94503572D02*
X111375479Y-94515476D01*
X111375479Y-94515476D02*
X111363574Y-94539286D01*
X111363574Y-94539286D02*
X111363574Y-94598810D01*
X111363574Y-94598810D02*
X111375479Y-94622619D01*
X111375479Y-94622619D02*
X111387384Y-94634524D01*
X111387384Y-94634524D02*
X111411193Y-94646429D01*
X111411193Y-94646429D02*
X111435003Y-94646429D01*
X111435003Y-94646429D02*
X111470717Y-94634524D01*
X111470717Y-94634524D02*
X111613574Y-94491667D01*
X111613574Y-94491667D02*
X111613574Y-94646429D01*
X111387384Y-94741667D02*
X111375479Y-94753571D01*
X111375479Y-94753571D02*
X111363574Y-94777381D01*
X111363574Y-94777381D02*
X111363574Y-94836905D01*
X111363574Y-94836905D02*
X111375479Y-94860714D01*
X111375479Y-94860714D02*
X111387384Y-94872619D01*
X111387384Y-94872619D02*
X111411193Y-94884524D01*
X111411193Y-94884524D02*
X111435003Y-94884524D01*
X111435003Y-94884524D02*
X111470717Y-94872619D01*
X111470717Y-94872619D02*
X111613574Y-94729762D01*
X111613574Y-94729762D02*
X111613574Y-94884524D01*
X105739765Y-94170238D02*
X105751670Y-94158334D01*
X105751670Y-94158334D02*
X105763574Y-94122619D01*
X105763574Y-94122619D02*
X105763574Y-94098810D01*
X105763574Y-94098810D02*
X105751670Y-94063096D01*
X105751670Y-94063096D02*
X105727860Y-94039286D01*
X105727860Y-94039286D02*
X105704050Y-94027381D01*
X105704050Y-94027381D02*
X105656431Y-94015477D01*
X105656431Y-94015477D02*
X105620717Y-94015477D01*
X105620717Y-94015477D02*
X105573098Y-94027381D01*
X105573098Y-94027381D02*
X105549289Y-94039286D01*
X105549289Y-94039286D02*
X105525479Y-94063096D01*
X105525479Y-94063096D02*
X105513574Y-94098810D01*
X105513574Y-94098810D02*
X105513574Y-94122619D01*
X105513574Y-94122619D02*
X105525479Y-94158334D01*
X105525479Y-94158334D02*
X105537384Y-94170238D01*
X105763574Y-94408334D02*
X105763574Y-94265477D01*
X105763574Y-94336905D02*
X105513574Y-94336905D01*
X105513574Y-94336905D02*
X105549289Y-94313096D01*
X105549289Y-94313096D02*
X105573098Y-94289286D01*
X105573098Y-94289286D02*
X105585003Y-94265477D01*
X105537384Y-94503572D02*
X105525479Y-94515476D01*
X105525479Y-94515476D02*
X105513574Y-94539286D01*
X105513574Y-94539286D02*
X105513574Y-94598810D01*
X105513574Y-94598810D02*
X105525479Y-94622619D01*
X105525479Y-94622619D02*
X105537384Y-94634524D01*
X105537384Y-94634524D02*
X105561193Y-94646429D01*
X105561193Y-94646429D02*
X105585003Y-94646429D01*
X105585003Y-94646429D02*
X105620717Y-94634524D01*
X105620717Y-94634524D02*
X105763574Y-94491667D01*
X105763574Y-94491667D02*
X105763574Y-94646429D01*
X105513574Y-94729762D02*
X105513574Y-94884524D01*
X105513574Y-94884524D02*
X105608812Y-94801190D01*
X105608812Y-94801190D02*
X105608812Y-94836905D01*
X105608812Y-94836905D02*
X105620717Y-94860714D01*
X105620717Y-94860714D02*
X105632622Y-94872619D01*
X105632622Y-94872619D02*
X105656431Y-94884524D01*
X105656431Y-94884524D02*
X105715955Y-94884524D01*
X105715955Y-94884524D02*
X105739765Y-94872619D01*
X105739765Y-94872619D02*
X105751670Y-94860714D01*
X105751670Y-94860714D02*
X105763574Y-94836905D01*
X105763574Y-94836905D02*
X105763574Y-94765476D01*
X105763574Y-94765476D02*
X105751670Y-94741667D01*
X105751670Y-94741667D02*
X105739765Y-94729762D01*
D13*
X105140180Y-132508333D02*
X104425895Y-132508333D01*
X104425895Y-132508333D02*
X104283038Y-132555952D01*
X104283038Y-132555952D02*
X104187800Y-132651190D01*
X104187800Y-132651190D02*
X104140180Y-132794047D01*
X104140180Y-132794047D02*
X104140180Y-132889285D01*
X105140180Y-131555952D02*
X105140180Y-132032142D01*
X105140180Y-132032142D02*
X104663990Y-132079761D01*
X104663990Y-132079761D02*
X104711609Y-132032142D01*
X104711609Y-132032142D02*
X104759228Y-131936904D01*
X104759228Y-131936904D02*
X104759228Y-131698809D01*
X104759228Y-131698809D02*
X104711609Y-131603571D01*
X104711609Y-131603571D02*
X104663990Y-131555952D01*
X104663990Y-131555952D02*
X104568752Y-131508333D01*
X104568752Y-131508333D02*
X104330657Y-131508333D01*
X104330657Y-131508333D02*
X104235419Y-131555952D01*
X104235419Y-131555952D02*
X104187800Y-131603571D01*
X104187800Y-131603571D02*
X104140180Y-131698809D01*
X104140180Y-131698809D02*
X104140180Y-131936904D01*
X104140180Y-131936904D02*
X104187800Y-132032142D01*
X104187800Y-132032142D02*
X104235419Y-132079761D01*
D12*
X126609523Y-97912404D02*
X126609523Y-98114785D01*
X126609523Y-98114785D02*
X126597618Y-98138595D01*
X126597618Y-98138595D02*
X126585713Y-98150500D01*
X126585713Y-98150500D02*
X126561904Y-98162404D01*
X126561904Y-98162404D02*
X126514285Y-98162404D01*
X126514285Y-98162404D02*
X126490475Y-98150500D01*
X126490475Y-98150500D02*
X126478570Y-98138595D01*
X126478570Y-98138595D02*
X126466666Y-98114785D01*
X126466666Y-98114785D02*
X126466666Y-97912404D01*
X126359522Y-97936214D02*
X126347618Y-97924309D01*
X126347618Y-97924309D02*
X126323808Y-97912404D01*
X126323808Y-97912404D02*
X126264284Y-97912404D01*
X126264284Y-97912404D02*
X126240475Y-97924309D01*
X126240475Y-97924309D02*
X126228570Y-97936214D01*
X126228570Y-97936214D02*
X126216665Y-97960023D01*
X126216665Y-97960023D02*
X126216665Y-97983833D01*
X126216665Y-97983833D02*
X126228570Y-98019547D01*
X126228570Y-98019547D02*
X126371427Y-98162404D01*
X126371427Y-98162404D02*
X126216665Y-98162404D01*
X126097618Y-98162404D02*
X126049999Y-98162404D01*
X126049999Y-98162404D02*
X126026189Y-98150500D01*
X126026189Y-98150500D02*
X126014285Y-98138595D01*
X126014285Y-98138595D02*
X125990475Y-98102880D01*
X125990475Y-98102880D02*
X125978570Y-98055261D01*
X125978570Y-98055261D02*
X125978570Y-97960023D01*
X125978570Y-97960023D02*
X125990475Y-97936214D01*
X125990475Y-97936214D02*
X126002380Y-97924309D01*
X126002380Y-97924309D02*
X126026189Y-97912404D01*
X126026189Y-97912404D02*
X126073808Y-97912404D01*
X126073808Y-97912404D02*
X126097618Y-97924309D01*
X126097618Y-97924309D02*
X126109523Y-97936214D01*
X126109523Y-97936214D02*
X126121427Y-97960023D01*
X126121427Y-97960023D02*
X126121427Y-98019547D01*
X126121427Y-98019547D02*
X126109523Y-98043357D01*
X126109523Y-98043357D02*
X126097618Y-98055261D01*
X126097618Y-98055261D02*
X126073808Y-98067166D01*
X126073808Y-98067166D02*
X126026189Y-98067166D01*
X126026189Y-98067166D02*
X126002380Y-98055261D01*
X126002380Y-98055261D02*
X125990475Y-98043357D01*
X125990475Y-98043357D02*
X125978570Y-98019547D01*
X126849999Y-97562404D02*
X126849999Y-97621928D01*
X126909523Y-97598119D02*
X126849999Y-97621928D01*
X126849999Y-97621928D02*
X126790476Y-97598119D01*
X126885714Y-97669547D02*
X126849999Y-97621928D01*
X126849999Y-97621928D02*
X126814285Y-97669547D01*
D14*
X118195237Y-98837664D02*
X118233333Y-98875760D01*
X118233333Y-98875760D02*
X118347618Y-98913855D01*
X118347618Y-98913855D02*
X118423809Y-98913855D01*
X118423809Y-98913855D02*
X118538095Y-98875760D01*
X118538095Y-98875760D02*
X118614285Y-98799569D01*
X118614285Y-98799569D02*
X118652380Y-98723379D01*
X118652380Y-98723379D02*
X118690476Y-98570998D01*
X118690476Y-98570998D02*
X118690476Y-98456712D01*
X118690476Y-98456712D02*
X118652380Y-98304331D01*
X118652380Y-98304331D02*
X118614285Y-98228140D01*
X118614285Y-98228140D02*
X118538095Y-98151950D01*
X118538095Y-98151950D02*
X118423809Y-98113855D01*
X118423809Y-98113855D02*
X118347618Y-98113855D01*
X118347618Y-98113855D02*
X118233333Y-98151950D01*
X118233333Y-98151950D02*
X118195237Y-98190045D01*
X117433333Y-98913855D02*
X117890476Y-98913855D01*
X117661904Y-98913855D02*
X117661904Y-98113855D01*
X117661904Y-98113855D02*
X117738095Y-98228140D01*
X117738095Y-98228140D02*
X117814285Y-98304331D01*
X117814285Y-98304331D02*
X117890476Y-98342426D01*
X117128571Y-98190045D02*
X117090475Y-98151950D01*
X117090475Y-98151950D02*
X117014285Y-98113855D01*
X117014285Y-98113855D02*
X116823809Y-98113855D01*
X116823809Y-98113855D02*
X116747618Y-98151950D01*
X116747618Y-98151950D02*
X116709523Y-98190045D01*
X116709523Y-98190045D02*
X116671428Y-98266236D01*
X116671428Y-98266236D02*
X116671428Y-98342426D01*
X116671428Y-98342426D02*
X116709523Y-98456712D01*
X116709523Y-98456712D02*
X117166666Y-98913855D01*
X117166666Y-98913855D02*
X116671428Y-98913855D01*
X115947618Y-98113855D02*
X116328570Y-98113855D01*
X116328570Y-98113855D02*
X116366666Y-98494807D01*
X116366666Y-98494807D02*
X116328570Y-98456712D01*
X116328570Y-98456712D02*
X116252380Y-98418617D01*
X116252380Y-98418617D02*
X116061904Y-98418617D01*
X116061904Y-98418617D02*
X115985713Y-98456712D01*
X115985713Y-98456712D02*
X115947618Y-98494807D01*
X115947618Y-98494807D02*
X115909523Y-98570998D01*
X115909523Y-98570998D02*
X115909523Y-98761474D01*
X115909523Y-98761474D02*
X115947618Y-98837664D01*
X115947618Y-98837664D02*
X115985713Y-98875760D01*
X115985713Y-98875760D02*
X116061904Y-98913855D01*
X116061904Y-98913855D02*
X116252380Y-98913855D01*
X116252380Y-98913855D02*
X116328570Y-98875760D01*
X116328570Y-98875760D02*
X116366666Y-98837664D01*
D12*
X127462404Y-109513571D02*
X127462404Y-109656428D01*
X127712404Y-109585000D02*
X127462404Y-109585000D01*
X127712404Y-109739761D02*
X127462404Y-109739761D01*
X127581452Y-109739761D02*
X127581452Y-109882618D01*
X127712404Y-109882618D02*
X127462404Y-109882618D01*
X127712404Y-110132619D02*
X127712404Y-109989762D01*
X127712404Y-110061190D02*
X127462404Y-110061190D01*
X127462404Y-110061190D02*
X127498119Y-110037381D01*
X127498119Y-110037381D02*
X127521928Y-110013571D01*
X127521928Y-110013571D02*
X127533833Y-109989762D01*
X127587404Y-110223990D02*
X127587404Y-109422200D01*
D11*
X73536873Y-126073596D02*
X73548777Y-126085501D01*
X73548777Y-126085501D02*
X73584492Y-126097405D01*
X73584492Y-126097405D02*
X73608301Y-126097405D01*
X73608301Y-126097405D02*
X73644015Y-126085501D01*
X73644015Y-126085501D02*
X73667825Y-126061691D01*
X73667825Y-126061691D02*
X73679730Y-126037881D01*
X73679730Y-126037881D02*
X73691634Y-125990262D01*
X73691634Y-125990262D02*
X73691634Y-125954548D01*
X73691634Y-125954548D02*
X73679730Y-125906929D01*
X73679730Y-125906929D02*
X73667825Y-125883120D01*
X73667825Y-125883120D02*
X73644015Y-125859310D01*
X73644015Y-125859310D02*
X73608301Y-125847405D01*
X73608301Y-125847405D02*
X73584492Y-125847405D01*
X73584492Y-125847405D02*
X73548777Y-125859310D01*
X73548777Y-125859310D02*
X73536873Y-125871215D01*
X73453539Y-125847405D02*
X73286873Y-125847405D01*
X73286873Y-125847405D02*
X73394015Y-126097405D01*
X116689765Y-92340238D02*
X116701670Y-92328334D01*
X116701670Y-92328334D02*
X116713574Y-92292619D01*
X116713574Y-92292619D02*
X116713574Y-92268810D01*
X116713574Y-92268810D02*
X116701670Y-92233096D01*
X116701670Y-92233096D02*
X116677860Y-92209286D01*
X116677860Y-92209286D02*
X116654050Y-92197381D01*
X116654050Y-92197381D02*
X116606431Y-92185477D01*
X116606431Y-92185477D02*
X116570717Y-92185477D01*
X116570717Y-92185477D02*
X116523098Y-92197381D01*
X116523098Y-92197381D02*
X116499289Y-92209286D01*
X116499289Y-92209286D02*
X116475479Y-92233096D01*
X116475479Y-92233096D02*
X116463574Y-92268810D01*
X116463574Y-92268810D02*
X116463574Y-92292619D01*
X116463574Y-92292619D02*
X116475479Y-92328334D01*
X116475479Y-92328334D02*
X116487384Y-92340238D01*
X116713574Y-92578334D02*
X116713574Y-92435477D01*
X116713574Y-92506905D02*
X116463574Y-92506905D01*
X116463574Y-92506905D02*
X116499289Y-92483096D01*
X116499289Y-92483096D02*
X116523098Y-92459286D01*
X116523098Y-92459286D02*
X116535003Y-92435477D01*
X116713574Y-92816429D02*
X116713574Y-92673572D01*
X116713574Y-92745000D02*
X116463574Y-92745000D01*
X116463574Y-92745000D02*
X116499289Y-92721191D01*
X116499289Y-92721191D02*
X116523098Y-92697381D01*
X116523098Y-92697381D02*
X116535003Y-92673572D01*
X116713574Y-92935476D02*
X116713574Y-92983095D01*
X116713574Y-92983095D02*
X116701670Y-93006905D01*
X116701670Y-93006905D02*
X116689765Y-93018809D01*
X116689765Y-93018809D02*
X116654050Y-93042619D01*
X116654050Y-93042619D02*
X116606431Y-93054524D01*
X116606431Y-93054524D02*
X116511193Y-93054524D01*
X116511193Y-93054524D02*
X116487384Y-93042619D01*
X116487384Y-93042619D02*
X116475479Y-93030714D01*
X116475479Y-93030714D02*
X116463574Y-93006905D01*
X116463574Y-93006905D02*
X116463574Y-92959286D01*
X116463574Y-92959286D02*
X116475479Y-92935476D01*
X116475479Y-92935476D02*
X116487384Y-92923571D01*
X116487384Y-92923571D02*
X116511193Y-92911667D01*
X116511193Y-92911667D02*
X116570717Y-92911667D01*
X116570717Y-92911667D02*
X116594527Y-92923571D01*
X116594527Y-92923571D02*
X116606431Y-92935476D01*
X116606431Y-92935476D02*
X116618336Y-92959286D01*
X116618336Y-92959286D02*
X116618336Y-93006905D01*
X116618336Y-93006905D02*
X116606431Y-93030714D01*
X116606431Y-93030714D02*
X116594527Y-93042619D01*
X116594527Y-93042619D02*
X116570717Y-93054524D01*
D15*
X115400000Y-92120000D02*
X115400000Y-93120000D01*
X115400000Y-93120000D02*
X115900000Y-93120000D01*
X115900000Y-92120000D02*
X115400000Y-92120000D01*
X115900000Y-93120000D02*
X115900000Y-92120000D01*
X122275000Y-120887500D02*
X122275000Y-121712500D01*
X122275000Y-121712500D02*
X123875000Y-121712500D01*
X123875000Y-120887500D02*
X122275000Y-120887500D01*
X123875000Y-121712500D02*
X123875000Y-120887500D01*
X130250000Y-100500000D02*
X130250000Y-101000000D01*
X130250000Y-101000000D02*
X131250000Y-101000000D01*
X131250000Y-100500000D02*
X130250000Y-100500000D01*
X131250000Y-101000000D02*
X131250000Y-100500000D01*
X114100000Y-93975000D02*
X114100000Y-94975000D01*
X114100000Y-94975000D02*
X114600000Y-94975000D01*
X114600000Y-93975000D02*
X114100000Y-93975000D01*
X114600000Y-94975000D02*
X114600000Y-93975000D01*
X130250000Y-97700000D02*
X131350000Y-97700000D01*
X130250000Y-98400000D02*
X130250000Y-97700000D01*
X131350000Y-97700000D02*
X131350000Y-98400000D01*
X131350000Y-98400000D02*
X130250000Y-98400000D01*
X70095207Y-125733831D02*
X70095207Y-126233831D01*
X70095207Y-126233831D02*
X71095207Y-126233831D01*
X71095207Y-125733831D02*
X70095207Y-125733831D01*
X71095207Y-126233831D02*
X71095207Y-125733831D01*
X113150000Y-93975000D02*
X113150000Y-94975000D01*
X113150000Y-94975000D02*
X113650000Y-94975000D01*
X113650000Y-93975000D02*
X113150000Y-93975000D01*
X113650000Y-94975000D02*
X113650000Y-93975000D01*
X107300000Y-93950000D02*
X107300000Y-94950000D01*
X107300000Y-94950000D02*
X107800000Y-94950000D01*
X107800000Y-93950000D02*
X107300000Y-93950000D01*
X107800000Y-94950000D02*
X107800000Y-93950000D01*
X106350000Y-93950000D02*
X106350000Y-94950000D01*
X106350000Y-94950000D02*
X106850000Y-94950000D01*
X106850000Y-93950000D02*
X106350000Y-93950000D01*
X106850000Y-94950000D02*
X106850000Y-93950000D01*
D16*
X121525000Y-121650400D02*
X121715000Y-121650400D01*
X121715000Y-121499600D01*
X121525000Y-121499600D01*
X121525000Y-121650400D01*
X121715000Y-121650400D02*
X121905000Y-121650400D01*
X121905000Y-121499600D01*
X121715000Y-121499600D01*
X121715000Y-121650400D01*
D15*
X125250000Y-99500000D02*
X126350000Y-99500000D01*
X125250000Y-100200000D02*
X125250000Y-99500000D01*
X126350000Y-99500000D02*
X126350000Y-100200000D01*
X126350000Y-100200000D02*
X125250000Y-100200000D01*
X67600000Y-120900000D02*
X67600000Y-121700000D01*
X67600000Y-121700000D02*
X69200000Y-121700000D01*
X69200000Y-120900000D02*
X67600000Y-120900000D01*
X69200000Y-121700000D02*
X69200000Y-120900000D01*
X130100000Y-99500000D02*
X131200000Y-99500000D01*
X130100000Y-100200000D02*
X130100000Y-99500000D01*
X131200000Y-99500000D02*
X131200000Y-100200000D01*
X131200000Y-100200000D02*
X130100000Y-100200000D01*
D16*
X101736028Y-119690532D02*
X101585228Y-119690532D01*
X101585228Y-119500532D01*
X101736028Y-119500532D01*
X101736028Y-119690532D01*
X101736028Y-119880532D02*
X101585228Y-119880532D01*
X101585228Y-119690532D01*
X101736028Y-119690532D01*
X101736028Y-119880532D01*
D15*
X112200000Y-93975000D02*
X112200000Y-94975000D01*
X112200000Y-94975000D02*
X112700000Y-94975000D01*
X112700000Y-93975000D02*
X112200000Y-93975000D01*
X112700000Y-94975000D02*
X112700000Y-93975000D01*
X60520000Y-95495000D02*
X60520000Y-97884582D01*
X60620000Y-97884582D02*
G75*
G02*
X60520000Y-97884582I-50000J0D01*
G01*
X60620000Y-97884582D02*
X60620000Y-95495000D01*
X60620000Y-95495000D02*
G75*
G03*
X60520000Y-95495000I-50000J0D01*
G01*
X60520000Y-105253681D02*
X60520000Y-108707345D01*
X60620000Y-108707345D02*
G75*
G02*
X60520000Y-108707345I-50000J0D01*
G01*
X60620000Y-108707345D02*
X60620000Y-105253681D01*
X60620000Y-105253681D02*
G75*
G03*
X60520000Y-105253681I-50000J0D01*
G01*
X60570000Y-105303681D02*
X61370000Y-105303681D01*
X61370000Y-105203681D02*
G75*
G02*
X61370000Y-105303681I0J-50000D01*
G01*
X61370000Y-105203681D02*
X60570000Y-105203681D01*
X60570000Y-105203681D02*
G75*
G03*
X60570000Y-105303681I0J-50000D01*
G01*
X60520000Y-111082654D02*
X60520000Y-114536318D01*
X60620000Y-114536318D02*
G75*
G02*
X60520000Y-114536318I-50000J0D01*
G01*
X60620000Y-114536318D02*
X60620000Y-111082654D01*
X60620000Y-111082654D02*
G75*
G03*
X60520000Y-111082654I-50000J0D01*
G01*
X60570000Y-111132654D02*
X63870000Y-111132654D01*
X63870000Y-111032654D02*
G75*
G02*
X63870000Y-111132654I0J-50000D01*
G01*
X63870000Y-111032654D02*
X60570000Y-111032654D01*
X60570000Y-111032654D02*
G75*
G03*
X60570000Y-111132654I0J-50000D01*
G01*
X60520000Y-121905417D02*
X60520000Y-124294999D01*
X60620000Y-124294999D02*
G75*
G02*
X60520000Y-124294999I-50000J0D01*
G01*
X60620000Y-124294999D02*
X60620000Y-121905417D01*
X60620000Y-121905417D02*
G75*
G03*
X60520000Y-121905417I-50000J0D01*
G01*
X60570000Y-121955417D02*
X61370000Y-121955417D01*
X61370000Y-121855417D02*
G75*
G02*
X61370000Y-121955417I0J-50000D01*
G01*
X61370000Y-121855417D02*
X60570000Y-121855417D01*
X60570000Y-121855417D02*
G75*
G03*
X60570000Y-121955417I0J-50000D01*
G01*
X60570000Y-124345000D02*
X90858084Y-124345000D01*
X90858084Y-124245000D02*
G75*
G02*
X90858084Y-124345000I0J-50000D01*
G01*
X90858084Y-124245000D02*
X60570000Y-124245000D01*
X60570000Y-124245000D02*
G75*
G03*
X60570000Y-124345000I0J-50000D01*
G01*
X61370000Y-97834583D02*
X60570000Y-97834583D01*
X60570000Y-97934583D02*
G75*
G02*
X60570000Y-97834583I0J50000D01*
G01*
X60570000Y-97934583D02*
X61370000Y-97934583D01*
X61370000Y-97934583D02*
G75*
G03*
X61370000Y-97834583I0J50000D01*
G01*
X61420000Y-105253681D02*
X61420000Y-97884583D01*
X61320000Y-97884583D02*
G75*
G02*
X61420000Y-97884583I50000J0D01*
G01*
X61320000Y-97884583D02*
X61320000Y-105253681D01*
X61320000Y-105253681D02*
G75*
G03*
X61420000Y-105253681I50000J0D01*
G01*
X61370000Y-114486319D02*
X60570000Y-114486319D01*
X60570000Y-114586319D02*
G75*
G02*
X60570000Y-114486319I0J50000D01*
G01*
X60570000Y-114586319D02*
X61370000Y-114586319D01*
X61370000Y-114586319D02*
G75*
G03*
X61370000Y-114486319I0J50000D01*
G01*
X61420000Y-121905417D02*
X61420000Y-114536319D01*
X61320000Y-114536319D02*
G75*
G02*
X61420000Y-114536319I50000J0D01*
G01*
X61320000Y-114536319D02*
X61320000Y-121905417D01*
X61320000Y-121905417D02*
G75*
G03*
X61420000Y-121905417I50000J0D01*
G01*
X62620000Y-102595000D02*
X62620000Y-97295000D01*
X62520000Y-97295000D02*
G75*
G02*
X62620000Y-97295000I50000J0D01*
G01*
X62520000Y-97295000D02*
X62520000Y-102595000D01*
X62520000Y-102595000D02*
G75*
G03*
X62620000Y-102595000I50000J0D01*
G01*
X62570000Y-102645000D02*
X89070000Y-102645000D01*
X89070000Y-102545000D02*
G75*
G02*
X89070000Y-102645000I0J-50000D01*
G01*
X89070000Y-102545000D02*
X62570000Y-102545000D01*
X62570000Y-102545000D02*
G75*
G03*
X62570000Y-102645000I0J-50000D01*
G01*
X62620000Y-122495000D02*
X62620000Y-117195000D01*
X62520000Y-117195000D02*
G75*
G02*
X62620000Y-117195000I50000J0D01*
G01*
X62520000Y-117195000D02*
X62520000Y-122495000D01*
X62520000Y-122495000D02*
G75*
G03*
X62620000Y-122495000I50000J0D01*
G01*
X62570000Y-122545000D02*
X89070000Y-122545000D01*
X89070000Y-122445000D02*
G75*
G02*
X89070000Y-122545000I0J-50000D01*
G01*
X89070000Y-122445000D02*
X62570000Y-122445000D01*
X62570000Y-122445000D02*
G75*
G03*
X62570000Y-122545000I0J-50000D01*
G01*
X62670000Y-110640556D02*
X62670000Y-109120556D01*
X62570000Y-109120556D02*
G75*
G02*
X62670000Y-109120556I50000J0D01*
G01*
X62570000Y-109120556D02*
X62570000Y-110640556D01*
X62570000Y-110640556D02*
G75*
G03*
X62670000Y-110640556I50000J0D01*
G01*
X62620000Y-110690556D02*
X63120000Y-110690556D01*
X63120000Y-110590556D02*
G75*
G02*
X63120000Y-110690556I0J-50000D01*
G01*
X63120000Y-110590556D02*
X62620000Y-110590556D01*
X62620000Y-110590556D02*
G75*
G03*
X62620000Y-110690556I0J-50000D01*
G01*
X63120000Y-109070556D02*
X62620000Y-109070556D01*
X62620000Y-109170556D02*
G75*
G02*
X62620000Y-109070556I0J50000D01*
G01*
X62620000Y-109170556D02*
X63120000Y-109170556D01*
X63120000Y-109170556D02*
G75*
G03*
X63120000Y-109070556I0J50000D01*
G01*
X63170000Y-110640556D02*
X63170000Y-109120556D01*
X63070000Y-109120556D02*
G75*
G02*
X63170000Y-109120556I50000J0D01*
G01*
X63070000Y-109120556D02*
X63070000Y-110640556D01*
X63070000Y-110640556D02*
G75*
G03*
X63170000Y-110640556I50000J0D01*
G01*
X63870000Y-108657346D02*
X60570000Y-108657346D01*
X60570000Y-108757346D02*
G75*
G02*
X60570000Y-108657346I0J50000D01*
G01*
X60570000Y-108757346D02*
X63870000Y-108757346D01*
X63870000Y-108757346D02*
G75*
G03*
X63870000Y-108657346I0J50000D01*
G01*
X63920000Y-111082654D02*
X63920000Y-108707346D01*
X63820000Y-108707346D02*
G75*
G02*
X63920000Y-108707346I50000J0D01*
G01*
X63820000Y-108707346D02*
X63820000Y-111082654D01*
X63820000Y-111082654D02*
G75*
G03*
X63920000Y-111082654I50000J0D01*
G01*
X89070000Y-97245000D02*
X62570000Y-97245000D01*
X62570000Y-97345000D02*
G75*
G02*
X62570000Y-97245000I0J50000D01*
G01*
X62570000Y-97345000D02*
X89070000Y-97345000D01*
X89070000Y-97345000D02*
G75*
G03*
X89070000Y-97245000I0J50000D01*
G01*
X89120000Y-102595000D02*
X89120000Y-97295000D01*
X89020000Y-97295000D02*
G75*
G02*
X89120000Y-97295000I50000J0D01*
G01*
X89020000Y-97295000D02*
X89020000Y-102595000D01*
X89020000Y-102595000D02*
G75*
G03*
X89120000Y-102595000I50000J0D01*
G01*
X89070000Y-117145000D02*
X62570000Y-117145000D01*
X62570000Y-117245000D02*
G75*
G02*
X62570000Y-117145000I0J50000D01*
G01*
X62570000Y-117245000D02*
X89070000Y-117245000D01*
X89070000Y-117245000D02*
G75*
G03*
X89070000Y-117145000I0J50000D01*
G01*
X89120000Y-122495000D02*
X89120000Y-117195000D01*
X89020000Y-117195000D02*
G75*
G02*
X89120000Y-117195000I50000J0D01*
G01*
X89020000Y-117195000D02*
X89020000Y-122495000D01*
X89020000Y-122495000D02*
G75*
G03*
X89120000Y-122495000I50000J0D01*
G01*
X90808084Y-120695000D02*
X90808084Y-124295000D01*
X90908084Y-124295000D02*
G75*
G02*
X90808084Y-124295000I-50000J0D01*
G01*
X90908084Y-124295000D02*
X90908084Y-120695000D01*
X90908084Y-120695000D02*
G75*
G03*
X90808084Y-120695000I-50000J0D01*
G01*
X90895000Y-95445000D02*
X60570000Y-95445000D01*
X60570000Y-95545000D02*
G75*
G02*
X60570000Y-95445000I0J50000D01*
G01*
X60570000Y-95545000D02*
X90895000Y-95545000D01*
X90895000Y-95545000D02*
G75*
G03*
X90895000Y-95445000I0J50000D01*
G01*
X90845000Y-95495000D02*
X90845000Y-99095000D01*
X90945000Y-99095000D02*
G75*
G02*
X90845000Y-99095000I-50000J0D01*
G01*
X90945000Y-99095000D02*
X90945000Y-95495000D01*
X90945000Y-95495000D02*
G75*
G03*
X90845000Y-95495000I-50000J0D01*
G01*
X90895000Y-99145000D02*
X97895000Y-99145000D01*
X97895000Y-99045000D02*
G75*
G02*
X97895000Y-99145000I0J-50000D01*
G01*
X97895000Y-99045000D02*
X90895000Y-99045000D01*
X90895000Y-99045000D02*
G75*
G03*
X90895000Y-99145000I0J-50000D01*
G01*
X97858084Y-120645000D02*
X90858084Y-120645000D01*
X90858084Y-120745000D02*
G75*
G02*
X90858084Y-120645000I0J50000D01*
G01*
X90858084Y-120745000D02*
X97858084Y-120745000D01*
X97858084Y-120745000D02*
G75*
G03*
X97858084Y-120645000I0J50000D01*
G01*
X97908084Y-124295000D02*
X97908084Y-120695000D01*
X97808084Y-120695000D02*
G75*
G02*
X97908084Y-120695000I50000J0D01*
G01*
X97808084Y-120695000D02*
X97808084Y-124295000D01*
X97808084Y-124295000D02*
G75*
G03*
X97908084Y-124295000I50000J0D01*
G01*
X97858084Y-124345000D02*
X102045000Y-124345000D01*
X102045000Y-124245000D02*
G75*
G02*
X102045000Y-124345000I0J-50000D01*
G01*
X102045000Y-124245000D02*
X97858084Y-124245000D01*
X97858084Y-124245000D02*
G75*
G03*
X97858084Y-124345000I0J-50000D01*
G01*
X97945000Y-99095000D02*
X97945000Y-95495000D01*
X97845000Y-95495000D02*
G75*
G02*
X97945000Y-95495000I50000J0D01*
G01*
X97845000Y-95495000D02*
X97845000Y-99095000D01*
X97845000Y-99095000D02*
G75*
G03*
X97945000Y-99095000I50000J0D01*
G01*
X98845000Y-97295000D02*
X98845000Y-102595000D01*
X98945000Y-102595000D02*
G75*
G02*
X98845000Y-102595000I-50000J0D01*
G01*
X98945000Y-102595000D02*
X98945000Y-97295000D01*
X98945000Y-97295000D02*
G75*
G03*
X98845000Y-97295000I-50000J0D01*
G01*
X98895000Y-102645000D02*
X101045000Y-102645000D01*
X101045000Y-102545000D02*
G75*
G02*
X101045000Y-102645000I0J-50000D01*
G01*
X101045000Y-102545000D02*
X98895000Y-102545000D01*
X98895000Y-102545000D02*
G75*
G03*
X98895000Y-102645000I0J-50000D01*
G01*
X98845000Y-117195000D02*
X98845000Y-122495000D01*
X98945000Y-122495000D02*
G75*
G02*
X98845000Y-122495000I-50000J0D01*
G01*
X98945000Y-122495000D02*
X98945000Y-117195000D01*
X98945000Y-117195000D02*
G75*
G03*
X98845000Y-117195000I-50000J0D01*
G01*
X98895000Y-122545000D02*
X101045000Y-122545000D01*
X101045000Y-122445000D02*
G75*
G02*
X101045000Y-122545000I0J-50000D01*
G01*
X101045000Y-122445000D02*
X98895000Y-122445000D01*
X98895000Y-122445000D02*
G75*
G03*
X98895000Y-122545000I0J-50000D01*
G01*
X101045000Y-97245000D02*
X98895000Y-97245000D01*
X98895000Y-97345000D02*
G75*
G02*
X98895000Y-97245000I0J50000D01*
G01*
X98895000Y-97345000D02*
X101045000Y-97345000D01*
X101045000Y-97345000D02*
G75*
G03*
X101045000Y-97245000I0J50000D01*
G01*
X101095000Y-102595000D02*
X101095000Y-97295000D01*
X100995000Y-97295000D02*
G75*
G02*
X101095000Y-97295000I50000J0D01*
G01*
X100995000Y-97295000D02*
X100995000Y-102595000D01*
X100995000Y-102595000D02*
G75*
G03*
X101095000Y-102595000I50000J0D01*
G01*
X101045000Y-117145000D02*
X98895000Y-117145000D01*
X98895000Y-117245000D02*
G75*
G02*
X98895000Y-117145000I0J50000D01*
G01*
X98895000Y-117245000D02*
X101045000Y-117245000D01*
X101045000Y-117245000D02*
G75*
G03*
X101045000Y-117145000I0J50000D01*
G01*
X101095000Y-122495000D02*
X101095000Y-117195000D01*
X100995000Y-117195000D02*
G75*
G02*
X101095000Y-117195000I50000J0D01*
G01*
X100995000Y-117195000D02*
X100995000Y-122495000D01*
X100995000Y-122495000D02*
G75*
G03*
X101095000Y-122495000I50000J0D01*
G01*
X102045000Y-95445000D02*
X97895000Y-95445000D01*
X97895000Y-95545000D02*
G75*
G02*
X97895000Y-95445000I0J50000D01*
G01*
X97895000Y-95545000D02*
X102045000Y-95545000D01*
X102045000Y-95545000D02*
G75*
G03*
X102045000Y-95445000I0J50000D01*
G01*
X101995000Y-95495000D02*
X101995000Y-99095000D01*
X102095000Y-99095000D02*
G75*
G02*
X101995000Y-99095000I-50000J0D01*
G01*
X102095000Y-99095000D02*
X102095000Y-95495000D01*
X102095000Y-95495000D02*
G75*
G03*
X101995000Y-95495000I-50000J0D01*
G01*
X102045000Y-99145000D02*
X109045000Y-99145000D01*
X109045000Y-99045000D02*
G75*
G02*
X109045000Y-99145000I0J-50000D01*
G01*
X109045000Y-99045000D02*
X102045000Y-99045000D01*
X102045000Y-99045000D02*
G75*
G03*
X102045000Y-99145000I0J-50000D01*
G01*
X101995000Y-120695000D02*
X101995000Y-124295000D01*
X102095000Y-124295000D02*
G75*
G02*
X101995000Y-124295000I-50000J0D01*
G01*
X102095000Y-124295000D02*
X102095000Y-120695000D01*
X102095000Y-120695000D02*
G75*
G03*
X101995000Y-120695000I-50000J0D01*
G01*
X109095000Y-99095000D02*
X109095000Y-95495000D01*
X108995000Y-95495000D02*
G75*
G02*
X109095000Y-95495000I50000J0D01*
G01*
X108995000Y-95495000D02*
X108995000Y-99095000D01*
X108995000Y-99095000D02*
G75*
G03*
X109095000Y-99095000I50000J0D01*
G01*
X109045000Y-120645000D02*
X102045000Y-120645000D01*
X102045000Y-120745000D02*
G75*
G02*
X102045000Y-120645000I0J50000D01*
G01*
X102045000Y-120745000D02*
X109045000Y-120745000D01*
X109045000Y-120745000D02*
G75*
G03*
X109045000Y-120645000I0J50000D01*
G01*
X109095000Y-124295000D02*
X109095000Y-120695000D01*
X108995000Y-120695000D02*
G75*
G02*
X109095000Y-120695000I50000J0D01*
G01*
X108995000Y-120695000D02*
X108995000Y-124295000D01*
X108995000Y-124295000D02*
G75*
G03*
X109095000Y-124295000I50000J0D01*
G01*
X109045000Y-124345000D02*
X139370000Y-124345000D01*
X139370000Y-124245000D02*
G75*
G02*
X139370000Y-124345000I0J-50000D01*
G01*
X139370000Y-124245000D02*
X109045000Y-124245000D01*
X109045000Y-124245000D02*
G75*
G03*
X109045000Y-124345000I0J-50000D01*
G01*
X110820000Y-97295000D02*
X110820000Y-102595000D01*
X110920000Y-102595000D02*
G75*
G02*
X110820000Y-102595000I-50000J0D01*
G01*
X110920000Y-102595000D02*
X110920000Y-97295000D01*
X110920000Y-97295000D02*
G75*
G03*
X110820000Y-97295000I-50000J0D01*
G01*
X110870000Y-102645000D02*
X137370000Y-102645000D01*
X137370000Y-102545000D02*
G75*
G02*
X137370000Y-102645000I0J-50000D01*
G01*
X137370000Y-102545000D02*
X110870000Y-102545000D01*
X110870000Y-102545000D02*
G75*
G03*
X110870000Y-102645000I0J-50000D01*
G01*
X110820000Y-117195000D02*
X110820000Y-122495000D01*
X110920000Y-122495000D02*
G75*
G02*
X110820000Y-122495000I-50000J0D01*
G01*
X110920000Y-122495000D02*
X110920000Y-117195000D01*
X110920000Y-117195000D02*
G75*
G03*
X110820000Y-117195000I-50000J0D01*
G01*
X110870000Y-122545000D02*
X137370000Y-122545000D01*
X137370000Y-122445000D02*
G75*
G02*
X137370000Y-122545000I0J-50000D01*
G01*
X137370000Y-122445000D02*
X110870000Y-122445000D01*
X110870000Y-122445000D02*
G75*
G03*
X110870000Y-122545000I0J-50000D01*
G01*
X136020000Y-108707346D02*
X136020000Y-111082654D01*
X136120000Y-111082654D02*
G75*
G02*
X136020000Y-111082654I-50000J0D01*
G01*
X136120000Y-111082654D02*
X136120000Y-108707346D01*
X136120000Y-108707346D02*
G75*
G03*
X136020000Y-108707346I-50000J0D01*
G01*
X136070000Y-111132654D02*
X139370000Y-111132654D01*
X139370000Y-111032654D02*
G75*
G02*
X139370000Y-111132654I0J-50000D01*
G01*
X139370000Y-111032654D02*
X136070000Y-111032654D01*
X136070000Y-111032654D02*
G75*
G03*
X136070000Y-111132654I0J-50000D01*
G01*
X136817954Y-109120556D02*
X136817954Y-110640556D01*
X136917954Y-110640556D02*
G75*
G02*
X136817954Y-110640556I-50000J0D01*
G01*
X136917954Y-110640556D02*
X136917954Y-109120556D01*
X136917954Y-109120556D02*
G75*
G03*
X136817954Y-109120556I-50000J0D01*
G01*
X136867954Y-110690556D02*
X137367954Y-110690556D01*
X137367954Y-110590556D02*
G75*
G02*
X137367954Y-110690556I0J-50000D01*
G01*
X137367954Y-110590556D02*
X136867954Y-110590556D01*
X136867954Y-110590556D02*
G75*
G03*
X136867954Y-110690556I0J-50000D01*
G01*
X137367954Y-109070556D02*
X136867954Y-109070556D01*
X136867954Y-109170556D02*
G75*
G02*
X136867954Y-109070556I0J50000D01*
G01*
X136867954Y-109170556D02*
X137367954Y-109170556D01*
X137367954Y-109170556D02*
G75*
G03*
X137367954Y-109070556I0J50000D01*
G01*
X137317954Y-109120556D02*
X137317954Y-110640556D01*
X137417954Y-110640556D02*
G75*
G02*
X137317954Y-110640556I-50000J0D01*
G01*
X137417954Y-110640556D02*
X137417954Y-109120556D01*
X137417954Y-109120556D02*
G75*
G03*
X137317954Y-109120556I-50000J0D01*
G01*
X137370000Y-97245000D02*
X110870000Y-97245000D01*
X110870000Y-97345000D02*
G75*
G02*
X110870000Y-97245000I0J50000D01*
G01*
X110870000Y-97345000D02*
X137370000Y-97345000D01*
X137370000Y-97345000D02*
G75*
G03*
X137370000Y-97245000I0J50000D01*
G01*
X137420000Y-102595000D02*
X137420000Y-97295000D01*
X137320000Y-97295000D02*
G75*
G02*
X137420000Y-97295000I50000J0D01*
G01*
X137320000Y-97295000D02*
X137320000Y-102595000D01*
X137320000Y-102595000D02*
G75*
G03*
X137420000Y-102595000I50000J0D01*
G01*
X137370000Y-117145000D02*
X110870000Y-117145000D01*
X110870000Y-117245000D02*
G75*
G02*
X110870000Y-117145000I0J50000D01*
G01*
X110870000Y-117245000D02*
X137370000Y-117245000D01*
X137370000Y-117245000D02*
G75*
G03*
X137370000Y-117145000I0J50000D01*
G01*
X137420000Y-122495000D02*
X137420000Y-117195000D01*
X137320000Y-117195000D02*
G75*
G02*
X137420000Y-117195000I50000J0D01*
G01*
X137320000Y-117195000D02*
X137320000Y-122495000D01*
X137320000Y-122495000D02*
G75*
G03*
X137420000Y-122495000I50000J0D01*
G01*
X138520000Y-97884474D02*
X138520000Y-105253680D01*
X138620000Y-105253680D02*
G75*
G02*
X138520000Y-105253680I-50000J0D01*
G01*
X138620000Y-105253680D02*
X138620000Y-97884474D01*
X138620000Y-97884474D02*
G75*
G03*
X138520000Y-97884474I-50000J0D01*
G01*
X138570000Y-105303681D02*
X139370000Y-105303681D01*
X139370000Y-105203681D02*
G75*
G02*
X139370000Y-105303681I0J-50000D01*
G01*
X139370000Y-105203681D02*
X138570000Y-105203681D01*
X138570000Y-105203681D02*
G75*
G03*
X138570000Y-105303681I0J-50000D01*
G01*
X138520000Y-114536319D02*
X138520000Y-121905525D01*
X138620000Y-121905525D02*
G75*
G02*
X138520000Y-121905525I-50000J0D01*
G01*
X138620000Y-121905525D02*
X138620000Y-114536319D01*
X138620000Y-114536319D02*
G75*
G03*
X138520000Y-114536319I-50000J0D01*
G01*
X138570000Y-121955526D02*
X139370000Y-121955526D01*
X139370000Y-121855526D02*
G75*
G02*
X139370000Y-121955526I0J-50000D01*
G01*
X139370000Y-121855526D02*
X138570000Y-121855526D01*
X138570000Y-121855526D02*
G75*
G03*
X138570000Y-121955526I0J-50000D01*
G01*
X139370000Y-95445000D02*
X109045000Y-95445000D01*
X109045000Y-95545000D02*
G75*
G02*
X109045000Y-95445000I0J50000D01*
G01*
X109045000Y-95545000D02*
X139370000Y-95545000D01*
X139370000Y-95545000D02*
G75*
G03*
X139370000Y-95445000I0J50000D01*
G01*
X139370000Y-97834474D02*
X138570000Y-97834474D01*
X138570000Y-97934474D02*
G75*
G02*
X138570000Y-97834474I0J50000D01*
G01*
X138570000Y-97934474D02*
X139370000Y-97934474D01*
X139370000Y-97934474D02*
G75*
G03*
X139370000Y-97834474I0J50000D01*
G01*
X139420000Y-97884474D02*
X139420000Y-95495000D01*
X139320000Y-95495000D02*
G75*
G02*
X139420000Y-95495000I50000J0D01*
G01*
X139320000Y-95495000D02*
X139320000Y-97884474D01*
X139320000Y-97884474D02*
G75*
G03*
X139420000Y-97884474I50000J0D01*
G01*
X139370000Y-108657346D02*
X136070000Y-108657346D01*
X136070000Y-108757346D02*
G75*
G02*
X136070000Y-108657346I0J50000D01*
G01*
X136070000Y-108757346D02*
X139370000Y-108757346D01*
X139370000Y-108757346D02*
G75*
G03*
X139370000Y-108657346I0J50000D01*
G01*
X139420000Y-108707345D02*
X139420000Y-105253681D01*
X139320000Y-105253681D02*
G75*
G02*
X139420000Y-105253681I50000J0D01*
G01*
X139320000Y-105253681D02*
X139320000Y-108707345D01*
X139320000Y-108707345D02*
G75*
G03*
X139420000Y-108707345I50000J0D01*
G01*
X139370000Y-114486319D02*
X138570000Y-114486319D01*
X138570000Y-114586319D02*
G75*
G02*
X138570000Y-114486319I0J50000D01*
G01*
X138570000Y-114586319D02*
X139370000Y-114586319D01*
X139370000Y-114586319D02*
G75*
G03*
X139370000Y-114486319I0J50000D01*
G01*
X139420000Y-114536318D02*
X139420000Y-111082654D01*
X139320000Y-111082654D02*
G75*
G02*
X139420000Y-111082654I50000J0D01*
G01*
X139320000Y-111082654D02*
X139320000Y-114536318D01*
X139320000Y-114536318D02*
G75*
G03*
X139420000Y-114536318I50000J0D01*
G01*
X139420000Y-124295000D02*
X139420000Y-121905526D01*
X139320000Y-121905526D02*
G75*
G02*
X139420000Y-121905526I50000J0D01*
G01*
X139320000Y-121905526D02*
X139320000Y-124295000D01*
X139320000Y-124295000D02*
G75*
G03*
X139420000Y-124295000I50000J0D01*
G01*
X74070000Y-109835000D02*
G75*
G02*
X70670000Y-109835000I-1700000J0D01*
G01*
X70670000Y-109835000D02*
G75*
G02*
X74070000Y-109835000I1700000J0D01*
G01*
X74070000Y-109835000D02*
G75*
G02*
X70670000Y-109835000I-1700000J0D01*
G01*
X70670000Y-109835000D02*
G75*
G02*
X74070000Y-109835000I1700000J0D01*
G01*
X129330000Y-109835000D02*
G75*
G02*
X125930000Y-109835000I-1700000J0D01*
G01*
X125930000Y-109835000D02*
G75*
G02*
X129330000Y-109835000I1700000J0D01*
G01*
X129330000Y-109835000D02*
G75*
G02*
X125930000Y-109835000I-1700000J0D01*
G01*
X125930000Y-109835000D02*
G75*
G02*
X129330000Y-109835000I1700000J0D01*
G01*
X114450000Y-92120000D02*
X114450000Y-93120000D01*
X114450000Y-93120000D02*
X114950000Y-93120000D01*
X114950000Y-92120000D02*
X114450000Y-92120000D01*
X114950000Y-93120000D02*
X114950000Y-92120000D01*
X60685000Y-124210000D02*
X60685000Y-95460000D01*
X60565000Y-95460000D02*
G75*
G02*
X60685000Y-95460000I60000J0D01*
G01*
X60565000Y-95460000D02*
X60565000Y-124210000D01*
X60565000Y-124210000D02*
G75*
G03*
X60685000Y-124210000I60000J0D01*
G01*
X139375000Y-95400000D02*
X60625000Y-95400000D01*
X60625000Y-95520000D02*
G75*
G02*
X60625000Y-95400000I0J60000D01*
G01*
X60625000Y-95520000D02*
X139375000Y-95520000D01*
X139375000Y-95520000D02*
G75*
G03*
X139375000Y-95400000I0J60000D01*
G01*
X139375000Y-124150000D02*
X60625000Y-124150000D01*
X60625000Y-124270000D02*
G75*
G02*
X60625000Y-124150000I0J60000D01*
G01*
X60625000Y-124270000D02*
X139375000Y-124270000D01*
X139375000Y-124270000D02*
G75*
G03*
X139375000Y-124150000I0J60000D01*
G01*
X139435000Y-124210000D02*
X139435000Y-95460000D01*
X139315000Y-95460000D02*
G75*
G02*
X139435000Y-95460000I60000J0D01*
G01*
X139315000Y-95460000D02*
X139315000Y-124210000D01*
X139315000Y-124210000D02*
G75*
G03*
X139435000Y-124210000I60000J0D01*
G01*
X81000000Y-120487500D02*
X81000000Y-121312500D01*
X81000000Y-121312500D02*
X82600000Y-121312500D01*
X82600000Y-120487500D02*
X81000000Y-120487500D01*
X82600000Y-121312500D02*
X82600000Y-120487500D01*
X124770000Y-100500000D02*
X124770000Y-101000000D01*
X124770000Y-101000000D02*
X125770000Y-101000000D01*
X125770000Y-100500000D02*
X124770000Y-100500000D01*
X125770000Y-101000000D02*
X125770000Y-100500000D01*
X95670000Y-151450000D02*
X97800000Y-151450000D01*
X95670000Y-154250000D02*
X95670000Y-151450000D01*
X97800000Y-150050000D02*
X99400000Y-150050000D01*
X97800000Y-151450000D02*
X97800000Y-150050000D01*
X98950000Y-154250000D02*
X95670000Y-154250000D01*
X98950000Y-155650000D02*
X98950000Y-154250000D01*
X99400000Y-150050000D02*
X99400000Y-151450000D01*
X99400000Y-151450000D02*
X100600000Y-151450000D01*
X100600000Y-150050000D02*
X102200000Y-150050000D01*
X100600000Y-151450000D02*
X100600000Y-150050000D01*
X101050000Y-154250000D02*
X101050000Y-155650000D01*
X101050000Y-155650000D02*
X98950000Y-155650000D01*
X102200000Y-150050000D02*
X102200000Y-151450000D01*
X102200000Y-151450000D02*
X104330000Y-151450000D01*
X104330000Y-151450000D02*
X104330000Y-154250000D01*
X104330000Y-154250000D02*
X101050000Y-154250000D01*
D17*
X96690000Y-150710000D02*
G75*
G02*
X96490000Y-150710000I-100000J0D01*
G01*
X96490000Y-150710000D02*
G75*
G02*
X96690000Y-150710000I100000J0D01*
G01*
D16*
X117375400Y-142750000D02*
X117224600Y-142750000D01*
X117224600Y-142560000D01*
X117375400Y-142560000D01*
X117375400Y-142750000D01*
X117375400Y-142940000D02*
X117224600Y-142940000D01*
X117224600Y-142750000D01*
X117375400Y-142750000D01*
X117375400Y-142940000D01*
D15*
X77950000Y-120400000D02*
X77950000Y-121400000D01*
X77950000Y-121400000D02*
X78450000Y-121400000D01*
X78450000Y-120400000D02*
X77950000Y-120400000D01*
X78450000Y-121400000D02*
X78450000Y-120400000D01*
X114650000Y-100100000D02*
X114650000Y-100900000D01*
X114650000Y-100900000D02*
X116250000Y-100900000D01*
X116250000Y-100100000D02*
X114650000Y-100100000D01*
X116250000Y-100900000D02*
X116250000Y-100100000D01*
X114400000Y-101450000D02*
X114400000Y-101950000D01*
X114400000Y-101950000D02*
X115400000Y-101950000D01*
X115400000Y-101450000D02*
X114400000Y-101450000D01*
X115400000Y-101950000D02*
X115400000Y-101450000D01*
X68600000Y-119250000D02*
X68600000Y-119750000D01*
X68600000Y-119750000D02*
X69600000Y-119750000D01*
X69600000Y-119250000D02*
X68600000Y-119250000D01*
X69600000Y-119750000D02*
X69600000Y-119250000D01*
D18*
X96770000Y-129250000D02*
X96770000Y-129850000D01*
X96770000Y-129850000D02*
X97270000Y-129550000D01*
X97270000Y-129550000D02*
X96770000Y-129250000D01*
X97900000Y-126350000D02*
X97900000Y-134000000D01*
X97900000Y-134000000D02*
X102100000Y-134000000D01*
X102100000Y-126350000D02*
X97900000Y-126350000D01*
X102100000Y-134000000D02*
X102100000Y-126350000D01*
D19*
X90896500Y-126180600D02*
X96103500Y-126180600D01*
X90896500Y-138169400D02*
X90896500Y-126180600D01*
X96103500Y-126180600D02*
X96103500Y-138169400D01*
X96103500Y-138169400D02*
X90896500Y-138169400D01*
D20*
X92052200Y-137432800D02*
G75*
G02*
X91290200Y-137432800I-381000J0D01*
G01*
X91290200Y-137432800D02*
G75*
G02*
X92052200Y-137432800I381000J0D01*
G01*
D15*
X113500000Y-92120000D02*
X113500000Y-93120000D01*
X113500000Y-93120000D02*
X114000000Y-93120000D01*
X114000000Y-92120000D02*
X113500000Y-92120000D01*
X114000000Y-93120000D02*
X114000000Y-92120000D01*
X117300000Y-92120000D02*
X117300000Y-93120000D01*
X117300000Y-93120000D02*
X117800000Y-93120000D01*
X117800000Y-92120000D02*
X117300000Y-92120000D01*
X117800000Y-93120000D02*
X117800000Y-92120000D01*
X111250000Y-93950000D02*
X111250000Y-94950000D01*
X111250000Y-94950000D02*
X111750000Y-94950000D01*
X111750000Y-93950000D02*
X111250000Y-93950000D01*
X111750000Y-94950000D02*
X111750000Y-93950000D01*
X105400000Y-93950000D02*
X105400000Y-94950000D01*
X105400000Y-94950000D02*
X105900000Y-94950000D01*
X105900000Y-93950000D02*
X105400000Y-93950000D01*
X105900000Y-94950000D02*
X105900000Y-93950000D01*
D19*
X103896500Y-126180600D02*
X109103500Y-126180600D01*
X103896500Y-138169400D02*
X103896500Y-126180600D01*
X109103500Y-126180600D02*
X109103500Y-138169400D01*
X109103500Y-138169400D02*
X103896500Y-138169400D01*
D20*
X108709800Y-126917200D02*
G75*
G02*
X107947800Y-126917200I-381000J0D01*
G01*
X107947800Y-126917200D02*
G75*
G02*
X108709800Y-126917200I381000J0D01*
G01*
D15*
X125750000Y-97700000D02*
X126850000Y-97700000D01*
X125750000Y-98400000D02*
X125750000Y-97700000D01*
X126850000Y-97700000D02*
X126850000Y-98400000D01*
X126850000Y-98400000D02*
X125750000Y-98400000D01*
X115700000Y-97750000D02*
X115700000Y-99350000D01*
X115700000Y-99350000D02*
X118900000Y-99350000D01*
X118900000Y-97750000D02*
X115700000Y-97750000D01*
X118900000Y-99350000D02*
X118900000Y-97750000D01*
X60685000Y-124210000D02*
X60685000Y-95460000D01*
X60565000Y-95460000D02*
G75*
G02*
X60685000Y-95460000I60000J0D01*
G01*
X60565000Y-95460000D02*
X60565000Y-124210000D01*
X60565000Y-124210000D02*
G75*
G03*
X60685000Y-124210000I60000J0D01*
G01*
X139375000Y-95400000D02*
X60625000Y-95400000D01*
X60625000Y-95520000D02*
G75*
G02*
X60625000Y-95400000I0J60000D01*
G01*
X60625000Y-95520000D02*
X139375000Y-95520000D01*
X139375000Y-95520000D02*
G75*
G03*
X139375000Y-95400000I0J60000D01*
G01*
X139375000Y-124150000D02*
X60625000Y-124150000D01*
X60625000Y-124270000D02*
G75*
G02*
X60625000Y-124150000I0J60000D01*
G01*
X60625000Y-124270000D02*
X139375000Y-124270000D01*
X139375000Y-124270000D02*
G75*
G03*
X139375000Y-124150000I0J60000D01*
G01*
X139435000Y-124210000D02*
X139435000Y-95460000D01*
X139315000Y-95460000D02*
G75*
G02*
X139435000Y-95460000I60000J0D01*
G01*
X139315000Y-95460000D02*
X139315000Y-124210000D01*
X139315000Y-124210000D02*
G75*
G03*
X139435000Y-124210000I60000J0D01*
G01*
X128200000Y-108185000D02*
X127000000Y-108185000D01*
X127000000Y-108285000D02*
G75*
G02*
X127000000Y-108185000I0J50000D01*
G01*
X127000000Y-108285000D02*
X128200000Y-108285000D01*
X128200000Y-108285000D02*
G75*
G03*
X128200000Y-108185000I0J50000D01*
G01*
X126950000Y-108235000D02*
X126950000Y-111435000D01*
X127050000Y-111435000D02*
G75*
G02*
X126950000Y-111435000I-50000J0D01*
G01*
X127050000Y-111435000D02*
X127050000Y-108235000D01*
X127050000Y-108235000D02*
G75*
G03*
X126950000Y-108235000I-50000J0D01*
G01*
X127000000Y-111485000D02*
X128200000Y-111485000D01*
X128200000Y-111385000D02*
G75*
G02*
X128200000Y-111485000I0J-50000D01*
G01*
X128200000Y-111385000D02*
X127000000Y-111385000D01*
X127000000Y-111385000D02*
G75*
G03*
X127000000Y-111485000I0J-50000D01*
G01*
X128250000Y-111435000D02*
X128250000Y-108235000D01*
X128150000Y-108235000D02*
G75*
G02*
X128250000Y-108235000I50000J0D01*
G01*
X128150000Y-108235000D02*
X128150000Y-111435000D01*
X128150000Y-111435000D02*
G75*
G03*
X128250000Y-111435000I50000J0D01*
G01*
X72995207Y-125733831D02*
X72995207Y-126233831D01*
X72995207Y-126233831D02*
X73995207Y-126233831D01*
X73995207Y-125733831D02*
X72995207Y-125733831D01*
X73995207Y-126233831D02*
X73995207Y-125733831D01*
X116350000Y-92120000D02*
X116350000Y-93120000D01*
X116350000Y-93120000D02*
X116850000Y-93120000D01*
X116850000Y-92120000D02*
X116350000Y-92120000D01*
X116850000Y-93120000D02*
X116850000Y-92120000D01*
X60525000Y-95450000D02*
X139415000Y-124340000D01*
X60525000Y-124340000D02*
X139415000Y-95450000D01*
X60565000Y-95400000D02*
X139435000Y-124270000D01*
X60565000Y-124270000D02*
X139435000Y-95400000D01*
X70777466Y-108192466D02*
X129274999Y-111477534D01*
X70777466Y-111477534D02*
X129274999Y-108192466D01*
M02*
