G04 #@! TF.GenerationSoftware,KiCad,Pcbnew,9.0.6*
G04 #@! TF.CreationDate,2026-08-28T14:08:47-05:00*
G04 #@! TF.ProjectId,robot,726f626f-742e-46b6-9963-61645f706362,rev?*
G04 #@! TF.SameCoordinates,Original*
G04 #@! TF.FileFunction,Legend,Bot*
G04 #@! TF.FilePolarity,Positive*
%FSLAX46Y46*%
G04 Gerber Fmt 4.6, Leading zero omitted, Abs format (unit mm)*
G04 Created by KiCad (PCBNEW 9.0.6) date 2026-08-28 14:08:47*
%MOMM*%
%LPD*%
G01*
G04 APERTURE LIST*
%ADD10C,0.150000*%
%ADD11C,0.120000*%
%ADD12C,0.127000*%
%ADD13C,0.152400*%
%ADD14C,0.100000*%
%ADD15C,0.200000*%
G04 APERTURE END LIST*
D10*
X100308333Y-147909819D02*
X100308333Y-148624104D01*
X100308333Y-148624104D02*
X100355952Y-148766961D01*
X100355952Y-148766961D02*
X100451190Y-148862200D01*
X100451190Y-148862200D02*
X100594047Y-148909819D01*
X100594047Y-148909819D02*
X100689285Y-148909819D01*
X99308333Y-148909819D02*
X99879761Y-148909819D01*
X99594047Y-148909819D02*
X99594047Y-147909819D01*
X99594047Y-147909819D02*
X99689285Y-148052676D01*
X99689285Y-148052676D02*
X99784523Y-148147914D01*
X99784523Y-148147914D02*
X99879761Y-148195533D01*
D11*
X115290000Y-92512164D02*
X115290000Y-92727836D01*
X116010000Y-92512164D02*
X116010000Y-92727836D01*
X122837742Y-120777500D02*
X123312258Y-120777500D01*
X122837742Y-121822500D02*
X123312258Y-121822500D01*
X130642164Y-100390000D02*
X130857836Y-100390000D01*
X130642164Y-101110000D02*
X130857836Y-101110000D01*
X113990000Y-94582836D02*
X113990000Y-94367164D01*
X114710000Y-94582836D02*
X114710000Y-94367164D01*
X70703043Y-125623831D02*
X70487371Y-125623831D01*
X70703043Y-126343831D02*
X70487371Y-126343831D01*
X113040000Y-94582836D02*
X113040000Y-94367164D01*
X113760000Y-94582836D02*
X113760000Y-94367164D01*
X107190000Y-94557836D02*
X107190000Y-94342164D01*
X107910000Y-94557836D02*
X107910000Y-94342164D01*
X106240000Y-94557836D02*
X106240000Y-94342164D01*
X106960000Y-94557836D02*
X106960000Y-94342164D01*
X68259420Y-120790000D02*
X68540580Y-120790000D01*
X68259420Y-121810000D02*
X68540580Y-121810000D01*
X112090000Y-94582836D02*
X112090000Y-94367164D01*
X112810000Y-94582836D02*
X112810000Y-94367164D01*
X114340000Y-92512164D02*
X114340000Y-92727836D01*
X115060000Y-92512164D02*
X115060000Y-92727836D01*
X81562742Y-120377500D02*
X82037258Y-120377500D01*
X81562742Y-121422500D02*
X82037258Y-121422500D01*
X125377836Y-100390000D02*
X125162164Y-100390000D01*
X125377836Y-101110000D02*
X125162164Y-101110000D01*
X77840000Y-121007836D02*
X77840000Y-120792164D01*
X78560000Y-121007836D02*
X78560000Y-120792164D01*
X115590580Y-99990000D02*
X115309420Y-99990000D01*
X115590580Y-101010000D02*
X115309420Y-101010000D01*
X115007836Y-101340000D02*
X114792164Y-101340000D01*
X115007836Y-102060000D02*
X114792164Y-102060000D01*
X68992164Y-119140000D02*
X69207836Y-119140000D01*
X68992164Y-119860000D02*
X69207836Y-119860000D01*
D12*
X96770000Y-129250000D02*
X96770000Y-129850000D01*
X96770000Y-129850000D02*
X97270000Y-129550000D01*
X97270000Y-129550000D02*
X96770000Y-129250000D01*
X97900000Y-126350000D02*
X97900000Y-128830000D01*
X97900000Y-131520000D02*
X97900000Y-134000000D01*
X97900000Y-134000000D02*
X99180000Y-134000000D01*
X99180000Y-126350000D02*
X97900000Y-126350000D01*
X102100000Y-128370000D02*
X102100000Y-131980000D01*
D13*
X90769500Y-126053600D02*
X92826961Y-126053600D01*
X90769500Y-127736660D02*
X90769500Y-126053600D01*
X90769500Y-138296400D02*
X90769500Y-136613340D01*
X92826961Y-138296400D02*
X90769500Y-138296400D01*
X95880041Y-126053600D02*
X96230500Y-126053600D01*
X96230500Y-126053600D02*
X96230500Y-138296400D01*
X96230500Y-138296400D02*
X95880041Y-138296400D01*
D11*
X113390000Y-92512164D02*
X113390000Y-92727836D01*
X114110000Y-92512164D02*
X114110000Y-92727836D01*
X117190000Y-92512164D02*
X117190000Y-92727836D01*
X117910000Y-92512164D02*
X117910000Y-92727836D01*
X111140000Y-94342164D02*
X111140000Y-94557836D01*
X111860000Y-94342164D02*
X111860000Y-94557836D01*
X105290000Y-94557836D02*
X105290000Y-94342164D01*
X106010000Y-94557836D02*
X106010000Y-94342164D01*
D13*
X103769500Y-126053600D02*
X104119959Y-126053600D01*
X103769500Y-138296400D02*
X103769500Y-126053600D01*
X104119959Y-138296400D02*
X103769500Y-138296400D01*
X107173039Y-126053600D02*
X109230500Y-126053600D01*
X109230500Y-126053600D02*
X109230500Y-127736660D01*
X109230500Y-136613340D02*
X109230500Y-138296400D01*
X109230500Y-138296400D02*
X107173039Y-138296400D01*
D11*
X118011252Y-97640000D02*
X116588748Y-97640000D01*
X118011252Y-99460000D02*
X116588748Y-99460000D01*
D14*
X95670000Y-151450000D02*
X96760000Y-151450000D01*
X95670000Y-151900000D02*
X95670000Y-151450000D01*
X95670000Y-154250000D02*
X95670000Y-153800000D01*
X96760000Y-154250000D02*
X95670000Y-154250000D01*
X103240000Y-151450000D02*
X104330000Y-151450000D01*
X104330000Y-151450000D02*
X104330000Y-151900000D01*
X104330000Y-153800000D02*
X104330000Y-154250000D01*
X104330000Y-154250000D02*
X103240000Y-154250000D01*
D15*
X96690000Y-150710000D02*
G75*
G02*
X96490000Y-150710000I-100000J0D01*
G01*
X96490000Y-150710000D02*
G75*
G02*
X96690000Y-150710000I100000J0D01*
G01*
D11*
X73387371Y-125623831D02*
X73603043Y-125623831D01*
X73387371Y-126343831D02*
X73603043Y-126343831D01*
X116240000Y-92512164D02*
X116240000Y-92727836D01*
X116960000Y-92512164D02*
X116960000Y-92727836D01*
M02*
