%TF.GenerationSoftware,KiCad,Pcbnew,9.0.6*%
%TF.CreationDate,2026-01-28T17:05:27-05:00*%
%TF.ProjectId,robot,726f626f-742e-46b6-9963-61645f706362,rev?*%
%TF.SameCoordinates,Original*%
%TF.FileFunction,Legend,Top*%
%TF.FilePolarity,Positive*%
%FSLAX46Y46*%
G04 Gerber Fmt 4.6, Leading zero omitted, Abs format (unit mm)*
G04 Created by KiCad (PCBNEW 9.0.6) date 2026-01-28 17:05:27*
%MOMM*%
%LPD*%
G01*
G04 APERTURE LIST*
%ADD10C,0.150000*%
%ADD11C,0.200000*%
%ADD12C,0.120000*%
%ADD13C,0.160000*%
%ADD14C,0.127000*%
%ADD15C,0.110000*%
%ADD16C,0.100000*%
%ADD17C,0.239605*%
%ADD18C,0.250000*%
%ADD19C,0.152400*%
G04 APERTURE END LIST*
D10*
X100500026Y-115472868D02*
X100738121Y-115472868D01*
X100642883Y-115710963D02*
X100738121Y-115472868D01*
X100738121Y-115472868D02*
X100642883Y-115234773D01*
X100928597Y-115615725D02*
X100738121Y-115472868D01*
X100738121Y-115472868D02*
X100928597Y-115330011D01*
D11*
X123532420Y-92990719D02*
X123532420Y-96940719D01*
X123534960Y-98939998D02*
X123534960Y-100262739D01*
X125100000Y-100262739D02*
X123534960Y-100262739D01*
X133054880Y-92990719D02*
X133054880Y-96940719D01*
X133057420Y-98939998D02*
X133057420Y-100260199D01*
X133057420Y-100260199D02*
X131500000Y-100260199D01*
D12*
X89677500Y-144287742D02*
X89677500Y-144762258D01*
X90722500Y-144287742D02*
X90722500Y-144762258D01*
X130346359Y-119920000D02*
X130653641Y-119920000D01*
X130346359Y-120680000D02*
X130653641Y-120680000D01*
X87441666Y-90310000D02*
X88341666Y-90310000D01*
X87441666Y-91110000D02*
X88341666Y-91110000D01*
X87641666Y-90710000D02*
X87441666Y-90710000D01*
X87641666Y-90710000D02*
X88141666Y-91110000D01*
X87641666Y-91110000D02*
X87641666Y-90310000D01*
X88141666Y-90310000D02*
X87641666Y-90710000D01*
X88141666Y-90710000D02*
X88341666Y-90710000D01*
X88141666Y-91110000D02*
X88141666Y-90310000D01*
D10*
X127765000Y-113308000D02*
X127765000Y-112292000D01*
X129035000Y-112292000D02*
X129035000Y-113308000D01*
X61515000Y-124708000D02*
X61515000Y-123692000D01*
X62785000Y-123692000D02*
X62785000Y-124708000D01*
D12*
X91277500Y-144237742D02*
X91277500Y-144712258D01*
X92322500Y-144237742D02*
X92322500Y-144712258D01*
X105259200Y-118872220D02*
X105259200Y-119153380D01*
X106279200Y-118872220D02*
X106279200Y-119153380D01*
X106740000Y-132063449D02*
X106740000Y-131782289D01*
X107760000Y-132063449D02*
X107760000Y-131782289D01*
X74283600Y-118377736D02*
X74283600Y-118162064D01*
X75003600Y-118377736D02*
X75003600Y-118162064D01*
X89637258Y-108127500D02*
X89162742Y-108127500D01*
X89637258Y-109172500D02*
X89162742Y-109172500D01*
X108790000Y-107980200D02*
X105390000Y-107980200D01*
X105390000Y-109930200D01*
X108790000Y-109930200D01*
X108790000Y-107980200D01*
D13*
X108970000Y-110055200D02*
G75*
G02*
X108810000Y-110055200I-80000J0D01*
G01*
X108810000Y-110055200D02*
G75*
G02*
X108970000Y-110055200I80000J0D01*
G01*
D12*
X81499000Y-108318864D02*
X81499000Y-108534536D01*
X82219000Y-108318864D02*
X82219000Y-108534536D01*
D14*
X84785000Y-94970000D02*
X84785000Y-93370000D01*
X87835000Y-93370000D02*
X87835000Y-94970000D01*
D12*
X111410000Y-93450000D02*
X107550000Y-93450000D01*
X111410000Y-95450000D02*
X107550000Y-95450000D01*
X111410000Y-95450000D02*
X111410000Y-93450000D01*
X104009892Y-128390831D02*
X104009892Y-127883831D01*
X104716892Y-128390831D02*
X104009892Y-128390831D01*
X106370892Y-126122831D02*
X107077892Y-126122831D01*
X106370892Y-126122831D02*
X107077892Y-126122831D01*
X106370892Y-126122831D02*
X107077892Y-126122831D01*
X106370892Y-128390831D02*
X107077892Y-128390831D01*
X107077892Y-126122831D02*
X107077892Y-126629831D01*
X107077892Y-126122831D02*
X107077892Y-126629831D01*
X107077892Y-126122831D02*
X107077892Y-126629831D01*
X107077892Y-128390831D02*
X107077892Y-127883831D01*
D11*
X104129892Y-126192831D02*
G75*
G02*
X104029892Y-126192831I-50000J0D01*
G01*
X104029892Y-126192831D02*
G75*
G02*
X104129892Y-126192831I50000J0D01*
G01*
D12*
X120249634Y-115436331D02*
X120724150Y-115436331D01*
X120249634Y-116481331D02*
X120724150Y-116481331D01*
X71337200Y-118377736D02*
X71337200Y-118162064D01*
X72057200Y-118377736D02*
X72057200Y-118162064D01*
X83070365Y-125783900D02*
X83286037Y-125783900D01*
X83070365Y-126503900D02*
X83286037Y-126503900D01*
X85840000Y-116272164D02*
X85840000Y-116487836D01*
X86560000Y-116272164D02*
X86560000Y-116487836D01*
X87948658Y-121614300D02*
X87474142Y-121614300D01*
X87948658Y-122659300D02*
X87474142Y-122659300D01*
X78690000Y-115859420D02*
X78690000Y-116140580D01*
X79710000Y-115859420D02*
X79710000Y-116140580D01*
X78267142Y-121963800D02*
X78741658Y-121963800D01*
X78267142Y-123008800D02*
X78741658Y-123008800D01*
X103151892Y-132030705D02*
X103151892Y-131815033D01*
X103871892Y-132030705D02*
X103871892Y-131815033D01*
X78396564Y-123650300D02*
X78612236Y-123650300D01*
X78396564Y-124370300D02*
X78612236Y-124370300D01*
X106390000Y-101284420D02*
X106390000Y-101565580D01*
X107410000Y-101284420D02*
X107410000Y-101565580D01*
X113920000Y-94363641D02*
X113920000Y-94056359D01*
X114680000Y-94363641D02*
X114680000Y-94056359D01*
X65564193Y-107957431D02*
X65824193Y-107957431D01*
X65564193Y-110682431D02*
X65564193Y-107957431D01*
X65564193Y-110682431D02*
X65564193Y-113407431D01*
X65564193Y-113407431D02*
X65824193Y-113407431D01*
X65824193Y-113407431D02*
X65824193Y-115082431D01*
X71014193Y-107957431D02*
X70754193Y-107957431D01*
X71014193Y-110682431D02*
X71014193Y-107957431D01*
X71014193Y-110682431D02*
X71014193Y-113407431D01*
X71014193Y-113407431D02*
X70754193Y-113407431D01*
X91677500Y-126437258D02*
X91677500Y-125962742D01*
X92722500Y-126437258D02*
X92722500Y-125962742D01*
X85340000Y-118607836D02*
X85340000Y-118392164D01*
X86060000Y-118607836D02*
X86060000Y-118392164D01*
X64480000Y-105866359D02*
X64480000Y-106173641D01*
X65240000Y-105866359D02*
X65240000Y-106173641D01*
X118460000Y-104012500D02*
X118460000Y-103362500D01*
X118460000Y-104012500D02*
X118460000Y-104662500D01*
X121580000Y-104012500D02*
X121580000Y-102337500D01*
X121580000Y-104012500D02*
X121580000Y-104662500D01*
X107986892Y-122599411D02*
X107986892Y-122318251D01*
X109006892Y-122599411D02*
X109006892Y-122318251D01*
X130322164Y-118890000D02*
X130537836Y-118890000D01*
X130322164Y-119610000D02*
X130537836Y-119610000D01*
X112657064Y-132965000D02*
X112202936Y-132965000D01*
X112657064Y-134435000D02*
X112202936Y-134435000D01*
X93827500Y-97837742D02*
X93827500Y-98312258D01*
X94872500Y-97837742D02*
X94872500Y-98312258D01*
X73318400Y-118377736D02*
X73318400Y-118162064D01*
X74038400Y-118377736D02*
X74038400Y-118162064D01*
X81520400Y-105508136D02*
X81520400Y-105292464D01*
X82240400Y-105508136D02*
X82240400Y-105292464D01*
X79490564Y-108828700D02*
X79706236Y-108828700D01*
X79490564Y-109548700D02*
X79706236Y-109548700D01*
X81302401Y-120665100D02*
X81302401Y-121017405D01*
X81302401Y-123962795D02*
X81302401Y-124315100D01*
X81302401Y-124315100D02*
X81904706Y-124315100D01*
X81904706Y-120665100D02*
X81302401Y-120665100D01*
X82850094Y-124315100D02*
X83404708Y-124315100D01*
X83404708Y-120665100D02*
X82850094Y-120665100D01*
X84350096Y-124315100D02*
X84952401Y-124315100D01*
X84952401Y-120665100D02*
X84350096Y-120665100D01*
X84952401Y-121017405D02*
X84952401Y-120665100D01*
X84952401Y-124315100D02*
X84952401Y-123962795D01*
D15*
X84332401Y-124640100D02*
G75*
G02*
X84222401Y-124640100I-55000J0D01*
G01*
X84222401Y-124640100D02*
G75*
G02*
X84332401Y-124640100I55000J0D01*
G01*
D16*
X80679458Y-122180601D02*
X80425458Y-122180601D01*
X80425458Y-121799601D01*
X80679458Y-121799601D01*
X80679458Y-122180601D01*
G36*
X80679458Y-122180601D02*
G01*
X80425458Y-122180601D01*
X80425458Y-121799601D01*
X80679458Y-121799601D01*
X80679458Y-122180601D01*
G37*
D12*
X73410000Y-130706359D02*
X73410000Y-131013641D01*
X74170000Y-130706359D02*
X74170000Y-131013641D01*
X131092164Y-121240000D02*
X131307836Y-121240000D01*
X131092164Y-121960000D02*
X131307836Y-121960000D01*
X85025000Y-90310000D02*
X85925000Y-90310000D01*
X85025000Y-91110000D02*
X85925000Y-91110000D01*
X85225000Y-90710000D02*
X85025000Y-90710000D01*
X85225000Y-90710000D02*
X85725000Y-91110000D01*
X85225000Y-91110000D02*
X85225000Y-90310000D01*
X85725000Y-90310000D02*
X85225000Y-90710000D01*
X85725000Y-90710000D02*
X85925000Y-90710000D01*
X85725000Y-91110000D02*
X85725000Y-90310000D01*
X79087500Y-99890000D02*
X77412500Y-99890000D01*
X79087500Y-99890000D02*
X79737500Y-99890000D01*
X79087500Y-103010000D02*
X78437500Y-103010000D01*
X79087500Y-103010000D02*
X79737500Y-103010000D01*
X89938748Y-103090000D02*
X91361252Y-103090000D01*
X89938748Y-104910000D02*
X91361252Y-104910000D01*
D14*
X84010000Y-92540000D02*
G75*
G02*
X81470000Y-92540000I-1270000J0D01*
G01*
X81470000Y-92540000D02*
G75*
G02*
X84010000Y-92540000I1270000J0D01*
G01*
D12*
X79836500Y-107153158D02*
X79836500Y-106678642D01*
X80881500Y-107153158D02*
X80881500Y-106678642D01*
X83622707Y-129835127D02*
X83622707Y-129360611D01*
X84667707Y-129835127D02*
X84667707Y-129360611D01*
X86877064Y-104115000D02*
X86422936Y-104115000D01*
X86877064Y-105585000D02*
X86422936Y-105585000D01*
X86477500Y-118637742D02*
X86477500Y-119112258D01*
X87522500Y-118637742D02*
X87522500Y-119112258D01*
X120249634Y-112386331D02*
X120724150Y-112386331D01*
X120249634Y-113431331D02*
X120724150Y-113431331D01*
D10*
X62015000Y-135508000D02*
X62015000Y-134492000D01*
X63285000Y-134492000D02*
X63285000Y-135508000D01*
D12*
X116640000Y-98061252D02*
X116640000Y-96638748D01*
X118460000Y-98061252D02*
X118460000Y-96638748D01*
D10*
X61515000Y-118408000D02*
X61515000Y-117392000D01*
X62785000Y-117392000D02*
X62785000Y-118408000D01*
D12*
X82774400Y-113632459D02*
X82774400Y-113939741D01*
X83534400Y-113632459D02*
X83534400Y-113939741D01*
X120107836Y-97840000D02*
X119892164Y-97840000D01*
X120107836Y-98560000D02*
X119892164Y-98560000D01*
X69520000Y-130402164D02*
X69520000Y-130617836D01*
X70240000Y-130402164D02*
X70240000Y-130617836D01*
D14*
X130000000Y-102500000D02*
X133600000Y-102500000D01*
X130000000Y-103680000D02*
X130000000Y-102500000D01*
X130000000Y-106180000D02*
X130000000Y-105320000D01*
X130000000Y-108680000D02*
X130000000Y-107820000D01*
X130000000Y-111500000D02*
X130000000Y-110320000D01*
X133600000Y-102500000D02*
X133600000Y-103680000D01*
X133600000Y-105320000D02*
X133600000Y-106180000D01*
X133600000Y-107820000D02*
X133600000Y-108680000D01*
X133600000Y-110320000D02*
X133600000Y-111500000D01*
X133600000Y-111500000D02*
X130000000Y-111500000D01*
D11*
X129400000Y-103500000D02*
G75*
G02*
X129200000Y-103500000I-100000J0D01*
G01*
X129200000Y-103500000D02*
G75*
G02*
X129400000Y-103500000I100000J0D01*
G01*
D10*
X137292000Y-90765000D02*
X138308000Y-90765000D01*
X138308000Y-92035000D02*
X137292000Y-92035000D01*
D12*
X123437258Y-117177500D02*
X122962742Y-117177500D01*
X123437258Y-118222500D02*
X122962742Y-118222500D01*
X103861892Y-123951767D02*
X103861892Y-124405895D01*
X105331892Y-123951767D02*
X105331892Y-124405895D01*
X97090000Y-145165580D02*
X97090000Y-144884420D01*
X98110000Y-145165580D02*
X98110000Y-144884420D01*
X108787500Y-137427500D02*
X109575000Y-137427500D01*
X109181250Y-137033750D02*
X109181250Y-137821250D01*
X109815000Y-136929437D02*
X109815000Y-138215000D01*
X109815000Y-136929437D02*
X110879437Y-135865000D01*
X109815000Y-141620563D02*
X109815000Y-140335000D01*
X109815000Y-141620563D02*
X110879437Y-142685000D01*
X110879437Y-135865000D02*
X116635000Y-135865000D01*
X110879437Y-142685000D02*
X116635000Y-142685000D01*
X112513748Y-138365000D02*
X113936252Y-138365000D01*
X112513748Y-140185000D02*
X113936252Y-140185000D01*
X116635000Y-135865000D02*
X116635000Y-138215000D01*
X116635000Y-142685000D02*
X116635000Y-140335000D01*
X92877500Y-109537258D02*
X92877500Y-109062742D01*
X93922500Y-109537258D02*
X93922500Y-109062742D01*
X98440000Y-144507836D02*
X98440000Y-144292164D01*
X99160000Y-144507836D02*
X99160000Y-144292164D01*
X102377064Y-104915000D02*
X101922936Y-104915000D01*
X102377064Y-106385000D02*
X101922936Y-106385000D01*
D10*
X98292000Y-131165000D02*
X99308000Y-131165000D01*
X99308000Y-132435000D02*
X98292000Y-132435000D01*
D12*
X106937258Y-114177500D02*
X106462742Y-114177500D01*
X106937258Y-115222500D02*
X106462742Y-115222500D01*
X95594199Y-119257364D02*
X95594199Y-119473036D01*
X96314199Y-119257364D02*
X96314199Y-119473036D01*
X109996558Y-111399500D02*
X109522042Y-111399500D01*
X109996558Y-112444500D02*
X109522042Y-112444500D01*
X79625464Y-103707100D02*
X79171336Y-103707100D01*
X79625464Y-105177100D02*
X79171336Y-105177100D01*
X110191100Y-112876600D02*
X109541100Y-112876600D01*
X110191100Y-112876600D02*
X110841100Y-112876600D01*
X110191100Y-115996600D02*
X109541100Y-115996600D01*
X110191100Y-115996600D02*
X111866100Y-115996600D01*
X73357500Y-138472164D02*
X73357500Y-138687836D01*
X74077500Y-138472164D02*
X74077500Y-138687836D01*
D14*
X93400000Y-145400000D02*
X93900000Y-145400000D01*
X93400000Y-148400000D02*
X93900000Y-148400000D01*
X96400000Y-145400000D02*
X95900000Y-145400000D01*
X96400000Y-148400000D02*
X95900000Y-148400000D01*
D10*
X135192000Y-90765000D02*
X136208000Y-90765000D01*
X136208000Y-92035000D02*
X135192000Y-92035000D01*
D12*
X77860564Y-120805500D02*
X78076236Y-120805500D01*
X77860564Y-121525500D02*
X78076236Y-121525500D01*
X96827500Y-97837742D02*
X96827500Y-98312258D01*
X97872500Y-97837742D02*
X97872500Y-98312258D01*
X102190580Y-122590000D02*
X101909420Y-122590000D01*
X102190580Y-123610000D02*
X101909420Y-123610000D01*
D10*
X137492000Y-93265000D02*
X138508000Y-93265000D01*
X138508000Y-94535000D02*
X137492000Y-94535000D01*
D12*
X124550000Y-112049999D02*
X124550000Y-111800000D01*
X124550000Y-113900000D02*
X124550000Y-113050000D01*
X126950000Y-112049999D02*
X126950000Y-111800000D01*
X126950000Y-113900000D02*
X126950000Y-113650001D01*
X86864564Y-106040000D02*
X86410436Y-106040000D01*
X86864564Y-107510000D02*
X86410436Y-107510000D01*
D14*
X118070000Y-121570495D02*
G75*
G02*
X115530000Y-121570495I-1270000J0D01*
G01*
X115530000Y-121570495D02*
G75*
G02*
X118070000Y-121570495I1270000J0D01*
G01*
D12*
X111770000Y-94596359D02*
X111770000Y-94903641D01*
X112530000Y-94596359D02*
X112530000Y-94903641D01*
X117034056Y-109078831D02*
X117249728Y-109078831D01*
X117034056Y-109798831D02*
X117249728Y-109798831D01*
X89938748Y-100790000D02*
X91361252Y-100790000D01*
X89938748Y-102610000D02*
X91361252Y-102610000D01*
X105861892Y-123946767D02*
X105861892Y-124400895D01*
X107331892Y-123946767D02*
X107331892Y-124400895D01*
X106946258Y-111135300D02*
X106471742Y-111135300D01*
X106946258Y-112180300D02*
X106471742Y-112180300D01*
X116342500Y-103990000D02*
X115692500Y-103990000D01*
X116342500Y-103990000D02*
X116992500Y-103990000D01*
X116342500Y-107110000D02*
X115692500Y-107110000D01*
X116342500Y-107110000D02*
X118017500Y-107110000D01*
X78313900Y-107153158D02*
X78313900Y-106678642D01*
X79358900Y-107153158D02*
X79358900Y-106678642D01*
X89857836Y-112940000D02*
X89642164Y-112940000D01*
X89857836Y-113660000D02*
X89642164Y-113660000D01*
X81540000Y-103627836D02*
X81540000Y-103412164D01*
X82260000Y-103627836D02*
X82260000Y-103412164D01*
X75602636Y-114915600D02*
X75386964Y-114915600D01*
X75602636Y-115635600D02*
X75386964Y-115635600D01*
X108290000Y-131988748D02*
X108290000Y-133411252D01*
X110110000Y-131988748D02*
X110110000Y-133411252D01*
X100985472Y-128905831D02*
X100704312Y-128905831D01*
X100985472Y-129925831D02*
X100704312Y-129925831D01*
X112590000Y-119038748D02*
X112590000Y-120461252D01*
X114410000Y-119038748D02*
X114410000Y-120461252D01*
X91446359Y-130820000D02*
X91753641Y-130820000D01*
X91446359Y-131580000D02*
X91753641Y-131580000D01*
X87990000Y-115388748D02*
X87990000Y-116811252D01*
X89810000Y-115388748D02*
X89810000Y-116811252D01*
X103190000Y-101538748D02*
X103190000Y-102961252D01*
X105910000Y-101538748D02*
X105910000Y-102961252D01*
X100985472Y-124333831D02*
X100704312Y-124333831D01*
X100985472Y-125353831D02*
X100704312Y-125353831D01*
X75341159Y-113371600D02*
X75648441Y-113371600D01*
X75341159Y-114131600D02*
X75648441Y-114131600D01*
X107792164Y-106740000D02*
X108007836Y-106740000D01*
X107792164Y-107460000D02*
X108007836Y-107460000D01*
X72353200Y-118377736D02*
X72353200Y-118162064D01*
X73073200Y-118377736D02*
X73073200Y-118162064D01*
X78150041Y-119792869D02*
X77842759Y-119792869D01*
X78150041Y-120552869D02*
X77842759Y-120552869D01*
X90862500Y-135152500D02*
X91650000Y-135152500D01*
X91256250Y-134758750D02*
X91256250Y-135546250D01*
X91890000Y-134654437D02*
X91890000Y-135940000D01*
X91890000Y-134654437D02*
X92954437Y-133590000D01*
X91890000Y-139345563D02*
X91890000Y-138060000D01*
X91890000Y-139345563D02*
X92954437Y-140410000D01*
X92954437Y-133590000D02*
X98710000Y-133590000D01*
X92954437Y-140410000D02*
X98710000Y-140410000D01*
X94588748Y-136090000D02*
X96011252Y-136090000D01*
X94588748Y-137910000D02*
X96011252Y-137910000D01*
X98710000Y-133590000D02*
X98710000Y-135940000D01*
X98710000Y-140410000D02*
X98710000Y-138060000D01*
X68110000Y-118807836D02*
X68110000Y-118592164D01*
X68830000Y-118807836D02*
X68830000Y-118592164D01*
X89963748Y-105440000D02*
X91386252Y-105440000D01*
X89963748Y-107260000D02*
X91386252Y-107260000D01*
X75602636Y-111867600D02*
X75386964Y-111867600D01*
X75602636Y-112587600D02*
X75386964Y-112587600D01*
X117139392Y-118746089D02*
X117139392Y-118271573D01*
X118184392Y-118746089D02*
X118184392Y-118271573D01*
D10*
X80292000Y-118165000D02*
X81308000Y-118165000D01*
X81308000Y-119435000D02*
X80292000Y-119435000D01*
D12*
X127965000Y-140314564D02*
X127965000Y-139860436D01*
X129435000Y-140314564D02*
X129435000Y-139860436D01*
X107090000Y-98279420D02*
X107090000Y-98560580D01*
X108110000Y-98279420D02*
X108110000Y-98560580D01*
D14*
X136820000Y-118900000D02*
G75*
G02*
X134280000Y-118900000I-1270000J0D01*
G01*
X134280000Y-118900000D02*
G75*
G02*
X136820000Y-118900000I1270000J0D01*
G01*
D12*
X96258392Y-122909089D02*
X96258392Y-122434573D01*
X97303392Y-122909089D02*
X97303392Y-122434573D01*
X100340000Y-135840000D02*
X100340000Y-138190000D01*
X100340000Y-142660000D02*
X100340000Y-140310000D01*
X104461252Y-138340000D02*
X103038748Y-138340000D01*
X104461252Y-140160000D02*
X103038748Y-140160000D01*
X106095563Y-135840000D02*
X100340000Y-135840000D01*
X106095563Y-142660000D02*
X100340000Y-142660000D01*
X107160000Y-136904437D02*
X106095563Y-135840000D01*
X107160000Y-136904437D02*
X107160000Y-138190000D01*
X107160000Y-141595563D02*
X106095563Y-142660000D01*
X107160000Y-141595563D02*
X107160000Y-140310000D01*
X107793750Y-141491250D02*
X107793750Y-140703750D01*
X108187500Y-141097500D02*
X107400000Y-141097500D01*
X131740000Y-120042164D02*
X131740000Y-120257836D01*
X132460000Y-120042164D02*
X132460000Y-120257836D01*
X78148848Y-118792869D02*
X77841566Y-118792869D01*
X78148848Y-119552869D02*
X77841566Y-119552869D01*
X92275000Y-90310000D02*
X93175000Y-90310000D01*
X92275000Y-91110000D02*
X93175000Y-91110000D01*
X92475000Y-90710000D02*
X92275000Y-90710000D01*
X92475000Y-90710000D02*
X92975000Y-91110000D01*
X92475000Y-91110000D02*
X92475000Y-90310000D01*
X92975000Y-90310000D02*
X92475000Y-90710000D01*
X92975000Y-90710000D02*
X93175000Y-90710000D01*
X92975000Y-91110000D02*
X92975000Y-90310000D01*
D17*
X112937694Y-112288831D02*
G75*
G02*
X112698090Y-112288831I-119802J0D01*
G01*
X112698090Y-112288831D02*
G75*
G02*
X112937694Y-112288831I119802J0D01*
G01*
D12*
X110962164Y-110140000D02*
X111177836Y-110140000D01*
X110962164Y-110860000D02*
X111177836Y-110860000D01*
D10*
X82885207Y-108277869D02*
X82885207Y-111867869D01*
X82885207Y-108277869D02*
X83045207Y-108277869D01*
X82885207Y-111867869D02*
X83045207Y-111867869D01*
X84545207Y-108277869D02*
X84705207Y-108277869D01*
X84545207Y-111867869D02*
X84705207Y-111867869D01*
X84705207Y-108277869D02*
X84705207Y-111867869D01*
D18*
X83670207Y-107677869D02*
G75*
G02*
X83420207Y-107677869I-125000J0D01*
G01*
X83420207Y-107677869D02*
G75*
G02*
X83670207Y-107677869I125000J0D01*
G01*
D12*
X91266099Y-109069542D02*
X91266099Y-109544058D01*
X92311099Y-109069542D02*
X92311099Y-109544058D01*
D10*
X98478207Y-115955869D02*
X103912207Y-115955869D01*
X98478207Y-116902869D02*
X98478207Y-115955869D01*
X98478207Y-121389869D02*
X98478207Y-120442869D01*
X98478207Y-121389869D02*
X103912207Y-121389869D01*
X103912207Y-116902869D02*
X103912207Y-115955869D01*
X103912207Y-121389869D02*
X103912207Y-120442869D01*
D12*
X75341159Y-110323600D02*
X75648441Y-110323600D01*
X75341159Y-111083600D02*
X75648441Y-111083600D01*
D10*
X82522000Y-118005000D02*
X83538000Y-118005000D01*
X83538000Y-119275000D02*
X82522000Y-119275000D01*
D12*
X110090000Y-98279420D02*
X110090000Y-98560580D01*
X111110000Y-98279420D02*
X111110000Y-98560580D01*
D10*
X93344599Y-106112800D02*
X93844599Y-105612800D01*
X93344599Y-106912800D02*
X93344599Y-106112800D01*
X93844599Y-105612800D02*
X96874599Y-105612800D01*
X93844599Y-107412800D02*
X93344599Y-106912800D01*
X96874599Y-105612800D02*
X97374599Y-106112800D01*
X96874599Y-107412800D02*
X93844599Y-107412800D01*
X97374599Y-106112800D02*
X97374599Y-106912800D01*
X97374599Y-106912800D02*
X96874599Y-107412800D01*
D12*
X98250000Y-99910000D02*
X98250000Y-96050000D01*
X98250000Y-99910000D02*
X100250000Y-99910000D01*
X100250000Y-99910000D02*
X100250000Y-96050000D01*
X82774400Y-116642859D02*
X82774400Y-116950141D01*
X83534400Y-116642859D02*
X83534400Y-116950141D01*
X94476599Y-109414636D02*
X94476599Y-109198964D01*
X95196599Y-109414636D02*
X95196599Y-109198964D01*
X90077500Y-126437742D02*
X90077500Y-126912258D01*
X91122500Y-126437742D02*
X91122500Y-126912258D01*
X90340000Y-115772220D02*
X90340000Y-116053380D01*
X91360000Y-115772220D02*
X91360000Y-116053380D01*
X109744329Y-106235436D02*
X109744329Y-106689564D01*
X111214329Y-106235436D02*
X111214329Y-106689564D01*
D10*
X62015000Y-133358000D02*
X62015000Y-132342000D01*
X63285000Y-132342000D02*
X63285000Y-133358000D01*
D12*
X97640000Y-123107836D02*
X97640000Y-122892164D01*
X98360000Y-123107836D02*
X98360000Y-122892164D01*
X119226892Y-109035895D02*
X119226892Y-107581767D01*
X121046892Y-109035895D02*
X121046892Y-107581767D01*
X92077500Y-120162742D02*
X92077500Y-120637258D01*
X93122500Y-120162742D02*
X93122500Y-120637258D01*
X82815000Y-101761252D02*
X82815000Y-100338748D01*
X84635000Y-101761252D02*
X84635000Y-100338748D01*
X114020000Y-96646359D02*
X114020000Y-96953641D01*
X114780000Y-96646359D02*
X114780000Y-96953641D01*
X110062742Y-147327500D02*
X110537258Y-147327500D01*
X110062742Y-148372500D02*
X110537258Y-148372500D01*
X85842400Y-114365033D02*
X85842400Y-114580705D01*
X86562400Y-114365033D02*
X86562400Y-114580705D01*
X103890000Y-96888748D02*
X103890000Y-98311252D01*
X106610000Y-96888748D02*
X106610000Y-98311252D01*
X90077500Y-150662742D02*
X90077500Y-151137258D01*
X91122500Y-150662742D02*
X91122500Y-151137258D01*
X115614392Y-118746089D02*
X115614392Y-118271573D01*
X116659392Y-118746089D02*
X116659392Y-118271573D01*
X106471742Y-112659300D02*
X106946258Y-112659300D01*
X106471742Y-113704300D02*
X106946258Y-113704300D01*
X106210000Y-93050000D02*
X102350000Y-93050000D01*
X106210000Y-95050000D02*
X102350000Y-95050000D01*
X106210000Y-95050000D02*
X106210000Y-93050000D01*
X76952400Y-108534536D02*
X76952400Y-108318864D01*
X77672400Y-108534536D02*
X77672400Y-108318864D01*
X100864007Y-109391569D02*
X100864007Y-114954169D01*
X104826407Y-114954169D02*
X104826407Y-109391569D01*
X89637258Y-109652500D02*
X89162742Y-109652500D01*
X89637258Y-110697500D02*
X89162742Y-110697500D01*
X116967258Y-102507500D02*
X116492742Y-102507500D01*
X116967258Y-103552500D02*
X116492742Y-103552500D01*
D10*
X72765000Y-115408000D02*
X72765000Y-114392000D01*
X74035000Y-114392000D02*
X74035000Y-115408000D01*
D12*
X68992500Y-135524999D02*
X68992500Y-136127304D01*
X68992500Y-137072692D02*
X68992500Y-137627306D01*
X68992500Y-138572694D02*
X68992500Y-139174999D01*
X68992500Y-139174999D02*
X69344805Y-139174999D01*
X69344805Y-135524999D02*
X68992500Y-135524999D01*
X72290195Y-139174999D02*
X72642500Y-139174999D01*
X72642500Y-135524999D02*
X72290195Y-135524999D01*
X72642500Y-136127304D02*
X72642500Y-135524999D01*
X72642500Y-137627306D02*
X72642500Y-137072692D01*
X72642500Y-139174999D02*
X72642500Y-138572694D01*
D15*
X73022500Y-136199999D02*
G75*
G02*
X72912500Y-136199999I-55000J0D01*
G01*
X72912500Y-136199999D02*
G75*
G02*
X73022500Y-136199999I55000J0D01*
G01*
D16*
X70508001Y-140051942D02*
X70127001Y-140051942D01*
X70127001Y-139797942D01*
X70508001Y-139797942D01*
X70508001Y-140051942D01*
G36*
X70508001Y-140051942D02*
G01*
X70127001Y-140051942D01*
X70127001Y-139797942D01*
X70508001Y-139797942D01*
X70508001Y-140051942D01*
G37*
D12*
X99485207Y-113713449D02*
X99485207Y-113432289D01*
X100505207Y-113713449D02*
X100505207Y-113432289D01*
X99990000Y-101538748D02*
X99990000Y-102961252D01*
X102710000Y-101538748D02*
X102710000Y-102961252D01*
X114977500Y-93887258D02*
X114977500Y-93412742D01*
X116022500Y-93887258D02*
X116022500Y-93412742D01*
X80087371Y-125112869D02*
X80303043Y-125112869D01*
X80087371Y-125832869D02*
X80303043Y-125832869D01*
X119962742Y-99177500D02*
X120437258Y-99177500D01*
X119962742Y-100222500D02*
X120437258Y-100222500D01*
X96640000Y-117792164D02*
X96640000Y-118007836D01*
X97360000Y-117792164D02*
X97360000Y-118007836D01*
X110062742Y-148827500D02*
X110537258Y-148827500D01*
X110062742Y-149872500D02*
X110537258Y-149872500D01*
D14*
X125920000Y-135200000D02*
G75*
G02*
X123380000Y-135200000I-1270000J0D01*
G01*
X123380000Y-135200000D02*
G75*
G02*
X125920000Y-135200000I1270000J0D01*
G01*
D12*
X108490000Y-144665580D02*
X108490000Y-144384420D01*
X109510000Y-144665580D02*
X109510000Y-144384420D01*
D10*
X125687802Y-118118800D02*
X128545800Y-118118800D01*
X125687802Y-121001800D02*
X125687802Y-118118800D01*
X128545800Y-118118800D02*
X128545800Y-121001800D01*
X128545800Y-121001800D02*
X125687802Y-121001800D01*
X61515000Y-120508000D02*
X61515000Y-119492000D01*
X62785000Y-119492000D02*
X62785000Y-120508000D01*
D12*
X123124636Y-121950300D02*
X122908964Y-121950300D01*
X123124636Y-122670300D02*
X122908964Y-122670300D01*
X82315000Y-133590000D02*
X82315000Y-135940000D01*
X82315000Y-140410000D02*
X82315000Y-138060000D01*
X86436252Y-136090000D02*
X85013748Y-136090000D01*
X86436252Y-137910000D02*
X85013748Y-137910000D01*
X88070563Y-133590000D02*
X82315000Y-133590000D01*
X88070563Y-140410000D02*
X82315000Y-140410000D01*
X89135000Y-134654437D02*
X88070563Y-133590000D01*
X89135000Y-134654437D02*
X89135000Y-135940000D01*
X89135000Y-139345563D02*
X88070563Y-140410000D01*
X89135000Y-139345563D02*
X89135000Y-138060000D01*
X89768750Y-139241250D02*
X89768750Y-138453750D01*
X90162500Y-138847500D02*
X89375000Y-138847500D01*
X96790000Y-101538748D02*
X96790000Y-102961252D01*
X99510000Y-101538748D02*
X99510000Y-102961252D01*
X91587500Y-150662742D02*
X91587500Y-151137258D01*
X92632500Y-150662742D02*
X92632500Y-151137258D01*
X77450000Y-116808364D02*
X77450000Y-117024036D01*
X78170000Y-116808364D02*
X78170000Y-117024036D01*
X115127500Y-97912742D02*
X115127500Y-98387258D01*
X116172500Y-97912742D02*
X116172500Y-98387258D01*
D14*
X120620000Y-135250000D02*
G75*
G02*
X118080000Y-135250000I-1270000J0D01*
G01*
X118080000Y-135250000D02*
G75*
G02*
X120620000Y-135250000I1270000J0D01*
G01*
D12*
X122947300Y-115581558D02*
X122947300Y-115107042D01*
X123992300Y-115581558D02*
X123992300Y-115107042D01*
X127687800Y-115627136D02*
X127687800Y-115411464D01*
X128407800Y-115627136D02*
X128407800Y-115411464D01*
X109390000Y-122892164D02*
X109390000Y-123107836D01*
X110110000Y-122892164D02*
X110110000Y-123107836D01*
X116986252Y-99890000D02*
X115563748Y-99890000D01*
X116986252Y-101710000D02*
X115563748Y-101710000D01*
X114070000Y-98853641D02*
X114070000Y-98546359D01*
X114830000Y-98853641D02*
X114830000Y-98546359D01*
X100690000Y-96888748D02*
X100690000Y-98311252D01*
X103410000Y-96888748D02*
X103410000Y-98311252D01*
X84318400Y-117337233D02*
X84318400Y-117552905D01*
X85038400Y-117337233D02*
X85038400Y-117552905D01*
X112657064Y-130955000D02*
X112202936Y-130955000D01*
X112657064Y-132425000D02*
X112202936Y-132425000D01*
X132190000Y-115727836D02*
X132190000Y-115512164D01*
X132910000Y-115727836D02*
X132910000Y-115512164D01*
X105959420Y-121190000D02*
X106240580Y-121190000D01*
X105959420Y-122210000D02*
X106240580Y-122210000D01*
D14*
X121170000Y-121550000D02*
G75*
G02*
X118630000Y-121550000I-1270000J0D01*
G01*
X118630000Y-121550000D02*
G75*
G02*
X121170000Y-121550000I1270000J0D01*
G01*
D12*
X66019793Y-105154967D02*
X66019793Y-104939295D01*
X66739793Y-105154967D02*
X66739793Y-104939295D01*
X91602500Y-128987742D02*
X91602500Y-129462258D01*
X92647500Y-128987742D02*
X92647500Y-129462258D01*
X72097836Y-132790000D02*
X71882164Y-132790000D01*
X72097836Y-133510000D02*
X71882164Y-133510000D01*
X123124636Y-118950300D02*
X122908964Y-118950300D01*
X123124636Y-119670300D02*
X122908964Y-119670300D01*
X90220000Y-129853641D02*
X90220000Y-129546359D01*
X90980000Y-129853641D02*
X90980000Y-129546359D01*
D10*
X71665000Y-111208000D02*
X71665000Y-110192000D01*
X72935000Y-110192000D02*
X72935000Y-111208000D01*
D14*
X65670000Y-142500000D02*
G75*
G02*
X63130000Y-142500000I-1270000J0D01*
G01*
X63130000Y-142500000D02*
G75*
G02*
X65670000Y-142500000I1270000J0D01*
G01*
D12*
X99185207Y-109413449D02*
X99185207Y-109132289D01*
X100205207Y-109413449D02*
X100205207Y-109132289D01*
X95327500Y-97837742D02*
X95327500Y-98312258D01*
X96372500Y-97837742D02*
X96372500Y-98312258D01*
X109840000Y-144927836D02*
X109840000Y-144712164D01*
X110560000Y-144927836D02*
X110560000Y-144712164D01*
X67660000Y-90940000D02*
X68990000Y-90940000D01*
X67660000Y-92270000D02*
X67660000Y-90940000D01*
X70260000Y-90940000D02*
X80480000Y-90940000D01*
X70260000Y-93600000D02*
X70260000Y-90940000D01*
X70260000Y-93600000D02*
X80480000Y-93600000D01*
X80480000Y-93600000D02*
X80480000Y-90940000D01*
X108265000Y-118938748D02*
X108265000Y-119461252D01*
X109735000Y-118938748D02*
X109735000Y-119461252D01*
X126074200Y-129682100D02*
X132525800Y-129682100D01*
X132525800Y-123230500D02*
X126074200Y-123230500D01*
X125464600Y-126456300D02*
G75*
G02*
X125312200Y-126456300I-76200J0D01*
G01*
X125312200Y-126456300D02*
G75*
G02*
X125464600Y-126456300I76200J0D01*
G01*
D11*
X111393000Y-98690000D02*
X111850000Y-98233000D01*
X111393000Y-101947000D02*
X111393000Y-98690000D01*
X111850000Y-98233000D02*
X113907000Y-98233000D01*
X113907000Y-98233000D02*
X113907000Y-101947000D01*
X113907000Y-101947000D02*
X111393000Y-101947000D01*
X111493000Y-98233000D02*
G75*
G02*
X111293000Y-98233000I-100000J0D01*
G01*
X111293000Y-98233000D02*
G75*
G02*
X111493000Y-98233000I100000J0D01*
G01*
D12*
X100607634Y-127369331D02*
X101082150Y-127369331D01*
X100607634Y-128414331D02*
X101082150Y-128414331D01*
D10*
X95892000Y-131165000D02*
X96908000Y-131165000D01*
X96908000Y-132435000D02*
X95892000Y-132435000D01*
D12*
X112990000Y-94082164D02*
X112990000Y-94297836D01*
X113710000Y-94082164D02*
X113710000Y-94297836D01*
X114902258Y-108967500D02*
X114427742Y-108967500D01*
X114902258Y-110012500D02*
X114427742Y-110012500D01*
X89858332Y-90310000D02*
X90758332Y-90310000D01*
X89858332Y-91110000D02*
X90758332Y-91110000D01*
X90058332Y-90710000D02*
X89858332Y-90710000D01*
X90058332Y-90710000D02*
X90558332Y-91110000D01*
X90058332Y-91110000D02*
X90058332Y-90310000D01*
X90558332Y-90310000D02*
X90058332Y-90710000D01*
X90558332Y-90710000D02*
X90758332Y-90710000D01*
X90558332Y-91110000D02*
X90558332Y-90310000D01*
X116390000Y-94207836D02*
X116390000Y-93992164D01*
X117110000Y-94207836D02*
X117110000Y-93992164D01*
X133327500Y-115512258D02*
X133327500Y-115037742D01*
X134372500Y-115512258D02*
X134372500Y-115037742D01*
X106740000Y-118859420D02*
X106740000Y-119140580D01*
X107760000Y-118859420D02*
X107760000Y-119140580D01*
X84155900Y-114210611D02*
X84155900Y-114685127D01*
X85200900Y-114210611D02*
X85200900Y-114685127D01*
X100640000Y-132082836D02*
X100640000Y-131867164D01*
X101360000Y-132082836D02*
X101360000Y-131867164D01*
X100607634Y-125845331D02*
X101082150Y-125845331D01*
X100607634Y-126890331D02*
X101082150Y-126890331D01*
X91387500Y-92812273D02*
X91387500Y-93286789D01*
X92432500Y-92812273D02*
X92432500Y-93286789D01*
X123157380Y-120300300D02*
X122876220Y-120300300D01*
X123157380Y-121320300D02*
X122876220Y-121320300D01*
X109351892Y-125873411D02*
X109351892Y-125592251D01*
X110371892Y-125873411D02*
X110371892Y-125592251D01*
D19*
X60871200Y-98850900D02*
X60871200Y-103499100D01*
X62313341Y-103499100D02*
X63086659Y-103499100D01*
X63086659Y-98850900D02*
X62313341Y-98850900D01*
X64528800Y-103499100D02*
X64528800Y-98850900D01*
D12*
X66493641Y-115520000D02*
X66186359Y-115520000D01*
X66493641Y-116280000D02*
X66186359Y-116280000D01*
D10*
X61515000Y-122608000D02*
X61515000Y-121592000D01*
X62785000Y-121592000D02*
X62785000Y-122608000D01*
D12*
X108590000Y-98279420D02*
X108590000Y-98560580D01*
X109610000Y-98279420D02*
X109610000Y-98560580D01*
X120487258Y-96177500D02*
X120012742Y-96177500D01*
X120487258Y-97222500D02*
X120012742Y-97222500D01*
X105033892Y-132063449D02*
X105033892Y-131782289D01*
X106053892Y-132063449D02*
X106053892Y-131782289D01*
X130690000Y-115640580D02*
X130690000Y-115359420D01*
X131710000Y-115640580D02*
X131710000Y-115359420D01*
X68290400Y-127366300D02*
X68290400Y-126716300D01*
X68940400Y-120146300D02*
X68290400Y-120146300D01*
X68940400Y-127366300D02*
X68290400Y-127366300D01*
X74860400Y-120146300D02*
X75510400Y-120146300D01*
X74860400Y-127366300D02*
X75510400Y-127366300D01*
X75510400Y-120146300D02*
X75510400Y-120796300D01*
X75510400Y-127366300D02*
X75510400Y-126716300D01*
X125995300Y-115912258D02*
X125995300Y-115437742D01*
X127040300Y-115912258D02*
X127040300Y-115437742D01*
X79245242Y-98387500D02*
X79719758Y-98387500D01*
X79245242Y-99432500D02*
X79719758Y-99432500D01*
X75248800Y-118377736D02*
X75248800Y-118162064D01*
X75968800Y-118377736D02*
X75968800Y-118162064D01*
X111704329Y-106242936D02*
X111704329Y-106697064D01*
X113174329Y-106242936D02*
X113174329Y-106697064D01*
D10*
X135142000Y-93265000D02*
X136158000Y-93265000D01*
X136158000Y-94535000D02*
X135142000Y-94535000D01*
D14*
X96047892Y-128593331D02*
X96047892Y-125793331D01*
X99037892Y-128593331D02*
X99037892Y-125793331D01*
D11*
X96267892Y-130383331D02*
G75*
G02*
X96067892Y-130383331I-100000J0D01*
G01*
X96067892Y-130383331D02*
G75*
G02*
X96267892Y-130383331I100000J0D01*
G01*
D12*
X120249634Y-110861331D02*
X120724150Y-110861331D01*
X120249634Y-111906331D02*
X120724150Y-111906331D01*
D14*
X104675000Y-145100000D02*
X105175000Y-145100000D01*
X104675000Y-148100000D02*
X105175000Y-148100000D01*
X107675000Y-145100000D02*
X107175000Y-145100000D01*
X107675000Y-148100000D02*
X107175000Y-148100000D01*
D12*
X89677500Y-147362742D02*
X89677500Y-147837258D01*
X90722500Y-147362742D02*
X90722500Y-147837258D01*
X110827092Y-124031031D02*
X110827092Y-130482631D01*
X117278692Y-130482631D02*
X117278692Y-124031031D01*
X114129092Y-123345231D02*
G75*
G02*
X113976692Y-123345231I-76200J0D01*
G01*
X113976692Y-123345231D02*
G75*
G02*
X114129092Y-123345231I76200J0D01*
G01*
D10*
X78481800Y-110800600D02*
X81067800Y-110800600D01*
X78481800Y-114206600D02*
X78481800Y-110800600D01*
X81067800Y-110800600D02*
X81067800Y-114206600D01*
X81067800Y-114206600D02*
X78481800Y-114206600D01*
D18*
X78038800Y-111403600D02*
G75*
G02*
X77788800Y-111403600I-125000J0D01*
G01*
X77788800Y-111403600D02*
G75*
G02*
X78038800Y-111403600I125000J0D01*
G01*
D12*
X110290000Y-119038748D02*
X110290000Y-120461252D01*
X112110000Y-119038748D02*
X112110000Y-120461252D01*
X118664392Y-118746089D02*
X118664392Y-118271573D01*
X119709392Y-118746089D02*
X119709392Y-118271573D01*
X122553892Y-110563251D02*
X122553892Y-110844411D01*
X123573892Y-110563251D02*
X123573892Y-110844411D01*
X97664600Y-109436180D02*
X97664600Y-109155020D01*
X98684600Y-109436180D02*
X98684600Y-109155020D01*
X102377064Y-106866787D02*
X101922936Y-106866787D01*
X102377064Y-108336787D02*
X101922936Y-108336787D01*
X88937500Y-92787742D02*
X88937500Y-93262258D01*
X89982500Y-92787742D02*
X89982500Y-93262258D01*
X129077500Y-115712258D02*
X129077500Y-115237742D01*
X130122500Y-115712258D02*
X130122500Y-115237742D01*
X113550000Y-105187836D02*
X113550000Y-104972164D01*
X114270000Y-105187836D02*
X114270000Y-104972164D01*
X120379056Y-114073831D02*
X120594728Y-114073831D01*
X120379056Y-114793831D02*
X120594728Y-114793831D01*
X120351892Y-118400995D02*
X120351892Y-118616667D01*
X121071892Y-118400995D02*
X121071892Y-118616667D01*
X102577500Y-144562742D02*
X102577500Y-145037258D01*
X103622500Y-144562742D02*
X103622500Y-145037258D01*
X94677500Y-122937258D02*
X94677500Y-122462742D01*
X95722500Y-122937258D02*
X95722500Y-122462742D01*
X94070199Y-119257364D02*
X94070199Y-119473036D01*
X94790199Y-119257364D02*
X94790199Y-119473036D01*
X92303199Y-112550860D02*
X92303199Y-112056600D01*
X92303199Y-116310600D02*
X92303199Y-115815841D01*
X96557199Y-112056600D02*
X96557199Y-112550860D01*
X96557199Y-115816340D02*
X96557199Y-116310600D01*
D16*
X92030199Y-112733600D02*
G75*
G02*
X91930199Y-112733600I-50000J0D01*
G01*
X91930199Y-112733600D02*
G75*
G02*
X92030199Y-112733600I50000J0D01*
G01*
D12*
X107850000Y-101284420D02*
X107850000Y-101565580D01*
X108870000Y-101284420D02*
X108870000Y-101565580D01*
X97985207Y-113688449D02*
X97985207Y-113407289D01*
X99005207Y-113688449D02*
X99005207Y-113407289D01*
X104140000Y-106240580D02*
X104140000Y-105959420D01*
X105160000Y-106240580D02*
X105160000Y-105959420D01*
X131637258Y-111977500D02*
X131162742Y-111977500D01*
X131637258Y-113022500D02*
X131162742Y-113022500D01*
X121817742Y-123357500D02*
X122292258Y-123357500D01*
X121817742Y-124402500D02*
X122292258Y-124402500D01*
X109351892Y-128921411D02*
X109351892Y-128640251D01*
X110371892Y-128921411D02*
X110371892Y-128640251D01*
X95980599Y-109460441D02*
X95980599Y-109153159D01*
X96740599Y-109460441D02*
X96740599Y-109153159D01*
X88177500Y-147837258D02*
X88177500Y-147362742D01*
X89222500Y-147837258D02*
X89222500Y-147362742D01*
X88772164Y-123140000D02*
X88987836Y-123140000D01*
X88772164Y-123860000D02*
X88987836Y-123860000D01*
M02*
