M48
; DRILL file {KiCad 9.0.6} date 2026-01-13T22:25:29-0500
; FORMAT={-:-/ absolute / metric / decimal}
; #@! TF.CreationDate,2026-01-13T22:25:29-05:00
; #@! TF.GenerationSoftware,Kicad,Pcbnew,9.0.6
; #@! TF.FileFunction,Plated,1,4,PTH
FMAT,2
METRIC
; #@! TA.AperFunction,Plated,PTH,ViaDrill
T1C0.150
; #@! TA.AperFunction,Plated,PTH,ViaDrill
T2C0.200
; #@! TA.AperFunction,Plated,PTH,ComponentDrill
T3C0.200
; #@! TA.AperFunction,Plated,PTH,ComponentDrill
T4C0.300
; #@! TA.AperFunction,Plated,PTH,ComponentDrill
T5C0.350
; #@! TA.AperFunction,Plated,PTH,ComponentDrill
T6C0.500
; #@! TA.AperFunction,Plated,PTH,ComponentDrill
T7C1.000
; #@! TA.AperFunction,Plated,PTH,ComponentDrill
T8C1.170
; #@! TA.AperFunction,Plated,PTH,ComponentDrill
T9C1.200
; #@! TA.AperFunction,Plated,PTH,ComponentDrill
T10C1.300
%
G90
G05
T1
X79.277Y-113.006
X79.774Y-112.004
X79.775Y-112.504
X80.274Y-113.003
X83.195Y-110.073
X84.395Y-110.073
X103.672Y-125.1
X104.344Y-127.657
X104.744Y-127.657
X104.744Y-128.057
X105.144Y-127.257
X105.144Y-127.657
X105.147Y-128.409
X105.544Y-127.257
X105.944Y-127.257
X106.344Y-127.257
X106.744Y-127.257
X107.09Y-109.155
X107.488Y-107.893
X107.49Y-108.755
X107.49Y-109.155
X107.89Y-108.355
X107.89Y-108.755
X107.89Y-109.155
X108.29Y-108.355
X108.29Y-108.755
X108.29Y-109.155
X111.85Y-99.09
X111.85Y-99.49
X111.85Y-100.69
X111.85Y-101.09
X111.85Y-101.49
X112.25Y-99.09
X112.25Y-99.49
X112.25Y-100.69
X112.25Y-101.09
X112.25Y-101.49
X112.65Y-99.09
X112.65Y-99.49
X113.05Y-99.09
X113.05Y-99.49
X113.05Y-100.29
X113.05Y-100.69
X113.05Y-101.09
X113.05Y-101.49
X113.45Y-99.09
X113.45Y-99.49
X113.45Y-101.09
X113.45Y-101.49
X114.45Y-98.7
X123.495Y-115.573
X125.88Y-119.69
X126.317Y-120.36
X126.32Y-119.96
X126.717Y-119.16
X126.717Y-119.56
X126.717Y-120.36
X127.117Y-119.16
X127.117Y-119.56
X127.117Y-119.96
X127.517Y-119.962
X127.917Y-118.76
X127.917Y-119.16
X127.917Y-120.36
T2
X61.2Y-129.9
X61.2Y-134.9
X61.2Y-139.1
X61.2Y-144.1
X61.4Y-125.6
X61.5Y-106.9
X61.5Y-107.5
X61.5Y-148.5
X61.654Y-116.208
X61.77Y-153.23
X61.77Y-158.23
X62.1Y-106.9
X62.1Y-107.5
X62.7Y-106.9
X62.7Y-107.5
X62.95Y-119.15
X63.0Y-117.9
X63.05Y-121.2
X63.125Y-122.975
X63.3Y-106.9
X63.3Y-107.5
X63.35Y-117.15
X63.4Y-114.7
X63.45Y-134.2
X63.5Y-132.0
X63.9Y-106.9
X63.9Y-107.5
X64.27Y-155.73
X64.5Y-107.5
X64.5Y-108.1
X64.7Y-108.7
X64.9Y-114.7
X65.1Y-108.1
X65.3Y-108.7
X65.6Y-127.25
X65.77Y-118.275
X66.0Y-136.0
X66.3Y-126.55
X66.3Y-129.65
X66.381Y-108.384
X66.381Y-108.9
X66.695Y-123.58
X66.77Y-153.23
X66.77Y-158.23
X66.895Y-120.173
X67.195Y-118.273
X67.197Y-118.875
X67.295Y-119.573
X67.4Y-126.3
X67.569Y-124.788
X67.68Y-112.475
X67.75Y-116.5
X67.95Y-117.2
X68.295Y-127.873
X68.35Y-132.4
X68.4Y-105.3
X68.5Y-120.3
X68.5Y-127.1
X68.9Y-112.575
X69.05Y-131.3
X69.05Y-133.0
X69.177Y-103.03
X69.189Y-96.922
X69.5Y-139.8
X69.6Y-113.0
X70.0Y-121.4
X70.119Y-128.538
X70.151Y-139.851
X70.2Y-112.475
X70.3Y-134.3
X70.669Y-128.013
X70.695Y-121.673
X70.775Y-134.8
X70.775Y-139.875
X70.81Y-153.31
X70.81Y-158.31
X70.884Y-119.235
X71.291Y-121.216
X71.568Y-115.132
X71.594Y-139.847
X71.6Y-114.1
X71.8Y-99.15
X71.8Y-126.0
X71.943Y-119.191
X72.135Y-147.265
X72.2Y-139.8
X72.295Y-121.173
X72.395Y-121.773
X72.4Y-114.5
X72.47Y-128.14
X72.5Y-126.0
X72.5Y-134.25
X72.5Y-136.1
X72.535Y-119.438
X72.665Y-146.735
X72.75Y-105.3
X73.12Y-128.25
X73.31Y-155.81
X74.25Y-122.5
X74.25Y-123.55
X74.25Y-124.55
X74.4Y-140.073
X74.6Y-138.1
X74.81Y-140.51
X74.954Y-118.414
X75.65Y-133.35
X75.78Y-128.15
X75.81Y-153.31
X75.81Y-158.31
X76.0Y-147.4
X76.025Y-114.532
X76.058Y-103.948
X76.058Y-104.698
X76.058Y-105.448
X76.058Y-106.198
X76.11Y-126.83
X76.15Y-127.55
X76.195Y-97.191
X76.495Y-116.373
X76.5Y-140.5
X76.71Y-122.173
X76.71Y-123.673
X76.795Y-122.873
X76.808Y-103.948
X76.808Y-104.698
X76.808Y-105.448
X76.808Y-106.198
X76.895Y-119.173
X76.895Y-120.173
X76.995Y-121.028
X77.081Y-117.538
X77.1Y-124.4
X77.1Y-127.1
X77.201Y-110.061
X77.4Y-126.3
X77.495Y-112.873
X77.495Y-113.773
X77.558Y-103.948
X77.558Y-104.698
X77.558Y-105.448
X77.558Y-106.198
X77.7Y-125.7
X77.76Y-98.97
X77.8Y-115.5
X78.05Y-118.3
X78.14Y-101.15
X78.5Y-141.4
X79.095Y-126.198
X79.3Y-119.15
X79.3Y-120.2
X79.5Y-132.0
X79.695Y-126.198
X79.7Y-136.7
X80.1Y-147.4
X80.2Y-124.75
X80.295Y-126.198
X80.3Y-100.2
X80.3Y-123.05
X80.4Y-121.8
X80.5Y-114.7
X80.5Y-116.1
X80.745Y-119.8
X81.025Y-115.101
X81.795Y-114.673
X81.8Y-123.8
X81.9Y-96.7
X82.2Y-130.9
X82.392Y-115.958
X82.395Y-119.873
X82.695Y-129.473
X82.9Y-147.5
X83.154Y-112.275
X83.5Y-147.1
X83.795Y-132.573
X84.1Y-135.7
X84.3Y-141.3
X84.495Y-127.273
X84.5Y-124.2
X84.695Y-115.947
X84.795Y-126.173
X84.85Y-96.5
X85.07Y-153.01
X85.07Y-158.01
X85.5Y-114.8
X85.6Y-91.8
X85.6Y-129.593
X85.695Y-123.773
X85.7Y-130.6
X85.7Y-131.726
X85.8Y-122.2
X86.1Y-103.35
X86.25Y-126.25
X86.4Y-99.9
X86.5Y-133.0
X86.6Y-132.153
X86.75Y-128.25
X86.75Y-129.5
X86.8Y-146.3
X87.05Y-100.2
X87.1Y-97.15
X87.2Y-103.45
X87.25Y-125.25
X87.37Y-150.33
X87.395Y-124.173
X87.5Y-132.95
X87.57Y-155.51
X87.75Y-100.45
X87.943Y-107.957
X88.0Y-95.45
X88.1Y-110.2
X88.15Y-120.307
X88.5Y-126.0
X88.753Y-129.518
X88.874Y-121.0
X89.0Y-97.45
X89.5Y-126.0
X89.7Y-130.6
X90.07Y-153.01
X90.07Y-158.01
X90.075Y-125.375
X90.8Y-121.2
X91.16Y-91.72
X91.6Y-121.2
X91.72Y-150.25
X91.789Y-110.732
X91.8Y-145.3
X91.91Y-94.8
X92.1Y-147.6
X92.2Y-147.0
X92.6Y-118.2
X92.6Y-118.8
X92.75Y-95.95
X92.9Y-127.6
X93.15Y-106.8
X93.279Y-117.38
X93.3Y-116.8
X93.35Y-103.55
X93.5Y-92.1
X93.5Y-101.1
X93.695Y-114.173
X93.695Y-114.973
X93.795Y-113.373
X93.931Y-116.803
X93.952Y-117.397
X94.05Y-111.45
X94.295Y-113.773
X94.295Y-114.573
X94.35Y-96.15
X94.4Y-121.9
X94.83Y-153.03
X94.83Y-158.03
X94.995Y-113.073
X95.127Y-114.172
X95.142Y-117.113
X95.2Y-120.4
X95.31Y-149.25
X95.395Y-107.973
X95.795Y-110.973
X95.795Y-117.073
X95.85Y-96.15
X96.0Y-126.2
X96.1Y-101.0
X96.195Y-149.0
X96.195Y-149.8
X96.395Y-111.273
X96.5Y-121.1
X96.72Y-149.4
X97.0Y-117.0
X97.195Y-148.95
X97.22Y-149.8
X97.255Y-108.483
X97.33Y-155.53
X97.35Y-96.15
X97.5Y-115.4
X97.868Y-127.892
X98.395Y-107.373
X98.5Y-105.6
X98.518Y-127.892
X98.7Y-143.2
X98.8Y-120.8
X98.9Y-122.3
X99.2Y-129.5
X99.395Y-111.573
X99.83Y-153.03
X99.83Y-158.03
X99.9Y-130.4
X100.0Y-123.65
X100.0Y-132.75
X100.195Y-107.373
X100.25Y-98.5
X100.395Y-111.573
X100.75Y-136.75
X100.75Y-137.5
X100.84Y-129.846
X100.9Y-116.2
X100.9Y-116.95
X101.0Y-148.4
X101.029Y-146.006
X101.029Y-146.706
X101.029Y-147.431
X101.295Y-112.973
X101.5Y-137.0
X101.595Y-111.573
X101.629Y-146.006
X101.629Y-146.706
X101.629Y-147.431
X101.7Y-150.0
X101.95Y-91.6
X102.095Y-120.163
X102.115Y-120.833
X102.115Y-121.398
X102.115Y-121.963
X102.25Y-133.0
X102.25Y-137.5
X102.417Y-128.6
X102.455Y-125.25
X102.5Y-130.75
X102.6Y-146.6
X102.6Y-149.1
X102.695Y-120.173
X102.715Y-120.843
X102.715Y-121.408
X102.715Y-121.973
X102.852Y-125.572
X102.971Y-126.6
X102.995Y-111.573
X102.995Y-112.873
X103.1Y-143.975
X103.1Y-145.6
X103.117Y-116.017
X103.395Y-128.773
X103.4Y-148.2
X103.5Y-137.75
X103.5Y-139.25
X103.595Y-128.173
X103.65Y-116.45
X103.995Y-128.873
X104.06Y-153.05
X104.06Y-158.05
X104.4Y-133.2
X104.595Y-112.873
X104.65Y-106.075
X104.695Y-111.573
X104.75Y-120.6
X104.795Y-129.373
X105.1Y-133.5
X105.8Y-133.75
X105.9Y-112.5
X105.9Y-116.8
X106.56Y-155.55
X106.75Y-133.72
X106.861Y-111.658
X107.5Y-148.7
X107.5Y-149.5
X107.75Y-116.55
X108.025Y-149.1
X108.25Y-96.35
X108.5Y-148.65
X108.525Y-149.5
X108.847Y-126.959
X108.857Y-127.673
X109.0Y-119.15
X109.06Y-153.05
X109.06Y-158.05
X109.195Y-115.073
X109.35Y-100.3
X109.65Y-121.65
X109.7Y-91.55
X110.5Y-132.6
X110.6Y-92.8
X110.6Y-93.45
X111.131Y-114.843
X111.2Y-119.7
X112.0Y-141.3
X112.155Y-97.301
X112.3Y-122.0
X112.329Y-147.275
X112.329Y-147.975
X112.329Y-148.7
X112.4Y-112.3
X112.45Y-109.9
X112.65Y-97.8
X112.75Y-115.718
X112.9Y-114.8
X112.929Y-147.275
X112.929Y-147.975
X112.929Y-148.7
X112.95Y-96.753
X113.3Y-97.9
X113.45Y-119.7
X113.695Y-111.573
X113.8Y-141.2
X113.86Y-153.16
X113.86Y-158.16
X114.388Y-95.623
X114.45Y-102.35
X114.75Y-113.55
X115.05Y-107.35
X115.6Y-112.85
X115.612Y-113.559
X115.65Y-114.35
X116.36Y-155.66
X116.45Y-113.55
X116.5Y-96.75
X117.525Y-97.325
X117.621Y-108.124
X118.273Y-110.973
X118.35Y-94.0
X118.4Y-96.75
X118.8Y-124.425
X118.8Y-125.025
X118.8Y-125.59
X118.8Y-126.155
X118.81Y-148.8
X118.85Y-112.9
X118.86Y-153.16
X118.86Y-158.16
X119.4Y-124.435
X119.4Y-125.035
X119.4Y-125.6
X119.4Y-126.165
X120.1Y-107.9
X120.1Y-108.5
X120.562Y-111.4
X121.495Y-118.373
X121.495Y-119.273
X121.9Y-99.7
X122.0Y-106.5
X122.19Y-112.875
X122.195Y-115.473
X122.197Y-114.351
X122.25Y-94.9
X122.35Y-96.2
X123.0Y-108.0
X123.0Y-126.0
X123.34Y-148.59
X123.395Y-113.473
X123.71Y-153.25
X123.71Y-158.25
X123.995Y-112.373
X124.0Y-107.0
X124.0Y-108.0
X124.73Y-118.17
X124.795Y-120.763
X124.795Y-121.363
X124.795Y-121.928
X124.795Y-122.493
X125.0Y-106.0
X125.0Y-107.0
X125.0Y-108.0
X125.395Y-120.773
X125.395Y-121.373
X125.395Y-121.938
X125.395Y-122.503
X125.59Y-139.4
X125.6Y-138.8
X125.821Y-123.957
X125.829Y-124.465
X126.0Y-103.0
X126.0Y-106.0
X126.0Y-107.0
X126.0Y-108.0
X126.155Y-139.4
X126.165Y-138.8
X126.21Y-155.75
X126.35Y-99.1
X126.72Y-139.4
X126.73Y-138.8
X127.0Y-102.0
X127.0Y-104.5
X127.0Y-107.0
X127.0Y-108.0
X127.32Y-139.4
X127.33Y-138.8
X127.58Y-97.476
X127.887Y-99.154
X127.9Y-142.5
X127.91Y-141.9
X128.0Y-101.0
X128.0Y-103.0
X128.0Y-104.0
X128.0Y-105.0
X128.0Y-108.0
X128.282Y-97.514
X128.34Y-148.59
X128.465Y-142.5
X128.475Y-141.9
X128.484Y-99.204
X128.71Y-153.25
X128.71Y-158.25
X128.881Y-97.504
X128.995Y-118.773
X129.03Y-142.5
X129.04Y-141.9
X129.081Y-99.154
X129.395Y-118.173
X129.63Y-142.5
X129.64Y-141.9
X129.689Y-93.192
X129.795Y-121.573
X129.95Y-120.95
X130.6Y-107.0
X130.6Y-109.5
X130.8Y-96.9
X130.866Y-98.85
X132.46Y-148.42
X132.47Y-153.12
X132.47Y-158.12
X132.5Y-132.5
X132.5Y-137.5
X132.5Y-142.5
X132.75Y-120.25
X133.0Y-107.0
X133.05Y-109.5
X133.1Y-112.2
X133.1Y-112.8
X133.145Y-116.107
X133.85Y-112.8
X133.85Y-113.5
X134.97Y-155.62
X135.0Y-135.0
X135.0Y-140.0
X135.15Y-92.25
X135.5Y-126.5
X135.65Y-94.75
X136.0Y-114.0
X137.4Y-92.35
X137.46Y-148.42
X137.47Y-153.12
X137.47Y-158.12
X137.5Y-129.0
X137.5Y-132.5
X137.5Y-137.5
X137.5Y-142.5
X138.0Y-94.75
X139.0Y-114.0
X139.0Y-118.0
X139.0Y-121.0
X139.0Y-126.5
T3
X94.325Y-146.9
X94.9Y-145.95
X94.9Y-147.85
X95.475Y-146.9
X105.6Y-146.6
X106.175Y-145.65
X106.175Y-147.55
X106.75Y-146.6
X125.2Y-112.85
X126.3Y-112.85
T4
X70.317Y-136.85
X70.317Y-137.85
X71.317Y-136.85
X71.317Y-137.85
X82.627Y-121.99
X82.627Y-122.99
X83.627Y-121.99
X83.627Y-122.99
T5
X70.625Y-122.481
X70.625Y-123.756
X70.625Y-125.031
X71.9Y-122.481
X71.9Y-123.756
X71.9Y-125.031
X73.175Y-122.481
X73.175Y-123.756
X73.175Y-125.031
T6
X127.605Y-108.835
X127.605Y-110.835
T7
X68.99Y-92.27
X71.53Y-92.27
X74.07Y-92.27
X76.61Y-92.27
X79.15Y-92.27
T8
X63.0Y-143.9
X82.74Y-92.54
X116.8Y-121.57
X119.35Y-135.25
X119.9Y-121.55
X124.65Y-135.2
X135.55Y-118.9
T9
X107.1Y-92.1
X112.1Y-92.1
T10
X66.75Y-98.9
X87.75Y-98.85
T6
X123.81Y-91.69G85X123.81Y-92.29
G05
X124.17Y-97.64G85X124.17Y-98.24
G05
X132.43Y-97.64G85X132.43Y-98.24
G05
X132.79Y-91.69G85X132.79Y-92.29
G05
T7
X62.87Y-109.485G85X62.87Y-110.185
G05
X137.13Y-109.485G85X137.13Y-110.185
G05
M30
