%TF.GenerationSoftware,KiCad,Pcbnew,9.0.6*%
%TF.CreationDate,2026-01-13T22:25:09-05:00*%
%TF.ProjectId,robot,726f626f-742e-46b6-9963-61645f706362,rev?*%
%TF.SameCoordinates,Original*%
%TF.FileFunction,Paste,Bot*%
%TF.FilePolarity,Positive*%
%FSLAX46Y46*%
G04 Gerber Fmt 4.6, Leading zero omitted, Abs format (unit mm)*
G04 Created by KiCad (PCBNEW 9.0.6) date 2026-01-13 22:25:09*
%MOMM*%
%LPD*%
G01*
G04 APERTURE LIST*
G04 Aperture macros list*
%AMRoundRect*
0 Rectangle with rounded corners*
0 $1 Rounding radius*
0 $2 $3 $4 $5 $6 $7 $8 $9 X,Y pos of 4 corners*
0 Add a 4 corners polygon primitive as box body*
4,1,4,$2,$3,$4,$5,$6,$7,$8,$9,$2,$3,0*
0 Add four circle primitives for the rounded corners*
1,1,$1+$1,$2,$3*
1,1,$1+$1,$4,$5*
1,1,$1+$1,$6,$7*
1,1,$1+$1,$8,$9*
0 Add four rect primitives between the rounded corners*
20,1,$1+$1,$2,$3,$4,$5,0*
20,1,$1+$1,$4,$5,$6,$7,0*
20,1,$1+$1,$6,$7,$8,$9,0*
20,1,$1+$1,$8,$9,$2,$3,0*%
G04 Aperture macros list end*
%ADD10RoundRect,0.140000X0.170000X-0.140000X0.170000X0.140000X-0.170000X0.140000X-0.170000X-0.140000X0*%
%ADD11RoundRect,0.200000X0.200000X0.275000X-0.200000X0.275000X-0.200000X-0.275000X0.200000X-0.275000X0*%
%ADD12RoundRect,0.140000X0.140000X0.170000X-0.140000X0.170000X-0.140000X-0.170000X0.140000X-0.170000X0*%
%ADD13RoundRect,0.140000X-0.170000X0.140000X-0.170000X-0.140000X0.170000X-0.140000X0.170000X0.140000X0*%
%ADD14RoundRect,0.050000X0.100000X0.200000X-0.100000X0.200000X-0.100000X-0.200000X0.100000X-0.200000X0*%
%ADD15RoundRect,0.140000X-0.140000X-0.170000X0.140000X-0.170000X0.140000X0.170000X-0.140000X0.170000X0*%
%ADD16RoundRect,0.050000X-0.100000X-0.200000X0.100000X-0.200000X0.100000X0.200000X-0.100000X0.200000X0*%
%ADD17RoundRect,0.225000X0.225000X0.250000X-0.225000X0.250000X-0.225000X-0.250000X0.225000X-0.250000X0*%
%ADD18RoundRect,0.225000X-0.225000X-0.250000X0.225000X-0.250000X0.225000X0.250000X-0.225000X0.250000X0*%
%ADD19R,1.300000X0.800000*%
%ADD20R,3.000000X2.100000*%
%ADD21R,3.403600X0.711200*%
%ADD22R,2.387600X1.600200*%
%ADD23RoundRect,0.250000X0.325000X0.650000X-0.325000X0.650000X-0.325000X-0.650000X0.325000X-0.650000X0*%
%ADD24R,1.800000X3.000000*%
G04 APERTURE END LIST*
D10*
X115650000Y-92140000D03*
X115650000Y-93100000D03*
D11*
X122250000Y-121300000D03*
X123900000Y-121300000D03*
D12*
X130270000Y-100750000D03*
X131230000Y-100750000D03*
D13*
X114350000Y-94955000D03*
X114350000Y-93995000D03*
D14*
X130450000Y-98050000D03*
X131150000Y-98050000D03*
D15*
X71075207Y-125983831D03*
X70115207Y-125983831D03*
D13*
X113400000Y-94955000D03*
X113400000Y-93995000D03*
X107550000Y-94930000D03*
X107550000Y-93970000D03*
X106600000Y-94930000D03*
X106600000Y-93970000D03*
D16*
X126150000Y-99850000D03*
X125450000Y-99850000D03*
D17*
X67625000Y-121300000D03*
X69175000Y-121300000D03*
D14*
X130300000Y-99850000D03*
X131000000Y-99850000D03*
D13*
X112450000Y-94955000D03*
X112450000Y-93995000D03*
D10*
X114700000Y-92140000D03*
X114700000Y-93100000D03*
D11*
X80975000Y-120900000D03*
X82625000Y-120900000D03*
D15*
X125750000Y-100750000D03*
X124790000Y-100750000D03*
D13*
X78200000Y-121380000D03*
X78200000Y-120420000D03*
D18*
X116225000Y-100500000D03*
X114675000Y-100500000D03*
D15*
X115380000Y-101700000D03*
X114420000Y-101700000D03*
D12*
X68620000Y-119500000D03*
X69580000Y-119500000D03*
D19*
X98250000Y-129550000D03*
X98250000Y-130800000D03*
D20*
X101000000Y-133350000D03*
X101000000Y-127000000D03*
D21*
X92403500Y-135925000D03*
X92403500Y-134425001D03*
X92403500Y-132925001D03*
X92403500Y-131424999D03*
X92403500Y-129924999D03*
X92403500Y-128425000D03*
D22*
X94353501Y-137975001D03*
X94353501Y-126374999D03*
D10*
X113750000Y-92140000D03*
X113750000Y-93100000D03*
X117550000Y-92140000D03*
X117550000Y-93100000D03*
X111500000Y-93970000D03*
X111500000Y-94930000D03*
D13*
X105650000Y-94930000D03*
X105650000Y-93970000D03*
D21*
X107596500Y-128425000D03*
X107596500Y-129924999D03*
X107596500Y-131424999D03*
X107596500Y-132925001D03*
X107596500Y-134425001D03*
X107596500Y-135925000D03*
D22*
X105646499Y-126374999D03*
X105646499Y-137975001D03*
D16*
X126650000Y-98050000D03*
X125950000Y-98050000D03*
D23*
X118775000Y-98550000D03*
X115825000Y-98550000D03*
D24*
X130000000Y-144400000D03*
X127460000Y-144400000D03*
X124920000Y-144400000D03*
X122380000Y-144400000D03*
X119840000Y-144400000D03*
X117300000Y-144400000D03*
X114760000Y-144400000D03*
X112220000Y-144400000D03*
X87780000Y-144400000D03*
X85240000Y-144400000D03*
X82700000Y-144400000D03*
X80160000Y-144400000D03*
X77620000Y-144400000D03*
X75080000Y-144400000D03*
X72540000Y-144400000D03*
X70000000Y-144400000D03*
D12*
X73015207Y-125983831D03*
X73975207Y-125983831D03*
D10*
X116600000Y-92140000D03*
X116600000Y-93100000D03*
M02*
