%TF.GenerationSoftware,KiCad,Pcbnew,9.0.6*%
%TF.CreationDate,2026-01-13T22:19:30-05:00*%
%TF.ProjectId,USB_PD_Module,5553425f-5044-45f4-9d6f-64756c652e6b,rev?*%
%TF.SameCoordinates,Original*%
%TF.FileFunction,Copper,L1,Top*%
%TF.FilePolarity,Positive*%
%FSLAX46Y46*%
G04 Gerber Fmt 4.6, Leading zero omitted, Abs format (unit mm)*
G04 Created by KiCad (PCBNEW 9.0.6) date 2026-01-13 22:19:30*
%MOMM*%
%LPD*%
G01*
G04 APERTURE LIST*
G04 Aperture macros list*
%AMRoundRect*
0 Rectangle with rounded corners*
0 $1 Rounding radius*
0 $2 $3 $4 $5 $6 $7 $8 $9 X,Y pos of 4 corners*
0 Add a 4 corners polygon primitive as box body*
4,1,4,$2,$3,$4,$5,$6,$7,$8,$9,$2,$3,0*
0 Add four circle primitives for the rounded corners*
1,1,$1+$1,$2,$3*
1,1,$1+$1,$4,$5*
1,1,$1+$1,$6,$7*
1,1,$1+$1,$8,$9*
0 Add four rect primitives between the rounded corners*
20,1,$1+$1,$2,$3,$4,$5,0*
20,1,$1+$1,$4,$5,$6,$7,0*
20,1,$1+$1,$6,$7,$8,$9,0*
20,1,$1+$1,$8,$9,$2,$3,0*%
%AMFreePoly0*
4,1,5,0.500000,-0.250000,-0.500000,-0.250000,-0.500000,1.350000,0.500000,1.350000,0.500000,-0.250000,0.500000,-0.250000,$1*%
G04 Aperture macros list end*
%TA.AperFunction,SMDPad,CuDef*%
%ADD10RoundRect,0.225000X-0.250000X0.225000X-0.250000X-0.225000X0.250000X-0.225000X0.250000X0.225000X0*%
%TD*%
%TA.AperFunction,SMDPad,CuDef*%
%ADD11RoundRect,0.050000X0.200000X-0.100000X0.200000X0.100000X-0.200000X0.100000X-0.200000X-0.100000X0*%
%TD*%
%TA.AperFunction,SMDPad,CuDef*%
%ADD12RoundRect,0.140000X-0.170000X0.140000X-0.170000X-0.140000X0.170000X-0.140000X0.170000X0.140000X0*%
%TD*%
%TA.AperFunction,SMDPad,CuDef*%
%ADD13RoundRect,0.225000X0.250000X-0.225000X0.250000X0.225000X-0.250000X0.225000X-0.250000X-0.225000X0*%
%TD*%
%TA.AperFunction,SMDPad,CuDef*%
%ADD14RoundRect,0.250000X-0.650000X-0.250000X0.650000X-0.250000X0.650000X0.250000X-0.650000X0.250000X0*%
%TD*%
%TA.AperFunction,SMDPad,CuDef*%
%ADD15RoundRect,0.050000X-0.200000X0.100000X-0.200000X-0.100000X0.200000X-0.100000X0.200000X0.100000X0*%
%TD*%
%TA.AperFunction,SMDPad,CuDef*%
%ADD16RoundRect,0.200000X0.275000X-0.200000X0.275000X0.200000X-0.275000X0.200000X-0.275000X-0.200000X0*%
%TD*%
%TA.AperFunction,SMDPad,CuDef*%
%ADD17RoundRect,0.200000X-0.275000X0.200000X-0.275000X-0.200000X0.275000X-0.200000X0.275000X0.200000X0*%
%TD*%
%TA.AperFunction,ComponentPad*%
%ADD18O,1.800000X3.000000*%
%TD*%
%TA.AperFunction,SMDPad,CuDef*%
%ADD19RoundRect,0.200000X0.200000X0.275000X-0.200000X0.275000X-0.200000X-0.275000X0.200000X-0.275000X0*%
%TD*%
%TA.AperFunction,SMDPad,CuDef*%
%ADD20RoundRect,0.250000X0.650000X0.250000X-0.650000X0.250000X-0.650000X-0.250000X0.650000X-0.250000X0*%
%TD*%
%TA.AperFunction,SMDPad,CuDef*%
%ADD21RoundRect,0.200000X-0.200000X-0.275000X0.200000X-0.275000X0.200000X0.275000X-0.200000X0.275000X0*%
%TD*%
%TA.AperFunction,SMDPad,CuDef*%
%ADD22RoundRect,0.135000X-0.185000X0.135000X-0.185000X-0.135000X0.185000X-0.135000X0.185000X0.135000X0*%
%TD*%
%TA.AperFunction,SMDPad,CuDef*%
%ADD23RoundRect,0.250000X0.250000X-0.650000X0.250000X0.650000X-0.250000X0.650000X-0.250000X-0.650000X0*%
%TD*%
%TA.AperFunction,SMDPad,CuDef*%
%ADD24C,0.250000*%
%TD*%
%TA.AperFunction,SMDPad,CuDef*%
%ADD25RoundRect,0.140000X0.140000X0.170000X-0.140000X0.170000X-0.140000X-0.170000X0.140000X-0.170000X0*%
%TD*%
%TA.AperFunction,SMDPad,CuDef*%
%ADD26R,2.790000X1.905000*%
%TD*%
%TA.AperFunction,SMDPad,CuDef*%
%ADD27R,0.200000X0.152400*%
%TD*%
%TA.AperFunction,SMDPad,CuDef*%
%ADD28R,0.280000X1.050000*%
%TD*%
%TA.AperFunction,ComponentPad*%
%ADD29O,1.700000X0.850000*%
%TD*%
%TA.AperFunction,ComponentPad*%
%ADD30O,2.000000X1.000000*%
%TD*%
%TA.AperFunction,ComponentPad*%
%ADD31O,2.200000X1.100000*%
%TD*%
%TA.AperFunction,SMDPad,CuDef*%
%ADD32RoundRect,0.033333X-0.116667X0.191667X-0.116667X-0.191667X0.116667X-0.191667X0.116667X0.191667X0*%
%TD*%
%TA.AperFunction,ComponentPad*%
%ADD33C,0.400000*%
%TD*%
%TA.AperFunction,SMDPad,CuDef*%
%ADD34FreePoly0,270.000000*%
%TD*%
%TA.AperFunction,SMDPad,CuDef*%
%ADD35RoundRect,0.250000X0.450000X-0.262500X0.450000X0.262500X-0.450000X0.262500X-0.450000X-0.262500X0*%
%TD*%
%TA.AperFunction,SMDPad,CuDef*%
%ADD36RoundRect,0.120000X-0.680000X-0.380000X0.680000X-0.380000X0.680000X0.380000X-0.680000X0.380000X0*%
%TD*%
%TA.AperFunction,SMDPad,CuDef*%
%ADD37RoundRect,0.250000X0.262500X0.450000X-0.262500X0.450000X-0.262500X-0.450000X0.262500X-0.450000X0*%
%TD*%
%TA.AperFunction,SMDPad,CuDef*%
%ADD38R,0.152400X0.200000*%
%TD*%
%TA.AperFunction,ViaPad*%
%ADD39C,0.250000*%
%TD*%
%TA.AperFunction,ViaPad*%
%ADD40C,0.500000*%
%TD*%
%TA.AperFunction,ViaPad*%
%ADD41C,0.450000*%
%TD*%
%TA.AperFunction,Conductor*%
%ADD42C,0.200000*%
%TD*%
%TA.AperFunction,Conductor*%
%ADD43C,0.127000*%
%TD*%
%TA.AperFunction,Conductor*%
%ADD44C,0.152400*%
%TD*%
%TA.AperFunction,Conductor*%
%ADD45C,0.500000*%
%TD*%
G04 APERTURE END LIST*
D10*
X96300000Y-110025000D03*
X96300000Y-108475000D03*
D11*
X137600000Y-116700000D03*
X137600000Y-117400000D03*
D12*
X146000000Y-111000000D03*
X146000000Y-110040000D03*
D13*
X104300000Y-117025000D03*
X104300000Y-118575000D03*
D14*
X164850000Y-118850000D03*
X136500000Y-119000000D03*
D15*
X131000000Y-111000000D03*
X131000000Y-110300000D03*
D16*
X138200000Y-107975000D03*
X138200000Y-109625000D03*
D12*
X142000000Y-111000000D03*
X142000000Y-110040000D03*
D17*
X97900000Y-110075000D03*
X97900000Y-108425000D03*
D18*
X101500000Y-107000000D03*
X104040000Y-107000000D03*
X106580000Y-107000000D03*
X109120000Y-107000000D03*
X111660000Y-107000000D03*
X114200000Y-107000000D03*
X116740000Y-107000000D03*
X119280000Y-107000000D03*
X143720000Y-107000000D03*
X146260000Y-107000000D03*
X148800000Y-107000000D03*
X151340000Y-107000000D03*
X153880000Y-107000000D03*
X156420000Y-107000000D03*
X158960000Y-107000000D03*
X161500000Y-107000000D03*
D19*
X119600000Y-112700000D03*
X121250000Y-112700000D03*
D20*
X139500000Y-118000000D03*
D14*
X128500000Y-119000000D03*
D21*
X140500000Y-115500000D03*
X138850000Y-115500000D03*
D22*
X143500000Y-118000000D03*
X143500000Y-116980000D03*
D15*
X132000000Y-111000000D03*
X132000000Y-110300000D03*
D16*
X147000000Y-117350000D03*
X147000000Y-119000000D03*
D14*
X134000000Y-119000000D03*
D13*
X125000000Y-113675000D03*
X125000000Y-115225000D03*
D21*
X117850000Y-115450000D03*
X116200000Y-115450000D03*
X114550000Y-115450000D03*
D16*
X136700000Y-107975000D03*
X136700000Y-109625000D03*
D23*
X136000000Y-112000000D03*
D24*
X143000000Y-112500000D03*
X143500000Y-112500000D03*
X144000000Y-112500000D03*
X144500000Y-112500000D03*
X145000000Y-112500000D03*
X145500000Y-112500000D03*
X143000000Y-113000000D03*
X143500000Y-113000000D03*
X144000000Y-113000000D03*
X144500000Y-113000000D03*
X145000000Y-113000000D03*
X145500000Y-113000000D03*
X143000000Y-113500000D03*
X143500000Y-113500000D03*
X144000000Y-113500000D03*
X144500000Y-113500000D03*
X145000000Y-113500000D03*
X145500000Y-113500000D03*
X143000000Y-114000000D03*
X143500000Y-114000000D03*
X144000000Y-114000000D03*
X144500000Y-114000000D03*
X145000000Y-114000000D03*
X145500000Y-114000000D03*
X143000000Y-114500000D03*
X143500000Y-114500000D03*
X144000000Y-114500000D03*
X144500000Y-114500000D03*
X145000000Y-114500000D03*
X145500000Y-114500000D03*
D17*
X102550000Y-115325000D03*
X102550000Y-113675000D03*
D12*
X143000000Y-111000000D03*
X143000000Y-110040000D03*
X144000000Y-111000000D03*
X144000000Y-110040000D03*
D14*
X140200000Y-110000000D03*
D25*
X147040000Y-114500000D03*
X148000000Y-114500000D03*
D13*
X145000000Y-116225000D03*
X145000000Y-117775000D03*
D26*
X97090000Y-113600000D03*
X97090000Y-118451000D03*
D19*
X138850000Y-112500000D03*
X140500000Y-112500000D03*
D12*
X147000000Y-111000000D03*
X147000000Y-110040000D03*
D16*
X148500000Y-117350000D03*
X148500000Y-119000000D03*
D24*
X120650000Y-115750000D03*
X120150000Y-115750000D03*
X120650000Y-115250000D03*
X120150000Y-115250000D03*
X120650000Y-114750000D03*
X120150000Y-114750000D03*
D21*
X140500000Y-114000000D03*
X138850000Y-114000000D03*
D24*
X101300000Y-117400000D03*
X101700000Y-117400000D03*
X102100000Y-117400000D03*
X101300000Y-117800000D03*
X101700000Y-117800000D03*
X102100000Y-117800000D03*
X101300000Y-118200000D03*
X101700000Y-118200000D03*
X102100000Y-118200000D03*
D27*
X102260000Y-117400000D03*
X102440000Y-117400000D03*
D25*
X147020000Y-113500000D03*
X147980000Y-113500000D03*
D28*
X134250000Y-113875000D03*
X133750000Y-113875000D03*
X133250000Y-113875000D03*
X132750000Y-113875000D03*
X132250000Y-113875000D03*
X131750000Y-113875000D03*
X131250000Y-113875000D03*
X130750000Y-113875000D03*
X130250000Y-113875000D03*
X129750000Y-113875000D03*
X129250000Y-113875000D03*
X128750000Y-113875000D03*
X128750000Y-115825000D03*
X129250000Y-115825000D03*
X129750000Y-115825000D03*
X130250000Y-115825000D03*
X130750000Y-115825000D03*
X131250000Y-115825000D03*
X131750000Y-115825000D03*
X132250000Y-115825000D03*
X132750000Y-115825000D03*
X133250000Y-115825000D03*
X133750000Y-115825000D03*
X134250000Y-115825000D03*
D29*
X127490000Y-114850000D03*
D30*
X129750000Y-112050000D03*
X133250000Y-112050000D03*
D29*
X135510000Y-114850000D03*
D31*
X131500000Y-117650000D03*
D32*
X125500000Y-110550000D03*
X124850000Y-110550000D03*
X124200000Y-110550000D03*
X124200000Y-112500000D03*
X124850000Y-112500000D03*
X125500000Y-112500000D03*
D33*
X125400000Y-111525000D03*
X124300000Y-111525000D03*
D34*
X124300000Y-111525000D03*
D22*
X142500000Y-118000000D03*
X142500000Y-116980000D03*
D15*
X128000000Y-117850000D03*
X128000000Y-117150000D03*
D25*
X147040000Y-112500000D03*
X148000000Y-112500000D03*
D14*
X167600000Y-118850000D03*
D35*
X123000000Y-115412500D03*
X123000000Y-113587500D03*
D36*
X165100000Y-110500000D03*
X165100000Y-113000000D03*
X165100000Y-115500000D03*
X167500000Y-110500000D03*
X167500000Y-113000000D03*
X167500000Y-115500000D03*
D17*
X101050000Y-115350000D03*
X101050000Y-113700000D03*
D16*
X104000000Y-109175000D03*
X104000000Y-110825000D03*
D15*
X134000000Y-117850000D03*
X134000000Y-117150000D03*
D14*
X120000000Y-111000000D03*
D15*
X136500000Y-117850000D03*
X136500000Y-117150000D03*
D37*
X119800000Y-118000000D03*
X117975000Y-118000000D03*
D38*
X123500000Y-116140000D03*
X123500000Y-115960000D03*
D12*
X145000000Y-111000000D03*
X145000000Y-110040000D03*
D39*
X133800000Y-108000000D03*
X146000000Y-111000000D03*
X130750000Y-115825000D03*
X133400000Y-109400000D03*
X136500000Y-117150000D03*
X117850000Y-115450000D03*
X121000000Y-116800000D03*
X132000000Y-110300000D03*
X144250000Y-112250000D03*
X136000000Y-112000000D03*
X132200000Y-113800000D03*
X132000000Y-111000000D03*
X141200000Y-107600000D03*
X147400000Y-111400000D03*
X104200000Y-110800000D03*
X145500000Y-113000000D03*
D40*
X112000000Y-117000000D03*
X159000000Y-114000000D03*
X153000000Y-119000000D03*
X105000000Y-114000000D03*
D39*
X101500000Y-118300000D03*
X132000000Y-108000000D03*
X135000000Y-110500000D03*
D40*
X156000000Y-117000000D03*
D39*
X147980000Y-113500000D03*
D40*
X93700000Y-116900000D03*
X153000000Y-111000000D03*
X150000000Y-119000000D03*
X93700000Y-110900000D03*
X114000000Y-114000000D03*
X165000000Y-120000000D03*
X122000000Y-118000000D03*
X118000000Y-108500000D03*
X156000000Y-119000000D03*
X148000000Y-109000000D03*
X150000000Y-114000000D03*
X162500000Y-117000000D03*
X153000000Y-117000000D03*
X102000000Y-120000000D03*
X102000000Y-111000000D03*
X144000000Y-109000000D03*
X156000000Y-114000000D03*
X93700000Y-119900000D03*
X114000000Y-111000000D03*
D39*
X120650000Y-114750000D03*
D40*
X150000000Y-117000000D03*
X139000000Y-117000000D03*
X150000000Y-111000000D03*
X108000000Y-117000000D03*
X156000000Y-109000000D03*
X160000000Y-120000000D03*
X168000000Y-120000000D03*
X169000000Y-110000000D03*
X159000000Y-111000000D03*
X93700000Y-107900000D03*
X156000000Y-111000000D03*
X169000000Y-116000000D03*
D39*
X137500000Y-111500000D03*
D40*
X108000000Y-111000000D03*
X139000000Y-111000000D03*
X165000000Y-108000000D03*
X93700000Y-113900000D03*
X169000000Y-113000000D03*
X129000000Y-111000000D03*
D39*
X129000000Y-108000000D03*
D40*
X126000000Y-118000000D03*
X168000000Y-108000000D03*
D39*
X126000000Y-108000000D03*
D40*
X162500000Y-120000000D03*
X117000000Y-111000000D03*
X153000000Y-109000000D03*
D39*
X139600000Y-108800000D03*
X123480000Y-116250000D03*
X146400000Y-112500000D03*
X145000000Y-113000000D03*
X147040000Y-114500000D03*
D41*
X115400000Y-114400000D03*
X139000000Y-108000000D03*
X135600000Y-108000000D03*
X142365000Y-111096849D03*
X141889594Y-113538807D03*
X142000000Y-113000000D03*
X143000000Y-111500000D03*
D40*
X130300000Y-114850000D03*
X132100000Y-114850000D03*
X132700000Y-114850000D03*
X126150000Y-113450000D03*
X126650000Y-112600000D03*
X126650000Y-113700000D03*
X130900000Y-114850000D03*
X131500000Y-114850000D03*
X126150000Y-112900000D03*
X126650000Y-113150000D03*
D41*
X97800000Y-111650000D03*
X96600000Y-111650000D03*
X102950000Y-117150000D03*
X102950000Y-116550000D03*
X102950000Y-117750000D03*
X97200000Y-111650000D03*
X96000000Y-111650000D03*
X98400000Y-111650000D03*
X102350000Y-116550000D03*
D39*
X143500000Y-113000000D03*
D41*
X137000000Y-113000000D03*
D39*
X144000000Y-113500000D03*
X122200000Y-108000000D03*
X144000000Y-113000000D03*
X143500000Y-113500000D03*
X134400000Y-109200000D03*
X117600000Y-109800000D03*
D41*
X138000000Y-112800000D03*
D39*
X147000000Y-119000000D03*
X141200000Y-114400000D03*
X145500000Y-114500000D03*
X145000000Y-114000000D03*
X147000000Y-117400000D03*
X141600000Y-115400000D03*
X144500000Y-113000000D03*
X148600000Y-119000000D03*
X144200000Y-115200000D03*
X121200000Y-112800000D03*
X126400000Y-119600000D03*
D41*
X102950000Y-118350000D03*
D39*
X139500000Y-118000000D03*
D41*
X134900000Y-117900000D03*
D39*
X131800000Y-115400000D03*
X131294594Y-113780405D03*
D41*
X131850000Y-116645937D03*
X141625333Y-118043079D03*
X135600000Y-117900000D03*
X131150000Y-116645937D03*
D39*
X131725001Y-113000000D03*
D41*
X141625333Y-117343079D03*
D39*
X143000000Y-114000000D03*
X142500000Y-116980000D03*
X143500000Y-116980000D03*
X143500000Y-114000000D03*
X166101454Y-115168161D03*
X142153400Y-115553400D03*
X142400000Y-119050000D03*
X142400000Y-118550000D03*
X166455008Y-114814607D03*
X142776777Y-115601777D03*
D40*
X104050000Y-115800000D03*
X104850000Y-115300000D03*
X116250000Y-117750000D03*
X104600000Y-115800000D03*
X116750000Y-117450000D03*
X103750000Y-115300000D03*
X116750000Y-118550000D03*
X116250000Y-118300000D03*
X104300000Y-115300000D03*
X116750000Y-118000000D03*
D42*
X130750000Y-115825000D02*
X130750000Y-116392000D01*
X133400000Y-108400000D02*
X133400000Y-109400000D01*
X128550000Y-117300000D02*
X128000000Y-117850000D01*
X146000000Y-111000000D02*
X144500000Y-112500000D01*
X128000000Y-117850000D02*
X128000000Y-118500000D01*
X130342000Y-116800000D02*
X129580000Y-116800000D01*
X130750000Y-116392000D02*
X130342000Y-116800000D01*
X129580000Y-116800000D02*
X129080000Y-117300000D01*
X133800000Y-108000000D02*
X133400000Y-108400000D01*
X129080000Y-117300000D02*
X128550000Y-117300000D01*
X128000000Y-118500000D02*
X128500000Y-119000000D01*
X147300000Y-115200000D02*
X148000000Y-114500000D01*
X131449000Y-119701000D02*
X127656262Y-119701000D01*
X128000000Y-117150000D02*
X121350000Y-117150000D01*
X148481000Y-114019000D02*
X148481000Y-111521000D01*
X144500000Y-114000000D02*
X144500000Y-113968255D01*
X144324000Y-117099000D02*
X145000000Y-117775000D01*
X144968255Y-113500000D02*
X145000000Y-113500000D01*
X145500000Y-113968255D02*
X145500000Y-114000000D01*
X146600000Y-115200000D02*
X147300000Y-115200000D01*
X134000000Y-117150000D02*
X131449000Y-119701000D01*
X131000000Y-110300000D02*
X132000000Y-110300000D01*
X121350000Y-117150000D02*
X121000000Y-116800000D01*
X145500000Y-114000000D02*
X145531745Y-114000000D01*
X145800000Y-116975000D02*
X145800000Y-116000000D01*
X141856957Y-116509000D02*
X143827918Y-116509000D01*
X145800000Y-116000000D02*
X146600000Y-115200000D01*
X136750000Y-117400000D02*
X136500000Y-117150000D01*
X148000000Y-114500000D02*
X148481000Y-114019000D01*
X143827918Y-116509000D02*
X145000000Y-117681082D01*
X145876000Y-114724000D02*
X145200000Y-115400000D01*
X140154411Y-119426000D02*
X141199333Y-118381078D01*
X145200000Y-115400000D02*
X144741310Y-115400000D01*
X144500000Y-113968255D02*
X144968255Y-113500000D01*
X145000000Y-117775000D02*
X145800000Y-116975000D01*
X137600000Y-117400000D02*
X137600000Y-117644738D01*
X141199333Y-117166624D02*
X141856957Y-116509000D01*
X144741310Y-115400000D02*
X144324000Y-115817310D01*
X127656262Y-119701000D02*
X127399000Y-119443738D01*
X145031745Y-113500000D02*
X145500000Y-113968255D01*
X136500000Y-117150000D02*
X134000000Y-117150000D01*
X148481000Y-111521000D02*
X147000000Y-110040000D01*
X144324000Y-115817310D02*
X144324000Y-117099000D01*
X145876000Y-114344255D02*
X145876000Y-114724000D01*
X141199333Y-118381078D02*
X141199333Y-117166624D01*
X145000000Y-110040000D02*
X145000000Y-108561000D01*
X127399000Y-117751000D02*
X128000000Y-117150000D01*
X137600000Y-117644738D02*
X139381262Y-119426000D01*
X145000000Y-117681082D02*
X145000000Y-117775000D01*
X142000000Y-110040000D02*
X147000000Y-110040000D01*
X145000000Y-108561000D02*
X146260000Y-107301000D01*
X127399000Y-119443738D02*
X127399000Y-117751000D01*
X139381262Y-119426000D02*
X140154411Y-119426000D01*
X137600000Y-117400000D02*
X136750000Y-117400000D01*
X145000000Y-113500000D02*
X145031745Y-113500000D01*
X145531745Y-114000000D02*
X145876000Y-114344255D01*
X144250000Y-112250000D02*
X144000000Y-112500000D01*
X135000000Y-111000000D02*
X136000000Y-112000000D01*
X145000000Y-111000000D02*
X145000000Y-111500000D01*
X132000000Y-111000000D02*
X135000000Y-111000000D01*
X132250000Y-113850000D02*
X132200000Y-113800000D01*
X145000000Y-111500000D02*
X144250000Y-112250000D01*
X136000000Y-112000000D02*
X136400000Y-112000000D01*
X132250000Y-113875000D02*
X132250000Y-113850000D01*
X140974000Y-107374000D02*
X121826000Y-107374000D01*
X146500000Y-111500000D02*
X146000000Y-111500000D01*
X147000000Y-111000000D02*
X147400000Y-111400000D01*
X116299000Y-109400000D02*
X114200000Y-107301000D01*
X119800000Y-109400000D02*
X116299000Y-109400000D01*
X146000000Y-111500000D02*
X145000000Y-112500000D01*
X121826000Y-107374000D02*
X119800000Y-109400000D01*
X141200000Y-107600000D02*
X140974000Y-107374000D01*
X147000000Y-111000000D02*
X146500000Y-111500000D01*
X146500000Y-113500000D02*
X146000000Y-113000000D01*
X104000000Y-110825000D02*
X104175000Y-110825000D01*
X147020000Y-113500000D02*
X146500000Y-113500000D01*
X146000000Y-113000000D02*
X145500000Y-113000000D01*
X104175000Y-110825000D02*
X104200000Y-110800000D01*
D43*
X101300000Y-118200000D02*
X101400000Y-118200000D01*
D42*
X134250000Y-113875000D02*
X135225000Y-114850000D01*
X135225000Y-114850000D02*
X135510000Y-114850000D01*
D43*
X101400000Y-118200000D02*
X101500000Y-118300000D01*
D42*
X134250000Y-115825000D02*
X135225000Y-114850000D01*
D43*
X101600000Y-118200000D02*
X101700000Y-118200000D01*
X101500000Y-118300000D02*
X101600000Y-118200000D01*
D42*
X145500000Y-113500000D02*
X146200000Y-114200000D01*
X146200000Y-115025000D02*
X145000000Y-116225000D01*
X146200000Y-114200000D02*
X146200000Y-115025000D01*
X146400000Y-112500000D02*
X145500000Y-112500000D01*
X147040000Y-112500000D02*
X146400000Y-112500000D01*
X144000000Y-112000000D02*
X143500000Y-112500000D01*
X144000000Y-111000000D02*
X144000000Y-112000000D01*
X136700000Y-107975000D02*
X135625000Y-107975000D01*
X115400000Y-114400000D02*
X115400000Y-114600000D01*
X139000000Y-108000000D02*
X138975000Y-107975000D01*
X138975000Y-107975000D02*
X136700000Y-107975000D01*
X141889594Y-113507951D02*
X141897545Y-113500000D01*
X142096849Y-111096849D02*
X142000000Y-111000000D01*
X141897545Y-113500000D02*
X143000000Y-113500000D01*
X135625000Y-107975000D02*
X135600000Y-108000000D01*
X115400000Y-114600000D02*
X114550000Y-115450000D01*
X141889594Y-113538807D02*
X141889594Y-113507951D01*
X142365000Y-111096849D02*
X142096849Y-111096849D01*
X143000000Y-111000000D02*
X143000000Y-111500000D01*
X139526000Y-113176000D02*
X138850000Y-112500000D01*
X141047642Y-113000000D02*
X140871642Y-113176000D01*
X142000000Y-113000000D02*
X143000000Y-113000000D01*
X140871642Y-113176000D02*
X139526000Y-113176000D01*
X142000000Y-113000000D02*
X141047642Y-113000000D01*
X132405746Y-113149000D02*
X136546545Y-113149000D01*
X137397545Y-114000000D02*
X138850000Y-114000000D01*
X130750000Y-113875000D02*
X130750000Y-112993254D01*
X136546545Y-113149000D02*
X137397545Y-114000000D01*
X131000000Y-111000000D02*
X131000000Y-112504746D01*
X130750000Y-112993254D02*
X131119254Y-112624000D01*
X131000000Y-112504746D02*
X131119254Y-112624000D01*
X131119254Y-112624000D02*
X131880746Y-112624000D01*
X131880746Y-112624000D02*
X132405746Y-113149000D01*
X138850000Y-115500000D02*
X138800000Y-115500000D01*
X138800000Y-115500000D02*
X137600000Y-116700000D01*
X132558000Y-116700000D02*
X132250000Y-116392000D01*
X132250000Y-116392000D02*
X132250000Y-115825000D01*
X137600000Y-116700000D02*
X132558000Y-116700000D01*
X143199000Y-107301000D02*
X143720000Y-107301000D01*
X140500000Y-112500000D02*
X143000000Y-112500000D01*
D44*
X144000000Y-107280000D02*
X143997200Y-107277200D01*
X143997200Y-107277200D02*
X143720000Y-107277200D01*
D42*
X143720000Y-107301000D02*
X144000000Y-107581000D01*
X140500000Y-112500000D02*
X140500000Y-111000000D01*
X140500000Y-111000000D02*
X139500000Y-110000000D01*
X140500000Y-110000000D02*
X143199000Y-107301000D01*
X139500000Y-110000000D02*
X140500000Y-110000000D01*
X136549000Y-109776000D02*
X123976000Y-109776000D01*
X137000000Y-113000000D02*
X137000000Y-110500000D01*
X123976000Y-109776000D02*
X122200000Y-108000000D01*
X136700000Y-110200000D02*
X136700000Y-109625000D01*
X144000000Y-113476521D02*
X144000000Y-113500000D01*
X136700000Y-109625000D02*
X136549000Y-109776000D01*
X137000000Y-110500000D02*
X136700000Y-110200000D01*
X138000000Y-110400000D02*
X138200000Y-110200000D01*
X135800000Y-109200000D02*
X134400000Y-109200000D01*
X138000000Y-112800000D02*
X138000000Y-110400000D01*
X138200000Y-110200000D02*
X138200000Y-109625000D01*
X137375000Y-108800000D02*
X136200000Y-108800000D01*
X143500000Y-113500000D02*
X143495003Y-113500000D01*
X138200000Y-109625000D02*
X137375000Y-108800000D01*
X136200000Y-108800000D02*
X135800000Y-109200000D01*
D45*
X123000000Y-115412500D02*
X122762500Y-115412500D01*
D42*
X140800000Y-114000000D02*
X141200000Y-114400000D01*
X140500000Y-114000000D02*
X140800000Y-114000000D01*
X147000000Y-117400000D02*
X148450000Y-117400000D01*
X148450000Y-117400000D02*
X148500000Y-117350000D01*
X141500000Y-115500000D02*
X141600000Y-115400000D01*
X140500000Y-115500000D02*
X141500000Y-115500000D01*
X119600000Y-111400000D02*
X120000000Y-111000000D01*
D44*
X120150000Y-114750000D02*
X119600000Y-114200000D01*
D42*
X119600000Y-112700000D02*
X119600000Y-111400000D01*
D44*
X119600000Y-114200000D02*
X119600000Y-112700000D01*
D42*
X144500000Y-114900000D02*
X144200000Y-115200000D01*
X144500000Y-114500000D02*
X144500000Y-114900000D01*
D43*
X103089500Y-119189500D02*
X112460500Y-119189500D01*
X112460500Y-119189500D02*
X116200000Y-115450000D01*
X102100000Y-118200000D02*
X103089500Y-119189500D01*
X102200000Y-117800000D02*
X102750000Y-118350000D01*
X102750000Y-118350000D02*
X102950000Y-118350000D01*
D42*
X143834127Y-115365873D02*
X143200000Y-116000000D01*
X141500000Y-116000000D02*
X139500000Y-118000000D01*
X144000000Y-114868255D02*
X143824000Y-115044255D01*
X143200000Y-116000000D02*
X141500000Y-116000000D01*
X143824000Y-115355745D02*
X143834127Y-115365873D01*
X143824000Y-115044255D02*
X143824000Y-115355745D01*
D43*
X102100000Y-117800000D02*
X102200000Y-117800000D01*
D42*
X144000000Y-114500000D02*
X144000000Y-114868255D01*
X141668412Y-118000000D02*
X141625333Y-118043079D01*
X142500000Y-118000000D02*
X141668412Y-118000000D01*
X134000000Y-117850000D02*
X134000000Y-119000000D01*
X131294594Y-113780405D02*
X131274999Y-113800000D01*
X163325000Y-114943198D02*
X163325000Y-112693198D01*
X131750000Y-115825000D02*
X131725001Y-115849999D01*
X144700000Y-120200000D02*
X158068198Y-120200000D01*
X163943198Y-112075000D02*
X165756802Y-112075000D01*
X165800000Y-113000000D02*
X165100000Y-113000000D01*
X131274999Y-113800000D02*
X131274999Y-113850001D01*
X166100000Y-112700000D02*
X165800000Y-113000000D01*
X142500000Y-118000000D02*
X144700000Y-120200000D01*
X166100000Y-112418198D02*
X166100000Y-112700000D01*
X131274999Y-113850001D02*
X131250000Y-113875000D01*
X131725001Y-116520938D02*
X131850000Y-116645937D01*
X134050000Y-117900000D02*
X134000000Y-117850000D01*
X131725001Y-115849999D02*
X131725001Y-116520938D01*
X134900000Y-117900000D02*
X134050000Y-117900000D01*
X165756802Y-112075000D02*
X166100000Y-112418198D01*
X163325000Y-112693198D02*
X163943198Y-112075000D01*
X158068198Y-120200000D02*
X163325000Y-114943198D01*
X166850000Y-113000000D02*
X167500000Y-113000000D01*
X136500000Y-117850000D02*
X136500000Y-119000000D01*
X136450000Y-117900000D02*
X136500000Y-117850000D01*
X157881802Y-119750000D02*
X162875000Y-114756802D01*
X162875000Y-112506802D02*
X163756802Y-111625000D01*
X131250000Y-115825000D02*
X131274999Y-115849999D01*
X143500000Y-118363603D02*
X144886397Y-119750000D01*
X131274999Y-116520938D02*
X131150000Y-116645937D01*
X144886397Y-119750000D02*
X157881802Y-119750000D01*
X143500000Y-118000000D02*
X143500000Y-118363603D01*
X143500000Y-118000000D02*
X142951000Y-117451000D01*
X131725001Y-113000000D02*
X131725001Y-113850001D01*
X166550000Y-112700000D02*
X166850000Y-113000000D01*
X166550000Y-112231802D02*
X166550000Y-112700000D01*
X163756802Y-111625000D02*
X165943198Y-111625000D01*
X142951000Y-117451000D02*
X141733254Y-117451000D01*
X141733254Y-117451000D02*
X141625333Y-117343079D01*
X165943198Y-111625000D02*
X166550000Y-112231802D01*
X135600000Y-117900000D02*
X136450000Y-117900000D01*
X162875000Y-114756802D02*
X162875000Y-112506802D01*
X131274999Y-115849999D02*
X131274999Y-116520938D01*
X131725001Y-113850001D02*
X131750000Y-113875000D01*
X164283712Y-111201000D02*
X164032712Y-110950000D01*
X166167288Y-110950000D02*
X165916288Y-111201000D01*
X158960000Y-107778198D02*
X158960000Y-107301000D01*
X167500000Y-110500000D02*
X167050000Y-110950000D01*
X164032712Y-110950000D02*
X162131802Y-110950000D01*
X162131802Y-110950000D02*
X158960000Y-107778198D01*
X165916288Y-111201000D02*
X164283712Y-111201000D01*
X167050000Y-110950000D02*
X166167288Y-110950000D01*
X160500000Y-108681802D02*
X160500000Y-108000000D01*
X160500000Y-108000000D02*
X161199000Y-107301000D01*
X165100000Y-110500000D02*
X162318198Y-110500000D01*
X161199000Y-107301000D02*
X161500000Y-107301000D01*
X162318198Y-110500000D02*
X160500000Y-108681802D01*
X166101454Y-115168161D02*
X165431839Y-115168161D01*
X142153400Y-115553400D02*
X143024999Y-114681802D01*
X165100000Y-115500000D02*
X165100000Y-118600000D01*
X143024999Y-114681802D02*
X143024999Y-114524999D01*
X143024999Y-114524999D02*
X143000000Y-114500000D01*
X165431839Y-115168161D02*
X165100000Y-115500000D01*
X165200000Y-115600000D02*
X165100000Y-115500000D01*
X165100000Y-118600000D02*
X164850000Y-118850000D01*
X167500000Y-115500000D02*
X167500000Y-118750000D01*
X167500000Y-118750000D02*
X167600000Y-118850000D01*
X143500000Y-114500000D02*
X143475001Y-114524999D01*
X142776777Y-115566422D02*
X142776777Y-115601777D01*
X166455008Y-114814607D02*
X166814607Y-114814607D01*
X143475001Y-114868198D02*
X142776777Y-115566422D01*
X166814607Y-114814607D02*
X167500000Y-115500000D01*
X143475001Y-114524999D02*
X143475001Y-114868198D01*
X167400000Y-115600000D02*
X167500000Y-115500000D01*
%TA.AperFunction,Conductor*%
G36*
X103165677Y-116319685D02*
G01*
X103186319Y-116336319D01*
X103263681Y-116413681D01*
X103297166Y-116475004D01*
X103300000Y-116501362D01*
X103300000Y-117848638D01*
X103291355Y-117878075D01*
X103284832Y-117908066D01*
X103281076Y-117913082D01*
X103280315Y-117915677D01*
X103263685Y-117936314D01*
X103187524Y-118012476D01*
X103126200Y-118045960D01*
X103067752Y-118044569D01*
X102992853Y-118024500D01*
X102907147Y-118024500D01*
X102827746Y-118045775D01*
X102795655Y-118050000D01*
X102751362Y-118050000D01*
X102684323Y-118030315D01*
X102663681Y-118013681D01*
X102486319Y-117836319D01*
X102452834Y-117774996D01*
X102450000Y-117748638D01*
X102450000Y-117551096D01*
X102452383Y-117526903D01*
X102454668Y-117515414D01*
X102454669Y-117515413D01*
X102460500Y-117486099D01*
X102460499Y-117313902D01*
X102454669Y-117284587D01*
X102454668Y-117284586D01*
X102452381Y-117273083D01*
X102450000Y-117248898D01*
X102450000Y-117000000D01*
X102350000Y-116900000D01*
X102251362Y-116900000D01*
X102221921Y-116891355D01*
X102191935Y-116884832D01*
X102186919Y-116881077D01*
X102184323Y-116880315D01*
X102163681Y-116863681D01*
X102036319Y-116736319D01*
X102002834Y-116674996D01*
X102000000Y-116648638D01*
X102000000Y-116501362D01*
X102019685Y-116434323D01*
X102036319Y-116413681D01*
X102113681Y-116336319D01*
X102175004Y-116302834D01*
X102201362Y-116300000D01*
X103098638Y-116300000D01*
X103165677Y-116319685D01*
G37*
%TD.AperFunction*%
%TA.AperFunction,Conductor*%
G36*
X126765677Y-112219685D02*
G01*
X126786319Y-112236319D01*
X126963681Y-112413681D01*
X126997166Y-112475004D01*
X127000000Y-112501362D01*
X127000000Y-113898638D01*
X126980315Y-113965677D01*
X126963681Y-113986319D01*
X126736319Y-114213681D01*
X126674996Y-114247166D01*
X126648638Y-114250000D01*
X122351362Y-114250000D01*
X122284323Y-114230315D01*
X122263681Y-114213681D01*
X121986319Y-113936319D01*
X121952834Y-113874996D01*
X121950000Y-113848638D01*
X121950000Y-112501362D01*
X121969685Y-112434323D01*
X121986319Y-112413681D01*
X122163681Y-112236319D01*
X122225004Y-112202834D01*
X122251362Y-112200000D01*
X126698638Y-112200000D01*
X126765677Y-112219685D01*
G37*
%TD.AperFunction*%
%TA.AperFunction,Conductor*%
G36*
X118365677Y-117069685D02*
G01*
X118386319Y-117086319D01*
X118663681Y-117363681D01*
X118697166Y-117425004D01*
X118700000Y-117451362D01*
X118700000Y-118398638D01*
X118680315Y-118465677D01*
X118663681Y-118486319D01*
X118236319Y-118913681D01*
X118174996Y-118947166D01*
X118148638Y-118950000D01*
X116351362Y-118950000D01*
X116284323Y-118930315D01*
X116263681Y-118913681D01*
X115836319Y-118486319D01*
X115802834Y-118424996D01*
X115800000Y-118398638D01*
X115800000Y-117551362D01*
X115819685Y-117484323D01*
X115836319Y-117463681D01*
X116213681Y-117086319D01*
X116275004Y-117052834D01*
X116301362Y-117050000D01*
X118298638Y-117050000D01*
X118365677Y-117069685D01*
G37*
%TD.AperFunction*%
%TA.AperFunction,Conductor*%
G36*
X123715677Y-114819685D02*
G01*
X123736319Y-114836319D01*
X123863681Y-114963681D01*
X123897166Y-115025004D01*
X123900000Y-115051362D01*
X123900000Y-115783229D01*
X123880315Y-115850268D01*
X123827511Y-115896023D01*
X123758353Y-115905967D01*
X123707109Y-115886331D01*
X123654430Y-115851132D01*
X123654429Y-115851131D01*
X123595952Y-115839500D01*
X123595948Y-115839500D01*
X123404052Y-115839500D01*
X123404047Y-115839500D01*
X123345570Y-115851131D01*
X123345569Y-115851132D01*
X123279247Y-115895447D01*
X123234932Y-115961769D01*
X123230258Y-115973054D01*
X123226169Y-115971360D01*
X123204802Y-116012153D01*
X123144066Y-116046693D01*
X123115618Y-116050000D01*
X120701362Y-116050000D01*
X120671921Y-116041355D01*
X120641935Y-116034832D01*
X120636919Y-116031077D01*
X120634323Y-116030315D01*
X120613681Y-116013681D01*
X120591819Y-115991819D01*
X120558334Y-115930496D01*
X120555740Y-115906375D01*
X120555567Y-115906381D01*
X120555501Y-115904371D01*
X120555500Y-115904355D01*
X120555500Y-115904346D01*
X120553742Y-115877524D01*
X120549517Y-115845431D01*
X120544273Y-115819067D01*
X120534366Y-115782092D01*
X120534366Y-115717909D01*
X120544273Y-115680936D01*
X120549517Y-115654570D01*
X120553742Y-115622477D01*
X120555500Y-115595655D01*
X120555500Y-115404346D01*
X120553742Y-115377524D01*
X120549517Y-115345431D01*
X120544273Y-115319067D01*
X120534225Y-115281565D01*
X120530038Y-115252539D01*
X120530000Y-115251002D01*
X120530000Y-115225862D01*
X120528845Y-115204336D01*
X120528802Y-115202566D01*
X120537368Y-115170475D01*
X120545007Y-115138145D01*
X120546343Y-115136854D01*
X120546823Y-115135060D01*
X120571382Y-115112692D01*
X120595284Y-115089627D01*
X120597234Y-115089147D01*
X120598479Y-115088014D01*
X120609277Y-115086187D01*
X120652764Y-115075500D01*
X120692851Y-115075500D01*
X120692853Y-115075500D01*
X120772253Y-115054224D01*
X120804345Y-115050000D01*
X121450000Y-115050000D01*
X121663681Y-114836319D01*
X121725004Y-114802834D01*
X121751362Y-114800000D01*
X123648638Y-114800000D01*
X123715677Y-114819685D01*
G37*
%TD.AperFunction*%
%TA.AperFunction,Conductor*%
G36*
X130343039Y-113369685D02*
G01*
X130388794Y-113422489D01*
X130400000Y-113474000D01*
X130400000Y-114449999D01*
X130400717Y-114451731D01*
X130412479Y-114469327D01*
X130414349Y-114468078D01*
X130465447Y-114544552D01*
X130531769Y-114588867D01*
X130531770Y-114588868D01*
X130590247Y-114600499D01*
X130590250Y-114600500D01*
X130590252Y-114600500D01*
X130909750Y-114600500D01*
X130975808Y-114587360D01*
X131024192Y-114587360D01*
X131090249Y-114600500D01*
X131090252Y-114600500D01*
X131409750Y-114600500D01*
X131475808Y-114587360D01*
X131524192Y-114587360D01*
X131590249Y-114600500D01*
X131590252Y-114600500D01*
X131909750Y-114600500D01*
X131975808Y-114587360D01*
X132024192Y-114587360D01*
X132090249Y-114600500D01*
X132090252Y-114600500D01*
X132409750Y-114600500D01*
X132409751Y-114600499D01*
X132468231Y-114588867D01*
X132495123Y-114570897D01*
X132527729Y-114560688D01*
X132527212Y-114559439D01*
X132549998Y-114550000D01*
X132550000Y-114550000D01*
X132600000Y-114500000D01*
X132600000Y-113573500D01*
X132602550Y-113564814D01*
X132601262Y-113555853D01*
X132612240Y-113531812D01*
X132619685Y-113506461D01*
X132626525Y-113500533D01*
X132630287Y-113492297D01*
X132652521Y-113478007D01*
X132672489Y-113460706D01*
X132683003Y-113458418D01*
X132689065Y-113454523D01*
X132724000Y-113449500D01*
X132776000Y-113449500D01*
X132843039Y-113469185D01*
X132888794Y-113521989D01*
X132900000Y-113573500D01*
X132900000Y-114450000D01*
X132919370Y-114469370D01*
X132921133Y-114478231D01*
X132965448Y-114544552D01*
X133031769Y-114588867D01*
X133040629Y-114590629D01*
X133063681Y-114613681D01*
X133097166Y-114675004D01*
X133100000Y-114701362D01*
X133100000Y-114998636D01*
X133080315Y-115065675D01*
X133063663Y-115086336D01*
X133061305Y-115088693D01*
X133040679Y-115102489D01*
X133041922Y-115104349D01*
X132965447Y-115155447D01*
X132914349Y-115231922D01*
X132911482Y-115230006D01*
X132904706Y-115244846D01*
X132900073Y-115249823D01*
X132900000Y-115249999D01*
X132900000Y-116226000D01*
X132897449Y-116234685D01*
X132898738Y-116243647D01*
X132887759Y-116267687D01*
X132880315Y-116293039D01*
X132873474Y-116298966D01*
X132869713Y-116307203D01*
X132847478Y-116321492D01*
X132827511Y-116338794D01*
X132816996Y-116341081D01*
X132810935Y-116344977D01*
X132776000Y-116350000D01*
X132724000Y-116350000D01*
X132656961Y-116330315D01*
X132611206Y-116277511D01*
X132600000Y-116226000D01*
X132600000Y-115250000D01*
X132599279Y-115248260D01*
X132587531Y-115230670D01*
X132585653Y-115231925D01*
X132534551Y-115155446D01*
X132468230Y-115111132D01*
X132468229Y-115111131D01*
X132409752Y-115099500D01*
X132409748Y-115099500D01*
X132090252Y-115099500D01*
X132024190Y-115112640D01*
X132015852Y-115112639D01*
X132011053Y-115114528D01*
X131975809Y-115112639D01*
X131961516Y-115109796D01*
X131933392Y-115099212D01*
X131933152Y-115099794D01*
X131925640Y-115096683D01*
X131925639Y-115096682D01*
X131925638Y-115096682D01*
X131842853Y-115074500D01*
X131757147Y-115074500D01*
X131679610Y-115095275D01*
X131660497Y-115098819D01*
X131654025Y-115099500D01*
X131590252Y-115099500D01*
X131531769Y-115111133D01*
X131529582Y-115112593D01*
X131512976Y-115114341D01*
X131503668Y-115112640D01*
X131475810Y-115112640D01*
X131409748Y-115099500D01*
X131090252Y-115099500D01*
X131024190Y-115112640D01*
X130975810Y-115112640D01*
X130909748Y-115099500D01*
X130590252Y-115099500D01*
X130590247Y-115099500D01*
X130531773Y-115111131D01*
X130531769Y-115111133D01*
X130504877Y-115129102D01*
X130472270Y-115139311D01*
X130472788Y-115140561D01*
X130449999Y-115150000D01*
X130400000Y-115199999D01*
X130400000Y-116226000D01*
X130397449Y-116234685D01*
X130398738Y-116243647D01*
X130387759Y-116267687D01*
X130380315Y-116293039D01*
X130373474Y-116298966D01*
X130369713Y-116307203D01*
X130347478Y-116321492D01*
X130327511Y-116338794D01*
X130316996Y-116341081D01*
X130310935Y-116344977D01*
X130276000Y-116350000D01*
X130224000Y-116350000D01*
X130156961Y-116330315D01*
X130111206Y-116277511D01*
X130100000Y-116226000D01*
X130100000Y-115200000D01*
X129986319Y-115086319D01*
X129971615Y-115059391D01*
X129955023Y-115033573D01*
X129954131Y-115027372D01*
X129952834Y-115024996D01*
X129950000Y-114998638D01*
X129950000Y-114751362D01*
X129969685Y-114684323D01*
X129986319Y-114663681D01*
X130036319Y-114613681D01*
X130100000Y-114550000D01*
X130100000Y-113474000D01*
X130102550Y-113465314D01*
X130101262Y-113456353D01*
X130112240Y-113432312D01*
X130119685Y-113406961D01*
X130126525Y-113401033D01*
X130130287Y-113392797D01*
X130152521Y-113378507D01*
X130172489Y-113361206D01*
X130183003Y-113358918D01*
X130189065Y-113355023D01*
X130224000Y-113350000D01*
X130276000Y-113350000D01*
X130343039Y-113369685D01*
G37*
%TD.AperFunction*%
%TA.AperFunction,Conductor*%
G36*
X104685677Y-107479685D02*
G01*
X104706319Y-107496319D01*
X105043681Y-107833681D01*
X105077166Y-107895004D01*
X105080000Y-107921362D01*
X105080000Y-109416138D01*
X105060315Y-109483177D01*
X105043681Y-109503819D01*
X104583819Y-109963681D01*
X104522496Y-109997166D01*
X104496138Y-110000000D01*
X100081362Y-110000000D01*
X100014323Y-109980315D01*
X99993681Y-109963681D01*
X99030000Y-109000000D01*
X97421362Y-109000000D01*
X97354323Y-108980315D01*
X97333681Y-108963681D01*
X97156319Y-108786319D01*
X97122834Y-108724996D01*
X97120000Y-108698638D01*
X97120000Y-107871362D01*
X97139685Y-107804323D01*
X97156319Y-107783681D01*
X97443681Y-107496319D01*
X97505004Y-107462834D01*
X97531362Y-107460000D01*
X104618638Y-107460000D01*
X104685677Y-107479685D01*
G37*
%TD.AperFunction*%
%TA.AperFunction,Conductor*%
G36*
X105015677Y-114769685D02*
G01*
X105036319Y-114786319D01*
X105113681Y-114863681D01*
X105147166Y-114925004D01*
X105150000Y-114951362D01*
X105150000Y-117398638D01*
X105130315Y-117465677D01*
X105113681Y-117486319D01*
X104836319Y-117763681D01*
X104774996Y-117797166D01*
X104748638Y-117800000D01*
X103601362Y-117800000D01*
X103571921Y-117791355D01*
X103541935Y-117784832D01*
X103536919Y-117781077D01*
X103534323Y-117780315D01*
X103513681Y-117763681D01*
X103486319Y-117736319D01*
X103452834Y-117674996D01*
X103450000Y-117648638D01*
X103450000Y-116400000D01*
X103250000Y-116200000D01*
X103145755Y-116200000D01*
X103128117Y-116198738D01*
X103098638Y-116194500D01*
X102201362Y-116194500D01*
X102201346Y-116194500D01*
X102190084Y-116195105D01*
X102190060Y-116195107D01*
X102157670Y-116198590D01*
X102157638Y-116198292D01*
X102141055Y-116200000D01*
X101999999Y-116200000D01*
X101900000Y-116299999D01*
X101900000Y-116454240D01*
X101898738Y-116471887D01*
X101894500Y-116501362D01*
X101894500Y-116648653D01*
X101895105Y-116659915D01*
X101895107Y-116659939D01*
X101898590Y-116692330D01*
X101898291Y-116692362D01*
X101900000Y-116708944D01*
X101900000Y-117268916D01*
X101898282Y-117289487D01*
X101895947Y-117303366D01*
X101874500Y-117355145D01*
X101874500Y-117430858D01*
X101872782Y-117441071D01*
X101861856Y-117463558D01*
X101854815Y-117487539D01*
X101846854Y-117494436D01*
X101842249Y-117503916D01*
X101820898Y-117516927D01*
X101802011Y-117533294D01*
X101789621Y-117535989D01*
X101782586Y-117540277D01*
X101771164Y-117540004D01*
X101750500Y-117544500D01*
X101195862Y-117544500D01*
X101128823Y-117524815D01*
X101108181Y-117508181D01*
X100436319Y-116836319D01*
X100402834Y-116774996D01*
X100400000Y-116748638D01*
X100400000Y-115051362D01*
X100419685Y-114984323D01*
X100436319Y-114963681D01*
X100613681Y-114786319D01*
X100675004Y-114752834D01*
X100701362Y-114750000D01*
X104948638Y-114750000D01*
X105015677Y-114769685D01*
G37*
%TD.AperFunction*%
%TA.AperFunction,Conductor*%
G36*
X98765677Y-109269685D02*
G01*
X98786319Y-109286319D01*
X99863681Y-110363681D01*
X99897166Y-110425004D01*
X99900000Y-110451362D01*
X99900000Y-114298638D01*
X99880315Y-114365677D01*
X99863681Y-114386319D01*
X99386319Y-114863681D01*
X99324996Y-114897166D01*
X99298638Y-114900000D01*
X95051362Y-114900000D01*
X94984323Y-114880315D01*
X94963681Y-114863681D01*
X94236319Y-114136319D01*
X94202834Y-114074996D01*
X94200000Y-114048638D01*
X94200000Y-110401362D01*
X94219685Y-110334323D01*
X94236319Y-110313681D01*
X95263681Y-109286319D01*
X95325004Y-109252834D01*
X95351362Y-109250000D01*
X98698638Y-109250000D01*
X98765677Y-109269685D01*
G37*
%TD.AperFunction*%
%TA.AperFunction,Conductor*%
G36*
X120027746Y-115054224D02*
G01*
X120107147Y-115075500D01*
X120107149Y-115075500D01*
X120174138Y-115075500D01*
X120203578Y-115084144D01*
X120233565Y-115090668D01*
X120238580Y-115094422D01*
X120241177Y-115095185D01*
X120261819Y-115111819D01*
X120288181Y-115138181D01*
X120321666Y-115199504D01*
X120324500Y-115225862D01*
X120324500Y-115292852D01*
X120345775Y-115372253D01*
X120350000Y-115404346D01*
X120350000Y-115595655D01*
X120345775Y-115627748D01*
X120324500Y-115707147D01*
X120324500Y-115792852D01*
X120345775Y-115872253D01*
X120350000Y-115904346D01*
X120350000Y-118598638D01*
X120341355Y-118628078D01*
X120334832Y-118658065D01*
X120331077Y-118663080D01*
X120330315Y-118665677D01*
X120313681Y-118686319D01*
X120236319Y-118763681D01*
X120174996Y-118797166D01*
X120148638Y-118800000D01*
X119401362Y-118800000D01*
X119334323Y-118780315D01*
X119313681Y-118763681D01*
X119186319Y-118636319D01*
X119152834Y-118574996D01*
X119150000Y-118548638D01*
X119150000Y-115701362D01*
X119169685Y-115634323D01*
X119186319Y-115613681D01*
X119713681Y-115086319D01*
X119740608Y-115071615D01*
X119766427Y-115055023D01*
X119772627Y-115054131D01*
X119775004Y-115052834D01*
X119801362Y-115050000D01*
X119995655Y-115050000D01*
X120027746Y-115054224D01*
G37*
%TD.AperFunction*%
%TA.AperFunction,Conductor*%
G36*
X100335677Y-117019685D02*
G01*
X100356319Y-117036319D01*
X100970000Y-117650000D01*
X101750500Y-117650000D01*
X101759185Y-117652550D01*
X101768147Y-117651262D01*
X101792187Y-117662240D01*
X101817539Y-117669685D01*
X101823466Y-117676525D01*
X101831703Y-117680287D01*
X101845992Y-117702521D01*
X101863294Y-117722489D01*
X101865581Y-117733003D01*
X101869477Y-117739065D01*
X101874500Y-117774000D01*
X101874500Y-117844138D01*
X101854815Y-117911177D01*
X101838181Y-117931819D01*
X101836319Y-117933681D01*
X101816107Y-117944717D01*
X101802011Y-117956932D01*
X101790780Y-117958546D01*
X101774996Y-117967166D01*
X101748638Y-117970000D01*
X101099999Y-117970000D01*
X99466319Y-119603681D01*
X99404996Y-119637166D01*
X99378638Y-119640000D01*
X95151362Y-119640000D01*
X95084323Y-119620315D01*
X95063681Y-119603681D01*
X94766319Y-119306319D01*
X94732834Y-119244996D01*
X94730000Y-119218638D01*
X94730000Y-117461362D01*
X94749685Y-117394323D01*
X94766319Y-117373681D01*
X95103681Y-117036319D01*
X95165004Y-117002834D01*
X95191362Y-117000000D01*
X100268638Y-117000000D01*
X100335677Y-117019685D01*
G37*
%TD.AperFunction*%
%TA.AperFunction,Conductor*%
G36*
X100342539Y-107020185D02*
G01*
X100388294Y-107072989D01*
X100399500Y-107124500D01*
X100399500Y-107130500D01*
X100379815Y-107197539D01*
X100327011Y-107243294D01*
X100275500Y-107254500D01*
X97531361Y-107254500D01*
X97509381Y-107255678D01*
X97483034Y-107258511D01*
X97483032Y-107258512D01*
X97406521Y-107282470D01*
X97406516Y-107282471D01*
X97345188Y-107315960D01*
X97298384Y-107350998D01*
X97298363Y-107351016D01*
X97011013Y-107638365D01*
X97011012Y-107638366D01*
X96996325Y-107654716D01*
X96996313Y-107654730D01*
X96979675Y-107675377D01*
X96953408Y-107725590D01*
X96904891Y-107775869D01*
X96836894Y-107791936D01*
X96798041Y-107783468D01*
X96750000Y-107764522D01*
X96750000Y-108351000D01*
X96730315Y-108418039D01*
X96677511Y-108463794D01*
X96626000Y-108475000D01*
X96300000Y-108475000D01*
X96300000Y-108801000D01*
X96280315Y-108868039D01*
X96227511Y-108913794D01*
X96176000Y-108925000D01*
X95574381Y-108925000D01*
X95560633Y-108945198D01*
X95528611Y-109006533D01*
X95467922Y-109041154D01*
X95439312Y-109044500D01*
X95351361Y-109044500D01*
X95329381Y-109045678D01*
X95303034Y-109048511D01*
X95303032Y-109048512D01*
X95226521Y-109072470D01*
X95226516Y-109072471D01*
X95165188Y-109105960D01*
X95118384Y-109140998D01*
X95118363Y-109141016D01*
X94091013Y-110168365D01*
X94091012Y-110168366D01*
X94076325Y-110184716D01*
X94076313Y-110184730D01*
X94059672Y-110205379D01*
X94022509Y-110276424D01*
X94002826Y-110343456D01*
X94002825Y-110343464D01*
X93996615Y-110386658D01*
X93994500Y-110401365D01*
X93994500Y-114048638D01*
X93995678Y-114070618D01*
X93998511Y-114096965D01*
X93998512Y-114096967D01*
X94011842Y-114139536D01*
X94017026Y-114156094D01*
X94022470Y-114173478D01*
X94022471Y-114173483D01*
X94026147Y-114180214D01*
X94055956Y-114234805D01*
X94055958Y-114234808D01*
X94055960Y-114234811D01*
X94090998Y-114281615D01*
X94091002Y-114281619D01*
X94091009Y-114281629D01*
X94091016Y-114281636D01*
X94818365Y-115008986D01*
X94818366Y-115008987D01*
X94834716Y-115023674D01*
X94834730Y-115023686D01*
X94834738Y-115023693D01*
X94843136Y-115030460D01*
X94855379Y-115040327D01*
X94926424Y-115077490D01*
X94993456Y-115097173D01*
X94993458Y-115097173D01*
X94993464Y-115097175D01*
X95051362Y-115105500D01*
X95051366Y-115105500D01*
X99298639Y-115105500D01*
X99301180Y-115105363D01*
X99320607Y-115104322D01*
X99320614Y-115104321D01*
X99320618Y-115104321D01*
X99346965Y-115101488D01*
X99423482Y-115077529D01*
X99484805Y-115044044D01*
X99531629Y-115008991D01*
X100008991Y-114531629D01*
X100023693Y-114515262D01*
X100040327Y-114494620D01*
X100077490Y-114423575D01*
X100097175Y-114356536D01*
X100105500Y-114298638D01*
X100105500Y-114212552D01*
X100125185Y-114145513D01*
X100177989Y-114099758D01*
X100247147Y-114089814D01*
X100310703Y-114118839D01*
X100328767Y-114138241D01*
X100417813Y-114257190D01*
X100532906Y-114343350D01*
X100532913Y-114343354D01*
X100553720Y-114351114D01*
X100609655Y-114392984D01*
X100634074Y-114458447D01*
X100619224Y-114526721D01*
X100569820Y-114576128D01*
X100569819Y-114576128D01*
X100515191Y-114605958D01*
X100468384Y-114640998D01*
X100468363Y-114641016D01*
X100291013Y-114818365D01*
X100291012Y-114818366D01*
X100276325Y-114834716D01*
X100276313Y-114834730D01*
X100259672Y-114855379D01*
X100222509Y-114926424D01*
X100202826Y-114993456D01*
X100202825Y-114993464D01*
X100194740Y-115049698D01*
X100194500Y-115051365D01*
X100194500Y-116670500D01*
X100174815Y-116737539D01*
X100122011Y-116783294D01*
X100070500Y-116794500D01*
X95191361Y-116794500D01*
X95169381Y-116795678D01*
X95143034Y-116798511D01*
X95143032Y-116798512D01*
X95066521Y-116822470D01*
X95066516Y-116822471D01*
X95005188Y-116855960D01*
X94958384Y-116890998D01*
X94958363Y-116891016D01*
X94621013Y-117228365D01*
X94621012Y-117228366D01*
X94606325Y-117244716D01*
X94606313Y-117244730D01*
X94589672Y-117265379D01*
X94552509Y-117336424D01*
X94532826Y-117403456D01*
X94532825Y-117403464D01*
X94529007Y-117430021D01*
X94524500Y-117461365D01*
X94524500Y-119218638D01*
X94525678Y-119240618D01*
X94528511Y-119266965D01*
X94528512Y-119266967D01*
X94545586Y-119321494D01*
X94551235Y-119339536D01*
X94552470Y-119343478D01*
X94552471Y-119343483D01*
X94566872Y-119369855D01*
X94585956Y-119404805D01*
X94585958Y-119404808D01*
X94585960Y-119404811D01*
X94620998Y-119451615D01*
X94621002Y-119451619D01*
X94621009Y-119451629D01*
X94621016Y-119451636D01*
X94918365Y-119748986D01*
X94918366Y-119748987D01*
X94934716Y-119763674D01*
X94934730Y-119763686D01*
X94934738Y-119763693D01*
X94943136Y-119770460D01*
X94955379Y-119780327D01*
X95026424Y-119817490D01*
X95093456Y-119837173D01*
X95093458Y-119837173D01*
X95093464Y-119837175D01*
X95151362Y-119845500D01*
X95151366Y-119845500D01*
X99378639Y-119845500D01*
X99381180Y-119845363D01*
X99400607Y-119844322D01*
X99400614Y-119844321D01*
X99400618Y-119844321D01*
X99426965Y-119841488D01*
X99503482Y-119817529D01*
X99564805Y-119784044D01*
X99611629Y-119748991D01*
X99803473Y-119557147D01*
X126074500Y-119557147D01*
X126074500Y-119642853D01*
X126091426Y-119706020D01*
X126096682Y-119725637D01*
X126096685Y-119725644D01*
X126139530Y-119799855D01*
X126139534Y-119799860D01*
X126139535Y-119799862D01*
X126200138Y-119860465D01*
X126200140Y-119860466D01*
X126200144Y-119860469D01*
X126243519Y-119885511D01*
X126274362Y-119903318D01*
X126357147Y-119925500D01*
X126357149Y-119925500D01*
X126442851Y-119925500D01*
X126442853Y-119925500D01*
X126525638Y-119903318D01*
X126599862Y-119860465D01*
X126660465Y-119799862D01*
X126703318Y-119725638D01*
X126725500Y-119642853D01*
X126725500Y-119557147D01*
X126703318Y-119474362D01*
X126696689Y-119462880D01*
X126660469Y-119400144D01*
X126660463Y-119400136D01*
X126599863Y-119339536D01*
X126599855Y-119339530D01*
X126525644Y-119296685D01*
X126525640Y-119296683D01*
X126525638Y-119296682D01*
X126442853Y-119274500D01*
X126357147Y-119274500D01*
X126274362Y-119296682D01*
X126274355Y-119296685D01*
X126200144Y-119339530D01*
X126200136Y-119339536D01*
X126139536Y-119400136D01*
X126139530Y-119400144D01*
X126096685Y-119474355D01*
X126096682Y-119474362D01*
X126074500Y-119557147D01*
X99803473Y-119557147D01*
X100886371Y-118474247D01*
X100947692Y-118440764D01*
X101017383Y-118445748D01*
X101073317Y-118487619D01*
X101096989Y-118545745D01*
X101100949Y-118575826D01*
X101135953Y-118596035D01*
X101244048Y-118624999D01*
X101244050Y-118625000D01*
X101355949Y-118625000D01*
X101467906Y-118595001D01*
X101532094Y-118595001D01*
X101644051Y-118625000D01*
X101755950Y-118625000D01*
X101755951Y-118624999D01*
X101864045Y-118596036D01*
X101945610Y-118548942D01*
X102013510Y-118532467D01*
X102079537Y-118555318D01*
X102095294Y-118568646D01*
X102939956Y-119413308D01*
X103036987Y-119453500D01*
X103036988Y-119453500D01*
X112513012Y-119453500D01*
X112513013Y-119453500D01*
X112610044Y-119413308D01*
X115862834Y-116160517D01*
X115924155Y-116127034D01*
X115963554Y-116125910D01*
X115963617Y-116125118D01*
X115968473Y-116125499D01*
X115968475Y-116125499D01*
X115968481Y-116125500D01*
X116431518Y-116125499D01*
X116525304Y-116110646D01*
X116638342Y-116053050D01*
X116728050Y-115963342D01*
X116785646Y-115850304D01*
X116785646Y-115850302D01*
X116785647Y-115850301D01*
X116800499Y-115756524D01*
X116800500Y-115756519D01*
X116800499Y-115143482D01*
X116800498Y-115143475D01*
X117249500Y-115143475D01*
X117249500Y-115756517D01*
X117258412Y-115812787D01*
X117264354Y-115850304D01*
X117321950Y-115963342D01*
X117321952Y-115963344D01*
X117321954Y-115963347D01*
X117411652Y-116053045D01*
X117411654Y-116053046D01*
X117411658Y-116053050D01*
X117509788Y-116103050D01*
X117524698Y-116110647D01*
X117618475Y-116125499D01*
X117618481Y-116125500D01*
X118081518Y-116125499D01*
X118175304Y-116110646D01*
X118288342Y-116053050D01*
X118378050Y-115963342D01*
X118435646Y-115850304D01*
X118435646Y-115850302D01*
X118435647Y-115850301D01*
X118450499Y-115756524D01*
X118450500Y-115756519D01*
X118450499Y-115143482D01*
X118435646Y-115049696D01*
X118378050Y-114936658D01*
X118378046Y-114936654D01*
X118378045Y-114936652D01*
X118288347Y-114846954D01*
X118288344Y-114846952D01*
X118288342Y-114846950D01*
X118200804Y-114802347D01*
X118175301Y-114789352D01*
X118081524Y-114774500D01*
X117618482Y-114774500D01*
X117544573Y-114786206D01*
X117524696Y-114789354D01*
X117411658Y-114846950D01*
X117411657Y-114846951D01*
X117411652Y-114846954D01*
X117321954Y-114936652D01*
X117321951Y-114936657D01*
X117321950Y-114936658D01*
X117314458Y-114951362D01*
X117264352Y-115049698D01*
X117249500Y-115143475D01*
X116800498Y-115143475D01*
X116785646Y-115049696D01*
X116728050Y-114936658D01*
X116728046Y-114936654D01*
X116728045Y-114936652D01*
X116638347Y-114846954D01*
X116638344Y-114846952D01*
X116638342Y-114846950D01*
X116550804Y-114802347D01*
X116525301Y-114789352D01*
X116431524Y-114774500D01*
X115968480Y-114774500D01*
X115902348Y-114784974D01*
X115833055Y-114776017D01*
X115779604Y-114731020D01*
X115758966Y-114664268D01*
X115775565Y-114600502D01*
X115796503Y-114564237D01*
X115825500Y-114456018D01*
X115825500Y-114343982D01*
X115796503Y-114235763D01*
X115740485Y-114138737D01*
X115661263Y-114059515D01*
X115584161Y-114015000D01*
X115564239Y-114003498D01*
X115564238Y-114003497D01*
X115564237Y-114003497D01*
X115456018Y-113974500D01*
X115343982Y-113974500D01*
X115235763Y-114003497D01*
X115235760Y-114003498D01*
X115138740Y-114059513D01*
X115138734Y-114059517D01*
X115059517Y-114138734D01*
X115059513Y-114138740D01*
X115003498Y-114235760D01*
X115003497Y-114235763D01*
X114974500Y-114343982D01*
X114974500Y-114456019D01*
X114986509Y-114500839D01*
X114986223Y-114512838D01*
X114990418Y-114524085D01*
X114985406Y-114547122D01*
X114984845Y-114570689D01*
X114977746Y-114582334D01*
X114975566Y-114592358D01*
X114954415Y-114620612D01*
X114836846Y-114738181D01*
X114775523Y-114771666D01*
X114749165Y-114774500D01*
X114318482Y-114774500D01*
X114244573Y-114786206D01*
X114224696Y-114789354D01*
X114111658Y-114846950D01*
X114111657Y-114846951D01*
X114111652Y-114846954D01*
X114021954Y-114936652D01*
X114021951Y-114936657D01*
X114021950Y-114936658D01*
X114014458Y-114951362D01*
X113964352Y-115049698D01*
X113949500Y-115143475D01*
X113949500Y-115756517D01*
X113958412Y-115812787D01*
X113964354Y-115850304D01*
X114021950Y-115963342D01*
X114021952Y-115963344D01*
X114021954Y-115963347D01*
X114111652Y-116053045D01*
X114111654Y-116053046D01*
X114111658Y-116053050D01*
X114209788Y-116103050D01*
X114224698Y-116110647D01*
X114318475Y-116125499D01*
X114318481Y-116125500D01*
X114781518Y-116125499D01*
X114843775Y-116115639D01*
X114913067Y-116124595D01*
X114966519Y-116169592D01*
X114987158Y-116236343D01*
X114968433Y-116303657D01*
X114950852Y-116325794D01*
X112387467Y-118889181D01*
X112326144Y-118922666D01*
X112299786Y-118925500D01*
X103266979Y-118925500D01*
X103199940Y-118905815D01*
X103154185Y-118853011D01*
X103144241Y-118783853D01*
X103173266Y-118720297D01*
X103204979Y-118694113D01*
X103211263Y-118690485D01*
X103290485Y-118611263D01*
X103346503Y-118514237D01*
X103375500Y-118406018D01*
X103375500Y-118293982D01*
X103361034Y-118239994D01*
X103362695Y-118170147D01*
X103401857Y-118112284D01*
X103466085Y-118084779D01*
X103534988Y-118096365D01*
X103568122Y-118125000D01*
X105025618Y-118125000D01*
X105011922Y-118090271D01*
X104986007Y-118056098D01*
X104961183Y-117990787D01*
X104975610Y-117922423D01*
X104997123Y-117893496D01*
X105258991Y-117631629D01*
X105273693Y-117615262D01*
X105290327Y-117594620D01*
X105327490Y-117523575D01*
X105347175Y-117456536D01*
X105355500Y-117398638D01*
X105355500Y-114951362D01*
X105354322Y-114929393D01*
X105351802Y-114905959D01*
X105351488Y-114903034D01*
X105351487Y-114903032D01*
X105327529Y-114826518D01*
X105294044Y-114765195D01*
X105294039Y-114765188D01*
X105259001Y-114718384D01*
X105258998Y-114718381D01*
X105258991Y-114718371D01*
X105181629Y-114641009D01*
X105181628Y-114641008D01*
X105181624Y-114641004D01*
X105165283Y-114626325D01*
X105165269Y-114626313D01*
X105165137Y-114626207D01*
X105155750Y-114618642D01*
X105144620Y-114609672D01*
X105073575Y-114572509D01*
X105006543Y-114552826D01*
X105005894Y-114552732D01*
X104948638Y-114544500D01*
X103137553Y-114544500D01*
X103108116Y-114535856D01*
X103078127Y-114529333D01*
X103074895Y-114526101D01*
X103070514Y-114524815D01*
X103050428Y-114501634D01*
X103028721Y-114479928D01*
X103027749Y-114475462D01*
X103024759Y-114472011D01*
X103020392Y-114441642D01*
X103013869Y-114411655D01*
X103015465Y-114407375D01*
X103015197Y-114405513D01*
X108799500Y-114405513D01*
X108799500Y-114594486D01*
X108829059Y-114781118D01*
X108887454Y-114960836D01*
X108962938Y-115108981D01*
X108973240Y-115129199D01*
X109084310Y-115282073D01*
X109217927Y-115415690D01*
X109370801Y-115526760D01*
X109450347Y-115567290D01*
X109539163Y-115612545D01*
X109539165Y-115612545D01*
X109539168Y-115612547D01*
X109634320Y-115643464D01*
X109718881Y-115670940D01*
X109905514Y-115700500D01*
X109905519Y-115700500D01*
X110094486Y-115700500D01*
X110281118Y-115670940D01*
X110309103Y-115661847D01*
X110460832Y-115612547D01*
X110629199Y-115526760D01*
X110782073Y-115415690D01*
X110915690Y-115282073D01*
X111026760Y-115129199D01*
X111112547Y-114960832D01*
X111170940Y-114781118D01*
X111174366Y-114759487D01*
X111200500Y-114594486D01*
X111200500Y-114405513D01*
X111170940Y-114218881D01*
X111138434Y-114118839D01*
X111112547Y-114039168D01*
X111112545Y-114039165D01*
X111112545Y-114039163D01*
X111054902Y-113926033D01*
X111026760Y-113870801D01*
X110915690Y-113717927D01*
X110782073Y-113584310D01*
X110629199Y-113473240D01*
X110605958Y-113461398D01*
X110460836Y-113387454D01*
X110281118Y-113329059D01*
X110094486Y-113299500D01*
X110094481Y-113299500D01*
X109905519Y-113299500D01*
X109905514Y-113299500D01*
X109718881Y-113329059D01*
X109539163Y-113387454D01*
X109370800Y-113473240D01*
X109307409Y-113519297D01*
X109217927Y-113584310D01*
X109217925Y-113584312D01*
X109217924Y-113584312D01*
X109084312Y-113717924D01*
X109084312Y-113717925D01*
X109084310Y-113717927D01*
X109059225Y-113752454D01*
X108973240Y-113870800D01*
X108887454Y-114039163D01*
X108829059Y-114218881D01*
X108799500Y-114405513D01*
X103015197Y-114405513D01*
X103014815Y-114402853D01*
X103027561Y-114374941D01*
X103038285Y-114346190D01*
X103042715Y-114341759D01*
X103043840Y-114339297D01*
X103063242Y-114321234D01*
X103089756Y-114301384D01*
X103089761Y-114301381D01*
X103182190Y-114232187D01*
X103268350Y-114117093D01*
X103268355Y-114117084D01*
X103284051Y-114075000D01*
X101945590Y-114075000D01*
X101904996Y-114097166D01*
X101878638Y-114100000D01*
X101174000Y-114100000D01*
X101106961Y-114080315D01*
X101061206Y-114027511D01*
X101050000Y-113976000D01*
X101050000Y-113700000D01*
X100774000Y-113700000D01*
X100706961Y-113680315D01*
X100661206Y-113627511D01*
X100650000Y-113576000D01*
X100650000Y-113012975D01*
X101450000Y-113012975D01*
X101450000Y-113300000D01*
X101654410Y-113300000D01*
X101695004Y-113277834D01*
X101721362Y-113275000D01*
X102150000Y-113275000D01*
X102950000Y-113275000D01*
X103284051Y-113275000D01*
X103284051Y-113274999D01*
X103268355Y-113232915D01*
X103268350Y-113232906D01*
X103182190Y-113117812D01*
X103182187Y-113117809D01*
X103067093Y-113031649D01*
X102950000Y-112987975D01*
X102950000Y-113275000D01*
X102150000Y-113275000D01*
X102150000Y-112987975D01*
X102032906Y-113031649D01*
X101917812Y-113117809D01*
X101889908Y-113155084D01*
X101833973Y-113196955D01*
X101764282Y-113201938D01*
X101702959Y-113168452D01*
X101691375Y-113155083D01*
X101682186Y-113142808D01*
X101567093Y-113056649D01*
X101450000Y-113012975D01*
X100650000Y-113012975D01*
X100532906Y-113056649D01*
X100417812Y-113142809D01*
X100328766Y-113261759D01*
X100272832Y-113303629D01*
X100203141Y-113308613D01*
X100141818Y-113275127D01*
X100108334Y-113213804D01*
X100105500Y-113187447D01*
X100105500Y-110451361D01*
X100104321Y-110429381D01*
X100101488Y-110403034D01*
X100101487Y-110403032D01*
X100090065Y-110366554D01*
X100088817Y-110296696D01*
X100125535Y-110237252D01*
X100188562Y-110207097D01*
X100208399Y-110205500D01*
X103286905Y-110205500D01*
X103353944Y-110225185D01*
X103399699Y-110277989D01*
X103409643Y-110347147D01*
X103397390Y-110385795D01*
X103396950Y-110386657D01*
X103396950Y-110386658D01*
X103384590Y-110410914D01*
X103339352Y-110499698D01*
X103324500Y-110593475D01*
X103324500Y-111056517D01*
X103335263Y-111124471D01*
X103339354Y-111150304D01*
X103396950Y-111263342D01*
X103396952Y-111263344D01*
X103396954Y-111263347D01*
X103486652Y-111353045D01*
X103486654Y-111353046D01*
X103486658Y-111353050D01*
X103588623Y-111405004D01*
X103599698Y-111410647D01*
X103693475Y-111425499D01*
X103693481Y-111425500D01*
X104306518Y-111425499D01*
X104400304Y-111410646D01*
X104513342Y-111353050D01*
X104603050Y-111263342D01*
X104660646Y-111150304D01*
X104660646Y-111150302D01*
X104660647Y-111150301D01*
X104675499Y-111056524D01*
X104675500Y-111056519D01*
X104675499Y-110593482D01*
X104660646Y-110499696D01*
X104603050Y-110386658D01*
X104603046Y-110386654D01*
X104603045Y-110386652D01*
X104591245Y-110374852D01*
X104557760Y-110313529D01*
X104562744Y-110243837D01*
X104604616Y-110187904D01*
X104619498Y-110178339D01*
X104620980Y-110177529D01*
X104620982Y-110177529D01*
X104682305Y-110144044D01*
X104729129Y-110108991D01*
X105188991Y-109649129D01*
X105203693Y-109632762D01*
X105220327Y-109612120D01*
X105257490Y-109541075D01*
X105277175Y-109474036D01*
X105285500Y-109416138D01*
X105285500Y-108219125D01*
X105305185Y-108152086D01*
X105357989Y-108106331D01*
X105427147Y-108096387D01*
X105490703Y-108125412D01*
X105519985Y-108162830D01*
X105553670Y-108228941D01*
X105664685Y-108381741D01*
X105664689Y-108381746D01*
X105798253Y-108515310D01*
X105798258Y-108515314D01*
X105951052Y-108626324D01*
X105951066Y-108626333D01*
X106080000Y-108692027D01*
X107080000Y-108692027D01*
X107208933Y-108626333D01*
X107208947Y-108626324D01*
X107361741Y-108515314D01*
X107361746Y-108515310D01*
X107495310Y-108381746D01*
X107495314Y-108381741D01*
X107606329Y-108228940D01*
X107692085Y-108060637D01*
X107732069Y-107937579D01*
X107771506Y-107879904D01*
X107835865Y-107852705D01*
X107904711Y-107864619D01*
X107956187Y-107911863D01*
X107967931Y-107937579D01*
X108007914Y-108060637D01*
X108093670Y-108228940D01*
X108204685Y-108381741D01*
X108204689Y-108381746D01*
X108338253Y-108515310D01*
X108338258Y-108515314D01*
X108491052Y-108626324D01*
X108491066Y-108626333D01*
X108620000Y-108692027D01*
X108620000Y-107500000D01*
X107905301Y-107500000D01*
X107876358Y-107515804D01*
X107806666Y-107510820D01*
X107789830Y-107500000D01*
X107080000Y-107500000D01*
X107080000Y-108692027D01*
X106080000Y-108692027D01*
X106080000Y-107233974D01*
X106139890Y-107337708D01*
X106242292Y-107440110D01*
X106367708Y-107512518D01*
X106507591Y-107550000D01*
X106652409Y-107550000D01*
X106792292Y-107512518D01*
X106917708Y-107440110D01*
X107020110Y-107337708D01*
X107092518Y-107212292D01*
X107130000Y-107072409D01*
X107130000Y-107000500D01*
X108570000Y-107000500D01*
X108570000Y-107072409D01*
X108607482Y-107212292D01*
X108679890Y-107337708D01*
X108782292Y-107440110D01*
X108907708Y-107512518D01*
X109047591Y-107550000D01*
X109192409Y-107550000D01*
X109332292Y-107512518D01*
X109457708Y-107440110D01*
X109560110Y-107337708D01*
X109620000Y-107233974D01*
X109620000Y-108692027D01*
X109748933Y-108626333D01*
X109748947Y-108626324D01*
X109901741Y-108515314D01*
X109901746Y-108515310D01*
X110035310Y-108381746D01*
X110035314Y-108381741D01*
X110146329Y-108228940D01*
X110232085Y-108060637D01*
X110290451Y-107881002D01*
X110317897Y-107707721D01*
X110347826Y-107644586D01*
X110407138Y-107607655D01*
X110477000Y-107608653D01*
X110535233Y-107647263D01*
X110562843Y-107707721D01*
X110586597Y-107857697D01*
X110586597Y-107857699D01*
X110586598Y-107857701D01*
X110640127Y-108022445D01*
X110718768Y-108176788D01*
X110820586Y-108316928D01*
X110943072Y-108439414D01*
X111083212Y-108541232D01*
X111237555Y-108619873D01*
X111402299Y-108673402D01*
X111573389Y-108700500D01*
X111573390Y-108700500D01*
X111746610Y-108700500D01*
X111746611Y-108700500D01*
X111917701Y-108673402D01*
X112082445Y-108619873D01*
X112236788Y-108541232D01*
X112376928Y-108439414D01*
X112499414Y-108316928D01*
X112601232Y-108176788D01*
X112679873Y-108022445D01*
X112733402Y-107857701D01*
X112760500Y-107686611D01*
X112760500Y-107124500D01*
X112763050Y-107115814D01*
X112761762Y-107106853D01*
X112772740Y-107082812D01*
X112780185Y-107057461D01*
X112787025Y-107051533D01*
X112790787Y-107043297D01*
X112813021Y-107029007D01*
X112832989Y-107011706D01*
X112843503Y-107009418D01*
X112849565Y-107005523D01*
X112884500Y-107000500D01*
X112975500Y-107000500D01*
X113042539Y-107020185D01*
X113088294Y-107072989D01*
X113099500Y-107124500D01*
X113099500Y-107686611D01*
X113104819Y-107720194D01*
X113126597Y-107857697D01*
X113126597Y-107857699D01*
X113126598Y-107857701D01*
X113180127Y-108022445D01*
X113258768Y-108176788D01*
X113360586Y-108316928D01*
X113483072Y-108439414D01*
X113623212Y-108541232D01*
X113777555Y-108619873D01*
X113942299Y-108673402D01*
X114113389Y-108700500D01*
X114113390Y-108700500D01*
X114286610Y-108700500D01*
X114286611Y-108700500D01*
X114457701Y-108673402D01*
X114622445Y-108619873D01*
X114776788Y-108541232D01*
X114829229Y-108503130D01*
X114895034Y-108479650D01*
X114963088Y-108495475D01*
X114989796Y-108515767D01*
X116058540Y-109584511D01*
X116114489Y-109640460D01*
X116114491Y-109640461D01*
X116114495Y-109640464D01*
X116182772Y-109679883D01*
X116183011Y-109680021D01*
X116259438Y-109700500D01*
X117150500Y-109700500D01*
X117217539Y-109720185D01*
X117263294Y-109772989D01*
X117274500Y-109824500D01*
X117274500Y-109842853D01*
X117282883Y-109874137D01*
X117296682Y-109925637D01*
X117296685Y-109925644D01*
X117339530Y-109999855D01*
X117339534Y-109999860D01*
X117339535Y-109999862D01*
X117400138Y-110060465D01*
X117400140Y-110060466D01*
X117400144Y-110060469D01*
X117472529Y-110102260D01*
X117474362Y-110103318D01*
X117557147Y-110125500D01*
X117557149Y-110125500D01*
X117642851Y-110125500D01*
X117642853Y-110125500D01*
X117725638Y-110103318D01*
X117799862Y-110060465D01*
X117860465Y-109999862D01*
X117903318Y-109925638D01*
X117925500Y-109842853D01*
X117925500Y-109824500D01*
X117945185Y-109757461D01*
X117997989Y-109711706D01*
X118049500Y-109700500D01*
X119839560Y-109700500D01*
X119839562Y-109700500D01*
X119915989Y-109680021D01*
X119984511Y-109640460D01*
X120040460Y-109584511D01*
X121662819Y-107962152D01*
X121724142Y-107928667D01*
X121793834Y-107933651D01*
X121849767Y-107975523D01*
X121871947Y-108034989D01*
X121873439Y-108034793D01*
X121874500Y-108042851D01*
X121874500Y-108042853D01*
X121896622Y-108125412D01*
X121896682Y-108125637D01*
X121896685Y-108125644D01*
X121939530Y-108199855D01*
X121939534Y-108199860D01*
X121939535Y-108199862D01*
X122000138Y-108260465D01*
X122069655Y-108300600D01*
X122095334Y-108320305D01*
X123787333Y-110012304D01*
X123820818Y-110073627D01*
X123815834Y-110143319D01*
X123810156Y-110154126D01*
X123810656Y-110154360D01*
X123756390Y-110270731D01*
X123750000Y-110319273D01*
X123750000Y-110400000D01*
X125949999Y-110400000D01*
X125949999Y-110319281D01*
X125943607Y-110270724D01*
X125935298Y-110252905D01*
X125924806Y-110183828D01*
X125953325Y-110120044D01*
X126011802Y-110081804D01*
X126047680Y-110076500D01*
X130425500Y-110076500D01*
X130492539Y-110096185D01*
X130538294Y-110148989D01*
X130549500Y-110200500D01*
X130549500Y-110424678D01*
X130564032Y-110497735D01*
X130564033Y-110497739D01*
X130619739Y-110581110D01*
X130640616Y-110647788D01*
X130622131Y-110715168D01*
X130619739Y-110718890D01*
X130564033Y-110802260D01*
X130564032Y-110802264D01*
X130549500Y-110875321D01*
X130549500Y-111124676D01*
X130550097Y-111130739D01*
X130547342Y-111131010D01*
X130541942Y-111188888D01*
X130498869Y-111243902D01*
X130432892Y-111266897D01*
X130402535Y-111264668D01*
X130328792Y-111250000D01*
X130250000Y-111250000D01*
X130250000Y-111800112D01*
X130249728Y-111800000D01*
X129250272Y-111800000D01*
X129158386Y-111838060D01*
X129088060Y-111908386D01*
X129050000Y-112000272D01*
X129050000Y-112099728D01*
X129088060Y-112191614D01*
X129158386Y-112261940D01*
X129250272Y-112300000D01*
X130249728Y-112300000D01*
X130250000Y-112299887D01*
X130250000Y-112850000D01*
X130325500Y-112850000D01*
X130334185Y-112852550D01*
X130343147Y-112851262D01*
X130367187Y-112862240D01*
X130392539Y-112869685D01*
X130398466Y-112876525D01*
X130406703Y-112880287D01*
X130420992Y-112902521D01*
X130438294Y-112922489D01*
X130440581Y-112933003D01*
X130444477Y-112939065D01*
X130449500Y-112974000D01*
X130449500Y-113025500D01*
X130429815Y-113092539D01*
X130377011Y-113138294D01*
X130325500Y-113149500D01*
X130319644Y-113149500D01*
X130301997Y-113148238D01*
X130290549Y-113146592D01*
X130276000Y-113144500D01*
X130224000Y-113144500D01*
X130194750Y-113146592D01*
X130183305Y-113148238D01*
X130165658Y-113149500D01*
X130090252Y-113149500D01*
X130024190Y-113162640D01*
X129975810Y-113162640D01*
X129909748Y-113149500D01*
X129590252Y-113149500D01*
X129524190Y-113162640D01*
X129475810Y-113162640D01*
X129409748Y-113149500D01*
X129165127Y-113149500D01*
X129103623Y-113133172D01*
X128968573Y-113056029D01*
X128959970Y-113047090D01*
X128940319Y-113050636D01*
X128939292Y-113050521D01*
X128934804Y-113050000D01*
X128890000Y-113050000D01*
X128890000Y-114699999D01*
X128934786Y-114699999D01*
X128934808Y-114699997D01*
X128959869Y-114697091D01*
X128959873Y-114697090D01*
X129062474Y-114651788D01*
X129062479Y-114651785D01*
X129077446Y-114636819D01*
X129138769Y-114603334D01*
X129165127Y-114600500D01*
X129409750Y-114600500D01*
X129475808Y-114587360D01*
X129478780Y-114587254D01*
X129480226Y-114586564D01*
X129492154Y-114586779D01*
X129515515Y-114585951D01*
X129530171Y-114587799D01*
X129531769Y-114588867D01*
X129590252Y-114600500D01*
X129630879Y-114600500D01*
X129638602Y-114601474D01*
X129663779Y-114612448D01*
X129690126Y-114620185D01*
X129695344Y-114626207D01*
X129702652Y-114629393D01*
X129717898Y-114652236D01*
X129735881Y-114672989D01*
X129737015Y-114680877D01*
X129741440Y-114687507D01*
X129741916Y-114714962D01*
X129745825Y-114742146D01*
X129744500Y-114751360D01*
X129744500Y-114975500D01*
X129744233Y-114976408D01*
X129744487Y-114977322D01*
X129734403Y-115009885D01*
X129724815Y-115042539D01*
X129724099Y-115043158D01*
X129723819Y-115044065D01*
X129697717Y-115066019D01*
X129672011Y-115088294D01*
X129670835Y-115088629D01*
X129670349Y-115089039D01*
X129666785Y-115089786D01*
X129636342Y-115098484D01*
X129628455Y-115099500D01*
X129590252Y-115099500D01*
X129531769Y-115111133D01*
X129530246Y-115112150D01*
X129515842Y-115114006D01*
X129507241Y-115112640D01*
X129475810Y-115112640D01*
X129409748Y-115099500D01*
X129165127Y-115099500D01*
X129098088Y-115079815D01*
X129077446Y-115063181D01*
X129062479Y-115048214D01*
X129062474Y-115048211D01*
X128959876Y-115002910D01*
X128934794Y-115000000D01*
X128890000Y-115000000D01*
X128890000Y-116649999D01*
X128934786Y-116649999D01*
X128934808Y-116649997D01*
X128959869Y-116647091D01*
X128976314Y-116639830D01*
X129045592Y-116630758D01*
X129108778Y-116660580D01*
X129145809Y-116719829D01*
X129144930Y-116789693D01*
X129114084Y-116840945D01*
X128991846Y-116963182D01*
X128930526Y-116996666D01*
X128904167Y-116999500D01*
X128533810Y-116999500D01*
X128466771Y-116979815D01*
X128430708Y-116944391D01*
X128380601Y-116869399D01*
X128321358Y-116829815D01*
X128297739Y-116814033D01*
X128297735Y-116814032D01*
X128224677Y-116799500D01*
X128224674Y-116799500D01*
X127775326Y-116799500D01*
X127775324Y-116799500D01*
X127702261Y-116814033D01*
X127702260Y-116814034D01*
X127680454Y-116828603D01*
X127613778Y-116849480D01*
X127611566Y-116849500D01*
X121525833Y-116849500D01*
X121458794Y-116829815D01*
X121438152Y-116813181D01*
X121320305Y-116695334D01*
X121300600Y-116669655D01*
X121260465Y-116600138D01*
X121199862Y-116539535D01*
X121199860Y-116539534D01*
X121199855Y-116539530D01*
X121125640Y-116496682D01*
X121119311Y-116494061D01*
X121064907Y-116450220D01*
X121042842Y-116383926D01*
X121060121Y-116316227D01*
X121111258Y-116268616D01*
X121166763Y-116255500D01*
X123049343Y-116255500D01*
X123116382Y-116275185D01*
X123162137Y-116327989D01*
X123169116Y-116347402D01*
X123173573Y-116364034D01*
X123176682Y-116375637D01*
X123176685Y-116375644D01*
X123219530Y-116449855D01*
X123219534Y-116449860D01*
X123219535Y-116449862D01*
X123280138Y-116510465D01*
X123280140Y-116510466D01*
X123280144Y-116510469D01*
X123348745Y-116550075D01*
X123354362Y-116553318D01*
X123437147Y-116575500D01*
X123437149Y-116575500D01*
X123522851Y-116575500D01*
X123522853Y-116575500D01*
X123605638Y-116553318D01*
X123679862Y-116510465D01*
X123740465Y-116449862D01*
X123783318Y-116375638D01*
X123805500Y-116292853D01*
X123805500Y-116208794D01*
X123825185Y-116141755D01*
X123874033Y-116099427D01*
X123873545Y-116098510D01*
X123877563Y-116096368D01*
X123877989Y-116096000D01*
X123879125Y-116095536D01*
X123881370Y-116094339D01*
X123881373Y-116094339D01*
X123962085Y-116051329D01*
X124014889Y-116005574D01*
X124032843Y-115987983D01*
X124077490Y-115908166D01*
X124097175Y-115841127D01*
X124101250Y-115812784D01*
X124130273Y-115749230D01*
X124189051Y-115711455D01*
X124258920Y-115711454D01*
X124317699Y-115749228D01*
X124322790Y-115755506D01*
X124375277Y-115824720D01*
X124490270Y-115911922D01*
X124490272Y-115911923D01*
X124549999Y-115935476D01*
X124550000Y-115935476D01*
X125450000Y-115935476D01*
X125509727Y-115911923D01*
X125509729Y-115911922D01*
X125624721Y-115824721D01*
X125711922Y-115709729D01*
X125725618Y-115675000D01*
X125450000Y-115675000D01*
X125450000Y-115935476D01*
X124550000Y-115935476D01*
X124550000Y-115349000D01*
X124569685Y-115281961D01*
X124577718Y-115275000D01*
X126477026Y-115275000D01*
X126501857Y-115312163D01*
X126602835Y-115413141D01*
X126602839Y-115413144D01*
X126721577Y-115492483D01*
X126721586Y-115492488D01*
X126853524Y-115547138D01*
X126853532Y-115547140D01*
X126993589Y-115574999D01*
X126993593Y-115575000D01*
X127091852Y-115575000D01*
X127158891Y-115594685D01*
X127204646Y-115647489D01*
X127213905Y-115709271D01*
X127214500Y-115709271D01*
X127214500Y-115713241D01*
X127214791Y-115715183D01*
X127214500Y-115717393D01*
X127214500Y-115717399D01*
X127214500Y-115842601D01*
X127246905Y-115963536D01*
X127309505Y-116071964D01*
X127398036Y-116160495D01*
X127506464Y-116223095D01*
X127627399Y-116255500D01*
X127627401Y-116255500D01*
X127752599Y-116255500D01*
X127752601Y-116255500D01*
X127873536Y-116223095D01*
X127981964Y-116160495D01*
X128070495Y-116071964D01*
X128078612Y-116057903D01*
X128129176Y-116009689D01*
X128197782Y-115996463D01*
X128262648Y-116022428D01*
X128303179Y-116079341D01*
X128310000Y-116119902D01*
X128310000Y-116394785D01*
X128310002Y-116394808D01*
X128312908Y-116419869D01*
X128312909Y-116419873D01*
X128358211Y-116522474D01*
X128358214Y-116522479D01*
X128437520Y-116601785D01*
X128437525Y-116601788D01*
X128540123Y-116647089D01*
X128565205Y-116649999D01*
X128609999Y-116649999D01*
X128610000Y-116649998D01*
X128610000Y-115275000D01*
X126477026Y-115275000D01*
X124577718Y-115275000D01*
X124622489Y-115236206D01*
X124674000Y-115225000D01*
X125000000Y-115225000D01*
X125000000Y-114899000D01*
X125019685Y-114831961D01*
X125056256Y-114800272D01*
X127090000Y-114800272D01*
X127090000Y-114899728D01*
X127128060Y-114991614D01*
X127198386Y-115061940D01*
X127290272Y-115100000D01*
X127689728Y-115100000D01*
X127781614Y-115061940D01*
X127851940Y-114991614D01*
X127890000Y-114899728D01*
X127890000Y-114800272D01*
X127851940Y-114708386D01*
X127781614Y-114638060D01*
X127689728Y-114600000D01*
X127290272Y-114600000D01*
X127198386Y-114638060D01*
X127128060Y-114708386D01*
X127090000Y-114800272D01*
X125056256Y-114800272D01*
X125072489Y-114786206D01*
X125124000Y-114775000D01*
X125725618Y-114775000D01*
X125711921Y-114740269D01*
X125646824Y-114654425D01*
X125622001Y-114589114D01*
X125636429Y-114520750D01*
X125685527Y-114471039D01*
X125745628Y-114455500D01*
X126648639Y-114455500D01*
X126651180Y-114455363D01*
X126670607Y-114454322D01*
X126670614Y-114454321D01*
X126670618Y-114454321D01*
X126682720Y-114453019D01*
X126696965Y-114451488D01*
X126763467Y-114430664D01*
X126800519Y-114425000D01*
X127065000Y-114425000D01*
X127065000Y-114226982D01*
X127084685Y-114159943D01*
X127085755Y-114158305D01*
X127092589Y-114148030D01*
X127108991Y-114131629D01*
X127114946Y-114125000D01*
X127915000Y-114125000D01*
X127915000Y-114425000D01*
X128610000Y-114425000D01*
X128610000Y-114015000D01*
X128310000Y-114015000D01*
X128310000Y-114043300D01*
X128290315Y-114110339D01*
X128237511Y-114156094D01*
X128168353Y-114166038D01*
X128138550Y-114157862D01*
X128126479Y-114152862D01*
X128126467Y-114152859D01*
X127986410Y-114125000D01*
X127915000Y-114125000D01*
X127114946Y-114125000D01*
X127123693Y-114115262D01*
X127140327Y-114094620D01*
X127177490Y-114023575D01*
X127197175Y-113956536D01*
X127205500Y-113898638D01*
X127205500Y-113305205D01*
X128310000Y-113305205D01*
X128310000Y-113735000D01*
X128610000Y-113735000D01*
X128610000Y-113050000D01*
X128565203Y-113050000D01*
X128540130Y-113052908D01*
X128540126Y-113052909D01*
X128437525Y-113098211D01*
X128437520Y-113098214D01*
X128358214Y-113177520D01*
X128358211Y-113177525D01*
X128312910Y-113280122D01*
X128312910Y-113280124D01*
X128310000Y-113305205D01*
X127205500Y-113305205D01*
X127205500Y-112550000D01*
X128621937Y-112550000D01*
X128628597Y-112559967D01*
X128740031Y-112671402D01*
X128871051Y-112758947D01*
X128871064Y-112758954D01*
X129001025Y-112812785D01*
X129021486Y-112829274D01*
X129046175Y-112825406D01*
X129054268Y-112826740D01*
X129171202Y-112849999D01*
X129171206Y-112850000D01*
X129250000Y-112850000D01*
X129250000Y-112550000D01*
X128621937Y-112550000D01*
X127205500Y-112550000D01*
X127205500Y-112501362D01*
X127204322Y-112479393D01*
X127203015Y-112467241D01*
X127201488Y-112453034D01*
X127201487Y-112453032D01*
X127195319Y-112433333D01*
X127177529Y-112376518D01*
X127144044Y-112315195D01*
X127132442Y-112299697D01*
X127109001Y-112268384D01*
X127108998Y-112268381D01*
X127108991Y-112268371D01*
X127020315Y-112179695D01*
X126931634Y-112091013D01*
X126931633Y-112091012D01*
X126915283Y-112076325D01*
X126915269Y-112076313D01*
X126894620Y-112059672D01*
X126823575Y-112022509D01*
X126756543Y-112002826D01*
X126755894Y-112002732D01*
X126698638Y-111994500D01*
X126079000Y-111994500D01*
X126011961Y-111974815D01*
X125966206Y-111922011D01*
X125955000Y-111870500D01*
X125955000Y-111775000D01*
X123745000Y-111775000D01*
X123745000Y-111870500D01*
X123725315Y-111937539D01*
X123672511Y-111983294D01*
X123621000Y-111994500D01*
X122251361Y-111994500D01*
X122229381Y-111995678D01*
X122203034Y-111998511D01*
X122203032Y-111998512D01*
X122126521Y-112022470D01*
X122126516Y-112022471D01*
X122065188Y-112055960D01*
X122018384Y-112090998D01*
X122018370Y-112091010D01*
X121938067Y-112171313D01*
X121876743Y-112204797D01*
X121807052Y-112199813D01*
X121762705Y-112171312D01*
X121688347Y-112096954D01*
X121688344Y-112096952D01*
X121688342Y-112096950D01*
X121598869Y-112051361D01*
X121575301Y-112039352D01*
X121481524Y-112024500D01*
X121018482Y-112024500D01*
X120937519Y-112037323D01*
X120924696Y-112039354D01*
X120811658Y-112096950D01*
X120811657Y-112096951D01*
X120811652Y-112096954D01*
X120721954Y-112186652D01*
X120721951Y-112186657D01*
X120721950Y-112186658D01*
X120715457Y-112199401D01*
X120664352Y-112299698D01*
X120649500Y-112393475D01*
X120649500Y-113006517D01*
X120655926Y-113047090D01*
X120664354Y-113100304D01*
X120721950Y-113213342D01*
X120721952Y-113213344D01*
X120721954Y-113213347D01*
X120811652Y-113303045D01*
X120811654Y-113303046D01*
X120811658Y-113303050D01*
X120920314Y-113358413D01*
X120924698Y-113360647D01*
X121018475Y-113375499D01*
X121018481Y-113375500D01*
X121481518Y-113375499D01*
X121575304Y-113360646D01*
X121575311Y-113360642D01*
X121582173Y-113358413D01*
X121652014Y-113356413D01*
X121711850Y-113392489D01*
X121742682Y-113455187D01*
X121744500Y-113476341D01*
X121744500Y-113848638D01*
X121745678Y-113870618D01*
X121748511Y-113896965D01*
X121748512Y-113896967D01*
X121762659Y-113942147D01*
X121768105Y-113959540D01*
X121772470Y-113973478D01*
X121772471Y-113973483D01*
X121784782Y-113996028D01*
X121805956Y-114034805D01*
X121805958Y-114034808D01*
X121805960Y-114034811D01*
X121840998Y-114081615D01*
X121841002Y-114081619D01*
X121841009Y-114081629D01*
X121841016Y-114081636D01*
X122118365Y-114358986D01*
X122118366Y-114358987D01*
X122134716Y-114373674D01*
X122134729Y-114373685D01*
X122134738Y-114373693D01*
X122134748Y-114373701D01*
X122135069Y-114373960D01*
X122135093Y-114373994D01*
X122135981Y-114374750D01*
X122135951Y-114374784D01*
X122135974Y-114374804D01*
X122135793Y-114375004D01*
X122174909Y-114431358D01*
X122177393Y-114501183D01*
X122141732Y-114561267D01*
X122079248Y-114592533D01*
X122057249Y-114594500D01*
X121751361Y-114594500D01*
X121729381Y-114595678D01*
X121703034Y-114598511D01*
X121703032Y-114598512D01*
X121626521Y-114622470D01*
X121626516Y-114622471D01*
X121573770Y-114651273D01*
X121570545Y-114653035D01*
X121565188Y-114655960D01*
X121518384Y-114690998D01*
X121518363Y-114691016D01*
X121401199Y-114808181D01*
X121374271Y-114822884D01*
X121348453Y-114839477D01*
X121342252Y-114840368D01*
X121339876Y-114841666D01*
X121313518Y-114844500D01*
X121199000Y-114844500D01*
X121131961Y-114824815D01*
X121086206Y-114772011D01*
X121075000Y-114720500D01*
X121075000Y-114694050D01*
X121074999Y-114694048D01*
X121046035Y-114585951D01*
X121025826Y-114550949D01*
X121025825Y-114550949D01*
X120826068Y-114750706D01*
X120818122Y-114755044D01*
X120812697Y-114762292D01*
X120787937Y-114771526D01*
X120764745Y-114784191D01*
X120755715Y-114783545D01*
X120747233Y-114786709D01*
X120721412Y-114781092D01*
X120695053Y-114779207D01*
X120685999Y-114773388D01*
X120678960Y-114771857D01*
X120650706Y-114750706D01*
X120649292Y-114749292D01*
X120615807Y-114687969D01*
X120620791Y-114618277D01*
X120649292Y-114573930D01*
X120849048Y-114374173D01*
X120814046Y-114353964D01*
X120814043Y-114353963D01*
X120705951Y-114325000D01*
X120594051Y-114325000D01*
X120485955Y-114353963D01*
X120485954Y-114353964D01*
X120441544Y-114379603D01*
X120425650Y-114415532D01*
X120367325Y-114454002D01*
X120297460Y-114454833D01*
X120292940Y-114453471D01*
X120280392Y-114449427D01*
X120275638Y-114446682D01*
X120253319Y-114440701D01*
X120250364Y-114439749D01*
X120234060Y-114428657D01*
X120200721Y-114409408D01*
X119913019Y-114121706D01*
X119879534Y-114060383D01*
X119876700Y-114034025D01*
X119876700Y-113461398D01*
X119896385Y-113394359D01*
X119944403Y-113350914D01*
X120038342Y-113303050D01*
X120128050Y-113213342D01*
X120185646Y-113100304D01*
X120185646Y-113100302D01*
X120185647Y-113100301D01*
X120200499Y-113006524D01*
X120200500Y-113006519D01*
X120200499Y-112393482D01*
X120185646Y-112299696D01*
X120128050Y-112186658D01*
X120128046Y-112186654D01*
X120128045Y-112186652D01*
X120038347Y-112096954D01*
X120038343Y-112096951D01*
X120038342Y-112096950D01*
X120026661Y-112090998D01*
X119968204Y-112061212D01*
X119957140Y-112050763D01*
X119943297Y-112044441D01*
X119932255Y-112027259D01*
X119917408Y-112013237D01*
X119913166Y-111997556D01*
X119905523Y-111985663D01*
X119900500Y-111950728D01*
X119900500Y-111824500D01*
X119920185Y-111757461D01*
X119972989Y-111711706D01*
X120024500Y-111700500D01*
X120704270Y-111700500D01*
X120734699Y-111697646D01*
X120734701Y-111697646D01*
X120798790Y-111675219D01*
X120862882Y-111652793D01*
X120972150Y-111572150D01*
X121021628Y-111505109D01*
X124200000Y-111505109D01*
X124200000Y-111544891D01*
X124215224Y-111581645D01*
X124243355Y-111609776D01*
X124280109Y-111625000D01*
X124319891Y-111625000D01*
X124356645Y-111609776D01*
X124384776Y-111581645D01*
X124400000Y-111544891D01*
X124400000Y-111505109D01*
X125300000Y-111505109D01*
X125300000Y-111544891D01*
X125315224Y-111581645D01*
X125343355Y-111609776D01*
X125380109Y-111625000D01*
X125419891Y-111625000D01*
X125456645Y-111609776D01*
X125484776Y-111581645D01*
X125497884Y-111549999D01*
X128621937Y-111549999D01*
X128621937Y-111550000D01*
X129250000Y-111550000D01*
X129250000Y-111250000D01*
X129171202Y-111250000D01*
X129016656Y-111280741D01*
X129016648Y-111280743D01*
X128871060Y-111341047D01*
X128871051Y-111341052D01*
X128740031Y-111428597D01*
X128628597Y-111540032D01*
X128621937Y-111549999D01*
X125497884Y-111549999D01*
X125500000Y-111544891D01*
X125500000Y-111505109D01*
X125484776Y-111468355D01*
X125456645Y-111440224D01*
X125419891Y-111425000D01*
X125380109Y-111425000D01*
X125343355Y-111440224D01*
X125315224Y-111468355D01*
X125300000Y-111505109D01*
X124400000Y-111505109D01*
X124384776Y-111468355D01*
X124356645Y-111440224D01*
X124319891Y-111425000D01*
X124280109Y-111425000D01*
X124243355Y-111440224D01*
X124215224Y-111468355D01*
X124200000Y-111505109D01*
X121021628Y-111505109D01*
X121032602Y-111490240D01*
X121048078Y-111469271D01*
X121048078Y-111469270D01*
X121052793Y-111462882D01*
X121088418Y-111361071D01*
X121097646Y-111334701D01*
X121097646Y-111334699D01*
X121100500Y-111304269D01*
X121100500Y-111030275D01*
X123745000Y-111030275D01*
X123745000Y-111275000D01*
X124267158Y-111275000D01*
X124267158Y-111274999D01*
X124599999Y-110942157D01*
X125100000Y-110942157D01*
X125432841Y-111274999D01*
X125432842Y-111275000D01*
X125955000Y-111275000D01*
X125955000Y-111025002D01*
X125953699Y-110996861D01*
X125953698Y-110996855D01*
X125932909Y-110923792D01*
X125933495Y-110853925D01*
X125939796Y-110837445D01*
X125943609Y-110829267D01*
X125950000Y-110780726D01*
X125950000Y-110700000D01*
X125100000Y-110700000D01*
X125100000Y-110942157D01*
X124599999Y-110942157D01*
X124600000Y-110942156D01*
X124600000Y-110700000D01*
X123750001Y-110700000D01*
X123750001Y-110780718D01*
X123756392Y-110829275D01*
X123757559Y-110831777D01*
X123758035Y-110834912D01*
X123759047Y-110838385D01*
X123758582Y-110838520D01*
X123760618Y-110851927D01*
X123768446Y-110870748D01*
X123767530Y-110897444D01*
X123768048Y-110900855D01*
X123767241Y-110905860D01*
X123767236Y-110906022D01*
X123745000Y-111030275D01*
X121100500Y-111030275D01*
X121100500Y-110695730D01*
X121097646Y-110665300D01*
X121097646Y-110665298D01*
X121060048Y-110557853D01*
X121052793Y-110537118D01*
X120972150Y-110427850D01*
X120862882Y-110347207D01*
X120862880Y-110347206D01*
X120734700Y-110302353D01*
X120704270Y-110299500D01*
X120704266Y-110299500D01*
X119295734Y-110299500D01*
X119295730Y-110299500D01*
X119265300Y-110302353D01*
X119265298Y-110302353D01*
X119137119Y-110347206D01*
X119137117Y-110347207D01*
X119027850Y-110427850D01*
X118947207Y-110537117D01*
X118947206Y-110537119D01*
X118902353Y-110665298D01*
X118902353Y-110665300D01*
X118899500Y-110695730D01*
X118899500Y-111304269D01*
X118902353Y-111334699D01*
X118902353Y-111334701D01*
X118947206Y-111462880D01*
X118947207Y-111462882D01*
X119027850Y-111572150D01*
X119137118Y-111652793D01*
X119216458Y-111680555D01*
X119235446Y-111694174D01*
X119256703Y-111703882D01*
X119263305Y-111714156D01*
X119273231Y-111721275D01*
X119281843Y-111743001D01*
X119294477Y-111762660D01*
X119297232Y-111781824D01*
X119298978Y-111786228D01*
X119299500Y-111797595D01*
X119299500Y-111950728D01*
X119279815Y-112017767D01*
X119231796Y-112061212D01*
X119161659Y-112096949D01*
X119161652Y-112096954D01*
X119071954Y-112186652D01*
X119071951Y-112186657D01*
X119071950Y-112186658D01*
X119065457Y-112199401D01*
X119014352Y-112299698D01*
X118999500Y-112393475D01*
X118999500Y-113006517D01*
X119005926Y-113047090D01*
X119014354Y-113100304D01*
X119071950Y-113213342D01*
X119071952Y-113213344D01*
X119071954Y-113213347D01*
X119161652Y-113303045D01*
X119161654Y-113303046D01*
X119161658Y-113303050D01*
X119255596Y-113350914D01*
X119306391Y-113398888D01*
X119323300Y-113461398D01*
X119323300Y-114236433D01*
X119342155Y-114306803D01*
X119342155Y-114306804D01*
X119378581Y-114369892D01*
X119378587Y-114369901D01*
X119690676Y-114681990D01*
X119702172Y-114703043D01*
X119717317Y-114721646D01*
X119718612Y-114733151D01*
X119724161Y-114743313D01*
X119722449Y-114767241D01*
X119725133Y-114791077D01*
X119720003Y-114801454D01*
X119719177Y-114813005D01*
X119704799Y-114832209D01*
X119694171Y-114853712D01*
X119681647Y-114863136D01*
X119677305Y-114868938D01*
X119666801Y-114875995D01*
X119658572Y-114880932D01*
X119655329Y-114882143D01*
X119638002Y-114893277D01*
X119636348Y-114894270D01*
X119636079Y-114894339D01*
X119631974Y-114896776D01*
X119629295Y-114898238D01*
X119629152Y-114898333D01*
X119615193Y-114905956D01*
X119615189Y-114905959D01*
X119568380Y-114941001D01*
X119568361Y-114941018D01*
X119041013Y-115468365D01*
X119041012Y-115468366D01*
X119026325Y-115484716D01*
X119026313Y-115484730D01*
X119009672Y-115505379D01*
X118972509Y-115576424D01*
X118952826Y-115643456D01*
X118944500Y-115701365D01*
X118944500Y-117054517D01*
X118924815Y-117121556D01*
X118872011Y-117167311D01*
X118802853Y-117177255D01*
X118739297Y-117148230D01*
X118732819Y-117142198D01*
X118531633Y-116941012D01*
X118515283Y-116926325D01*
X118515269Y-116926313D01*
X118515084Y-116926164D01*
X118509812Y-116921915D01*
X118494620Y-116909672D01*
X118423575Y-116872509D01*
X118356543Y-116852826D01*
X118355894Y-116852732D01*
X118298638Y-116844500D01*
X116301362Y-116844500D01*
X116301361Y-116844500D01*
X116279381Y-116845678D01*
X116253034Y-116848511D01*
X116253032Y-116848512D01*
X116176521Y-116872470D01*
X116176516Y-116872471D01*
X116115188Y-116905960D01*
X116068384Y-116940998D01*
X116068363Y-116941016D01*
X115691013Y-117318365D01*
X115691012Y-117318366D01*
X115676325Y-117334716D01*
X115676313Y-117334730D01*
X115659672Y-117355379D01*
X115622509Y-117426424D01*
X115602826Y-117493456D01*
X115602825Y-117493464D01*
X115594772Y-117549475D01*
X115594500Y-117551365D01*
X115594500Y-118398638D01*
X115595678Y-118420618D01*
X115598511Y-118446965D01*
X115598512Y-118446967D01*
X115614200Y-118497067D01*
X115619909Y-118515301D01*
X115622470Y-118523478D01*
X115622471Y-118523483D01*
X115636207Y-118548638D01*
X115655956Y-118584805D01*
X115655958Y-118584808D01*
X115655960Y-118584811D01*
X115690998Y-118631615D01*
X115691002Y-118631619D01*
X115691009Y-118631629D01*
X115691016Y-118631636D01*
X116118365Y-119058986D01*
X116118366Y-119058987D01*
X116134716Y-119073674D01*
X116134730Y-119073686D01*
X116134738Y-119073693D01*
X116143136Y-119080460D01*
X116155379Y-119090327D01*
X116226424Y-119127490D01*
X116293456Y-119147173D01*
X116293458Y-119147173D01*
X116293464Y-119147175D01*
X116351362Y-119155500D01*
X116351366Y-119155500D01*
X118148639Y-119155500D01*
X118151180Y-119155363D01*
X118170607Y-119154322D01*
X118170614Y-119154321D01*
X118170618Y-119154321D01*
X118196965Y-119151488D01*
X118273482Y-119127529D01*
X118334805Y-119094044D01*
X118381629Y-119058991D01*
X118782822Y-118657798D01*
X118844145Y-118624313D01*
X118913837Y-118629297D01*
X118969770Y-118671169D01*
X118979333Y-118686049D01*
X119000729Y-118725233D01*
X119005958Y-118734808D01*
X119040998Y-118781615D01*
X119041002Y-118781619D01*
X119041009Y-118781629D01*
X119106528Y-118847148D01*
X119168375Y-118908995D01*
X119184716Y-118923674D01*
X119184730Y-118923686D01*
X119184738Y-118923693D01*
X119193136Y-118930460D01*
X119205379Y-118940327D01*
X119276424Y-118977490D01*
X119343456Y-118997173D01*
X119343458Y-118997173D01*
X119343464Y-118997175D01*
X119401362Y-119005500D01*
X119401366Y-119005500D01*
X120148639Y-119005500D01*
X120151180Y-119005363D01*
X120170607Y-119004322D01*
X120170614Y-119004321D01*
X120170618Y-119004321D01*
X120196965Y-119001488D01*
X120273482Y-118977529D01*
X120334805Y-118944044D01*
X120381629Y-118908991D01*
X120458991Y-118831629D01*
X120473693Y-118815262D01*
X120490327Y-118794620D01*
X120490330Y-118794612D01*
X120493668Y-118789520D01*
X120493909Y-118789677D01*
X120498680Y-118782100D01*
X120499330Y-118781234D01*
X120513141Y-118750993D01*
X120527502Y-118723535D01*
X120528264Y-118720938D01*
X120527034Y-118720577D01*
X120535636Y-118701745D01*
X120539655Y-118683263D01*
X120541840Y-118674700D01*
X120547175Y-118656538D01*
X120555500Y-118598638D01*
X120555500Y-117115189D01*
X120575185Y-117048150D01*
X120627989Y-117002395D01*
X120697147Y-116992451D01*
X120752225Y-117014755D01*
X120760210Y-117020537D01*
X120800138Y-117060465D01*
X120874362Y-117103318D01*
X120874629Y-117103389D01*
X120880378Y-117107552D01*
X120882808Y-117110693D01*
X120895334Y-117120305D01*
X121165489Y-117390460D01*
X121224829Y-117424720D01*
X121232922Y-117429393D01*
X121234012Y-117430022D01*
X121310438Y-117450500D01*
X121389562Y-117450500D01*
X127010732Y-117450500D01*
X127077771Y-117470185D01*
X127123526Y-117522989D01*
X127133470Y-117592147D01*
X127121342Y-117627191D01*
X127122090Y-117627501D01*
X127118979Y-117635009D01*
X127109712Y-117669595D01*
X127098500Y-117711438D01*
X127098500Y-119483300D01*
X127109474Y-119524256D01*
X127118978Y-119559725D01*
X127137825Y-119592369D01*
X127137824Y-119592369D01*
X127158535Y-119628242D01*
X127158539Y-119628247D01*
X127158540Y-119628249D01*
X127415802Y-119885511D01*
X127471751Y-119941460D01*
X127471753Y-119941461D01*
X127471757Y-119941464D01*
X127540266Y-119981017D01*
X127540273Y-119981021D01*
X127616700Y-120001500D01*
X127616702Y-120001500D01*
X131488560Y-120001500D01*
X131488562Y-120001500D01*
X131564989Y-119981021D01*
X131633511Y-119941460D01*
X131689460Y-119885511D01*
X132687819Y-118887150D01*
X132749142Y-118853666D01*
X132818834Y-118858650D01*
X132874767Y-118900522D01*
X132899184Y-118965986D01*
X132899500Y-118974832D01*
X132899500Y-119304269D01*
X132902353Y-119334699D01*
X132902353Y-119334701D01*
X132943924Y-119453500D01*
X132947207Y-119462882D01*
X133027850Y-119572150D01*
X133137118Y-119652793D01*
X133176176Y-119666460D01*
X133265299Y-119697646D01*
X133295730Y-119700500D01*
X133295734Y-119700500D01*
X134704270Y-119700500D01*
X134734699Y-119697646D01*
X134734701Y-119697646D01*
X134823812Y-119666464D01*
X134862882Y-119652793D01*
X134972150Y-119572150D01*
X135052793Y-119462882D01*
X135075613Y-119397666D01*
X135097646Y-119334701D01*
X135097646Y-119334699D01*
X135100500Y-119304269D01*
X135100500Y-118695730D01*
X135097646Y-118665300D01*
X135097646Y-118665298D01*
X135061380Y-118561658D01*
X135052793Y-118537118D01*
X135052791Y-118537115D01*
X135052790Y-118537113D01*
X135013593Y-118484003D01*
X134989622Y-118418375D01*
X135004938Y-118350204D01*
X135048839Y-118304480D01*
X135060119Y-118297606D01*
X135064237Y-118296503D01*
X135161263Y-118240485D01*
X135172809Y-118228938D01*
X135185476Y-118221220D01*
X135205473Y-118215864D01*
X135223642Y-118205944D01*
X135238540Y-118207009D01*
X135252967Y-118203146D01*
X135272682Y-118209451D01*
X135293334Y-118210928D01*
X135309215Y-118221134D01*
X135319516Y-118224429D01*
X135325363Y-118231512D01*
X135332071Y-118235823D01*
X135332291Y-118235538D01*
X135335715Y-118238165D01*
X135337681Y-118239429D01*
X135338737Y-118240485D01*
X135431393Y-118293980D01*
X135442802Y-118300567D01*
X135441909Y-118302113D01*
X135488487Y-118339642D01*
X135510557Y-118405935D01*
X135493283Y-118473635D01*
X135486407Y-118484002D01*
X135447209Y-118537114D01*
X135447206Y-118537119D01*
X135402353Y-118665298D01*
X135402353Y-118665300D01*
X135399500Y-118695730D01*
X135399500Y-119304269D01*
X135402353Y-119334699D01*
X135402353Y-119334701D01*
X135443924Y-119453500D01*
X135447207Y-119462882D01*
X135527850Y-119572150D01*
X135637118Y-119652793D01*
X135676176Y-119666460D01*
X135765299Y-119697646D01*
X135795730Y-119700500D01*
X135795734Y-119700500D01*
X137204270Y-119700500D01*
X137234699Y-119697646D01*
X137234701Y-119697646D01*
X137323812Y-119666464D01*
X137362882Y-119652793D01*
X137472150Y-119572150D01*
X137552793Y-119462882D01*
X137575613Y-119397666D01*
X137597646Y-119334701D01*
X137597646Y-119334699D01*
X137600500Y-119304269D01*
X137600500Y-118695730D01*
X137597646Y-118665300D01*
X137597646Y-118665298D01*
X137561380Y-118561658D01*
X137552793Y-118537118D01*
X137472150Y-118427850D01*
X137362882Y-118347207D01*
X137362880Y-118347206D01*
X137234700Y-118302353D01*
X137204270Y-118299500D01*
X137204266Y-118299500D01*
X136999733Y-118299500D01*
X136932694Y-118279815D01*
X136886939Y-118227011D01*
X136876995Y-118157853D01*
X136896631Y-118106610D01*
X136935966Y-118047740D01*
X136950500Y-117974674D01*
X136950500Y-117824500D01*
X136953050Y-117815814D01*
X136951762Y-117806853D01*
X136962740Y-117782812D01*
X136970185Y-117757461D01*
X136977025Y-117751533D01*
X136980787Y-117743297D01*
X137003021Y-117729007D01*
X137022989Y-117711706D01*
X137033503Y-117709418D01*
X137039565Y-117705523D01*
X137074500Y-117700500D01*
X137211566Y-117700500D01*
X137278605Y-117720185D01*
X137280395Y-117721356D01*
X137283786Y-117723622D01*
X137322287Y-117764726D01*
X137346610Y-117806853D01*
X137349229Y-117811390D01*
X137351595Y-117815487D01*
X137351596Y-117815490D01*
X137359538Y-117829246D01*
X137359543Y-117829253D01*
X138250476Y-118720185D01*
X139140802Y-119610511D01*
X139196751Y-119666460D01*
X139196753Y-119666461D01*
X139196757Y-119666464D01*
X139250767Y-119697646D01*
X139265273Y-119706021D01*
X139341700Y-119726500D01*
X139341702Y-119726500D01*
X140193971Y-119726500D01*
X140193973Y-119726500D01*
X140270400Y-119706021D01*
X140338922Y-119666460D01*
X140394871Y-119610511D01*
X141439793Y-118565589D01*
X141442767Y-118560438D01*
X141460006Y-118530579D01*
X141510573Y-118482364D01*
X141567393Y-118468579D01*
X141681349Y-118468579D01*
X141681351Y-118468579D01*
X141789570Y-118439582D01*
X141886596Y-118383564D01*
X141886599Y-118383560D01*
X141889805Y-118381710D01*
X141957706Y-118365237D01*
X142023733Y-118388089D01*
X142066923Y-118443010D01*
X142073960Y-118499020D01*
X142074500Y-118499020D01*
X142074500Y-118503319D01*
X142074746Y-118505278D01*
X142074500Y-118507147D01*
X142074500Y-118592853D01*
X142096428Y-118674688D01*
X142096682Y-118675637D01*
X142096682Y-118675638D01*
X142132687Y-118738001D01*
X142149159Y-118805901D01*
X142132687Y-118861999D01*
X142096682Y-118924361D01*
X142096682Y-118924362D01*
X142074500Y-119007147D01*
X142074500Y-119092853D01*
X142090971Y-119154322D01*
X142096682Y-119175637D01*
X142096685Y-119175644D01*
X142139530Y-119249855D01*
X142139534Y-119249860D01*
X142139535Y-119249862D01*
X142200138Y-119310465D01*
X142200140Y-119310466D01*
X142200144Y-119310469D01*
X142257325Y-119343482D01*
X142274362Y-119353318D01*
X142357147Y-119375500D01*
X142357149Y-119375500D01*
X142442851Y-119375500D01*
X142442853Y-119375500D01*
X142525638Y-119353318D01*
X142599862Y-119310465D01*
X142660465Y-119249862D01*
X142703318Y-119175638D01*
X142725500Y-119092853D01*
X142725500Y-119007147D01*
X142714721Y-118966919D01*
X142716384Y-118897073D01*
X142755546Y-118839211D01*
X142819774Y-118811706D01*
X142888676Y-118823292D01*
X142922177Y-118847148D01*
X144263348Y-120188319D01*
X144296833Y-120249642D01*
X144291849Y-120319334D01*
X144249977Y-120375267D01*
X144184513Y-120399684D01*
X144175667Y-120400000D01*
X93124500Y-120400000D01*
X93057461Y-120380315D01*
X93011706Y-120327511D01*
X93000500Y-120276000D01*
X93000500Y-108025000D01*
X95574382Y-108025000D01*
X95850000Y-108025000D01*
X95850000Y-107764522D01*
X95790270Y-107788078D01*
X95675278Y-107875278D01*
X95588077Y-107990270D01*
X95574382Y-108025000D01*
X93000500Y-108025000D01*
X93000500Y-107124500D01*
X93020185Y-107057461D01*
X93072989Y-107011706D01*
X93124500Y-107000500D01*
X100275500Y-107000500D01*
X100342539Y-107020185D01*
G37*
%TD.AperFunction*%
%TA.AperFunction,Conductor*%
G36*
X169942539Y-107020185D02*
G01*
X169988294Y-107072989D01*
X169999500Y-107124500D01*
X169999500Y-120276000D01*
X169979815Y-120343039D01*
X169927011Y-120388794D01*
X169875500Y-120400000D01*
X158592531Y-120400000D01*
X158525492Y-120380315D01*
X158479737Y-120327511D01*
X158469793Y-120258353D01*
X158498818Y-120194797D01*
X158504850Y-120188319D01*
X160147439Y-118545730D01*
X163749500Y-118545730D01*
X163749500Y-119154269D01*
X163752353Y-119184699D01*
X163752353Y-119184701D01*
X163797206Y-119312880D01*
X163797207Y-119312882D01*
X163877850Y-119422150D01*
X163987118Y-119502793D01*
X164029845Y-119517744D01*
X164115299Y-119547646D01*
X164145730Y-119550500D01*
X164145734Y-119550500D01*
X165554270Y-119550500D01*
X165584699Y-119547646D01*
X165584701Y-119547646D01*
X165648790Y-119525219D01*
X165712882Y-119502793D01*
X165822150Y-119422150D01*
X165902793Y-119312882D01*
X165931263Y-119231519D01*
X165947646Y-119184701D01*
X165947646Y-119184699D01*
X165950500Y-119154269D01*
X165950500Y-118545730D01*
X165947646Y-118515300D01*
X165947646Y-118515298D01*
X165912323Y-118414354D01*
X165902793Y-118387118D01*
X165822150Y-118277850D01*
X165712882Y-118197207D01*
X165712880Y-118197206D01*
X165584700Y-118152353D01*
X165554270Y-118149500D01*
X165554266Y-118149500D01*
X165524500Y-118149500D01*
X165457461Y-118129815D01*
X165411706Y-118077011D01*
X165400500Y-118025500D01*
X165400500Y-116324500D01*
X165420185Y-116257461D01*
X165472989Y-116211706D01*
X165524500Y-116200500D01*
X165817555Y-116200500D01*
X165833113Y-116198451D01*
X165864231Y-116194355D01*
X165966667Y-116146588D01*
X166046588Y-116066667D01*
X166094355Y-115964231D01*
X166100500Y-115917554D01*
X166100500Y-115600547D01*
X166120185Y-115533508D01*
X166170802Y-115488777D01*
X166181227Y-115483768D01*
X166227092Y-115471479D01*
X166301316Y-115428626D01*
X166306229Y-115423712D01*
X166321802Y-115416231D01*
X166344100Y-115412580D01*
X166365178Y-115404431D01*
X166377919Y-115407043D01*
X166390753Y-115404943D01*
X166411485Y-115413927D01*
X166433623Y-115418467D01*
X166442928Y-115427552D01*
X166454862Y-115432724D01*
X166467446Y-115451492D01*
X166483615Y-115467279D01*
X166487186Y-115480931D01*
X166493774Y-115490756D01*
X166494097Y-115507348D01*
X166499500Y-115528001D01*
X166499500Y-115917554D01*
X166505644Y-115964229D01*
X166505645Y-115964231D01*
X166553412Y-116066667D01*
X166633333Y-116146588D01*
X166735769Y-116194355D01*
X166782445Y-116200500D01*
X166782446Y-116200500D01*
X167075500Y-116200500D01*
X167142539Y-116220185D01*
X167188294Y-116272989D01*
X167199500Y-116324500D01*
X167199500Y-118025500D01*
X167179815Y-118092539D01*
X167127011Y-118138294D01*
X167075500Y-118149500D01*
X166895730Y-118149500D01*
X166865300Y-118152353D01*
X166865298Y-118152353D01*
X166737119Y-118197206D01*
X166737117Y-118197207D01*
X166627850Y-118277850D01*
X166547207Y-118387117D01*
X166547206Y-118387119D01*
X166502353Y-118515298D01*
X166502353Y-118515300D01*
X166499500Y-118545730D01*
X166499500Y-119154269D01*
X166502353Y-119184699D01*
X166502353Y-119184701D01*
X166547206Y-119312880D01*
X166547207Y-119312882D01*
X166627850Y-119422150D01*
X166737118Y-119502793D01*
X166779845Y-119517744D01*
X166865299Y-119547646D01*
X166895730Y-119550500D01*
X166895734Y-119550500D01*
X168304270Y-119550500D01*
X168334699Y-119547646D01*
X168334701Y-119547646D01*
X168398790Y-119525219D01*
X168462882Y-119502793D01*
X168572150Y-119422150D01*
X168652793Y-119312882D01*
X168681263Y-119231519D01*
X168697646Y-119184701D01*
X168697646Y-119184699D01*
X168700500Y-119154269D01*
X168700500Y-118545730D01*
X168697646Y-118515300D01*
X168697646Y-118515298D01*
X168662323Y-118414354D01*
X168652793Y-118387118D01*
X168572150Y-118277850D01*
X168462882Y-118197207D01*
X168462880Y-118197206D01*
X168334700Y-118152353D01*
X168304270Y-118149500D01*
X168304266Y-118149500D01*
X167924500Y-118149500D01*
X167857461Y-118129815D01*
X167811706Y-118077011D01*
X167800500Y-118025500D01*
X167800500Y-116324500D01*
X167820185Y-116257461D01*
X167872989Y-116211706D01*
X167924500Y-116200500D01*
X168217555Y-116200500D01*
X168233113Y-116198451D01*
X168264231Y-116194355D01*
X168366667Y-116146588D01*
X168446588Y-116066667D01*
X168494355Y-115964231D01*
X168500500Y-115917554D01*
X168500500Y-115082446D01*
X168494355Y-115035769D01*
X168446588Y-114933333D01*
X168366667Y-114853412D01*
X168264231Y-114805645D01*
X168264229Y-114805644D01*
X168264230Y-114805644D01*
X168217555Y-114799500D01*
X168217554Y-114799500D01*
X167275833Y-114799500D01*
X167208794Y-114779815D01*
X167188152Y-114763181D01*
X166999119Y-114574148D01*
X166999114Y-114574144D01*
X166975372Y-114560437D01*
X166975372Y-114560436D01*
X166975370Y-114560436D01*
X166930601Y-114534588D01*
X166930600Y-114534587D01*
X166905976Y-114527989D01*
X166854169Y-114514107D01*
X166854167Y-114514107D01*
X166607487Y-114514107D01*
X166575395Y-114509882D01*
X166497861Y-114489107D01*
X166412155Y-114489107D01*
X166329370Y-114511289D01*
X166329363Y-114511292D01*
X166255152Y-114554137D01*
X166255144Y-114554143D01*
X166194544Y-114614743D01*
X166194538Y-114614751D01*
X166151693Y-114688962D01*
X166151690Y-114688967D01*
X166133053Y-114758524D01*
X166126804Y-114768774D01*
X166124814Y-114780612D01*
X166108956Y-114798056D01*
X166096687Y-114818184D01*
X166084715Y-114824720D01*
X166077815Y-114832312D01*
X166045371Y-114846205D01*
X166029166Y-114850547D01*
X165959316Y-114848884D01*
X165944672Y-114843155D01*
X165864231Y-114805645D01*
X165864229Y-114805644D01*
X165864230Y-114805644D01*
X165817555Y-114799500D01*
X165817554Y-114799500D01*
X164382446Y-114799500D01*
X164382445Y-114799500D01*
X164335770Y-114805644D01*
X164233332Y-114853412D01*
X164153412Y-114933332D01*
X164105644Y-115035770D01*
X164099500Y-115082445D01*
X164099500Y-115917554D01*
X164105644Y-115964229D01*
X164105645Y-115964231D01*
X164153412Y-116066667D01*
X164233333Y-116146588D01*
X164335769Y-116194355D01*
X164382445Y-116200500D01*
X164382446Y-116200500D01*
X164675500Y-116200500D01*
X164742539Y-116220185D01*
X164788294Y-116272989D01*
X164799500Y-116324500D01*
X164799500Y-118025500D01*
X164779815Y-118092539D01*
X164727011Y-118138294D01*
X164675500Y-118149500D01*
X164145730Y-118149500D01*
X164115300Y-118152353D01*
X164115298Y-118152353D01*
X163987119Y-118197206D01*
X163987117Y-118197207D01*
X163877850Y-118277850D01*
X163797207Y-118387117D01*
X163797206Y-118387119D01*
X163752353Y-118515298D01*
X163752353Y-118515300D01*
X163749500Y-118545730D01*
X160147439Y-118545730D01*
X160238015Y-118455154D01*
X161898669Y-116794500D01*
X163565460Y-115127709D01*
X163605022Y-115059186D01*
X163625500Y-114982760D01*
X163625500Y-114903636D01*
X163625500Y-112869031D01*
X163645185Y-112801992D01*
X163661819Y-112781350D01*
X163887819Y-112555350D01*
X163949142Y-112521865D01*
X164018834Y-112526849D01*
X164074767Y-112568721D01*
X164099184Y-112634185D01*
X164099500Y-112643031D01*
X164099500Y-113417554D01*
X164105644Y-113464229D01*
X164127046Y-113510126D01*
X164153412Y-113566667D01*
X164233333Y-113646588D01*
X164335769Y-113694355D01*
X164382445Y-113700500D01*
X164382446Y-113700500D01*
X165817555Y-113700500D01*
X165833113Y-113698451D01*
X165864231Y-113694355D01*
X165966667Y-113646588D01*
X166046588Y-113566667D01*
X166094355Y-113464231D01*
X166100500Y-113417554D01*
X166100500Y-113175833D01*
X166109144Y-113146392D01*
X166115668Y-113116406D01*
X166119422Y-113111390D01*
X166120185Y-113108794D01*
X166136819Y-113088152D01*
X166237319Y-112987652D01*
X166298642Y-112954167D01*
X166368334Y-112959151D01*
X166412681Y-112987652D01*
X166463181Y-113038152D01*
X166496666Y-113099475D01*
X166499500Y-113125833D01*
X166499500Y-113417554D01*
X166505644Y-113464229D01*
X166527046Y-113510126D01*
X166553412Y-113566667D01*
X166633333Y-113646588D01*
X166735769Y-113694355D01*
X166782445Y-113700500D01*
X166782446Y-113700500D01*
X168217555Y-113700500D01*
X168233113Y-113698451D01*
X168264231Y-113694355D01*
X168366667Y-113646588D01*
X168446588Y-113566667D01*
X168494355Y-113464231D01*
X168500500Y-113417554D01*
X168500500Y-112582446D01*
X168494355Y-112535769D01*
X168446588Y-112433333D01*
X168366667Y-112353412D01*
X168264231Y-112305645D01*
X168264229Y-112305644D01*
X168264230Y-112305644D01*
X168217555Y-112299500D01*
X168217554Y-112299500D01*
X166973366Y-112299500D01*
X166906327Y-112279815D01*
X166860572Y-112227011D01*
X166852822Y-112200028D01*
X166852602Y-112200088D01*
X166850500Y-112192242D01*
X166850500Y-112192240D01*
X166845747Y-112174501D01*
X166830022Y-112115814D01*
X166790460Y-112047291D01*
X166230395Y-111487226D01*
X166226056Y-111479280D01*
X166218809Y-111473855D01*
X166209574Y-111449095D01*
X166196910Y-111425903D01*
X166197555Y-111416873D01*
X166194392Y-111408391D01*
X166200008Y-111382570D01*
X166201894Y-111356211D01*
X166207712Y-111347157D01*
X166209244Y-111340118D01*
X166230395Y-111311864D01*
X166255440Y-111286819D01*
X166316763Y-111253334D01*
X166343121Y-111250500D01*
X167089560Y-111250500D01*
X167089562Y-111250500D01*
X167165989Y-111230021D01*
X167188346Y-111217112D01*
X167250347Y-111200500D01*
X168217555Y-111200500D01*
X168233113Y-111198451D01*
X168264231Y-111194355D01*
X168366667Y-111146588D01*
X168446588Y-111066667D01*
X168494355Y-110964231D01*
X168500500Y-110917554D01*
X168500500Y-110082446D01*
X168500415Y-110081804D01*
X168494355Y-110035770D01*
X168483413Y-110012304D01*
X168446588Y-109933333D01*
X168366667Y-109853412D01*
X168264231Y-109805645D01*
X168264229Y-109805644D01*
X168264230Y-109805644D01*
X168217555Y-109799500D01*
X168217554Y-109799500D01*
X166782446Y-109799500D01*
X166782445Y-109799500D01*
X166735770Y-109805644D01*
X166633332Y-109853412D01*
X166553412Y-109933332D01*
X166505644Y-110035770D01*
X166499500Y-110082445D01*
X166499500Y-110525500D01*
X166496949Y-110534185D01*
X166498238Y-110543147D01*
X166487259Y-110567187D01*
X166479815Y-110592539D01*
X166472974Y-110598466D01*
X166469213Y-110606703D01*
X166446978Y-110620992D01*
X166427011Y-110638294D01*
X166416496Y-110640581D01*
X166410435Y-110644477D01*
X166375500Y-110649500D01*
X166224500Y-110649500D01*
X166157461Y-110629815D01*
X166111706Y-110577011D01*
X166100500Y-110525500D01*
X166100500Y-110082445D01*
X166094355Y-110035770D01*
X166083413Y-110012304D01*
X166046588Y-109933333D01*
X165966667Y-109853412D01*
X165864231Y-109805645D01*
X165864229Y-109805644D01*
X165864230Y-109805644D01*
X165817555Y-109799500D01*
X165817554Y-109799500D01*
X164382446Y-109799500D01*
X164382445Y-109799500D01*
X164335770Y-109805644D01*
X164233332Y-109853412D01*
X164153412Y-109933332D01*
X164105644Y-110035770D01*
X164099499Y-110082448D01*
X164099423Y-110083616D01*
X164099302Y-110083944D01*
X164098970Y-110086471D01*
X164098404Y-110086396D01*
X164075393Y-110149223D01*
X164019707Y-110191424D01*
X163975689Y-110199500D01*
X162494031Y-110199500D01*
X162426992Y-110179815D01*
X162406350Y-110163181D01*
X161124558Y-108881389D01*
X161091073Y-108820066D01*
X161096057Y-108750374D01*
X161137929Y-108694441D01*
X161203393Y-108670024D01*
X161237457Y-108672829D01*
X161237487Y-108672640D01*
X161240005Y-108673038D01*
X161241197Y-108673137D01*
X161242296Y-108673401D01*
X161242299Y-108673402D01*
X161242301Y-108673402D01*
X161242304Y-108673403D01*
X161339446Y-108688788D01*
X161413389Y-108700500D01*
X161413390Y-108700500D01*
X161586610Y-108700500D01*
X161586611Y-108700500D01*
X161757701Y-108673402D01*
X161922445Y-108619873D01*
X162076788Y-108541232D01*
X162216928Y-108439414D01*
X162339414Y-108316928D01*
X162441232Y-108176788D01*
X162519873Y-108022445D01*
X162573402Y-107857701D01*
X162600500Y-107686611D01*
X162600500Y-107124500D01*
X162620185Y-107057461D01*
X162672989Y-107011706D01*
X162724500Y-107000500D01*
X169875500Y-107000500D01*
X169942539Y-107020185D01*
G37*
%TD.AperFunction*%
%TA.AperFunction,Conductor*%
G36*
X147642539Y-107020185D02*
G01*
X147688294Y-107072989D01*
X147699500Y-107124500D01*
X147699500Y-107686611D01*
X147704819Y-107720194D01*
X147726597Y-107857697D01*
X147726597Y-107857699D01*
X147726598Y-107857701D01*
X147780127Y-108022445D01*
X147858768Y-108176788D01*
X147960586Y-108316928D01*
X148083072Y-108439414D01*
X148223212Y-108541232D01*
X148377555Y-108619873D01*
X148542299Y-108673402D01*
X148713389Y-108700500D01*
X148713390Y-108700500D01*
X148886610Y-108700500D01*
X148886611Y-108700500D01*
X149057701Y-108673402D01*
X149222445Y-108619873D01*
X149376788Y-108541232D01*
X149516928Y-108439414D01*
X149639414Y-108316928D01*
X149741232Y-108176788D01*
X149819873Y-108022445D01*
X149873402Y-107857701D01*
X149900500Y-107686611D01*
X149900500Y-107124500D01*
X149903050Y-107115814D01*
X149901762Y-107106853D01*
X149912740Y-107082812D01*
X149920185Y-107057461D01*
X149927025Y-107051533D01*
X149930787Y-107043297D01*
X149953021Y-107029007D01*
X149972989Y-107011706D01*
X149983503Y-107009418D01*
X149989565Y-107005523D01*
X150024500Y-107000500D01*
X150115500Y-107000500D01*
X150182539Y-107020185D01*
X150228294Y-107072989D01*
X150239500Y-107124500D01*
X150239500Y-107686611D01*
X150244819Y-107720194D01*
X150266597Y-107857697D01*
X150266597Y-107857699D01*
X150266598Y-107857701D01*
X150320127Y-108022445D01*
X150398768Y-108176788D01*
X150500586Y-108316928D01*
X150623072Y-108439414D01*
X150763212Y-108541232D01*
X150917555Y-108619873D01*
X151082299Y-108673402D01*
X151253389Y-108700500D01*
X151253390Y-108700500D01*
X151426610Y-108700500D01*
X151426611Y-108700500D01*
X151597701Y-108673402D01*
X151762445Y-108619873D01*
X151916788Y-108541232D01*
X152056928Y-108439414D01*
X152179414Y-108316928D01*
X152281232Y-108176788D01*
X152359873Y-108022445D01*
X152413402Y-107857701D01*
X152440500Y-107686611D01*
X152440500Y-107124500D01*
X152443050Y-107115814D01*
X152441762Y-107106853D01*
X152452740Y-107082812D01*
X152460185Y-107057461D01*
X152467025Y-107051533D01*
X152470787Y-107043297D01*
X152493021Y-107029007D01*
X152512989Y-107011706D01*
X152523503Y-107009418D01*
X152529565Y-107005523D01*
X152564500Y-107000500D01*
X152655500Y-107000500D01*
X152722539Y-107020185D01*
X152768294Y-107072989D01*
X152779500Y-107124500D01*
X152779500Y-107686611D01*
X152784819Y-107720194D01*
X152806597Y-107857697D01*
X152806597Y-107857699D01*
X152806598Y-107857701D01*
X152860127Y-108022445D01*
X152938768Y-108176788D01*
X153040586Y-108316928D01*
X153163072Y-108439414D01*
X153303212Y-108541232D01*
X153457555Y-108619873D01*
X153622299Y-108673402D01*
X153793389Y-108700500D01*
X153793390Y-108700500D01*
X153966610Y-108700500D01*
X153966611Y-108700500D01*
X154137701Y-108673402D01*
X154302445Y-108619873D01*
X154456788Y-108541232D01*
X154596928Y-108439414D01*
X154719414Y-108316928D01*
X154821232Y-108176788D01*
X154899873Y-108022445D01*
X154953402Y-107857701D01*
X154980500Y-107686611D01*
X154980500Y-107124500D01*
X154983050Y-107115814D01*
X154981762Y-107106853D01*
X154992740Y-107082812D01*
X155000185Y-107057461D01*
X155007025Y-107051533D01*
X155010787Y-107043297D01*
X155033021Y-107029007D01*
X155052989Y-107011706D01*
X155063503Y-107009418D01*
X155069565Y-107005523D01*
X155104500Y-107000500D01*
X155195500Y-107000500D01*
X155262539Y-107020185D01*
X155308294Y-107072989D01*
X155319500Y-107124500D01*
X155319500Y-107686611D01*
X155324819Y-107720194D01*
X155346597Y-107857697D01*
X155346597Y-107857699D01*
X155346598Y-107857701D01*
X155400127Y-108022445D01*
X155478768Y-108176788D01*
X155580586Y-108316928D01*
X155703072Y-108439414D01*
X155843212Y-108541232D01*
X155997555Y-108619873D01*
X156162299Y-108673402D01*
X156333389Y-108700500D01*
X156333390Y-108700500D01*
X156506610Y-108700500D01*
X156506611Y-108700500D01*
X156677701Y-108673402D01*
X156842445Y-108619873D01*
X156996788Y-108541232D01*
X157136928Y-108439414D01*
X157259414Y-108316928D01*
X157361232Y-108176788D01*
X157439873Y-108022445D01*
X157493402Y-107857701D01*
X157520500Y-107686611D01*
X157520500Y-107124500D01*
X157523050Y-107115814D01*
X157521762Y-107106853D01*
X157532740Y-107082812D01*
X157540185Y-107057461D01*
X157547025Y-107051533D01*
X157550787Y-107043297D01*
X157573021Y-107029007D01*
X157592989Y-107011706D01*
X157603503Y-107009418D01*
X157609565Y-107005523D01*
X157644500Y-107000500D01*
X157735500Y-107000500D01*
X157802539Y-107020185D01*
X157848294Y-107072989D01*
X157859500Y-107124500D01*
X157859500Y-107686611D01*
X157864819Y-107720194D01*
X157886597Y-107857697D01*
X157886597Y-107857699D01*
X157886598Y-107857701D01*
X157940127Y-108022445D01*
X158018768Y-108176788D01*
X158120586Y-108316928D01*
X158243072Y-108439414D01*
X158383212Y-108541232D01*
X158537555Y-108619873D01*
X158702299Y-108673402D01*
X158873389Y-108700500D01*
X158873390Y-108700500D01*
X159046610Y-108700500D01*
X159046611Y-108700500D01*
X159217701Y-108673402D01*
X159305843Y-108644761D01*
X159375682Y-108642765D01*
X159431842Y-108675011D01*
X161891342Y-111134511D01*
X161947291Y-111190460D01*
X161947293Y-111190461D01*
X161947297Y-111190464D01*
X162003422Y-111222867D01*
X162015813Y-111230021D01*
X162092240Y-111250500D01*
X162171364Y-111250500D01*
X163406969Y-111250500D01*
X163474008Y-111270185D01*
X163519763Y-111322989D01*
X163529707Y-111392147D01*
X163500682Y-111455703D01*
X163494650Y-111462181D01*
X162634541Y-112322289D01*
X162634535Y-112322297D01*
X162594982Y-112390806D01*
X162594979Y-112390811D01*
X162574500Y-112467241D01*
X162574500Y-114580969D01*
X162554815Y-114648008D01*
X162538181Y-114668650D01*
X157793650Y-119413181D01*
X157732327Y-119446666D01*
X157705969Y-119449500D01*
X149286161Y-119449500D01*
X149219122Y-119429815D01*
X149173367Y-119377011D01*
X149163423Y-119307853D01*
X149163688Y-119306102D01*
X149175499Y-119231524D01*
X149175500Y-119231519D01*
X149175499Y-118768482D01*
X149160646Y-118674696D01*
X149103050Y-118561658D01*
X149103046Y-118561654D01*
X149103045Y-118561652D01*
X149013347Y-118471954D01*
X149013344Y-118471952D01*
X149013342Y-118471950D01*
X148936517Y-118432805D01*
X148900301Y-118414352D01*
X148806524Y-118399500D01*
X148193482Y-118399500D01*
X148112519Y-118412323D01*
X148099696Y-118414354D01*
X147986658Y-118471950D01*
X147986657Y-118471951D01*
X147986652Y-118471954D01*
X147896954Y-118561652D01*
X147896949Y-118561659D01*
X147860483Y-118633226D01*
X147812508Y-118684022D01*
X147744687Y-118700816D01*
X147678552Y-118678278D01*
X147639516Y-118633226D01*
X147603050Y-118561658D01*
X147603047Y-118561655D01*
X147603045Y-118561652D01*
X147513347Y-118471954D01*
X147513344Y-118471952D01*
X147513342Y-118471950D01*
X147436517Y-118432805D01*
X147400301Y-118414352D01*
X147306524Y-118399500D01*
X146693482Y-118399500D01*
X146612519Y-118412323D01*
X146599696Y-118414354D01*
X146486658Y-118471950D01*
X146486657Y-118471951D01*
X146486652Y-118471954D01*
X146396954Y-118561652D01*
X146396951Y-118561657D01*
X146396950Y-118561658D01*
X146391604Y-118572150D01*
X146339352Y-118674698D01*
X146324500Y-118768475D01*
X146324500Y-119231518D01*
X146336313Y-119306104D01*
X146327357Y-119375397D01*
X146282360Y-119428849D01*
X146215608Y-119449487D01*
X146213839Y-119449500D01*
X145062230Y-119449500D01*
X144995191Y-119429815D01*
X144974549Y-119413181D01*
X144002469Y-118441101D01*
X143968984Y-118379778D01*
X143973968Y-118310086D01*
X143977761Y-118301032D01*
X144014068Y-118223173D01*
X144020500Y-118174316D01*
X144020500Y-117825684D01*
X144014068Y-117776827D01*
X143964065Y-117669596D01*
X143880404Y-117585935D01*
X143872733Y-117578264D01*
X143875561Y-117575435D01*
X143844843Y-117537023D01*
X143837635Y-117467526D01*
X143869143Y-117405165D01*
X143872041Y-117402178D01*
X143879983Y-117394261D01*
X143880404Y-117394065D01*
X143949710Y-117324758D01*
X143980152Y-117308199D01*
X144010889Y-117291416D01*
X144010993Y-117291423D01*
X144011084Y-117291374D01*
X144045715Y-117293906D01*
X144080581Y-117296400D01*
X144080679Y-117296463D01*
X144080768Y-117296470D01*
X144081230Y-117296817D01*
X144124929Y-117324900D01*
X144288182Y-117488153D01*
X144321666Y-117549475D01*
X144324500Y-117575833D01*
X144324500Y-118033493D01*
X144340279Y-118133121D01*
X144340280Y-118133124D01*
X144340281Y-118133126D01*
X144394984Y-118240486D01*
X144401473Y-118253221D01*
X144401476Y-118253225D01*
X144496774Y-118348523D01*
X144496778Y-118348526D01*
X144496780Y-118348528D01*
X144616874Y-118409719D01*
X144616876Y-118409719D01*
X144616878Y-118409720D01*
X144716507Y-118425500D01*
X144716512Y-118425500D01*
X145283493Y-118425500D01*
X145383121Y-118409720D01*
X145383121Y-118409719D01*
X145383126Y-118409719D01*
X145503220Y-118348528D01*
X145598528Y-118253220D01*
X145659719Y-118133126D01*
X145660119Y-118130601D01*
X145675500Y-118033493D01*
X145675500Y-117575833D01*
X145695185Y-117508794D01*
X145711819Y-117488152D01*
X145875211Y-117324760D01*
X146040460Y-117159511D01*
X146052555Y-117138562D01*
X146064149Y-117118481D01*
X146324500Y-117118481D01*
X146324500Y-117130752D01*
X146324500Y-117130753D01*
X146324500Y-117581517D01*
X146329845Y-117615262D01*
X146339354Y-117675304D01*
X146396950Y-117788342D01*
X146396952Y-117788344D01*
X146396954Y-117788347D01*
X146486652Y-117878045D01*
X146486654Y-117878046D01*
X146486658Y-117878050D01*
X146573745Y-117922423D01*
X146599698Y-117935647D01*
X146693475Y-117950499D01*
X146693481Y-117950500D01*
X147306518Y-117950499D01*
X147400304Y-117935646D01*
X147513342Y-117878050D01*
X147603050Y-117788342D01*
X147613311Y-117768204D01*
X147623759Y-117757141D01*
X147630082Y-117743297D01*
X147647264Y-117732254D01*
X147661286Y-117717409D01*
X147676964Y-117713168D01*
X147688860Y-117705523D01*
X147723795Y-117700500D01*
X147776205Y-117700500D01*
X147843244Y-117720185D01*
X147886689Y-117768204D01*
X147896949Y-117788340D01*
X147896954Y-117788347D01*
X147986652Y-117878045D01*
X147986654Y-117878046D01*
X147986658Y-117878050D01*
X148073745Y-117922423D01*
X148099698Y-117935647D01*
X148193475Y-117950499D01*
X148193481Y-117950500D01*
X148806518Y-117950499D01*
X148900304Y-117935646D01*
X149013342Y-117878050D01*
X149103050Y-117788342D01*
X149160646Y-117675304D01*
X149160646Y-117675302D01*
X149160647Y-117675301D01*
X149173817Y-117592147D01*
X149175500Y-117581519D01*
X149175499Y-117118482D01*
X149160646Y-117024696D01*
X149103050Y-116911658D01*
X149103046Y-116911654D01*
X149103045Y-116911652D01*
X149013347Y-116821954D01*
X149013344Y-116821952D01*
X149013342Y-116821950D01*
X148936517Y-116782805D01*
X148900301Y-116764352D01*
X148806524Y-116749500D01*
X148193482Y-116749500D01*
X148112519Y-116762323D01*
X148099696Y-116764354D01*
X147986658Y-116821950D01*
X147986657Y-116821951D01*
X147986652Y-116821954D01*
X147896954Y-116911652D01*
X147896949Y-116911659D01*
X147860483Y-116983226D01*
X147812508Y-117034022D01*
X147744687Y-117050816D01*
X147678552Y-117028278D01*
X147639516Y-116983226D01*
X147603050Y-116911658D01*
X147603047Y-116911655D01*
X147603045Y-116911652D01*
X147513347Y-116821954D01*
X147513344Y-116821952D01*
X147513342Y-116821950D01*
X147436517Y-116782805D01*
X147400301Y-116764352D01*
X147306524Y-116749500D01*
X146693482Y-116749500D01*
X146612519Y-116762323D01*
X146599696Y-116764354D01*
X146486658Y-116821950D01*
X146486657Y-116821951D01*
X146486652Y-116821954D01*
X146396954Y-116911652D01*
X146396951Y-116911657D01*
X146396950Y-116911658D01*
X146376262Y-116952260D01*
X146344518Y-117014562D01*
X146339354Y-117024696D01*
X146324500Y-117118481D01*
X146064149Y-117118481D01*
X146080021Y-117090989D01*
X146100500Y-117014562D01*
X146100500Y-116175833D01*
X146120185Y-116108794D01*
X146136819Y-116088152D01*
X146688152Y-115536819D01*
X146749475Y-115503334D01*
X146775833Y-115500500D01*
X147339560Y-115500500D01*
X147339562Y-115500500D01*
X147415989Y-115480021D01*
X147484511Y-115440460D01*
X147540460Y-115384511D01*
X147878152Y-115046817D01*
X147939475Y-115013333D01*
X147965833Y-115010499D01*
X148179895Y-115010499D01*
X148179900Y-115010499D01*
X148229487Y-115003972D01*
X148338316Y-114953224D01*
X148423224Y-114868316D01*
X148468830Y-114770513D01*
X151799500Y-114770513D01*
X151799500Y-114959486D01*
X151829059Y-115146118D01*
X151887454Y-115325836D01*
X151966014Y-115480017D01*
X151973240Y-115494199D01*
X152084310Y-115647073D01*
X152217927Y-115780690D01*
X152370801Y-115891760D01*
X152421425Y-115917554D01*
X152539163Y-115977545D01*
X152539165Y-115977545D01*
X152539168Y-115977547D01*
X152625407Y-116005568D01*
X152718881Y-116035940D01*
X152905514Y-116065500D01*
X152905519Y-116065500D01*
X153094486Y-116065500D01*
X153281118Y-116035940D01*
X153322703Y-116022428D01*
X153460832Y-115977547D01*
X153629199Y-115891760D01*
X153782073Y-115780690D01*
X153915690Y-115647073D01*
X154026760Y-115494199D01*
X154112547Y-115325832D01*
X154170940Y-115146118D01*
X154200500Y-114959486D01*
X154200500Y-114770513D01*
X154170940Y-114583881D01*
X154140285Y-114489535D01*
X154112547Y-114404168D01*
X154112545Y-114404165D01*
X154112545Y-114404163D01*
X154062795Y-114306524D01*
X154026760Y-114235801D01*
X153915690Y-114082927D01*
X153782073Y-113949310D01*
X153629199Y-113838240D01*
X153593764Y-113820185D01*
X153460836Y-113752454D01*
X153281118Y-113694059D01*
X153094486Y-113664500D01*
X153094481Y-113664500D01*
X152905519Y-113664500D01*
X152905514Y-113664500D01*
X152718881Y-113694059D01*
X152539163Y-113752454D01*
X152370800Y-113838240D01*
X152313292Y-113880023D01*
X152217927Y-113949310D01*
X152217925Y-113949312D01*
X152217924Y-113949312D01*
X152084312Y-114082924D01*
X152084312Y-114082925D01*
X152084310Y-114082927D01*
X152043759Y-114138740D01*
X151973240Y-114235800D01*
X151887454Y-114404163D01*
X151829059Y-114583881D01*
X151799500Y-114770513D01*
X148468830Y-114770513D01*
X148473972Y-114759487D01*
X148480500Y-114709901D01*
X148480499Y-114495833D01*
X148500183Y-114428794D01*
X148516813Y-114408156D01*
X148721460Y-114203511D01*
X148761022Y-114134988D01*
X148781500Y-114058562D01*
X148781500Y-113979438D01*
X148781500Y-111481438D01*
X148761021Y-111405011D01*
X148760211Y-111403608D01*
X148721464Y-111336495D01*
X148721458Y-111336487D01*
X147546818Y-110161847D01*
X147513333Y-110100524D01*
X147510499Y-110074166D01*
X147510499Y-109860105D01*
X147510499Y-109860100D01*
X147503972Y-109810513D01*
X147453224Y-109701684D01*
X147368316Y-109616776D01*
X147259487Y-109566028D01*
X147259485Y-109566027D01*
X147259486Y-109566027D01*
X147209901Y-109559500D01*
X146790105Y-109559500D01*
X146774386Y-109561569D01*
X146740513Y-109566028D01*
X146740511Y-109566029D01*
X146740509Y-109566029D01*
X146631683Y-109616776D01*
X146587681Y-109660779D01*
X146526358Y-109694264D01*
X146456666Y-109689280D01*
X146412319Y-109660779D01*
X146368316Y-109616776D01*
X146358331Y-109612120D01*
X146259487Y-109566028D01*
X146259485Y-109566027D01*
X146259486Y-109566027D01*
X146209901Y-109559500D01*
X145790105Y-109559500D01*
X145774386Y-109561569D01*
X145740513Y-109566028D01*
X145740511Y-109566029D01*
X145740509Y-109566029D01*
X145631683Y-109616776D01*
X145587681Y-109660779D01*
X145583038Y-109663313D01*
X145580129Y-109667730D01*
X145552694Y-109679883D01*
X145526358Y-109694264D01*
X145521082Y-109693886D01*
X145516247Y-109696029D01*
X145486596Y-109691420D01*
X145456666Y-109689280D01*
X145451030Y-109685892D01*
X145447206Y-109685298D01*
X145430455Y-109673525D01*
X145417734Y-109665879D01*
X145414954Y-109663414D01*
X145368316Y-109616776D01*
X145355740Y-109610911D01*
X145342234Y-109598936D01*
X145332874Y-109584000D01*
X145319647Y-109572351D01*
X145314566Y-109554785D01*
X145305132Y-109539731D01*
X145305324Y-109522835D01*
X145300500Y-109506155D01*
X145300500Y-108736832D01*
X145320185Y-108669793D01*
X145336810Y-108649160D01*
X145470206Y-108515764D01*
X145531524Y-108482282D01*
X145601216Y-108487266D01*
X145630768Y-108503130D01*
X145678641Y-108537911D01*
X145683212Y-108541232D01*
X145837555Y-108619873D01*
X146002299Y-108673402D01*
X146173389Y-108700500D01*
X146173390Y-108700500D01*
X146346610Y-108700500D01*
X146346611Y-108700500D01*
X146517701Y-108673402D01*
X146682445Y-108619873D01*
X146836788Y-108541232D01*
X146976928Y-108439414D01*
X147099414Y-108316928D01*
X147201232Y-108176788D01*
X147279873Y-108022445D01*
X147333402Y-107857701D01*
X147360500Y-107686611D01*
X147360500Y-107124500D01*
X147363050Y-107115814D01*
X147361762Y-107106853D01*
X147372740Y-107082812D01*
X147380185Y-107057461D01*
X147387025Y-107051533D01*
X147390787Y-107043297D01*
X147413021Y-107029007D01*
X147432989Y-107011706D01*
X147443503Y-107009418D01*
X147449565Y-107005523D01*
X147484500Y-107000500D01*
X147575500Y-107000500D01*
X147642539Y-107020185D01*
G37*
%TD.AperFunction*%
%TA.AperFunction,Conductor*%
G36*
X133492206Y-117020185D02*
G01*
X133537961Y-117072989D01*
X133547905Y-117142147D01*
X133518880Y-117205703D01*
X133512848Y-117212181D01*
X132611348Y-118113681D01*
X132550025Y-118147166D01*
X132523667Y-118150000D01*
X132000000Y-118150000D01*
X132000000Y-118500000D01*
X132024833Y-118524833D01*
X132058318Y-118586156D01*
X132053334Y-118655848D01*
X132024833Y-118700195D01*
X131360848Y-119364181D01*
X131299525Y-119397666D01*
X131273167Y-119400500D01*
X129724500Y-119400500D01*
X129657461Y-119380815D01*
X129611706Y-119328011D01*
X129600500Y-119276500D01*
X129600500Y-118695730D01*
X129597646Y-118665300D01*
X129597646Y-118665298D01*
X129561380Y-118561658D01*
X129552793Y-118537118D01*
X129472150Y-118427850D01*
X129362882Y-118347207D01*
X129362880Y-118347206D01*
X129234700Y-118302353D01*
X129204270Y-118299500D01*
X129204266Y-118299500D01*
X128499733Y-118299500D01*
X128489981Y-118296636D01*
X128479899Y-118297903D01*
X128457024Y-118286959D01*
X128432694Y-118279815D01*
X128426039Y-118272135D01*
X128416871Y-118267749D01*
X128403542Y-118246172D01*
X128386939Y-118227011D01*
X128385492Y-118216953D01*
X128380151Y-118208306D01*
X128380603Y-118182950D01*
X128376995Y-118157853D01*
X128380003Y-118150000D01*
X130261803Y-118150000D01*
X130289763Y-118191846D01*
X130408152Y-118310235D01*
X130408160Y-118310241D01*
X130547371Y-118403259D01*
X130702063Y-118467334D01*
X130702071Y-118467336D01*
X130866277Y-118499999D01*
X130866280Y-118500000D01*
X131000000Y-118500000D01*
X131000000Y-118150000D01*
X130261803Y-118150000D01*
X128380003Y-118150000D01*
X128381249Y-118146748D01*
X128381398Y-118138448D01*
X128396627Y-118106615D01*
X128435966Y-118047740D01*
X128450500Y-117974674D01*
X128450500Y-117875833D01*
X128459144Y-117846392D01*
X128465668Y-117816406D01*
X128469422Y-117811390D01*
X128470185Y-117808794D01*
X128486819Y-117788152D01*
X128638152Y-117636819D01*
X128699475Y-117603334D01*
X128725833Y-117600500D01*
X129119560Y-117600500D01*
X129119562Y-117600500D01*
X129120413Y-117600272D01*
X130600000Y-117600272D01*
X130600000Y-117699728D01*
X130638060Y-117791614D01*
X130708386Y-117861940D01*
X130800272Y-117900000D01*
X132199728Y-117900000D01*
X132291614Y-117861940D01*
X132361940Y-117791614D01*
X132400000Y-117699728D01*
X132400000Y-117600272D01*
X132361940Y-117508386D01*
X132291614Y-117438060D01*
X132199728Y-117400000D01*
X130800272Y-117400000D01*
X130708386Y-117438060D01*
X130638060Y-117508386D01*
X130600000Y-117600272D01*
X129120413Y-117600272D01*
X129195989Y-117580021D01*
X129264511Y-117540460D01*
X129320460Y-117484511D01*
X129668152Y-117136819D01*
X129729475Y-117103334D01*
X129755833Y-117100500D01*
X130161022Y-117100500D01*
X130228061Y-117120185D01*
X130255573Y-117150000D01*
X132738198Y-117150000D01*
X132747912Y-117131824D01*
X132746312Y-117126713D01*
X132764797Y-117059332D01*
X132816776Y-117012643D01*
X132870292Y-117000500D01*
X133425167Y-117000500D01*
X133492206Y-117020185D01*
G37*
%TD.AperFunction*%
%TA.AperFunction,Conductor*%
G36*
X139855720Y-113496185D02*
G01*
X139901475Y-113548989D01*
X139911419Y-113618147D01*
X139911154Y-113619899D01*
X139899500Y-113693476D01*
X139899500Y-114306517D01*
X139907811Y-114358991D01*
X139914354Y-114400304D01*
X139971950Y-114513342D01*
X139971952Y-114513344D01*
X139971954Y-114513347D01*
X140061652Y-114603045D01*
X140061654Y-114603046D01*
X140061658Y-114603050D01*
X140133225Y-114639515D01*
X140184021Y-114687490D01*
X140200816Y-114755311D01*
X140178278Y-114821446D01*
X140133226Y-114860484D01*
X140061658Y-114896950D01*
X140061657Y-114896951D01*
X140061652Y-114896954D01*
X139971954Y-114986652D01*
X139971951Y-114986657D01*
X139971950Y-114986658D01*
X139958358Y-115013333D01*
X139914352Y-115099698D01*
X139899500Y-115193475D01*
X139899500Y-115806517D01*
X139906435Y-115850301D01*
X139914354Y-115900304D01*
X139971950Y-116013342D01*
X139971952Y-116013344D01*
X139971954Y-116013347D01*
X140061652Y-116103045D01*
X140061654Y-116103046D01*
X140061658Y-116103050D01*
X140147106Y-116146588D01*
X140174698Y-116160647D01*
X140268475Y-116175499D01*
X140268481Y-116175500D01*
X140600167Y-116175499D01*
X140667206Y-116195183D01*
X140712961Y-116247987D01*
X140722905Y-116317146D01*
X140693880Y-116380701D01*
X140687848Y-116387180D01*
X139811848Y-117263181D01*
X139750525Y-117296666D01*
X139724167Y-117299500D01*
X138795730Y-117299500D01*
X138765300Y-117302353D01*
X138765298Y-117302353D01*
X138637119Y-117347206D01*
X138637117Y-117347207D01*
X138527850Y-117427850D01*
X138447207Y-117537117D01*
X138447206Y-117537119D01*
X138402353Y-117665298D01*
X138402353Y-117665300D01*
X138399500Y-117695730D01*
X138399500Y-117719905D01*
X138393261Y-117741150D01*
X138391682Y-117763239D01*
X138383609Y-117774022D01*
X138379815Y-117786944D01*
X138363081Y-117801443D01*
X138349810Y-117819172D01*
X138337189Y-117823879D01*
X138327011Y-117832699D01*
X138305093Y-117835850D01*
X138284346Y-117843589D01*
X138271185Y-117840726D01*
X138257853Y-117842643D01*
X138237709Y-117833443D01*
X138216073Y-117828737D01*
X138198347Y-117815468D01*
X138194297Y-117813618D01*
X138187819Y-117807586D01*
X138073211Y-117692978D01*
X138039726Y-117631655D01*
X138039275Y-117581105D01*
X138050500Y-117524676D01*
X138050500Y-117275323D01*
X138050499Y-117275321D01*
X138035967Y-117202264D01*
X138035966Y-117202262D01*
X138035966Y-117202260D01*
X138035964Y-117202258D01*
X138035964Y-117202256D01*
X137980261Y-117118890D01*
X137959383Y-117052213D01*
X137977868Y-116984833D01*
X137980261Y-116981110D01*
X138035964Y-116897743D01*
X138035964Y-116897742D01*
X138035966Y-116897740D01*
X138050500Y-116824674D01*
X138050500Y-116725832D01*
X138070185Y-116658793D01*
X138086815Y-116638155D01*
X138514232Y-116210737D01*
X138575553Y-116177254D01*
X138613546Y-116176175D01*
X138613630Y-116175118D01*
X138618469Y-116175498D01*
X138618481Y-116175500D01*
X139081518Y-116175499D01*
X139175304Y-116160646D01*
X139288342Y-116103050D01*
X139378050Y-116013342D01*
X139435646Y-115900304D01*
X139435646Y-115900302D01*
X139435647Y-115900301D01*
X139450499Y-115806524D01*
X139450500Y-115806519D01*
X139450499Y-115193482D01*
X139435646Y-115099696D01*
X139378050Y-114986658D01*
X139378046Y-114986654D01*
X139378045Y-114986652D01*
X139288347Y-114896954D01*
X139288343Y-114896951D01*
X139288342Y-114896950D01*
X139276798Y-114891068D01*
X139216773Y-114860483D01*
X139165978Y-114812508D01*
X139149183Y-114744687D01*
X139171721Y-114678553D01*
X139216771Y-114639517D01*
X139288342Y-114603050D01*
X139378050Y-114513342D01*
X139435646Y-114400304D01*
X139435646Y-114400302D01*
X139435647Y-114400301D01*
X139448169Y-114321234D01*
X139450500Y-114306519D01*
X139450499Y-113693482D01*
X139438845Y-113619896D01*
X139441241Y-113601355D01*
X139438581Y-113582853D01*
X139445626Y-113567424D01*
X139447801Y-113550603D01*
X139459840Y-113536302D01*
X139467606Y-113519297D01*
X139481875Y-113510126D01*
X139492798Y-113497152D01*
X139510656Y-113491630D01*
X139526384Y-113481523D01*
X139558090Y-113476964D01*
X139559550Y-113476513D01*
X139561319Y-113476500D01*
X139788681Y-113476500D01*
X139855720Y-113496185D01*
G37*
%TD.AperFunction*%
%TA.AperFunction,Conductor*%
G36*
X136437751Y-113469185D02*
G01*
X136458393Y-113485819D01*
X137213034Y-114240460D01*
X137281557Y-114280022D01*
X137357983Y-114300500D01*
X137437107Y-114300500D01*
X138142640Y-114300500D01*
X138209679Y-114320185D01*
X138255434Y-114372989D01*
X138260911Y-114391157D01*
X138261337Y-114391019D01*
X138264352Y-114400300D01*
X138264353Y-114400303D01*
X138264354Y-114400304D01*
X138321950Y-114513342D01*
X138321952Y-114513344D01*
X138321954Y-114513347D01*
X138411652Y-114603045D01*
X138411654Y-114603046D01*
X138411658Y-114603050D01*
X138483225Y-114639515D01*
X138534021Y-114687490D01*
X138550816Y-114755311D01*
X138528278Y-114821446D01*
X138483226Y-114860484D01*
X138411658Y-114896950D01*
X138411657Y-114896951D01*
X138411652Y-114896954D01*
X138321954Y-114986652D01*
X138321951Y-114986657D01*
X138321950Y-114986658D01*
X138308358Y-115013333D01*
X138264352Y-115099698D01*
X138249500Y-115193475D01*
X138249500Y-115574166D01*
X138229815Y-115641205D01*
X138213181Y-115661847D01*
X137561848Y-116313181D01*
X137500525Y-116346666D01*
X137474167Y-116349500D01*
X137375324Y-116349500D01*
X137302261Y-116364033D01*
X137302260Y-116364034D01*
X137280454Y-116378603D01*
X137213778Y-116399480D01*
X137211566Y-116399500D01*
X134814000Y-116399500D01*
X134746961Y-116379815D01*
X134701206Y-116327011D01*
X134690000Y-116275500D01*
X134690000Y-115965000D01*
X134374000Y-115965000D01*
X134365314Y-115962449D01*
X134356353Y-115963738D01*
X134332312Y-115952759D01*
X134306961Y-115945315D01*
X134301033Y-115938474D01*
X134292797Y-115934713D01*
X134278507Y-115912478D01*
X134261206Y-115892511D01*
X134258918Y-115881996D01*
X134255023Y-115875935D01*
X134250000Y-115841000D01*
X134250000Y-115825000D01*
X134234000Y-115825000D01*
X134166961Y-115805315D01*
X134121206Y-115752511D01*
X134110000Y-115701000D01*
X134110000Y-115685000D01*
X134390000Y-115685000D01*
X134689999Y-115685000D01*
X134689999Y-115656699D01*
X134709684Y-115589660D01*
X134762488Y-115543905D01*
X134831646Y-115533961D01*
X134861452Y-115542138D01*
X134873524Y-115547138D01*
X134873532Y-115547140D01*
X135013589Y-115574999D01*
X135013593Y-115575000D01*
X135085000Y-115575000D01*
X135935000Y-115575000D01*
X136006407Y-115575000D01*
X136006410Y-115574999D01*
X136146467Y-115547140D01*
X136146475Y-115547138D01*
X136278413Y-115492488D01*
X136278422Y-115492483D01*
X136397160Y-115413144D01*
X136397164Y-115413141D01*
X136498142Y-115312163D01*
X136522974Y-115275000D01*
X135935000Y-115275000D01*
X135935000Y-115575000D01*
X135085000Y-115575000D01*
X135085000Y-115275000D01*
X134390000Y-115275000D01*
X134390000Y-115685000D01*
X134110000Y-115685000D01*
X134110000Y-115000000D01*
X134065203Y-115000000D01*
X134040130Y-115002908D01*
X134040126Y-115002909D01*
X133937525Y-115048211D01*
X133937520Y-115048214D01*
X133922554Y-115063181D01*
X133861231Y-115096666D01*
X133834873Y-115099500D01*
X133590252Y-115099500D01*
X133524190Y-115112640D01*
X133515852Y-115112639D01*
X133511053Y-115114528D01*
X133475809Y-115112639D01*
X133405309Y-115098616D01*
X133343398Y-115066232D01*
X133308824Y-115005516D01*
X133305500Y-114976999D01*
X133305500Y-114800272D01*
X135110000Y-114800272D01*
X135110000Y-114899728D01*
X135148060Y-114991614D01*
X135218386Y-115061940D01*
X135310272Y-115100000D01*
X135709728Y-115100000D01*
X135801614Y-115061940D01*
X135871940Y-114991614D01*
X135910000Y-114899728D01*
X135910000Y-114800272D01*
X135871940Y-114708386D01*
X135801614Y-114638060D01*
X135709728Y-114600000D01*
X135310272Y-114600000D01*
X135218386Y-114638060D01*
X135148060Y-114708386D01*
X135110000Y-114800272D01*
X133305500Y-114800272D01*
X133305500Y-114723000D01*
X133325185Y-114655961D01*
X133377989Y-114610206D01*
X133405309Y-114601383D01*
X133475809Y-114587360D01*
X133524192Y-114587360D01*
X133590249Y-114600500D01*
X133834873Y-114600500D01*
X133901912Y-114620185D01*
X133922554Y-114636819D01*
X133937520Y-114651785D01*
X133937525Y-114651788D01*
X134040123Y-114697089D01*
X134065205Y-114699999D01*
X134109999Y-114699999D01*
X134110000Y-114699998D01*
X134110000Y-113999000D01*
X134112550Y-113990314D01*
X134111262Y-113981353D01*
X134122240Y-113957312D01*
X134129685Y-113931961D01*
X134136525Y-113926033D01*
X134140287Y-113917797D01*
X134162521Y-113903507D01*
X134182489Y-113886206D01*
X134193003Y-113883918D01*
X134199065Y-113880023D01*
X134234000Y-113875000D01*
X134266000Y-113875000D01*
X134333039Y-113894685D01*
X134378794Y-113947489D01*
X134390000Y-113999000D01*
X134390000Y-114425000D01*
X136522974Y-114425000D01*
X136498142Y-114387836D01*
X136397164Y-114286858D01*
X136397160Y-114286855D01*
X136278422Y-114207516D01*
X136278413Y-114207511D01*
X136146475Y-114152861D01*
X136146467Y-114152859D01*
X136006410Y-114125000D01*
X135909464Y-114125000D01*
X135842425Y-114105315D01*
X135796670Y-114052511D01*
X135788941Y-114000729D01*
X135785500Y-114000729D01*
X135785500Y-113867400D01*
X135780473Y-113848638D01*
X135753095Y-113746464D01*
X135690495Y-113638036D01*
X135690494Y-113638035D01*
X135689030Y-113635499D01*
X135672558Y-113567599D01*
X135695411Y-113501572D01*
X135750333Y-113458382D01*
X135796418Y-113449500D01*
X136370712Y-113449500D01*
X136437751Y-113469185D01*
G37*
%TD.AperFunction*%
%TA.AperFunction,Conductor*%
G36*
X147891832Y-111369365D02*
G01*
X147930702Y-111395673D01*
X148144181Y-111609152D01*
X148177666Y-111670475D01*
X148180500Y-111696833D01*
X148180500Y-113376000D01*
X148177949Y-113384685D01*
X148179238Y-113393647D01*
X148168259Y-113417687D01*
X148160815Y-113443039D01*
X148153974Y-113448966D01*
X148150213Y-113457203D01*
X148127978Y-113471492D01*
X148108011Y-113488794D01*
X148097496Y-113491081D01*
X148091435Y-113494977D01*
X148056500Y-113500000D01*
X147824000Y-113500000D01*
X147756961Y-113480315D01*
X147711206Y-113427511D01*
X147700000Y-113376000D01*
X147700000Y-112831362D01*
X147719685Y-112764323D01*
X147720000Y-112763932D01*
X147720000Y-111912828D01*
X147719999Y-111912828D01*
X147652079Y-111936594D01*
X147652077Y-111936595D01*
X147545358Y-112015358D01*
X147544977Y-112015876D01*
X147544412Y-112016304D01*
X147538788Y-112021929D01*
X147538018Y-112021159D01*
X147489328Y-112058125D01*
X147419672Y-112063581D01*
X147388709Y-112050155D01*
X147388148Y-112051361D01*
X147378316Y-112046776D01*
X147269487Y-111996028D01*
X147269485Y-111996027D01*
X147269486Y-111996027D01*
X147219902Y-111989500D01*
X146860105Y-111989500D01*
X146844386Y-111991569D01*
X146810513Y-111996028D01*
X146810511Y-111996029D01*
X146810509Y-111996029D01*
X146701683Y-112046776D01*
X146616776Y-112131683D01*
X146613854Y-112135857D01*
X146559275Y-112179479D01*
X146489777Y-112186670D01*
X146480190Y-112184504D01*
X146442854Y-112174500D01*
X146442853Y-112174500D01*
X146357147Y-112174500D01*
X146279613Y-112195274D01*
X146276000Y-112195188D01*
X146247521Y-112199500D01*
X146024833Y-112199500D01*
X145957794Y-112179815D01*
X145912039Y-112127011D01*
X145902095Y-112057853D01*
X145931120Y-111994297D01*
X145937152Y-111987819D01*
X146088152Y-111836819D01*
X146114306Y-111822537D01*
X146139135Y-111806055D01*
X146144641Y-111805973D01*
X146149475Y-111803334D01*
X146175833Y-111800500D01*
X146539560Y-111800500D01*
X146539562Y-111800500D01*
X146615989Y-111780021D01*
X146684511Y-111740460D01*
X146740460Y-111684511D01*
X146908153Y-111516816D01*
X146935082Y-111502112D01*
X146960898Y-111485522D01*
X146967098Y-111484630D01*
X146969475Y-111483333D01*
X146995833Y-111480499D01*
X146999029Y-111480499D01*
X147066068Y-111500184D01*
X147106416Y-111542499D01*
X147139532Y-111599858D01*
X147139534Y-111599861D01*
X147139535Y-111599862D01*
X147200138Y-111660465D01*
X147200140Y-111660466D01*
X147200144Y-111660469D01*
X147264538Y-111697646D01*
X147274362Y-111703318D01*
X147357147Y-111725500D01*
X147357149Y-111725500D01*
X147442851Y-111725500D01*
X147442853Y-111725500D01*
X147525638Y-111703318D01*
X147599862Y-111660465D01*
X147660465Y-111599862D01*
X147703318Y-111525638D01*
X147723247Y-111451259D01*
X147759610Y-111391601D01*
X147822457Y-111361071D01*
X147891832Y-111369365D01*
G37*
%TD.AperFunction*%
%TA.AperFunction,Conductor*%
G36*
X139046946Y-109896674D02*
G01*
X139090397Y-109951390D01*
X139099500Y-109998023D01*
X139099500Y-110304269D01*
X139102353Y-110334699D01*
X139102353Y-110334701D01*
X139146352Y-110460439D01*
X139147207Y-110462882D01*
X139227850Y-110572150D01*
X139337118Y-110652793D01*
X139372861Y-110665300D01*
X139465299Y-110697646D01*
X139495730Y-110700500D01*
X139495734Y-110700500D01*
X139724167Y-110700500D01*
X139791206Y-110720185D01*
X139811848Y-110736819D01*
X140163181Y-111088152D01*
X140196666Y-111149475D01*
X140199500Y-111175833D01*
X140199500Y-111750728D01*
X140179815Y-111817767D01*
X140131796Y-111861212D01*
X140061659Y-111896949D01*
X140061652Y-111896954D01*
X139971954Y-111986652D01*
X139971951Y-111986657D01*
X139971950Y-111986658D01*
X139963712Y-112002826D01*
X139914352Y-112099698D01*
X139899500Y-112193475D01*
X139899500Y-112193480D01*
X139899500Y-112193481D01*
X139899500Y-112498752D01*
X139899501Y-112751500D01*
X139896950Y-112760186D01*
X139898239Y-112769147D01*
X139887261Y-112793183D01*
X139879817Y-112818539D01*
X139872974Y-112824467D01*
X139869214Y-112832703D01*
X139846982Y-112846989D01*
X139827013Y-112864294D01*
X139816497Y-112866581D01*
X139810436Y-112870477D01*
X139775501Y-112875500D01*
X139701833Y-112875500D01*
X139634794Y-112855815D01*
X139614152Y-112839181D01*
X139486818Y-112711847D01*
X139453333Y-112650524D01*
X139450499Y-112624166D01*
X139450499Y-112193482D01*
X139449077Y-112184504D01*
X139435646Y-112099696D01*
X139378050Y-111986658D01*
X139378046Y-111986654D01*
X139378045Y-111986652D01*
X139288347Y-111896954D01*
X139288344Y-111896952D01*
X139288342Y-111896950D01*
X139192944Y-111848342D01*
X139175301Y-111839352D01*
X139081524Y-111824500D01*
X138618482Y-111824500D01*
X138524695Y-111839354D01*
X138480794Y-111861723D01*
X138412125Y-111874619D01*
X138347384Y-111848342D01*
X138307128Y-111791235D01*
X138300500Y-111751238D01*
X138300500Y-110575833D01*
X138320185Y-110508794D01*
X138336819Y-110488152D01*
X138378528Y-110446443D01*
X138440460Y-110384511D01*
X138480022Y-110315988D01*
X138483326Y-110303655D01*
X138519690Y-110243995D01*
X138582536Y-110213465D01*
X138583604Y-110213290D01*
X138600304Y-110210646D01*
X138713342Y-110153050D01*
X138803050Y-110063342D01*
X138860646Y-109950304D01*
X138860646Y-109950301D01*
X138865015Y-109941728D01*
X138912990Y-109890932D01*
X138980811Y-109874137D01*
X139046946Y-109896674D01*
G37*
%TD.AperFunction*%
%TA.AperFunction,Conductor*%
G36*
X131531066Y-111208072D02*
G01*
X131543488Y-111208977D01*
X131561992Y-111222867D01*
X131582862Y-111232852D01*
X131596945Y-111249105D01*
X131599366Y-111250922D01*
X131600000Y-111252630D01*
X131603100Y-111256207D01*
X131619399Y-111280601D01*
X131685100Y-111324500D01*
X131702260Y-111335966D01*
X131702264Y-111335967D01*
X131775321Y-111350499D01*
X131775324Y-111350500D01*
X132023251Y-111350500D01*
X132090290Y-111370185D01*
X132136045Y-111422989D01*
X132145989Y-111492147D01*
X132126352Y-111543393D01*
X132121937Y-111549999D01*
X132121937Y-111550000D01*
X134378063Y-111550000D01*
X134378062Y-111549999D01*
X134371401Y-111540031D01*
X134371398Y-111540027D01*
X134343552Y-111512181D01*
X134310067Y-111450858D01*
X134315051Y-111381166D01*
X134356923Y-111325233D01*
X134422387Y-111300816D01*
X134431233Y-111300500D01*
X134824167Y-111300500D01*
X134891206Y-111320185D01*
X134911848Y-111336819D01*
X135263181Y-111688152D01*
X135296666Y-111749475D01*
X135299500Y-111775833D01*
X135299500Y-112704264D01*
X135300312Y-112712927D01*
X135286970Y-112781511D01*
X135238666Y-112831995D01*
X135176853Y-112848500D01*
X134382234Y-112848500D01*
X134315195Y-112828815D01*
X134269440Y-112776011D01*
X134259496Y-112706853D01*
X134288521Y-112643297D01*
X134294552Y-112636819D01*
X134371402Y-112559967D01*
X134378062Y-112550000D01*
X132283079Y-112550000D01*
X132255831Y-112541999D01*
X132227870Y-112537031D01*
X132220249Y-112531550D01*
X132216040Y-112530315D01*
X132198825Y-112516980D01*
X132197093Y-112515376D01*
X132065257Y-112383540D01*
X132049360Y-112374362D01*
X132033636Y-112365283D01*
X131996736Y-112343979D01*
X131971259Y-112337152D01*
X131920308Y-112323500D01*
X131920306Y-112323500D01*
X131424500Y-112323500D01*
X131357461Y-112303815D01*
X131311706Y-112251011D01*
X131300500Y-112199500D01*
X131300500Y-112000272D01*
X132550000Y-112000272D01*
X132550000Y-112099728D01*
X132588060Y-112191614D01*
X132658386Y-112261940D01*
X132750272Y-112300000D01*
X133749728Y-112300000D01*
X133841614Y-112261940D01*
X133911940Y-112191614D01*
X133950000Y-112099728D01*
X133950000Y-112000272D01*
X133911940Y-111908386D01*
X133841614Y-111838060D01*
X133749728Y-111800000D01*
X132750272Y-111800000D01*
X132658386Y-111838060D01*
X132588060Y-111908386D01*
X132550000Y-112000272D01*
X131300500Y-112000272D01*
X131300500Y-111400401D01*
X131320185Y-111333362D01*
X131336935Y-111312604D01*
X131345523Y-111304038D01*
X131380601Y-111280601D01*
X131403728Y-111245986D01*
X131412435Y-111237304D01*
X131432753Y-111226244D01*
X131450509Y-111211405D01*
X131462866Y-111209852D01*
X131473803Y-111203900D01*
X131496878Y-111205581D01*
X131519834Y-111202698D01*
X131531066Y-111208072D01*
G37*
%TD.AperFunction*%
%TA.AperFunction,Conductor*%
G36*
X137455953Y-109924402D02*
G01*
X137456615Y-109924246D01*
X137488939Y-109935642D01*
X137521445Y-109946720D01*
X137521923Y-109947272D01*
X137522509Y-109947479D01*
X137547912Y-109971981D01*
X137555134Y-109981275D01*
X137596950Y-110063342D01*
X137686658Y-110153050D01*
X137689909Y-110154706D01*
X137700221Y-110167976D01*
X137710297Y-110193573D01*
X137723475Y-110217706D01*
X137722909Y-110225611D01*
X137725814Y-110232990D01*
X137720815Y-110275821D01*
X137722083Y-110276161D01*
X137719979Y-110284009D01*
X137719979Y-110284011D01*
X137704048Y-110343464D01*
X137699500Y-110360438D01*
X137699500Y-112447390D01*
X137679815Y-112514429D01*
X137663181Y-112535071D01*
X137659517Y-112538734D01*
X137659513Y-112538740D01*
X137603498Y-112635760D01*
X137603497Y-112635761D01*
X137593319Y-112673748D01*
X137583111Y-112711847D01*
X137578761Y-112728081D01*
X137570183Y-112742152D01*
X137566272Y-112758163D01*
X137552374Y-112771371D01*
X137542396Y-112787741D01*
X137527571Y-112794942D01*
X137515626Y-112806295D01*
X137496794Y-112809892D01*
X137479549Y-112818270D01*
X137463184Y-112816313D01*
X137446997Y-112819406D01*
X137429209Y-112812251D01*
X137410173Y-112809975D01*
X137396884Y-112799248D01*
X137382175Y-112793332D01*
X137365095Y-112773588D01*
X137357861Y-112767749D01*
X137354503Y-112763017D01*
X137340485Y-112738737D01*
X137329423Y-112727675D01*
X137323375Y-112719152D01*
X137315268Y-112695603D01*
X137303334Y-112673748D01*
X137301331Y-112655120D01*
X137300631Y-112653087D01*
X137300965Y-112651718D01*
X137300500Y-112647390D01*
X137300500Y-110460439D01*
X137298068Y-110451362D01*
X137280021Y-110384011D01*
X137266411Y-110360438D01*
X137240464Y-110315495D01*
X137240458Y-110315487D01*
X137233362Y-110308391D01*
X137199877Y-110247068D01*
X137204861Y-110177376D01*
X137233361Y-110133030D01*
X137303050Y-110063342D01*
X137339516Y-109991771D01*
X137339981Y-109991279D01*
X137340114Y-109990614D01*
X137363896Y-109965958D01*
X137387489Y-109940978D01*
X137388149Y-109940814D01*
X137388621Y-109940326D01*
X137421967Y-109932439D01*
X137455310Y-109924183D01*
X137455953Y-109924402D01*
G37*
%TD.AperFunction*%
%TA.AperFunction,Conductor*%
G36*
X136125785Y-110096185D02*
G01*
X136146428Y-110112820D01*
X136186653Y-110153046D01*
X136186655Y-110153047D01*
X136186658Y-110153050D01*
X136299696Y-110210646D01*
X136316293Y-110213274D01*
X136379428Y-110243201D01*
X136408816Y-110282357D01*
X136413723Y-110292644D01*
X136419979Y-110315989D01*
X136445642Y-110360438D01*
X136459539Y-110384510D01*
X136459542Y-110384514D01*
X136459543Y-110384515D01*
X136663181Y-110588152D01*
X136677884Y-110615079D01*
X136694477Y-110640898D01*
X136695368Y-110647098D01*
X136696666Y-110649475D01*
X136699500Y-110675833D01*
X136699500Y-110876208D01*
X136679815Y-110943247D01*
X136627011Y-110989002D01*
X136557853Y-110998946D01*
X136501867Y-110975979D01*
X136462882Y-110947207D01*
X136462880Y-110947206D01*
X136334700Y-110902353D01*
X136304270Y-110899500D01*
X136304266Y-110899500D01*
X135695734Y-110899500D01*
X135695730Y-110899500D01*
X135665303Y-110902353D01*
X135537116Y-110947207D01*
X135528071Y-110953883D01*
X135462440Y-110977851D01*
X135394271Y-110962531D01*
X135366761Y-110941790D01*
X135184510Y-110759539D01*
X135158471Y-110744506D01*
X135149861Y-110739535D01*
X135149860Y-110739534D01*
X135115994Y-110719981D01*
X135115993Y-110719980D01*
X135098034Y-110715168D01*
X135039562Y-110699500D01*
X135039560Y-110699500D01*
X132533142Y-110699500D01*
X132466103Y-110679815D01*
X132420348Y-110627011D01*
X132410404Y-110557853D01*
X132430040Y-110506610D01*
X132435964Y-110497743D01*
X132435964Y-110497742D01*
X132435966Y-110497740D01*
X132450500Y-110424674D01*
X132450500Y-110200500D01*
X132470185Y-110133461D01*
X132522989Y-110087706D01*
X132574500Y-110076500D01*
X136058746Y-110076500D01*
X136125785Y-110096185D01*
G37*
%TD.AperFunction*%
%TA.AperFunction,Conductor*%
G36*
X142794250Y-108233233D02*
G01*
X142850183Y-108275105D01*
X142851233Y-108276528D01*
X142871757Y-108304776D01*
X142880586Y-108316928D01*
X143003072Y-108439414D01*
X143143212Y-108541232D01*
X143297555Y-108619873D01*
X143462299Y-108673402D01*
X143633389Y-108700500D01*
X143633390Y-108700500D01*
X143806610Y-108700500D01*
X143806611Y-108700500D01*
X143977701Y-108673402D01*
X144142445Y-108619873D01*
X144296788Y-108541232D01*
X144436928Y-108439414D01*
X144498403Y-108377938D01*
X144559722Y-108344456D01*
X144629414Y-108349440D01*
X144685348Y-108391311D01*
X144709765Y-108456775D01*
X144705856Y-108497713D01*
X144699500Y-108521432D01*
X144699500Y-109506155D01*
X144679815Y-109573194D01*
X144657766Y-109598936D01*
X144644259Y-109610911D01*
X144631684Y-109616776D01*
X144585045Y-109663414D01*
X144582266Y-109665879D01*
X144553880Y-109679235D01*
X144526358Y-109694264D01*
X144522524Y-109693989D01*
X144519045Y-109695627D01*
X144487951Y-109691517D01*
X144456666Y-109689280D01*
X144452948Y-109686891D01*
X144449778Y-109686472D01*
X144441844Y-109679754D01*
X144412319Y-109660779D01*
X144368316Y-109616776D01*
X144358331Y-109612120D01*
X144259487Y-109566028D01*
X144259485Y-109566027D01*
X144259486Y-109566027D01*
X144209901Y-109559500D01*
X143790105Y-109559500D01*
X143774386Y-109561569D01*
X143740513Y-109566028D01*
X143740511Y-109566029D01*
X143740509Y-109566029D01*
X143631683Y-109616776D01*
X143587681Y-109660779D01*
X143526358Y-109694264D01*
X143456666Y-109689280D01*
X143412319Y-109660779D01*
X143368316Y-109616776D01*
X143358331Y-109612120D01*
X143259487Y-109566028D01*
X143259485Y-109566027D01*
X143259486Y-109566027D01*
X143209901Y-109559500D01*
X142790105Y-109559500D01*
X142774386Y-109561569D01*
X142740513Y-109566028D01*
X142740511Y-109566029D01*
X142740509Y-109566029D01*
X142631683Y-109616776D01*
X142587681Y-109660779D01*
X142526358Y-109694264D01*
X142456666Y-109689280D01*
X142412319Y-109660779D01*
X142368316Y-109616776D01*
X142358331Y-109612120D01*
X142259487Y-109566028D01*
X142259485Y-109566027D01*
X142259486Y-109566027D01*
X142209901Y-109559500D01*
X141790105Y-109559500D01*
X141774386Y-109561569D01*
X141740513Y-109566028D01*
X141740511Y-109566029D01*
X141740506Y-109566030D01*
X141662897Y-109602220D01*
X141593820Y-109612712D01*
X141530036Y-109584192D01*
X141491797Y-109525715D01*
X141491243Y-109455848D01*
X141522810Y-109402159D01*
X142663237Y-108261732D01*
X142724558Y-108228249D01*
X142794250Y-108233233D01*
G37*
%TD.AperFunction*%
%TA.AperFunction,Conductor*%
G36*
X133464337Y-107694185D02*
G01*
X133510092Y-107746989D01*
X133520036Y-107816147D01*
X133504682Y-107860504D01*
X133503563Y-107862444D01*
X133499398Y-107869657D01*
X133479695Y-107895332D01*
X133215489Y-108159540D01*
X133159541Y-108215487D01*
X133159535Y-108215495D01*
X133119982Y-108284004D01*
X133119979Y-108284009D01*
X133111159Y-108316927D01*
X133101468Y-108353096D01*
X133099500Y-108360439D01*
X133099500Y-109247521D01*
X133096064Y-109276509D01*
X133095690Y-109278061D01*
X133074500Y-109357147D01*
X133074500Y-109366197D01*
X133071064Y-109380488D01*
X133060683Y-109398552D01*
X133054815Y-109418539D01*
X133043629Y-109428231D01*
X133036253Y-109441068D01*
X133017753Y-109450653D01*
X133002011Y-109464294D01*
X132983765Y-109468263D01*
X132974216Y-109473211D01*
X132964985Y-109472348D01*
X132950500Y-109475500D01*
X124151833Y-109475500D01*
X124084794Y-109455815D01*
X124064152Y-109439181D01*
X122520305Y-107895334D01*
X122500599Y-107869654D01*
X122495311Y-107860494D01*
X122478843Y-107792595D01*
X122501697Y-107726569D01*
X122556620Y-107683381D01*
X122602702Y-107674500D01*
X133397298Y-107674500D01*
X133464337Y-107694185D01*
G37*
%TD.AperFunction*%
%TA.AperFunction,Conductor*%
G36*
X118122539Y-107020185D02*
G01*
X118168294Y-107072989D01*
X118179500Y-107124500D01*
X118179500Y-107686611D01*
X118184819Y-107720194D01*
X118206597Y-107857697D01*
X118206597Y-107857699D01*
X118206598Y-107857701D01*
X118260127Y-108022445D01*
X118338768Y-108176788D01*
X118440586Y-108316928D01*
X118563072Y-108439414D01*
X118703212Y-108541232D01*
X118857555Y-108619873D01*
X119022299Y-108673402D01*
X119193389Y-108700500D01*
X119193390Y-108700500D01*
X119366610Y-108700500D01*
X119366611Y-108700500D01*
X119537701Y-108673402D01*
X119702445Y-108619873D01*
X119856788Y-108541232D01*
X119960804Y-108465659D01*
X120026609Y-108442179D01*
X120094663Y-108458004D01*
X120143358Y-108508109D01*
X120157234Y-108576587D01*
X120131886Y-108641696D01*
X120121370Y-108653658D01*
X119711848Y-109063181D01*
X119650525Y-109096666D01*
X119624167Y-109099500D01*
X116474833Y-109099500D01*
X116407794Y-109079815D01*
X116387152Y-109063181D01*
X116109215Y-108785244D01*
X116075730Y-108723921D01*
X116080714Y-108654229D01*
X116122586Y-108598296D01*
X116188050Y-108573879D01*
X116253190Y-108587077D01*
X116317555Y-108619873D01*
X116482299Y-108673402D01*
X116653389Y-108700500D01*
X116653390Y-108700500D01*
X116826610Y-108700500D01*
X116826611Y-108700500D01*
X116997701Y-108673402D01*
X117162445Y-108619873D01*
X117316788Y-108541232D01*
X117456928Y-108439414D01*
X117579414Y-108316928D01*
X117681232Y-108176788D01*
X117759873Y-108022445D01*
X117813402Y-107857701D01*
X117840500Y-107686611D01*
X117840500Y-107124500D01*
X117843050Y-107115814D01*
X117841762Y-107106853D01*
X117852740Y-107082812D01*
X117860185Y-107057461D01*
X117867025Y-107051533D01*
X117870787Y-107043297D01*
X117893021Y-107029007D01*
X117912989Y-107011706D01*
X117923503Y-107009418D01*
X117929565Y-107005523D01*
X117964500Y-107000500D01*
X118055500Y-107000500D01*
X118122539Y-107020185D01*
G37*
%TD.AperFunction*%
M02*
