%TF.GenerationSoftware,KiCad,Pcbnew,9.0.6*%
%TF.CreationDate,2026-01-13T22:19:31-05:00*%
%TF.ProjectId,USB_PD_Module,5553425f-5044-45f4-9d6f-64756c652e6b,rev?*%
%TF.SameCoordinates,Original*%
%TF.FileFunction,Copper,L4,Bot*%
%TF.FilePolarity,Positive*%
%FSLAX46Y46*%
G04 Gerber Fmt 4.6, Leading zero omitted, Abs format (unit mm)*
G04 Created by KiCad (PCBNEW 9.0.6) date 2026-01-13 22:19:31*
%MOMM*%
%LPD*%
G01*
G04 APERTURE LIST*
%TA.AperFunction,ComponentPad*%
%ADD10O,1.800000X3.000000*%
%TD*%
%TA.AperFunction,ComponentPad*%
%ADD11O,1.700000X0.850000*%
%TD*%
%TA.AperFunction,ComponentPad*%
%ADD12O,2.000000X1.000000*%
%TD*%
%TA.AperFunction,ComponentPad*%
%ADD13O,2.200000X1.100000*%
%TD*%
%TA.AperFunction,ComponentPad*%
%ADD14C,0.400000*%
%TD*%
%TA.AperFunction,ViaPad*%
%ADD15C,0.250000*%
%TD*%
%TA.AperFunction,ViaPad*%
%ADD16C,0.500000*%
%TD*%
%TA.AperFunction,ViaPad*%
%ADD17C,0.450000*%
%TD*%
%TA.AperFunction,Conductor*%
%ADD18C,0.200000*%
%TD*%
%TA.AperFunction,Conductor*%
%ADD19C,0.127000*%
%TD*%
G04 APERTURE END LIST*
D10*
X101500000Y-107000000D03*
X104040000Y-107000000D03*
X106580000Y-107000000D03*
X109120000Y-107000000D03*
X111660000Y-107000000D03*
X114200000Y-107000000D03*
X116740000Y-107000000D03*
X119280000Y-107000000D03*
X143720000Y-107000000D03*
X146260000Y-107000000D03*
X148800000Y-107000000D03*
X151340000Y-107000000D03*
X153880000Y-107000000D03*
X156420000Y-107000000D03*
X158960000Y-107000000D03*
X161500000Y-107000000D03*
D11*
X127490000Y-114850000D03*
D12*
X129750000Y-112050000D03*
X133250000Y-112050000D03*
D11*
X135510000Y-114850000D03*
D13*
X131500000Y-117650000D03*
D14*
X125400000Y-111525000D03*
X124300000Y-111525000D03*
D15*
X133800000Y-108000000D03*
X146000000Y-111000000D03*
X130750000Y-115825000D03*
X133400000Y-109400000D03*
X136500000Y-117150000D03*
X117850000Y-115450000D03*
X121000000Y-116800000D03*
X132000000Y-110300000D03*
X144250000Y-112250000D03*
X136000000Y-112000000D03*
X132200000Y-113800000D03*
X132000000Y-111000000D03*
X141200000Y-107600000D03*
X147400000Y-111400000D03*
X104200000Y-110800000D03*
X145500000Y-113000000D03*
D16*
X112000000Y-117000000D03*
X159000000Y-114000000D03*
X153000000Y-119000000D03*
X105000000Y-114000000D03*
D15*
X101500000Y-118300000D03*
X132000000Y-108000000D03*
X135000000Y-110500000D03*
D16*
X156000000Y-117000000D03*
D15*
X147980000Y-113500000D03*
D16*
X93700000Y-116900000D03*
X153000000Y-111000000D03*
X150000000Y-119000000D03*
X93700000Y-110900000D03*
X114000000Y-114000000D03*
X165000000Y-120000000D03*
X122000000Y-118000000D03*
X118000000Y-108500000D03*
X156000000Y-119000000D03*
X148000000Y-109000000D03*
X150000000Y-114000000D03*
X162500000Y-117000000D03*
X153000000Y-117000000D03*
X102000000Y-120000000D03*
X102000000Y-111000000D03*
X144000000Y-109000000D03*
X156000000Y-114000000D03*
X93700000Y-119900000D03*
X114000000Y-111000000D03*
D15*
X120650000Y-114750000D03*
D16*
X150000000Y-117000000D03*
X139000000Y-117000000D03*
X150000000Y-111000000D03*
X108000000Y-117000000D03*
X156000000Y-109000000D03*
X160000000Y-120000000D03*
X168000000Y-120000000D03*
X169000000Y-110000000D03*
X159000000Y-111000000D03*
X93700000Y-107900000D03*
X156000000Y-111000000D03*
X169000000Y-116000000D03*
D15*
X137500000Y-111500000D03*
D16*
X108000000Y-111000000D03*
X139000000Y-111000000D03*
X165000000Y-108000000D03*
X93700000Y-113900000D03*
X169000000Y-113000000D03*
X129000000Y-111000000D03*
D15*
X129000000Y-108000000D03*
D16*
X126000000Y-118000000D03*
X168000000Y-108000000D03*
D15*
X126000000Y-108000000D03*
D16*
X162500000Y-120000000D03*
X117000000Y-111000000D03*
X153000000Y-109000000D03*
D15*
X139600000Y-108800000D03*
X123480000Y-116250000D03*
X146400000Y-112500000D03*
X145000000Y-113000000D03*
X147040000Y-114500000D03*
D17*
X115400000Y-114400000D03*
X139000000Y-108000000D03*
X135600000Y-108000000D03*
X142365000Y-111096849D03*
X141889594Y-113538807D03*
X142000000Y-113000000D03*
X143000000Y-111500000D03*
D16*
X130300000Y-114850000D03*
X132100000Y-114850000D03*
X132700000Y-114850000D03*
X126150000Y-113450000D03*
X126650000Y-112600000D03*
X126650000Y-113700000D03*
X130900000Y-114850000D03*
X131500000Y-114850000D03*
X126150000Y-112900000D03*
X126650000Y-113150000D03*
D17*
X97800000Y-111650000D03*
X96600000Y-111650000D03*
X102950000Y-117150000D03*
X102950000Y-116550000D03*
X102950000Y-117750000D03*
X97200000Y-111650000D03*
X96000000Y-111650000D03*
X98400000Y-111650000D03*
X102350000Y-116550000D03*
D15*
X143500000Y-113000000D03*
D17*
X137000000Y-113000000D03*
D15*
X144000000Y-113500000D03*
X122200000Y-108000000D03*
X144000000Y-113000000D03*
X143500000Y-113500000D03*
X134400000Y-109200000D03*
X117600000Y-109800000D03*
D17*
X138000000Y-112800000D03*
D15*
X147000000Y-119000000D03*
X141200000Y-114400000D03*
X145500000Y-114500000D03*
X145000000Y-114000000D03*
X147000000Y-117400000D03*
X141600000Y-115400000D03*
X144500000Y-113000000D03*
X148600000Y-119000000D03*
X144200000Y-115200000D03*
X121200000Y-112800000D03*
X126400000Y-119600000D03*
D17*
X102950000Y-118350000D03*
D15*
X139500000Y-118000000D03*
D17*
X134900000Y-117900000D03*
D15*
X131800000Y-115400000D03*
X131294594Y-113780405D03*
D17*
X131850000Y-116645937D03*
X141625333Y-118043079D03*
X135600000Y-117900000D03*
X131150000Y-116645937D03*
D15*
X131725001Y-113000000D03*
D17*
X141625333Y-117343079D03*
D15*
X143000000Y-114000000D03*
X142500000Y-116980000D03*
X143500000Y-116980000D03*
X143500000Y-114000000D03*
X166101454Y-115168161D03*
X142153400Y-115553400D03*
X142400000Y-119050000D03*
X142400000Y-118550000D03*
X166455008Y-114814607D03*
X142776777Y-115601777D03*
D16*
X104050000Y-115800000D03*
X104850000Y-115300000D03*
X116250000Y-117750000D03*
X104600000Y-115800000D03*
X116750000Y-117450000D03*
X103750000Y-115300000D03*
X116750000Y-118550000D03*
X116250000Y-118300000D03*
X104300000Y-115300000D03*
X116750000Y-118000000D03*
D18*
X133400000Y-109400000D02*
X133400000Y-110343254D01*
X129849000Y-115036811D02*
X130637189Y-115825000D01*
X129849000Y-113894254D02*
X129849000Y-115036811D01*
X130637189Y-115825000D02*
X130750000Y-115825000D01*
X133400000Y-110343254D02*
X129849000Y-113894254D01*
D19*
X121000000Y-116800000D02*
X119650000Y-115450000D01*
X119650000Y-115450000D02*
X117850000Y-115450000D01*
D18*
X139600000Y-108800000D02*
X124400000Y-108800000D01*
X124400000Y-108800000D02*
X123000000Y-110200000D01*
X123250000Y-116250000D02*
X123480000Y-116250000D01*
X123000000Y-110200000D02*
X123000000Y-116000000D01*
X123000000Y-116000000D02*
X123250000Y-116250000D01*
X139600000Y-108000000D02*
X139000000Y-108000000D01*
X148299000Y-107301000D02*
X148800000Y-107301000D01*
X123000000Y-108400000D02*
X117000000Y-114400000D01*
X135200000Y-108400000D02*
X123000000Y-108400000D01*
X142461849Y-111000000D02*
X144600000Y-111000000D01*
X141889594Y-113538807D02*
X141449997Y-113099210D01*
X117000000Y-114400000D02*
X115400000Y-114400000D01*
X141449997Y-113099210D02*
X141449997Y-112050003D01*
X142365000Y-110765000D02*
X139600000Y-108000000D01*
X142365000Y-111096849D02*
X142365000Y-111135000D01*
X142365000Y-111096849D02*
X142365000Y-110765000D01*
X135600000Y-108000000D02*
X135200000Y-108400000D01*
X142365000Y-111135000D02*
X141449997Y-112050003D01*
X144600000Y-111000000D02*
X148299000Y-107301000D01*
X142365000Y-111096849D02*
X142461849Y-111000000D01*
X149142000Y-109499000D02*
X151340000Y-107301000D01*
X143000000Y-111500000D02*
X144274322Y-111500000D01*
X142000000Y-112500000D02*
X142000000Y-113000000D01*
X144701000Y-111499000D02*
X146701000Y-109499000D01*
X143000000Y-111500000D02*
X142000000Y-112500000D01*
X144275322Y-111499000D02*
X144701000Y-111499000D01*
X146701000Y-109499000D02*
X149142000Y-109499000D01*
X144274322Y-111500000D02*
X144275322Y-111499000D01*
X145800000Y-111800000D02*
X147800000Y-109800000D01*
X151381000Y-109800000D02*
X153880000Y-107301000D01*
X143500000Y-113000000D02*
X143500000Y-112300000D01*
X144000000Y-111800000D02*
X145800000Y-111800000D01*
X147800000Y-109800000D02*
X151381000Y-109800000D01*
X143500000Y-112300000D02*
X144000000Y-111800000D01*
X122200000Y-108000000D02*
X121501000Y-107301000D01*
X121501000Y-107301000D02*
X119280000Y-107301000D01*
X144350521Y-112600000D02*
X145425678Y-112600000D01*
X144052614Y-112897907D02*
X144350521Y-112600000D01*
X153521000Y-110200000D02*
X156420000Y-107301000D01*
X147825678Y-110200000D02*
X153521000Y-110200000D01*
X144052614Y-112947386D02*
X144052614Y-112897907D01*
X144000000Y-113000000D02*
X144052614Y-112947386D01*
X145425678Y-112600000D02*
X147825678Y-110200000D01*
X116800000Y-109000000D02*
X116800000Y-107301000D01*
X117600000Y-109800000D02*
X116800000Y-109000000D01*
X116800000Y-107301000D02*
X116740000Y-107301000D01*
X142024000Y-118394255D02*
X142024000Y-119205745D01*
X141224000Y-116339291D02*
X142200000Y-117315291D01*
X141200000Y-114400000D02*
X141200000Y-114752000D01*
X142244255Y-119426000D02*
X146574000Y-119426000D01*
X142200000Y-117315291D02*
X142200000Y-118218255D01*
X141200000Y-114752000D02*
X141224000Y-114776000D01*
X141224000Y-114776000D02*
X141224000Y-116339291D01*
X142200000Y-118218255D02*
X142024000Y-118394255D01*
X146574000Y-119426000D02*
X147000000Y-119000000D01*
X142024000Y-119205745D02*
X142244255Y-119426000D01*
X104200000Y-119600000D02*
X102950000Y-118350000D01*
X126400000Y-119600000D02*
X104200000Y-119600000D01*
X139193198Y-120125000D02*
X141400118Y-117918080D01*
X132007334Y-116425000D02*
X134406802Y-116425000D01*
X131294594Y-113780405D02*
X131913189Y-114399000D01*
X134900000Y-117900000D02*
X135024999Y-118024999D01*
X134406802Y-116425000D02*
X135024999Y-117043197D01*
X135024999Y-117775001D02*
X134900000Y-117900000D01*
X135024999Y-119493197D02*
X135656802Y-120125000D01*
X133151000Y-115249000D02*
X133000000Y-115400000D01*
X132886811Y-114399000D02*
X133151000Y-114663189D01*
X141500334Y-117918080D02*
X141625333Y-118043079D01*
X133151000Y-114663189D02*
X133151000Y-115249000D01*
X135024999Y-117043197D02*
X135024999Y-117775001D01*
X135656802Y-120125000D02*
X139193198Y-120125000D01*
X135024999Y-118024999D02*
X135024999Y-119493197D01*
X133000000Y-115400000D02*
X131800000Y-115400000D01*
X131850000Y-116582334D02*
X132007334Y-116425000D01*
X131913189Y-114399000D02*
X132886811Y-114399000D01*
X131850000Y-116645937D02*
X131850000Y-116582334D01*
X141400118Y-117918080D02*
X141500334Y-117918080D01*
X134593198Y-115975000D02*
X134709099Y-116090901D01*
X131820937Y-115975000D02*
X134593198Y-115975000D01*
X131150000Y-116645937D02*
X131820937Y-115975000D01*
X141500334Y-117468078D02*
X141625333Y-117343079D01*
X139006802Y-119675000D02*
X141213724Y-117468078D01*
X135600000Y-117900000D02*
X135475001Y-118024999D01*
X135475001Y-117775001D02*
X135600000Y-117900000D01*
X134400000Y-115777354D02*
X134709099Y-116086453D01*
X135475001Y-116856803D02*
X135475001Y-117775001D01*
X134400000Y-115468255D02*
X134400000Y-115777354D01*
X135475001Y-119306803D02*
X135843198Y-119675000D01*
X135475001Y-118024999D02*
X135475001Y-119306803D01*
X134709099Y-116086453D02*
X134709099Y-116090901D01*
X141213724Y-117468078D02*
X141500334Y-117468078D01*
X135843198Y-119675000D02*
X139006802Y-119675000D01*
X131931745Y-113000000D02*
X134400000Y-115468255D01*
X134709099Y-116090901D02*
X135475001Y-116856803D01*
X131725001Y-113000000D02*
X131931745Y-113000000D01*
X143000000Y-114000000D02*
X143160000Y-114160000D01*
X143160000Y-114160000D02*
X143160000Y-116320000D01*
X143160000Y-116320000D02*
X142500000Y-116980000D01*
X143500000Y-114000000D02*
X143500000Y-116980000D01*
X142400000Y-119050000D02*
X142424999Y-119025001D01*
X145693197Y-119025001D02*
X146493198Y-118225000D01*
X162293198Y-114625000D02*
X165593648Y-114625000D01*
X142424999Y-119025001D02*
X145693197Y-119025001D01*
X146493198Y-118225000D02*
X158693198Y-118225000D01*
X166101454Y-115132806D02*
X166101454Y-115168161D01*
X165593648Y-114625000D02*
X166101454Y-115132806D01*
X158693198Y-118225000D02*
X162293198Y-114625000D01*
X145506803Y-118574999D02*
X146306802Y-117775000D01*
X146306802Y-117775000D02*
X158506802Y-117775000D01*
X142400000Y-118550000D02*
X142424999Y-118574999D01*
X162106802Y-114175000D02*
X165780046Y-114175000D01*
X166419653Y-114814607D02*
X166455008Y-114814607D01*
X142424999Y-118574999D02*
X145506803Y-118574999D01*
X158506802Y-117775000D02*
X162106802Y-114175000D01*
X165780046Y-114175000D02*
X166419653Y-114814607D01*
%TA.AperFunction,Conductor*%
G36*
X100342539Y-107020185D02*
G01*
X100388294Y-107072989D01*
X100399500Y-107124500D01*
X100399500Y-107686611D01*
X100402844Y-107707722D01*
X100425806Y-107852705D01*
X100426598Y-107857701D01*
X100480127Y-108022445D01*
X100558768Y-108176788D01*
X100660586Y-108316928D01*
X100783072Y-108439414D01*
X100923212Y-108541232D01*
X101077555Y-108619873D01*
X101242299Y-108673402D01*
X101413389Y-108700500D01*
X101413390Y-108700500D01*
X101586610Y-108700500D01*
X101586611Y-108700500D01*
X101757701Y-108673402D01*
X101922445Y-108619873D01*
X102076788Y-108541232D01*
X102216928Y-108439414D01*
X102339414Y-108316928D01*
X102441232Y-108176788D01*
X102519873Y-108022445D01*
X102573402Y-107857701D01*
X102600500Y-107686611D01*
X102600500Y-107124500D01*
X102603050Y-107115814D01*
X102601762Y-107106853D01*
X102612740Y-107082812D01*
X102620185Y-107057461D01*
X102627025Y-107051533D01*
X102630787Y-107043297D01*
X102653021Y-107029007D01*
X102672989Y-107011706D01*
X102683503Y-107009418D01*
X102689565Y-107005523D01*
X102724500Y-107000500D01*
X102815500Y-107000500D01*
X102882539Y-107020185D01*
X102928294Y-107072989D01*
X102939500Y-107124500D01*
X102939500Y-107686611D01*
X102942844Y-107707722D01*
X102965806Y-107852705D01*
X102966598Y-107857701D01*
X103020127Y-108022445D01*
X103098768Y-108176788D01*
X103200586Y-108316928D01*
X103323072Y-108439414D01*
X103463212Y-108541232D01*
X103617555Y-108619873D01*
X103782299Y-108673402D01*
X103953389Y-108700500D01*
X103953390Y-108700500D01*
X104126610Y-108700500D01*
X104126611Y-108700500D01*
X104297701Y-108673402D01*
X104462445Y-108619873D01*
X104616788Y-108541232D01*
X104756928Y-108439414D01*
X104879414Y-108316928D01*
X104981232Y-108176788D01*
X105059873Y-108022445D01*
X105113402Y-107857701D01*
X105137156Y-107707720D01*
X105167085Y-107644587D01*
X105226396Y-107607655D01*
X105296259Y-107608653D01*
X105354492Y-107647262D01*
X105382102Y-107707720D01*
X105409548Y-107881002D01*
X105467914Y-108060637D01*
X105553670Y-108228940D01*
X105664685Y-108381741D01*
X105664689Y-108381746D01*
X105798253Y-108515310D01*
X105798258Y-108515314D01*
X105951052Y-108626324D01*
X105951066Y-108626333D01*
X106080000Y-108692027D01*
X107080000Y-108692027D01*
X107208933Y-108626333D01*
X107208947Y-108626324D01*
X107361741Y-108515314D01*
X107361746Y-108515310D01*
X107495310Y-108381746D01*
X107495314Y-108381741D01*
X107606329Y-108228940D01*
X107692085Y-108060637D01*
X107732069Y-107937579D01*
X107771506Y-107879904D01*
X107835865Y-107852705D01*
X107904711Y-107864619D01*
X107956187Y-107911863D01*
X107967931Y-107937579D01*
X108007914Y-108060637D01*
X108093670Y-108228940D01*
X108204685Y-108381741D01*
X108204689Y-108381746D01*
X108338253Y-108515310D01*
X108338258Y-108515314D01*
X108491052Y-108626324D01*
X108491066Y-108626333D01*
X108620000Y-108692027D01*
X108620000Y-107500000D01*
X107905301Y-107500000D01*
X107876358Y-107515804D01*
X107806666Y-107510820D01*
X107789830Y-107500000D01*
X107080000Y-107500000D01*
X107080000Y-108692027D01*
X106080000Y-108692027D01*
X106080000Y-107233974D01*
X106139890Y-107337708D01*
X106242292Y-107440110D01*
X106367708Y-107512518D01*
X106507591Y-107550000D01*
X106652409Y-107550000D01*
X106792292Y-107512518D01*
X106917708Y-107440110D01*
X107020110Y-107337708D01*
X107092518Y-107212292D01*
X107130000Y-107072409D01*
X107130000Y-107000500D01*
X108570000Y-107000500D01*
X108570000Y-107072409D01*
X108607482Y-107212292D01*
X108679890Y-107337708D01*
X108782292Y-107440110D01*
X108907708Y-107512518D01*
X109047591Y-107550000D01*
X109192409Y-107550000D01*
X109332292Y-107512518D01*
X109457708Y-107440110D01*
X109560110Y-107337708D01*
X109620000Y-107233974D01*
X109620000Y-108692027D01*
X109748933Y-108626333D01*
X109748947Y-108626324D01*
X109901741Y-108515314D01*
X109901746Y-108515310D01*
X110035310Y-108381746D01*
X110035314Y-108381741D01*
X110146329Y-108228940D01*
X110232085Y-108060637D01*
X110290451Y-107881002D01*
X110317897Y-107707721D01*
X110347826Y-107644586D01*
X110407138Y-107607655D01*
X110477000Y-107608653D01*
X110535233Y-107647263D01*
X110562843Y-107707721D01*
X110586597Y-107857696D01*
X110586598Y-107857701D01*
X110640127Y-108022445D01*
X110718768Y-108176788D01*
X110820586Y-108316928D01*
X110943072Y-108439414D01*
X111083212Y-108541232D01*
X111237555Y-108619873D01*
X111402299Y-108673402D01*
X111573389Y-108700500D01*
X111573390Y-108700500D01*
X111746610Y-108700500D01*
X111746611Y-108700500D01*
X111917701Y-108673402D01*
X112082445Y-108619873D01*
X112236788Y-108541232D01*
X112376928Y-108439414D01*
X112499414Y-108316928D01*
X112601232Y-108176788D01*
X112679873Y-108022445D01*
X112733402Y-107857701D01*
X112760500Y-107686611D01*
X112760500Y-107124500D01*
X112763050Y-107115814D01*
X112761762Y-107106853D01*
X112772740Y-107082812D01*
X112780185Y-107057461D01*
X112787025Y-107051533D01*
X112790787Y-107043297D01*
X112813021Y-107029007D01*
X112832989Y-107011706D01*
X112843503Y-107009418D01*
X112849565Y-107005523D01*
X112884500Y-107000500D01*
X112975500Y-107000500D01*
X113042539Y-107020185D01*
X113088294Y-107072989D01*
X113099500Y-107124500D01*
X113099500Y-107686611D01*
X113102844Y-107707722D01*
X113125806Y-107852705D01*
X113126598Y-107857701D01*
X113180127Y-108022445D01*
X113258768Y-108176788D01*
X113360586Y-108316928D01*
X113483072Y-108439414D01*
X113623212Y-108541232D01*
X113777555Y-108619873D01*
X113942299Y-108673402D01*
X114113389Y-108700500D01*
X114113390Y-108700500D01*
X114286610Y-108700500D01*
X114286611Y-108700500D01*
X114457701Y-108673402D01*
X114622445Y-108619873D01*
X114776788Y-108541232D01*
X114916928Y-108439414D01*
X115039414Y-108316928D01*
X115141232Y-108176788D01*
X115219873Y-108022445D01*
X115273402Y-107857701D01*
X115300500Y-107686611D01*
X115300500Y-107124500D01*
X115303050Y-107115814D01*
X115301762Y-107106853D01*
X115312740Y-107082812D01*
X115320185Y-107057461D01*
X115327025Y-107051533D01*
X115330787Y-107043297D01*
X115353021Y-107029007D01*
X115372989Y-107011706D01*
X115383503Y-107009418D01*
X115389565Y-107005523D01*
X115424500Y-107000500D01*
X115515500Y-107000500D01*
X115582539Y-107020185D01*
X115628294Y-107072989D01*
X115639500Y-107124500D01*
X115639500Y-107686611D01*
X115642844Y-107707722D01*
X115665806Y-107852705D01*
X115666598Y-107857701D01*
X115720127Y-108022445D01*
X115798768Y-108176788D01*
X115900586Y-108316928D01*
X116023072Y-108439414D01*
X116163212Y-108541232D01*
X116227881Y-108574182D01*
X116317550Y-108619871D01*
X116317552Y-108619871D01*
X116317555Y-108619873D01*
X116413819Y-108651151D01*
X116471494Y-108690589D01*
X116498692Y-108754948D01*
X116499500Y-108769082D01*
X116499500Y-109039562D01*
X116505101Y-109060463D01*
X116519979Y-109115990D01*
X116519982Y-109115995D01*
X116559535Y-109184504D01*
X116559541Y-109184512D01*
X117279693Y-109904664D01*
X117299399Y-109930345D01*
X117339532Y-109999858D01*
X117339534Y-109999861D01*
X117339535Y-109999862D01*
X117400138Y-110060465D01*
X117400140Y-110060466D01*
X117400144Y-110060469D01*
X117468854Y-110100138D01*
X117474362Y-110103318D01*
X117557147Y-110125500D01*
X117557149Y-110125500D01*
X117642851Y-110125500D01*
X117642853Y-110125500D01*
X117725638Y-110103318D01*
X117799862Y-110060465D01*
X117860465Y-109999862D01*
X117903318Y-109925638D01*
X117925500Y-109842853D01*
X117925500Y-109757147D01*
X117903318Y-109674362D01*
X117903314Y-109674355D01*
X117860469Y-109600144D01*
X117860463Y-109600136D01*
X117799863Y-109539536D01*
X117799858Y-109539532D01*
X117730345Y-109499399D01*
X117704664Y-109479693D01*
X117136819Y-108911848D01*
X117122115Y-108884920D01*
X117105523Y-108859102D01*
X117104631Y-108852901D01*
X117103334Y-108850525D01*
X117100500Y-108824167D01*
X117100500Y-108727423D01*
X117120185Y-108660384D01*
X117168206Y-108616938D01*
X117316786Y-108541233D01*
X117316785Y-108541233D01*
X117316788Y-108541232D01*
X117456928Y-108439414D01*
X117579414Y-108316928D01*
X117681232Y-108176788D01*
X117759873Y-108022445D01*
X117813402Y-107857701D01*
X117840500Y-107686611D01*
X117840500Y-107124500D01*
X117843050Y-107115814D01*
X117841762Y-107106853D01*
X117852740Y-107082812D01*
X117860185Y-107057461D01*
X117867025Y-107051533D01*
X117870787Y-107043297D01*
X117893021Y-107029007D01*
X117912989Y-107011706D01*
X117923503Y-107009418D01*
X117929565Y-107005523D01*
X117964500Y-107000500D01*
X118055500Y-107000500D01*
X118122539Y-107020185D01*
X118168294Y-107072989D01*
X118179500Y-107124500D01*
X118179500Y-107686611D01*
X118182844Y-107707722D01*
X118205806Y-107852705D01*
X118206598Y-107857701D01*
X118260127Y-108022445D01*
X118338768Y-108176788D01*
X118440586Y-108316928D01*
X118563072Y-108439414D01*
X118703212Y-108541232D01*
X118857555Y-108619873D01*
X119022299Y-108673402D01*
X119193389Y-108700500D01*
X119193390Y-108700500D01*
X119366610Y-108700500D01*
X119366611Y-108700500D01*
X119537701Y-108673402D01*
X119702445Y-108619873D01*
X119856788Y-108541232D01*
X119996928Y-108439414D01*
X120119414Y-108316928D01*
X120221232Y-108176788D01*
X120299873Y-108022445D01*
X120353402Y-107857701D01*
X120377413Y-107706102D01*
X120407342Y-107642967D01*
X120466654Y-107606036D01*
X120499886Y-107601500D01*
X121325167Y-107601500D01*
X121392206Y-107621185D01*
X121412848Y-107637819D01*
X121879693Y-108104664D01*
X121899399Y-108130345D01*
X121939532Y-108199858D01*
X121939534Y-108199861D01*
X121939535Y-108199862D01*
X122000138Y-108260465D01*
X122000140Y-108260466D01*
X122000144Y-108260469D01*
X122071234Y-108301512D01*
X122074362Y-108303318D01*
X122157147Y-108325500D01*
X122157149Y-108325500D01*
X122242851Y-108325500D01*
X122242853Y-108325500D01*
X122325638Y-108303318D01*
X122328767Y-108301511D01*
X122331741Y-108300789D01*
X122333148Y-108300207D01*
X122333238Y-108300426D01*
X122396663Y-108285036D01*
X122462691Y-108307884D01*
X122505885Y-108362803D01*
X122512530Y-108432356D01*
X122480518Y-108494461D01*
X122478451Y-108496577D01*
X116911848Y-114063181D01*
X116850525Y-114096666D01*
X116824167Y-114099500D01*
X115752610Y-114099500D01*
X115685571Y-114079815D01*
X115664929Y-114063181D01*
X115661265Y-114059517D01*
X115661263Y-114059515D01*
X115564237Y-114003497D01*
X115456018Y-113974500D01*
X115343982Y-113974500D01*
X115235763Y-114003497D01*
X115235760Y-114003498D01*
X115138740Y-114059513D01*
X115138734Y-114059517D01*
X115059517Y-114138734D01*
X115059513Y-114138740D01*
X115003498Y-114235760D01*
X115003497Y-114235763D01*
X114974500Y-114343982D01*
X114974500Y-114456018D01*
X115003497Y-114564237D01*
X115059515Y-114661263D01*
X115138737Y-114740485D01*
X115235763Y-114796503D01*
X115343982Y-114825500D01*
X115343984Y-114825500D01*
X115456016Y-114825500D01*
X115456018Y-114825500D01*
X115564237Y-114796503D01*
X115661263Y-114740485D01*
X115664929Y-114736819D01*
X115726252Y-114703334D01*
X115752610Y-114700500D01*
X117039560Y-114700500D01*
X117039562Y-114700500D01*
X117115989Y-114680021D01*
X117184511Y-114640460D01*
X117240460Y-114584511D01*
X119067824Y-112757147D01*
X120874500Y-112757147D01*
X120874500Y-112842853D01*
X120881534Y-112869102D01*
X120896682Y-112925637D01*
X120896685Y-112925644D01*
X120939530Y-112999855D01*
X120939534Y-112999860D01*
X120939535Y-112999862D01*
X121000138Y-113060465D01*
X121000140Y-113060466D01*
X121000144Y-113060469D01*
X121074355Y-113103314D01*
X121074362Y-113103318D01*
X121157147Y-113125500D01*
X121157149Y-113125500D01*
X121242851Y-113125500D01*
X121242853Y-113125500D01*
X121325638Y-113103318D01*
X121399862Y-113060465D01*
X121460465Y-112999862D01*
X121503318Y-112925638D01*
X121525500Y-112842853D01*
X121525500Y-112757147D01*
X121503318Y-112674362D01*
X121494627Y-112659309D01*
X121460469Y-112600144D01*
X121460463Y-112600136D01*
X121399863Y-112539536D01*
X121399855Y-112539530D01*
X121325644Y-112496685D01*
X121325640Y-112496683D01*
X121325638Y-112496682D01*
X121242853Y-112474500D01*
X121157147Y-112474500D01*
X121074362Y-112496682D01*
X121074355Y-112496685D01*
X121000144Y-112539530D01*
X121000136Y-112539536D01*
X120939536Y-112600136D01*
X120939530Y-112600144D01*
X120896685Y-112674355D01*
X120896682Y-112674362D01*
X120874500Y-112757147D01*
X119067824Y-112757147D01*
X123088152Y-108736819D01*
X123149475Y-108703334D01*
X123175833Y-108700500D01*
X123775167Y-108700500D01*
X123842206Y-108720185D01*
X123887961Y-108772989D01*
X123897905Y-108842147D01*
X123868880Y-108905703D01*
X123862848Y-108912181D01*
X122759541Y-110015487D01*
X122759535Y-110015495D01*
X122719982Y-110084004D01*
X122719979Y-110084009D01*
X122708862Y-110125499D01*
X122699500Y-110160438D01*
X122699500Y-116039562D01*
X122706450Y-116065500D01*
X122719979Y-116115990D01*
X122719982Y-116115995D01*
X122759535Y-116184504D01*
X122759539Y-116184509D01*
X122759540Y-116184511D01*
X123009540Y-116434511D01*
X123065489Y-116490460D01*
X123065491Y-116490461D01*
X123065495Y-116490464D01*
X123134004Y-116530017D01*
X123134011Y-116530021D01*
X123210438Y-116550500D01*
X123289562Y-116550500D01*
X123327521Y-116550500D01*
X123359612Y-116554724D01*
X123437147Y-116575500D01*
X123437149Y-116575500D01*
X123522851Y-116575500D01*
X123522853Y-116575500D01*
X123605638Y-116553318D01*
X123679862Y-116510465D01*
X123740465Y-116449862D01*
X123783318Y-116375638D01*
X123805500Y-116292853D01*
X123805500Y-116207147D01*
X123783318Y-116124362D01*
X123778487Y-116115995D01*
X123740469Y-116050144D01*
X123740463Y-116050136D01*
X123679863Y-115989536D01*
X123679855Y-115989530D01*
X123605644Y-115946685D01*
X123605640Y-115946683D01*
X123605638Y-115946682D01*
X123522853Y-115924500D01*
X123437147Y-115924500D01*
X123429020Y-115924500D01*
X123429020Y-115922215D01*
X123371648Y-115913268D01*
X123319393Y-115866887D01*
X123300500Y-115801095D01*
X123300500Y-115275000D01*
X126477026Y-115275000D01*
X126501857Y-115312163D01*
X126602835Y-115413141D01*
X126602839Y-115413144D01*
X126721577Y-115492483D01*
X126721586Y-115492488D01*
X126853524Y-115547138D01*
X126853532Y-115547140D01*
X126993589Y-115574999D01*
X126993593Y-115575000D01*
X127091852Y-115575000D01*
X127158891Y-115594685D01*
X127204646Y-115647489D01*
X127213905Y-115709271D01*
X127214500Y-115709271D01*
X127214500Y-115713241D01*
X127214791Y-115715183D01*
X127214500Y-115717393D01*
X127214500Y-115717399D01*
X127214500Y-115842601D01*
X127246905Y-115963536D01*
X127309505Y-116071964D01*
X127398036Y-116160495D01*
X127506464Y-116223095D01*
X127627399Y-116255500D01*
X127627401Y-116255500D01*
X127752599Y-116255500D01*
X127752601Y-116255500D01*
X127873536Y-116223095D01*
X127981964Y-116160495D01*
X128070495Y-116071964D01*
X128133095Y-115963536D01*
X128165500Y-115842601D01*
X128165500Y-115717399D01*
X128148683Y-115654638D01*
X128150345Y-115584789D01*
X128189506Y-115526926D01*
X128221006Y-115507982D01*
X128258415Y-115492487D01*
X128258422Y-115492483D01*
X128377160Y-115413144D01*
X128377164Y-115413141D01*
X128478142Y-115312163D01*
X128502974Y-115275000D01*
X126477026Y-115275000D01*
X123300500Y-115275000D01*
X123300500Y-114800272D01*
X127090000Y-114800272D01*
X127090000Y-114899728D01*
X127128060Y-114991614D01*
X127198386Y-115061940D01*
X127290272Y-115100000D01*
X127689728Y-115100000D01*
X127781614Y-115061940D01*
X127851940Y-114991614D01*
X127890000Y-114899728D01*
X127890000Y-114800272D01*
X127851940Y-114708386D01*
X127781614Y-114638060D01*
X127689728Y-114600000D01*
X127290272Y-114600000D01*
X127198386Y-114638060D01*
X127128060Y-114708386D01*
X127090000Y-114800272D01*
X123300500Y-114800272D01*
X123300500Y-112840691D01*
X125699500Y-112840691D01*
X125699500Y-112959309D01*
X125730201Y-113073886D01*
X125739904Y-113090693D01*
X125752784Y-113113001D01*
X125769256Y-113180901D01*
X125752784Y-113236999D01*
X125730201Y-113276113D01*
X125728162Y-113283723D01*
X125699500Y-113390691D01*
X125699500Y-113509309D01*
X125730201Y-113623886D01*
X125789511Y-113726613D01*
X125873387Y-113810489D01*
X125976114Y-113869799D01*
X126090691Y-113900500D01*
X126090694Y-113900500D01*
X126173976Y-113900500D01*
X126241015Y-113920185D01*
X126281362Y-113962499D01*
X126289511Y-113976613D01*
X126373387Y-114060489D01*
X126476114Y-114119799D01*
X126500356Y-114126294D01*
X126560016Y-114162659D01*
X126590545Y-114225506D01*
X126582250Y-114294882D01*
X126555944Y-114333749D01*
X126501857Y-114387836D01*
X126477026Y-114425000D01*
X127065000Y-114425000D01*
X127915000Y-114425000D01*
X128502974Y-114425000D01*
X128478142Y-114387836D01*
X128377164Y-114286858D01*
X128377160Y-114286855D01*
X128258422Y-114207516D01*
X128258413Y-114207511D01*
X128126475Y-114152861D01*
X128126467Y-114152859D01*
X127986410Y-114125000D01*
X127915000Y-114125000D01*
X127915000Y-114425000D01*
X127065000Y-114425000D01*
X127065000Y-114125000D01*
X127043408Y-114103408D01*
X127009923Y-114042085D01*
X127014907Y-113972393D01*
X127023703Y-113953726D01*
X127049541Y-113908974D01*
X127069799Y-113873886D01*
X127100500Y-113759309D01*
X127100500Y-113640691D01*
X127069799Y-113526114D01*
X127047216Y-113487000D01*
X127030743Y-113419102D01*
X127047217Y-113362998D01*
X127048229Y-113361245D01*
X127069799Y-113323886D01*
X127100500Y-113209309D01*
X127100500Y-113090691D01*
X127069799Y-112976114D01*
X127047216Y-112937000D01*
X127030743Y-112869102D01*
X127047217Y-112812998D01*
X127047315Y-112812829D01*
X127069799Y-112773886D01*
X127100500Y-112659309D01*
X127100500Y-112550000D01*
X128621937Y-112550000D01*
X128628597Y-112559967D01*
X128740031Y-112671402D01*
X128871051Y-112758947D01*
X128871060Y-112758952D01*
X129016648Y-112819256D01*
X129016656Y-112819258D01*
X129171202Y-112849999D01*
X129171206Y-112850000D01*
X129250000Y-112850000D01*
X129250000Y-112550000D01*
X128621937Y-112550000D01*
X127100500Y-112550000D01*
X127100500Y-112540691D01*
X127069799Y-112426114D01*
X127010489Y-112323387D01*
X126926613Y-112239511D01*
X126823886Y-112180201D01*
X126709309Y-112149500D01*
X126590691Y-112149500D01*
X126476114Y-112180201D01*
X126476112Y-112180201D01*
X126476112Y-112180202D01*
X126373387Y-112239511D01*
X126373384Y-112239513D01*
X126289513Y-112323384D01*
X126289508Y-112323390D01*
X126252495Y-112387500D01*
X126201928Y-112435716D01*
X126145108Y-112449500D01*
X126090691Y-112449500D01*
X125976114Y-112480201D01*
X125976112Y-112480201D01*
X125976112Y-112480202D01*
X125873387Y-112539511D01*
X125873384Y-112539513D01*
X125789513Y-112623384D01*
X125789511Y-112623387D01*
X125745999Y-112698752D01*
X125730201Y-112726114D01*
X125699500Y-112840691D01*
X123300500Y-112840691D01*
X123300500Y-111993018D01*
X124114822Y-111993018D01*
X124234176Y-112025000D01*
X124365824Y-112025000D01*
X124485175Y-111993018D01*
X125214822Y-111993018D01*
X125334176Y-112025000D01*
X125465824Y-112025000D01*
X125558104Y-112000272D01*
X129050000Y-112000272D01*
X129050000Y-112099728D01*
X129088060Y-112191614D01*
X129158386Y-112261940D01*
X129250272Y-112300000D01*
X130249728Y-112300000D01*
X130341614Y-112261940D01*
X130411940Y-112191614D01*
X130450000Y-112099728D01*
X130450000Y-112000272D01*
X130411940Y-111908386D01*
X130341614Y-111838060D01*
X130249728Y-111800000D01*
X129250272Y-111800000D01*
X129158386Y-111838060D01*
X129088060Y-111908386D01*
X129050000Y-112000272D01*
X125558104Y-112000272D01*
X125585175Y-111993018D01*
X125400000Y-111807842D01*
X125214822Y-111993018D01*
X124485175Y-111993018D01*
X124300000Y-111807842D01*
X124114822Y-111993018D01*
X123300500Y-111993018D01*
X123300500Y-111459174D01*
X123800000Y-111459174D01*
X123800000Y-111590823D01*
X123831980Y-111710174D01*
X124017156Y-111524999D01*
X123997266Y-111505109D01*
X124200000Y-111505109D01*
X124200000Y-111544891D01*
X124215224Y-111581645D01*
X124243355Y-111609776D01*
X124280109Y-111625000D01*
X124319891Y-111625000D01*
X124356645Y-111609776D01*
X124384776Y-111581645D01*
X124400000Y-111544891D01*
X124400000Y-111524999D01*
X124582842Y-111524999D01*
X124768018Y-111710175D01*
X124817905Y-111696808D01*
X124882093Y-111696808D01*
X124931979Y-111710175D01*
X125117156Y-111524999D01*
X125097266Y-111505109D01*
X125300000Y-111505109D01*
X125300000Y-111544891D01*
X125315224Y-111581645D01*
X125343355Y-111609776D01*
X125380109Y-111625000D01*
X125419891Y-111625000D01*
X125456645Y-111609776D01*
X125484776Y-111581645D01*
X125500000Y-111544891D01*
X125500000Y-111524999D01*
X125682842Y-111524999D01*
X125868018Y-111710175D01*
X125900000Y-111590824D01*
X125900000Y-111549999D01*
X128621937Y-111549999D01*
X128621937Y-111550000D01*
X129250000Y-111550000D01*
X130250000Y-111550000D01*
X130878063Y-111550000D01*
X130878062Y-111549999D01*
X130871402Y-111540032D01*
X130759968Y-111428597D01*
X130628948Y-111341052D01*
X130628939Y-111341047D01*
X130483351Y-111280743D01*
X130483343Y-111280741D01*
X130328797Y-111250000D01*
X130250000Y-111250000D01*
X130250000Y-111550000D01*
X129250000Y-111550000D01*
X129250000Y-111250000D01*
X129171202Y-111250000D01*
X129016656Y-111280741D01*
X129016648Y-111280743D01*
X128871060Y-111341047D01*
X128871051Y-111341052D01*
X128740031Y-111428597D01*
X128628597Y-111540032D01*
X128621937Y-111549999D01*
X125900000Y-111549999D01*
X125900000Y-111459175D01*
X125868018Y-111339822D01*
X125682842Y-111524999D01*
X125500000Y-111524999D01*
X125500000Y-111505109D01*
X125484776Y-111468355D01*
X125456645Y-111440224D01*
X125419891Y-111425000D01*
X125380109Y-111425000D01*
X125343355Y-111440224D01*
X125315224Y-111468355D01*
X125300000Y-111505109D01*
X125097266Y-111505109D01*
X124931979Y-111339822D01*
X124882092Y-111353190D01*
X124817906Y-111353190D01*
X124768018Y-111339822D01*
X124582842Y-111524999D01*
X124400000Y-111524999D01*
X124400000Y-111505109D01*
X124384776Y-111468355D01*
X124356645Y-111440224D01*
X124319891Y-111425000D01*
X124280109Y-111425000D01*
X124243355Y-111440224D01*
X124215224Y-111468355D01*
X124200000Y-111505109D01*
X123997266Y-111505109D01*
X123831979Y-111339822D01*
X123800000Y-111459174D01*
X123300500Y-111459174D01*
X123300500Y-111056979D01*
X124114822Y-111056979D01*
X124299999Y-111242156D01*
X124485174Y-111056980D01*
X124485170Y-111056979D01*
X125214822Y-111056979D01*
X125399999Y-111242156D01*
X125585174Y-111056980D01*
X125465823Y-111025000D01*
X125334174Y-111025000D01*
X125214822Y-111056979D01*
X124485170Y-111056979D01*
X124365823Y-111025000D01*
X124234174Y-111025000D01*
X124114822Y-111056979D01*
X123300500Y-111056979D01*
X123300500Y-110375833D01*
X123320185Y-110308794D01*
X123336819Y-110288152D01*
X124488152Y-109136819D01*
X124549475Y-109103334D01*
X124575833Y-109100500D01*
X132983119Y-109100500D01*
X133050158Y-109120185D01*
X133095913Y-109172989D01*
X133105857Y-109242147D01*
X133097681Y-109271951D01*
X133096682Y-109274362D01*
X133074500Y-109357147D01*
X133074500Y-109442852D01*
X133095275Y-109520387D01*
X133099500Y-109552480D01*
X133099500Y-110167421D01*
X133079815Y-110234460D01*
X133063181Y-110255102D01*
X132469050Y-110849232D01*
X132407727Y-110882717D01*
X132338035Y-110877733D01*
X132287248Y-110842281D01*
X132279747Y-110833536D01*
X132260465Y-110800138D01*
X132199862Y-110739535D01*
X132198392Y-110738686D01*
X132191568Y-110730730D01*
X132179082Y-110703021D01*
X132164523Y-110676358D01*
X132164871Y-110671484D01*
X132162864Y-110667029D01*
X132167339Y-110636979D01*
X132169507Y-110606666D01*
X132172561Y-110601913D01*
X132173156Y-110597921D01*
X132180572Y-110589448D01*
X132198008Y-110562319D01*
X132223508Y-110536819D01*
X132260465Y-110499862D01*
X132303318Y-110425638D01*
X132325500Y-110342853D01*
X132325500Y-110257147D01*
X132303318Y-110174362D01*
X132262301Y-110103318D01*
X132260469Y-110100144D01*
X132260463Y-110100136D01*
X132199863Y-110039536D01*
X132199855Y-110039530D01*
X132125644Y-109996685D01*
X132125640Y-109996683D01*
X132125638Y-109996682D01*
X132042853Y-109974500D01*
X131957147Y-109974500D01*
X131874362Y-109996682D01*
X131874355Y-109996685D01*
X131800144Y-110039530D01*
X131800136Y-110039536D01*
X131739536Y-110100136D01*
X131739530Y-110100144D01*
X131696685Y-110174355D01*
X131696682Y-110174362D01*
X131674500Y-110257147D01*
X131674500Y-110342853D01*
X131685208Y-110382814D01*
X131696682Y-110425637D01*
X131696685Y-110425644D01*
X131739530Y-110499855D01*
X131739536Y-110499863D01*
X131801992Y-110562319D01*
X131835477Y-110623642D01*
X131830493Y-110693334D01*
X131801992Y-110737681D01*
X131739536Y-110800136D01*
X131739530Y-110800144D01*
X131696685Y-110874355D01*
X131696682Y-110874362D01*
X131674500Y-110957147D01*
X131674500Y-111042853D01*
X131693737Y-111114645D01*
X131696682Y-111125637D01*
X131696685Y-111125644D01*
X131739530Y-111199855D01*
X131739534Y-111199860D01*
X131739535Y-111199862D01*
X131800138Y-111260465D01*
X131823551Y-111273982D01*
X131871765Y-111324546D01*
X131884990Y-111393153D01*
X131859023Y-111458019D01*
X131849232Y-111469050D01*
X130804602Y-112513681D01*
X130743279Y-112547166D01*
X130716921Y-112550000D01*
X130250000Y-112550000D01*
X130250000Y-112850000D01*
X130271460Y-112871460D01*
X130304945Y-112932783D01*
X130299961Y-113002475D01*
X130271460Y-113046822D01*
X129664489Y-113653794D01*
X129608541Y-113709741D01*
X129608535Y-113709749D01*
X129568982Y-113778258D01*
X129568979Y-113778263D01*
X129560344Y-113810489D01*
X129548500Y-113854692D01*
X129548500Y-115076373D01*
X129568979Y-115152800D01*
X129600689Y-115207723D01*
X129600692Y-115207728D01*
X129608539Y-115221322D01*
X129608541Y-115221324D01*
X130034291Y-115647073D01*
X130452678Y-116065460D01*
X130521201Y-116105022D01*
X130597627Y-116125500D01*
X130597634Y-116125500D01*
X130597822Y-116125525D01*
X130618338Y-116127260D01*
X130624283Y-116128272D01*
X130624362Y-116128318D01*
X130707147Y-116150500D01*
X130754809Y-116150500D01*
X130765144Y-116152260D01*
X130787499Y-116163177D01*
X130811366Y-116170185D01*
X130818345Y-116178240D01*
X130827927Y-116182919D01*
X130840832Y-116204191D01*
X130857121Y-116222989D01*
X130858638Y-116233540D01*
X130864168Y-116242655D01*
X130863524Y-116267522D01*
X130867065Y-116292147D01*
X130862635Y-116301845D01*
X130862360Y-116312501D01*
X130848375Y-116333070D01*
X130838040Y-116355703D01*
X130832008Y-116362181D01*
X130809517Y-116384671D01*
X130809513Y-116384677D01*
X130753498Y-116481697D01*
X130753497Y-116481700D01*
X130724500Y-116589919D01*
X130724500Y-116701954D01*
X130725639Y-116706205D01*
X130725550Y-116709929D01*
X130725561Y-116710011D01*
X130725548Y-116710012D01*
X130723974Y-116776055D01*
X130684810Y-116833916D01*
X130653317Y-116852856D01*
X130547370Y-116896741D01*
X130408160Y-116989758D01*
X130408152Y-116989764D01*
X130289763Y-117108153D01*
X130261803Y-117150000D01*
X132738197Y-117150000D01*
X132710236Y-117108153D01*
X132591846Y-116989763D01*
X132536231Y-116952603D01*
X132491425Y-116898991D01*
X132482718Y-116829666D01*
X132512872Y-116766638D01*
X132572315Y-116729918D01*
X132605121Y-116725500D01*
X134230969Y-116725500D01*
X134298008Y-116745185D01*
X134318650Y-116761819D01*
X134688180Y-117131349D01*
X134702883Y-117158276D01*
X134719476Y-117184095D01*
X134720367Y-117190295D01*
X134721665Y-117192672D01*
X134724499Y-117219030D01*
X134724499Y-117438408D01*
X134704814Y-117505447D01*
X134662502Y-117545794D01*
X134638737Y-117559515D01*
X134638734Y-117559517D01*
X134559517Y-117638734D01*
X134559513Y-117638740D01*
X134503498Y-117735760D01*
X134503497Y-117735763D01*
X134474500Y-117843982D01*
X134474500Y-117956018D01*
X134503497Y-118064237D01*
X134559515Y-118161263D01*
X134559517Y-118161265D01*
X134638737Y-118240485D01*
X134662498Y-118254203D01*
X134710714Y-118304770D01*
X134724499Y-118361591D01*
X134724499Y-119532759D01*
X134744978Y-119609186D01*
X134760133Y-119635434D01*
X134760134Y-119635438D01*
X134760135Y-119635438D01*
X134778047Y-119666464D01*
X134784538Y-119677706D01*
X134784540Y-119677709D01*
X135295150Y-120188319D01*
X135328635Y-120249642D01*
X135323651Y-120319334D01*
X135281779Y-120375267D01*
X135216315Y-120399684D01*
X135207469Y-120400000D01*
X93124500Y-120400000D01*
X93057461Y-120380315D01*
X93011706Y-120327511D01*
X93000500Y-120276000D01*
X93000500Y-116493982D01*
X101924500Y-116493982D01*
X101924500Y-116606018D01*
X101953497Y-116714237D01*
X102009515Y-116811263D01*
X102088737Y-116890485D01*
X102185763Y-116946503D01*
X102293982Y-116975500D01*
X102293984Y-116975500D01*
X102400500Y-116975500D01*
X102467539Y-116995185D01*
X102513294Y-117047989D01*
X102524500Y-117099500D01*
X102524500Y-117206018D01*
X102549549Y-117299500D01*
X102553497Y-117314236D01*
X102553498Y-117314239D01*
X102596084Y-117388000D01*
X102612557Y-117455900D01*
X102596084Y-117512000D01*
X102553498Y-117585760D01*
X102553497Y-117585763D01*
X102524500Y-117693982D01*
X102524500Y-117806018D01*
X102549683Y-117900000D01*
X102553497Y-117914236D01*
X102553498Y-117914239D01*
X102596084Y-117988000D01*
X102612557Y-118055900D01*
X102596084Y-118112000D01*
X102553498Y-118185760D01*
X102553497Y-118185763D01*
X102524500Y-118293982D01*
X102524500Y-118406018D01*
X102553497Y-118514237D01*
X102609515Y-118611263D01*
X102688737Y-118690485D01*
X102785763Y-118746503D01*
X102893982Y-118775500D01*
X102899167Y-118775500D01*
X102966206Y-118795185D01*
X102986848Y-118811819D01*
X103959540Y-119784511D01*
X104015489Y-119840460D01*
X104015491Y-119840461D01*
X104015495Y-119840464D01*
X104084004Y-119880017D01*
X104084011Y-119880021D01*
X104160438Y-119900500D01*
X126247521Y-119900500D01*
X126279612Y-119904724D01*
X126357147Y-119925500D01*
X126357149Y-119925500D01*
X126442851Y-119925500D01*
X126442853Y-119925500D01*
X126525638Y-119903318D01*
X126599862Y-119860465D01*
X126660465Y-119799862D01*
X126703318Y-119725638D01*
X126725500Y-119642853D01*
X126725500Y-119557147D01*
X126703318Y-119474362D01*
X126703314Y-119474355D01*
X126660469Y-119400144D01*
X126660463Y-119400136D01*
X126599863Y-119339536D01*
X126599855Y-119339530D01*
X126525644Y-119296685D01*
X126525640Y-119296683D01*
X126525638Y-119296682D01*
X126442853Y-119274500D01*
X126357147Y-119274500D01*
X126279612Y-119295275D01*
X126247521Y-119299500D01*
X104375833Y-119299500D01*
X104308794Y-119279815D01*
X104288152Y-119263181D01*
X103411819Y-118386848D01*
X103378334Y-118325525D01*
X103375500Y-118299167D01*
X103375500Y-118293984D01*
X103375500Y-118293982D01*
X103346503Y-118185763D01*
X103303913Y-118111996D01*
X103287442Y-118044101D01*
X103303913Y-117988004D01*
X103346503Y-117914237D01*
X103375500Y-117806018D01*
X103375500Y-117693982D01*
X103374618Y-117690691D01*
X115799500Y-117690691D01*
X115799500Y-117809309D01*
X115830201Y-117923886D01*
X115839904Y-117940693D01*
X115852784Y-117963001D01*
X115869256Y-118030901D01*
X115852784Y-118086999D01*
X115830201Y-118126113D01*
X115823801Y-118150000D01*
X115799500Y-118240691D01*
X115799500Y-118359309D01*
X115830201Y-118473886D01*
X115889511Y-118576613D01*
X115973387Y-118660489D01*
X116076114Y-118719799D01*
X116190691Y-118750500D01*
X116190694Y-118750500D01*
X116273976Y-118750500D01*
X116341015Y-118770185D01*
X116381362Y-118812499D01*
X116389511Y-118826613D01*
X116473387Y-118910489D01*
X116576114Y-118969799D01*
X116690691Y-119000500D01*
X116690694Y-119000500D01*
X116809306Y-119000500D01*
X116809309Y-119000500D01*
X116923886Y-118969799D01*
X117026613Y-118910489D01*
X117110489Y-118826613D01*
X117169799Y-118723886D01*
X117200500Y-118609309D01*
X117200500Y-118490691D01*
X117169799Y-118376114D01*
X117147216Y-118337000D01*
X117146401Y-118333640D01*
X117144030Y-118331122D01*
X117138222Y-118299928D01*
X117130743Y-118269102D01*
X117131686Y-118264827D01*
X117131241Y-118262433D01*
X117134319Y-118252906D01*
X117139779Y-118228187D01*
X117142977Y-118220341D01*
X117169799Y-118173886D01*
X117176199Y-118150000D01*
X130261803Y-118150000D01*
X130289763Y-118191846D01*
X130408152Y-118310235D01*
X130408160Y-118310241D01*
X130547371Y-118403259D01*
X130702063Y-118467334D01*
X130702071Y-118467336D01*
X130866277Y-118499999D01*
X130866280Y-118500000D01*
X131000000Y-118500000D01*
X132000000Y-118500000D01*
X132133720Y-118500000D01*
X132133722Y-118499999D01*
X132297928Y-118467336D01*
X132297936Y-118467334D01*
X132452627Y-118403259D01*
X132452628Y-118403259D01*
X132591839Y-118310241D01*
X132591847Y-118310235D01*
X132710236Y-118191846D01*
X132738197Y-118150000D01*
X132000000Y-118150000D01*
X132000000Y-118500000D01*
X131000000Y-118500000D01*
X131000000Y-118150000D01*
X130261803Y-118150000D01*
X117176199Y-118150000D01*
X117200500Y-118059309D01*
X117200500Y-117940691D01*
X117169799Y-117826114D01*
X117147216Y-117787000D01*
X117130743Y-117719102D01*
X117147217Y-117662998D01*
X117169799Y-117623886D01*
X117176126Y-117600272D01*
X130600000Y-117600272D01*
X130600000Y-117699728D01*
X130638060Y-117791614D01*
X130708386Y-117861940D01*
X130800272Y-117900000D01*
X132199728Y-117900000D01*
X132291614Y-117861940D01*
X132361940Y-117791614D01*
X132400000Y-117699728D01*
X132400000Y-117600272D01*
X132361940Y-117508386D01*
X132291614Y-117438060D01*
X132199728Y-117400000D01*
X130800272Y-117400000D01*
X130708386Y-117438060D01*
X130638060Y-117508386D01*
X130600000Y-117600272D01*
X117176126Y-117600272D01*
X117200500Y-117509309D01*
X117200500Y-117390691D01*
X117169799Y-117276114D01*
X117110489Y-117173387D01*
X117026613Y-117089511D01*
X116923886Y-117030201D01*
X116809309Y-116999500D01*
X116690691Y-116999500D01*
X116576114Y-117030201D01*
X116576112Y-117030201D01*
X116576112Y-117030202D01*
X116473387Y-117089511D01*
X116473384Y-117089513D01*
X116389513Y-117173384D01*
X116389508Y-117173390D01*
X116352495Y-117237500D01*
X116301928Y-117285716D01*
X116245108Y-117299500D01*
X116190691Y-117299500D01*
X116076114Y-117330201D01*
X116076112Y-117330201D01*
X116076112Y-117330202D01*
X115973387Y-117389511D01*
X115973384Y-117389513D01*
X115889513Y-117473384D01*
X115889511Y-117473387D01*
X115839785Y-117559515D01*
X115830201Y-117576114D01*
X115799500Y-117690691D01*
X103374618Y-117690691D01*
X103346503Y-117585763D01*
X103298856Y-117503236D01*
X103295288Y-117493781D01*
X103293391Y-117468622D01*
X103287442Y-117444101D01*
X103290704Y-117432989D01*
X103290035Y-117424109D01*
X103297201Y-117410863D01*
X103303913Y-117388004D01*
X103346503Y-117314237D01*
X103375500Y-117206018D01*
X103375500Y-117093982D01*
X103346503Y-116985763D01*
X103303913Y-116911996D01*
X103287442Y-116844101D01*
X103303913Y-116788004D01*
X103346503Y-116714237D01*
X103375500Y-116606018D01*
X103375500Y-116493982D01*
X103346503Y-116385763D01*
X103290485Y-116288737D01*
X103211263Y-116209515D01*
X103126358Y-116160495D01*
X103114239Y-116153498D01*
X103114238Y-116153497D01*
X103114237Y-116153497D01*
X103006018Y-116124500D01*
X102893982Y-116124500D01*
X102785763Y-116153497D01*
X102785760Y-116153498D01*
X102712000Y-116196084D01*
X102644100Y-116212557D01*
X102588000Y-116196084D01*
X102514239Y-116153498D01*
X102514238Y-116153497D01*
X102514237Y-116153497D01*
X102406018Y-116124500D01*
X102293982Y-116124500D01*
X102185763Y-116153497D01*
X102185760Y-116153498D01*
X102088740Y-116209513D01*
X102088734Y-116209517D01*
X102009517Y-116288734D01*
X102009513Y-116288740D01*
X101953498Y-116385760D01*
X101953497Y-116385763D01*
X101924500Y-116493982D01*
X93000500Y-116493982D01*
X93000500Y-115240691D01*
X103299500Y-115240691D01*
X103299500Y-115359309D01*
X103330201Y-115473886D01*
X103389511Y-115576613D01*
X103473387Y-115660489D01*
X103473388Y-115660490D01*
X103473390Y-115660491D01*
X103537500Y-115697505D01*
X103585716Y-115748072D01*
X103599500Y-115804892D01*
X103599500Y-115859309D01*
X103630201Y-115973886D01*
X103689511Y-116076613D01*
X103773387Y-116160489D01*
X103876114Y-116219799D01*
X103990691Y-116250500D01*
X103990694Y-116250500D01*
X104109306Y-116250500D01*
X104109309Y-116250500D01*
X104223886Y-116219799D01*
X104262999Y-116197216D01*
X104330898Y-116180743D01*
X104387000Y-116197216D01*
X104426114Y-116219799D01*
X104540691Y-116250500D01*
X104540694Y-116250500D01*
X104659306Y-116250500D01*
X104659309Y-116250500D01*
X104773886Y-116219799D01*
X104876613Y-116160489D01*
X104960489Y-116076613D01*
X105019799Y-115973886D01*
X105050500Y-115859309D01*
X105050500Y-115776024D01*
X105070185Y-115708985D01*
X105112502Y-115668636D01*
X105116559Y-115666293D01*
X105126613Y-115660489D01*
X105210489Y-115576613D01*
X105269799Y-115473886D01*
X105300500Y-115359309D01*
X105300500Y-115240691D01*
X105269799Y-115126114D01*
X105210489Y-115023387D01*
X105126613Y-114939511D01*
X105023886Y-114880201D01*
X104909309Y-114849500D01*
X104790691Y-114849500D01*
X104721690Y-114867989D01*
X104676113Y-114880201D01*
X104636999Y-114902784D01*
X104569099Y-114919256D01*
X104513001Y-114902784D01*
X104473886Y-114880201D01*
X104473887Y-114880201D01*
X104428310Y-114867989D01*
X104359309Y-114849500D01*
X104240691Y-114849500D01*
X104171690Y-114867989D01*
X104126113Y-114880201D01*
X104086999Y-114902784D01*
X104019099Y-114919256D01*
X103963001Y-114902784D01*
X103923886Y-114880201D01*
X103923887Y-114880201D01*
X103878310Y-114867989D01*
X103809309Y-114849500D01*
X103690691Y-114849500D01*
X103576114Y-114880201D01*
X103576112Y-114880201D01*
X103576112Y-114880202D01*
X103473387Y-114939511D01*
X103473384Y-114939513D01*
X103389513Y-115023384D01*
X103389511Y-115023387D01*
X103332952Y-115121350D01*
X103330201Y-115126114D01*
X103299500Y-115240691D01*
X93000500Y-115240691D01*
X93000500Y-114405513D01*
X108799500Y-114405513D01*
X108799500Y-114594486D01*
X108829059Y-114781118D01*
X108887454Y-114960836D01*
X108945660Y-115075070D01*
X108973240Y-115129199D01*
X109084310Y-115282073D01*
X109217927Y-115415690D01*
X109370801Y-115526760D01*
X109427179Y-115555486D01*
X109539163Y-115612545D01*
X109539165Y-115612545D01*
X109539168Y-115612547D01*
X109608908Y-115635207D01*
X109718881Y-115670940D01*
X109905514Y-115700500D01*
X109905519Y-115700500D01*
X110094486Y-115700500D01*
X110281118Y-115670940D01*
X110288209Y-115668636D01*
X110460832Y-115612547D01*
X110629199Y-115526760D01*
X110782073Y-115415690D01*
X110790616Y-115407147D01*
X117524500Y-115407147D01*
X117524500Y-115492853D01*
X117543708Y-115564536D01*
X117546682Y-115575637D01*
X117546685Y-115575644D01*
X117589530Y-115649855D01*
X117589534Y-115649860D01*
X117589535Y-115649862D01*
X117650138Y-115710465D01*
X117650140Y-115710466D01*
X117650144Y-115710469D01*
X117719916Y-115750751D01*
X117724362Y-115753318D01*
X117807147Y-115775500D01*
X117807149Y-115775500D01*
X117892851Y-115775500D01*
X117892853Y-115775500D01*
X117975638Y-115753318D01*
X118014964Y-115730612D01*
X118076964Y-115714000D01*
X119489286Y-115714000D01*
X119556325Y-115733685D01*
X119576967Y-115750319D01*
X120652834Y-116826186D01*
X120684927Y-116881771D01*
X120696681Y-116925635D01*
X120696685Y-116925644D01*
X120739530Y-116999855D01*
X120739534Y-116999860D01*
X120739535Y-116999862D01*
X120800138Y-117060465D01*
X120800140Y-117060466D01*
X120800144Y-117060469D01*
X120850447Y-117089511D01*
X120874362Y-117103318D01*
X120957147Y-117125500D01*
X120957149Y-117125500D01*
X121042851Y-117125500D01*
X121042853Y-117125500D01*
X121125638Y-117103318D01*
X121199862Y-117060465D01*
X121260465Y-116999862D01*
X121303318Y-116925638D01*
X121325500Y-116842853D01*
X121325500Y-116757147D01*
X121303318Y-116674362D01*
X121263860Y-116606018D01*
X121260469Y-116600144D01*
X121260463Y-116600136D01*
X121199863Y-116539536D01*
X121199855Y-116539530D01*
X121125644Y-116496685D01*
X121125640Y-116496683D01*
X121125638Y-116496682D01*
X121125636Y-116496681D01*
X121125635Y-116496681D01*
X121081771Y-116484927D01*
X121026186Y-116452834D01*
X119799545Y-115226193D01*
X119799544Y-115226192D01*
X119702513Y-115186000D01*
X118076964Y-115186000D01*
X118014964Y-115169387D01*
X118006643Y-115164583D01*
X117985329Y-115152277D01*
X117975640Y-115146683D01*
X117975639Y-115146682D01*
X117975638Y-115146682D01*
X117892853Y-115124500D01*
X117807147Y-115124500D01*
X117724362Y-115146682D01*
X117724355Y-115146685D01*
X117650144Y-115189530D01*
X117650136Y-115189536D01*
X117589536Y-115250136D01*
X117589530Y-115250144D01*
X117546685Y-115324355D01*
X117546682Y-115324362D01*
X117524500Y-115407147D01*
X110790616Y-115407147D01*
X110915690Y-115282073D01*
X111026760Y-115129199D01*
X111112547Y-114960832D01*
X111170940Y-114781118D01*
X111172620Y-114770513D01*
X111200500Y-114594486D01*
X111200500Y-114405513D01*
X111170940Y-114218881D01*
X111136711Y-114113536D01*
X111112547Y-114039168D01*
X111112545Y-114039165D01*
X111112545Y-114039163D01*
X111059237Y-113934541D01*
X111026760Y-113870801D01*
X110915690Y-113717927D01*
X110782073Y-113584310D01*
X110629199Y-113473240D01*
X110597615Y-113457147D01*
X110460836Y-113387454D01*
X110281118Y-113329059D01*
X110094486Y-113299500D01*
X110094481Y-113299500D01*
X109905519Y-113299500D01*
X109905514Y-113299500D01*
X109718881Y-113329059D01*
X109539163Y-113387454D01*
X109370800Y-113473240D01*
X109283579Y-113536610D01*
X109217927Y-113584310D01*
X109217925Y-113584312D01*
X109217924Y-113584312D01*
X109084312Y-113717924D01*
X109084312Y-113717925D01*
X109084310Y-113717927D01*
X109044935Y-113772122D01*
X108973240Y-113870800D01*
X108887454Y-114039163D01*
X108829059Y-114218881D01*
X108799500Y-114405513D01*
X93000500Y-114405513D01*
X93000500Y-111593982D01*
X95574500Y-111593982D01*
X95574500Y-111706018D01*
X95603497Y-111814237D01*
X95659515Y-111911263D01*
X95738737Y-111990485D01*
X95835763Y-112046503D01*
X95943982Y-112075500D01*
X95943984Y-112075500D01*
X96056016Y-112075500D01*
X96056018Y-112075500D01*
X96164237Y-112046503D01*
X96238003Y-112003913D01*
X96305899Y-111987442D01*
X96361995Y-112003913D01*
X96435763Y-112046503D01*
X96543982Y-112075500D01*
X96543984Y-112075500D01*
X96656016Y-112075500D01*
X96656018Y-112075500D01*
X96764237Y-112046503D01*
X96838003Y-112003913D01*
X96905899Y-111987442D01*
X96961995Y-112003913D01*
X97035763Y-112046503D01*
X97143982Y-112075500D01*
X97143984Y-112075500D01*
X97256016Y-112075500D01*
X97256018Y-112075500D01*
X97364237Y-112046503D01*
X97438003Y-112003913D01*
X97505899Y-111987442D01*
X97561995Y-112003913D01*
X97635763Y-112046503D01*
X97743982Y-112075500D01*
X97743984Y-112075500D01*
X97856016Y-112075500D01*
X97856018Y-112075500D01*
X97964237Y-112046503D01*
X98038003Y-112003913D01*
X98105899Y-111987442D01*
X98161995Y-112003913D01*
X98235763Y-112046503D01*
X98343982Y-112075500D01*
X98343984Y-112075500D01*
X98456016Y-112075500D01*
X98456018Y-112075500D01*
X98564237Y-112046503D01*
X98661263Y-111990485D01*
X98740485Y-111911263D01*
X98796503Y-111814237D01*
X98825500Y-111706018D01*
X98825500Y-111593982D01*
X98796503Y-111485763D01*
X98740485Y-111388737D01*
X98661263Y-111309515D01*
X98576306Y-111260465D01*
X98564239Y-111253498D01*
X98564238Y-111253497D01*
X98564237Y-111253497D01*
X98456018Y-111224500D01*
X98343982Y-111224500D01*
X98235763Y-111253497D01*
X98235760Y-111253498D01*
X98162000Y-111296084D01*
X98094100Y-111312557D01*
X98038000Y-111296084D01*
X97964239Y-111253498D01*
X97964238Y-111253497D01*
X97964237Y-111253497D01*
X97856018Y-111224500D01*
X97743982Y-111224500D01*
X97635763Y-111253497D01*
X97635760Y-111253498D01*
X97562000Y-111296084D01*
X97494100Y-111312557D01*
X97438000Y-111296084D01*
X97364239Y-111253498D01*
X97364238Y-111253497D01*
X97364237Y-111253497D01*
X97256018Y-111224500D01*
X97143982Y-111224500D01*
X97035763Y-111253497D01*
X97035760Y-111253498D01*
X96962000Y-111296084D01*
X96894100Y-111312557D01*
X96838000Y-111296084D01*
X96764239Y-111253498D01*
X96764238Y-111253497D01*
X96764237Y-111253497D01*
X96656018Y-111224500D01*
X96543982Y-111224500D01*
X96435763Y-111253497D01*
X96435760Y-111253498D01*
X96362000Y-111296084D01*
X96294100Y-111312557D01*
X96238000Y-111296084D01*
X96164239Y-111253498D01*
X96164238Y-111253497D01*
X96164237Y-111253497D01*
X96056018Y-111224500D01*
X95943982Y-111224500D01*
X95835763Y-111253497D01*
X95835760Y-111253498D01*
X95738740Y-111309513D01*
X95738734Y-111309517D01*
X95659517Y-111388734D01*
X95659513Y-111388740D01*
X95603498Y-111485760D01*
X95603497Y-111485763D01*
X95574500Y-111593982D01*
X93000500Y-111593982D01*
X93000500Y-110757147D01*
X103874500Y-110757147D01*
X103874500Y-110842853D01*
X103885182Y-110882717D01*
X103896682Y-110925637D01*
X103896685Y-110925644D01*
X103939530Y-110999855D01*
X103939534Y-110999860D01*
X103939535Y-110999862D01*
X104000138Y-111060465D01*
X104000140Y-111060466D01*
X104000144Y-111060469D01*
X104041191Y-111084167D01*
X104074362Y-111103318D01*
X104157147Y-111125500D01*
X104157149Y-111125500D01*
X104242851Y-111125500D01*
X104242853Y-111125500D01*
X104325638Y-111103318D01*
X104399862Y-111060465D01*
X104460465Y-110999862D01*
X104503318Y-110925638D01*
X104525500Y-110842853D01*
X104525500Y-110757147D01*
X104503318Y-110674362D01*
X104488682Y-110649011D01*
X104460469Y-110600144D01*
X104460463Y-110600136D01*
X104399863Y-110539536D01*
X104399855Y-110539530D01*
X104325644Y-110496685D01*
X104325640Y-110496683D01*
X104325638Y-110496682D01*
X104242853Y-110474500D01*
X104157147Y-110474500D01*
X104074362Y-110496682D01*
X104074355Y-110496685D01*
X104000144Y-110539530D01*
X104000136Y-110539536D01*
X103939536Y-110600136D01*
X103939530Y-110600144D01*
X103896685Y-110674355D01*
X103896682Y-110674362D01*
X103874500Y-110757147D01*
X93000500Y-110757147D01*
X93000500Y-107124500D01*
X93020185Y-107057461D01*
X93072989Y-107011706D01*
X93124500Y-107000500D01*
X100275500Y-107000500D01*
X100342539Y-107020185D01*
G37*
%TD.AperFunction*%
%TA.AperFunction,Conductor*%
G36*
X157802539Y-107020185D02*
G01*
X157848294Y-107072989D01*
X157859500Y-107124500D01*
X157859500Y-107686611D01*
X157862844Y-107707722D01*
X157885806Y-107852705D01*
X157886598Y-107857701D01*
X157940127Y-108022445D01*
X158018768Y-108176788D01*
X158120586Y-108316928D01*
X158243072Y-108439414D01*
X158383212Y-108541232D01*
X158537555Y-108619873D01*
X158702299Y-108673402D01*
X158873389Y-108700500D01*
X158873390Y-108700500D01*
X159046610Y-108700500D01*
X159046611Y-108700500D01*
X159217701Y-108673402D01*
X159382445Y-108619873D01*
X159536788Y-108541232D01*
X159676928Y-108439414D01*
X159799414Y-108316928D01*
X159901232Y-108176788D01*
X159979873Y-108022445D01*
X160033402Y-107857701D01*
X160060500Y-107686611D01*
X160060500Y-107124500D01*
X160063050Y-107115814D01*
X160061762Y-107106853D01*
X160072740Y-107082812D01*
X160080185Y-107057461D01*
X160087025Y-107051533D01*
X160090787Y-107043297D01*
X160113021Y-107029007D01*
X160132989Y-107011706D01*
X160143503Y-107009418D01*
X160149565Y-107005523D01*
X160184500Y-107000500D01*
X160275500Y-107000500D01*
X160342539Y-107020185D01*
X160388294Y-107072989D01*
X160399500Y-107124500D01*
X160399500Y-107686611D01*
X160402844Y-107707722D01*
X160425806Y-107852705D01*
X160426598Y-107857701D01*
X160480127Y-108022445D01*
X160558768Y-108176788D01*
X160660586Y-108316928D01*
X160783072Y-108439414D01*
X160923212Y-108541232D01*
X161077555Y-108619873D01*
X161242299Y-108673402D01*
X161413389Y-108700500D01*
X161413390Y-108700500D01*
X161586610Y-108700500D01*
X161586611Y-108700500D01*
X161757701Y-108673402D01*
X161922445Y-108619873D01*
X162076788Y-108541232D01*
X162216928Y-108439414D01*
X162339414Y-108316928D01*
X162441232Y-108176788D01*
X162519873Y-108022445D01*
X162573402Y-107857701D01*
X162600500Y-107686611D01*
X162600500Y-107124500D01*
X162620185Y-107057461D01*
X162672989Y-107011706D01*
X162724500Y-107000500D01*
X169875500Y-107000500D01*
X169942539Y-107020185D01*
X169988294Y-107072989D01*
X169999500Y-107124500D01*
X169999500Y-120276000D01*
X169979815Y-120343039D01*
X169927011Y-120388794D01*
X169875500Y-120400000D01*
X139642531Y-120400000D01*
X139575492Y-120380315D01*
X139529737Y-120327511D01*
X139519793Y-120258353D01*
X139548818Y-120194797D01*
X139554850Y-120188319D01*
X139958658Y-119784511D01*
X141293960Y-118449207D01*
X141355281Y-118415724D01*
X141412348Y-118416753D01*
X141428869Y-118420976D01*
X141461096Y-118439582D01*
X141569315Y-118468579D01*
X141615097Y-118468579D01*
X141630209Y-118472442D01*
X141647379Y-118482638D01*
X141666539Y-118488264D01*
X141676804Y-118500111D01*
X141690285Y-118508116D01*
X141699218Y-118525977D01*
X141712294Y-118541068D01*
X141716550Y-118560633D01*
X141721538Y-118570606D01*
X141720603Y-118579265D01*
X141723500Y-118592579D01*
X141723500Y-119245307D01*
X141743979Y-119321734D01*
X141749989Y-119332145D01*
X141758200Y-119346366D01*
X141783537Y-119390252D01*
X141783539Y-119390255D01*
X141783540Y-119390256D01*
X142059744Y-119666460D01*
X142119084Y-119700720D01*
X142128263Y-119706020D01*
X142128267Y-119706022D01*
X142204693Y-119726500D01*
X142204695Y-119726500D01*
X146613560Y-119726500D01*
X146613562Y-119726500D01*
X146689989Y-119706021D01*
X146758511Y-119666460D01*
X146814460Y-119610511D01*
X147104669Y-119320300D01*
X147130338Y-119300604D01*
X147199862Y-119260465D01*
X147260465Y-119199862D01*
X147303318Y-119125638D01*
X147325500Y-119042853D01*
X147325500Y-118957147D01*
X147303318Y-118874362D01*
X147300598Y-118869651D01*
X147260469Y-118800144D01*
X147260463Y-118800136D01*
X147197508Y-118737181D01*
X147164023Y-118675858D01*
X147169007Y-118606166D01*
X147210879Y-118550233D01*
X147276343Y-118525816D01*
X147285189Y-118525500D01*
X148314811Y-118525500D01*
X148381850Y-118545185D01*
X148427605Y-118597989D01*
X148437549Y-118667147D01*
X148408524Y-118730703D01*
X148402492Y-118737181D01*
X148339536Y-118800136D01*
X148339530Y-118800144D01*
X148296685Y-118874355D01*
X148296682Y-118874362D01*
X148274500Y-118957147D01*
X148274500Y-119042853D01*
X148291371Y-119105815D01*
X148296682Y-119125637D01*
X148296685Y-119125644D01*
X148339530Y-119199855D01*
X148339534Y-119199860D01*
X148339535Y-119199862D01*
X148400138Y-119260465D01*
X148400140Y-119260466D01*
X148400144Y-119260469D01*
X148424447Y-119274500D01*
X148474362Y-119303318D01*
X148557147Y-119325500D01*
X148557149Y-119325500D01*
X148642851Y-119325500D01*
X148642853Y-119325500D01*
X148725638Y-119303318D01*
X148799862Y-119260465D01*
X148860465Y-119199862D01*
X148903318Y-119125638D01*
X148925500Y-119042853D01*
X148925500Y-118957147D01*
X148903318Y-118874362D01*
X148900598Y-118869651D01*
X148860469Y-118800144D01*
X148860463Y-118800136D01*
X148797508Y-118737181D01*
X148764023Y-118675858D01*
X148769007Y-118606166D01*
X148810879Y-118550233D01*
X148876343Y-118525816D01*
X148885189Y-118525500D01*
X158732758Y-118525500D01*
X158732760Y-118525500D01*
X158809187Y-118505021D01*
X158877709Y-118465460D01*
X158933658Y-118409511D01*
X162381350Y-114961819D01*
X162442673Y-114928334D01*
X162469031Y-114925500D01*
X165417815Y-114925500D01*
X165484854Y-114945185D01*
X165505496Y-114961819D01*
X165760241Y-115216564D01*
X165792334Y-115272149D01*
X165798134Y-115293793D01*
X165798136Y-115293799D01*
X165798137Y-115293802D01*
X165798139Y-115293805D01*
X165840984Y-115368016D01*
X165840988Y-115368021D01*
X165840989Y-115368023D01*
X165901592Y-115428626D01*
X165901594Y-115428627D01*
X165901598Y-115428630D01*
X165956739Y-115460465D01*
X165975816Y-115471479D01*
X166058601Y-115493661D01*
X166058603Y-115493661D01*
X166144305Y-115493661D01*
X166144307Y-115493661D01*
X166227092Y-115471479D01*
X166301316Y-115428626D01*
X166361919Y-115368023D01*
X166404772Y-115293799D01*
X166423409Y-115224240D01*
X166459772Y-115164583D01*
X166511087Y-115136563D01*
X166580646Y-115117925D01*
X166654870Y-115075072D01*
X166715473Y-115014469D01*
X166758326Y-114940245D01*
X166780508Y-114857460D01*
X166780508Y-114771754D01*
X166758326Y-114688969D01*
X166730322Y-114640464D01*
X166715477Y-114614751D01*
X166715471Y-114614743D01*
X166654871Y-114554143D01*
X166654863Y-114554137D01*
X166580652Y-114511292D01*
X166580649Y-114511290D01*
X166580646Y-114511289D01*
X166580642Y-114511288D01*
X166580640Y-114511287D01*
X166558996Y-114505487D01*
X166503411Y-114473394D01*
X165964556Y-113934539D01*
X165939693Y-113920185D01*
X165938576Y-113919540D01*
X165915209Y-113906049D01*
X165896036Y-113894979D01*
X165870559Y-113888152D01*
X165819608Y-113874500D01*
X162067240Y-113874500D01*
X162037530Y-113882461D01*
X161990811Y-113894979D01*
X161971639Y-113906049D01*
X161948272Y-113919540D01*
X161947155Y-113920185D01*
X161922291Y-113934539D01*
X161922289Y-113934541D01*
X158418650Y-117438181D01*
X158357327Y-117471666D01*
X158330969Y-117474500D01*
X147449500Y-117474500D01*
X147382461Y-117454815D01*
X147336706Y-117402011D01*
X147328639Y-117364933D01*
X147326561Y-117365207D01*
X147325500Y-117357154D01*
X147325500Y-117357147D01*
X147303318Y-117274362D01*
X147276332Y-117227620D01*
X147260469Y-117200144D01*
X147260463Y-117200136D01*
X147199863Y-117139536D01*
X147199855Y-117139530D01*
X147125644Y-117096685D01*
X147125640Y-117096683D01*
X147125638Y-117096682D01*
X147042853Y-117074500D01*
X146957147Y-117074500D01*
X146874362Y-117096682D01*
X146874355Y-117096685D01*
X146800144Y-117139530D01*
X146800136Y-117139536D01*
X146739536Y-117200136D01*
X146739530Y-117200144D01*
X146696685Y-117274355D01*
X146696682Y-117274362D01*
X146674500Y-117357147D01*
X146673439Y-117365207D01*
X146670302Y-117364794D01*
X146654815Y-117417539D01*
X146602011Y-117463294D01*
X146550500Y-117474500D01*
X146267240Y-117474500D01*
X146214108Y-117488737D01*
X146190809Y-117494980D01*
X146137711Y-117525637D01*
X146122294Y-117534537D01*
X146122289Y-117534541D01*
X145418651Y-118238180D01*
X145357328Y-118271665D01*
X145330970Y-118274499D01*
X142624500Y-118274499D01*
X142557461Y-118254814D01*
X142511706Y-118202010D01*
X142500500Y-118150499D01*
X142500500Y-117411996D01*
X142520185Y-117344957D01*
X142572989Y-117299202D01*
X142592402Y-117292223D01*
X142625638Y-117283318D01*
X142699862Y-117240465D01*
X142760465Y-117179862D01*
X142800604Y-117110338D01*
X142820300Y-117084669D01*
X142962822Y-116942148D01*
X143024142Y-116908666D01*
X143093834Y-116913650D01*
X143149767Y-116955522D01*
X143171947Y-117014989D01*
X143173439Y-117014793D01*
X143174500Y-117022851D01*
X143174500Y-117022853D01*
X143196061Y-117103318D01*
X143196682Y-117105637D01*
X143196685Y-117105644D01*
X143239530Y-117179855D01*
X143239534Y-117179860D01*
X143239535Y-117179862D01*
X143300138Y-117240465D01*
X143300140Y-117240466D01*
X143300144Y-117240469D01*
X143361058Y-117275637D01*
X143374362Y-117283318D01*
X143457147Y-117305500D01*
X143457149Y-117305500D01*
X143542851Y-117305500D01*
X143542853Y-117305500D01*
X143625638Y-117283318D01*
X143699862Y-117240465D01*
X143760465Y-117179862D01*
X143803318Y-117105638D01*
X143825500Y-117022853D01*
X143825500Y-116937147D01*
X143804724Y-116859612D01*
X143800500Y-116827521D01*
X143800500Y-115558724D01*
X143820185Y-115491685D01*
X143872989Y-115445930D01*
X143942147Y-115435986D01*
X143992612Y-115457244D01*
X143993099Y-115456402D01*
X143999808Y-115460275D01*
X143999992Y-115460353D01*
X144000142Y-115460468D01*
X144057635Y-115493661D01*
X144074362Y-115503318D01*
X144157147Y-115525500D01*
X144157149Y-115525500D01*
X144242851Y-115525500D01*
X144242853Y-115525500D01*
X144325638Y-115503318D01*
X144399862Y-115460465D01*
X144460465Y-115399862D01*
X144503318Y-115325638D01*
X144525500Y-115242853D01*
X144525500Y-115157147D01*
X144503318Y-115074362D01*
X144468735Y-115014462D01*
X144460469Y-115000144D01*
X144460463Y-115000136D01*
X144399863Y-114939536D01*
X144399855Y-114939530D01*
X144325644Y-114896685D01*
X144325640Y-114896683D01*
X144325638Y-114896682D01*
X144242853Y-114874500D01*
X144157147Y-114874500D01*
X144074362Y-114896682D01*
X144074355Y-114896685D01*
X144000137Y-114939534D01*
X143999983Y-114939653D01*
X143999828Y-114939712D01*
X143993099Y-114943598D01*
X143992492Y-114942548D01*
X143934813Y-114964845D01*
X143866369Y-114950805D01*
X143816381Y-114901989D01*
X143800500Y-114841275D01*
X143800500Y-114152480D01*
X143801430Y-114137322D01*
X143802747Y-114126626D01*
X143803318Y-114125638D01*
X143825500Y-114042853D01*
X143825500Y-113957147D01*
X144674500Y-113957147D01*
X144674500Y-114042853D01*
X144695118Y-114119799D01*
X144696682Y-114125637D01*
X144696685Y-114125644D01*
X144739530Y-114199855D01*
X144739534Y-114199860D01*
X144739535Y-114199862D01*
X144800138Y-114260465D01*
X144800140Y-114260466D01*
X144800144Y-114260469D01*
X144868854Y-114300138D01*
X144874362Y-114303318D01*
X144957147Y-114325500D01*
X144957149Y-114325500D01*
X145050500Y-114325500D01*
X145117539Y-114345185D01*
X145163294Y-114397989D01*
X145174500Y-114449500D01*
X145174500Y-114457147D01*
X145174500Y-114542853D01*
X145193764Y-114614745D01*
X145196682Y-114625637D01*
X145196685Y-114625644D01*
X145239530Y-114699855D01*
X145239533Y-114699859D01*
X145239535Y-114699862D01*
X145300138Y-114760465D01*
X145300140Y-114760466D01*
X145300144Y-114760469D01*
X145374355Y-114803314D01*
X145374362Y-114803318D01*
X145457147Y-114825500D01*
X145457149Y-114825500D01*
X145542851Y-114825500D01*
X145542853Y-114825500D01*
X145625638Y-114803318D01*
X145699862Y-114760465D01*
X145760465Y-114699862D01*
X145803318Y-114625638D01*
X145825500Y-114542853D01*
X145825500Y-114457147D01*
X146714500Y-114457147D01*
X146714500Y-114542853D01*
X146733764Y-114614745D01*
X146736682Y-114625637D01*
X146736685Y-114625644D01*
X146779530Y-114699855D01*
X146779533Y-114699859D01*
X146779535Y-114699862D01*
X146840138Y-114760465D01*
X146840140Y-114760466D01*
X146840144Y-114760469D01*
X146914355Y-114803314D01*
X146914362Y-114803318D01*
X146997147Y-114825500D01*
X146997149Y-114825500D01*
X147082851Y-114825500D01*
X147082853Y-114825500D01*
X147165638Y-114803318D01*
X147222458Y-114770513D01*
X151799500Y-114770513D01*
X151799500Y-114959486D01*
X151829059Y-115146118D01*
X151887454Y-115325836D01*
X151964038Y-115476139D01*
X151973240Y-115494199D01*
X152084310Y-115647073D01*
X152217927Y-115780690D01*
X152370801Y-115891760D01*
X152435057Y-115924500D01*
X152539163Y-115977545D01*
X152539165Y-115977545D01*
X152539168Y-115977547D01*
X152635497Y-116008846D01*
X152718881Y-116035940D01*
X152905514Y-116065500D01*
X152905519Y-116065500D01*
X153094486Y-116065500D01*
X153281118Y-116035940D01*
X153315212Y-116024862D01*
X153460832Y-115977547D01*
X153629199Y-115891760D01*
X153782073Y-115780690D01*
X153915690Y-115647073D01*
X154026760Y-115494199D01*
X154112547Y-115325832D01*
X154170940Y-115146118D01*
X154171892Y-115140107D01*
X154200500Y-114959486D01*
X154200500Y-114770513D01*
X154170940Y-114583881D01*
X154137423Y-114480728D01*
X154112547Y-114404168D01*
X154112545Y-114404165D01*
X154112545Y-114404163D01*
X154062783Y-114306500D01*
X154026760Y-114235801D01*
X153915690Y-114082927D01*
X153782073Y-113949310D01*
X153629199Y-113838240D01*
X153615011Y-113831011D01*
X153460836Y-113752454D01*
X153281118Y-113694059D01*
X153094486Y-113664500D01*
X153094481Y-113664500D01*
X152905519Y-113664500D01*
X152905514Y-113664500D01*
X152718881Y-113694059D01*
X152539163Y-113752454D01*
X152370800Y-113838240D01*
X152309936Y-113882461D01*
X152217927Y-113949310D01*
X152217925Y-113949312D01*
X152217924Y-113949312D01*
X152084312Y-114082924D01*
X152084312Y-114082925D01*
X152084310Y-114082927D01*
X152043759Y-114138740D01*
X151973240Y-114235800D01*
X151887454Y-114404163D01*
X151829059Y-114583881D01*
X151799500Y-114770513D01*
X147222458Y-114770513D01*
X147239862Y-114760465D01*
X147300465Y-114699862D01*
X147343318Y-114625638D01*
X147365500Y-114542853D01*
X147365500Y-114457147D01*
X147343318Y-114374362D01*
X147325778Y-114343982D01*
X147300469Y-114300144D01*
X147300463Y-114300136D01*
X147239863Y-114239536D01*
X147239855Y-114239530D01*
X147165644Y-114196685D01*
X147165640Y-114196683D01*
X147165638Y-114196682D01*
X147082853Y-114174500D01*
X146997147Y-114174500D01*
X146914362Y-114196682D01*
X146914355Y-114196685D01*
X146840144Y-114239530D01*
X146840136Y-114239536D01*
X146779536Y-114300136D01*
X146779530Y-114300144D01*
X146736685Y-114374355D01*
X146736682Y-114374362D01*
X146714500Y-114457147D01*
X145825500Y-114457147D01*
X145803318Y-114374362D01*
X145785778Y-114343982D01*
X145760469Y-114300144D01*
X145760463Y-114300136D01*
X145699863Y-114239536D01*
X145699855Y-114239530D01*
X145625644Y-114196685D01*
X145625640Y-114196683D01*
X145625638Y-114196682D01*
X145542853Y-114174500D01*
X145457147Y-114174500D01*
X145449500Y-114174500D01*
X145382461Y-114154815D01*
X145336706Y-114102011D01*
X145325500Y-114050500D01*
X145325500Y-113957149D01*
X145325500Y-113957147D01*
X145303318Y-113874362D01*
X145303046Y-113873891D01*
X145260469Y-113800144D01*
X145260463Y-113800136D01*
X145199863Y-113739536D01*
X145199855Y-113739530D01*
X145125644Y-113696685D01*
X145125640Y-113696683D01*
X145125638Y-113696682D01*
X145042853Y-113674500D01*
X144957147Y-113674500D01*
X144874362Y-113696682D01*
X144874355Y-113696685D01*
X144800144Y-113739530D01*
X144800136Y-113739536D01*
X144739536Y-113800136D01*
X144739530Y-113800144D01*
X144696685Y-113874355D01*
X144696682Y-113874362D01*
X144674500Y-113957147D01*
X143825500Y-113957147D01*
X143824212Y-113952343D01*
X143826430Y-113934342D01*
X143837399Y-113908974D01*
X143845185Y-113882461D01*
X143851070Y-113877361D01*
X143854162Y-113870212D01*
X143877105Y-113854801D01*
X143897989Y-113836706D01*
X143906949Y-113834756D01*
X143912163Y-113831255D01*
X143924163Y-113831011D01*
X143949500Y-113825500D01*
X144042851Y-113825500D01*
X144042853Y-113825500D01*
X144125638Y-113803318D01*
X144199862Y-113760465D01*
X144260465Y-113699862D01*
X144303318Y-113625638D01*
X144325500Y-113542853D01*
X144325500Y-113457147D01*
X144325500Y-113449500D01*
X144345185Y-113382461D01*
X144397989Y-113336706D01*
X144449500Y-113325500D01*
X144542851Y-113325500D01*
X144542853Y-113325500D01*
X144625638Y-113303318D01*
X144688001Y-113267312D01*
X144755900Y-113250840D01*
X144811998Y-113267312D01*
X144874362Y-113303318D01*
X144957147Y-113325500D01*
X144957149Y-113325500D01*
X145042851Y-113325500D01*
X145042853Y-113325500D01*
X145125638Y-113303318D01*
X145188001Y-113267312D01*
X145255900Y-113250840D01*
X145311998Y-113267312D01*
X145374362Y-113303318D01*
X145457147Y-113325500D01*
X145457149Y-113325500D01*
X145542851Y-113325500D01*
X145542853Y-113325500D01*
X145625638Y-113303318D01*
X145699862Y-113260465D01*
X145760465Y-113199862D01*
X145803318Y-113125638D01*
X145825500Y-113042853D01*
X145825500Y-112957147D01*
X145803318Y-112874362D01*
X145789252Y-112849999D01*
X145767793Y-112812829D01*
X145761227Y-112785767D01*
X145751496Y-112759676D01*
X145753104Y-112752283D01*
X145751320Y-112744929D01*
X145760429Y-112718609D01*
X145766348Y-112691403D01*
X145772854Y-112682711D01*
X145774173Y-112678902D01*
X145787494Y-112663154D01*
X145887404Y-112563244D01*
X145948726Y-112529760D01*
X146018418Y-112534744D01*
X146074351Y-112576616D01*
X146094858Y-112618831D01*
X146096682Y-112625637D01*
X146096685Y-112625644D01*
X146139530Y-112699855D01*
X146139534Y-112699860D01*
X146139535Y-112699862D01*
X146200138Y-112760465D01*
X146200140Y-112760466D01*
X146200144Y-112760469D01*
X146268854Y-112800138D01*
X146274362Y-112803318D01*
X146357147Y-112825500D01*
X146357149Y-112825500D01*
X146442851Y-112825500D01*
X146442853Y-112825500D01*
X146525638Y-112803318D01*
X146599862Y-112760465D01*
X146660465Y-112699862D01*
X146703318Y-112625638D01*
X146725500Y-112542853D01*
X146725500Y-112457147D01*
X146703318Y-112374362D01*
X146675107Y-112325499D01*
X146660469Y-112300144D01*
X146660463Y-112300136D01*
X146599863Y-112239536D01*
X146599855Y-112239530D01*
X146525644Y-112196685D01*
X146525640Y-112196683D01*
X146525638Y-112196682D01*
X146518831Y-112194858D01*
X146459172Y-112158494D01*
X146428643Y-112095647D01*
X146436938Y-112026272D01*
X146463245Y-111987403D01*
X146650148Y-111800500D01*
X146919578Y-111531070D01*
X146980900Y-111497586D01*
X147050592Y-111502570D01*
X147106525Y-111544442D01*
X147114645Y-111556752D01*
X147139532Y-111599858D01*
X147139534Y-111599861D01*
X147139535Y-111599862D01*
X147200138Y-111660465D01*
X147200140Y-111660466D01*
X147200144Y-111660469D01*
X147224447Y-111674500D01*
X147274362Y-111703318D01*
X147357147Y-111725500D01*
X147357149Y-111725500D01*
X147442851Y-111725500D01*
X147442853Y-111725500D01*
X147525638Y-111703318D01*
X147599862Y-111660465D01*
X147660465Y-111599862D01*
X147703318Y-111525638D01*
X147725500Y-111442853D01*
X147725500Y-111357147D01*
X147703318Y-111274362D01*
X147695295Y-111260465D01*
X147660469Y-111200144D01*
X147660463Y-111200136D01*
X147599863Y-111139536D01*
X147599858Y-111139532D01*
X147556752Y-111114645D01*
X147508536Y-111064078D01*
X147495313Y-110995471D01*
X147521281Y-110930606D01*
X147531063Y-110919585D01*
X147913830Y-110536819D01*
X147975153Y-110503334D01*
X148001511Y-110500500D01*
X153560560Y-110500500D01*
X153560562Y-110500500D01*
X153636989Y-110480021D01*
X153705511Y-110440460D01*
X153761460Y-110384511D01*
X155630204Y-108515765D01*
X155691525Y-108482282D01*
X155761216Y-108487266D01*
X155790768Y-108503130D01*
X155838641Y-108537911D01*
X155843212Y-108541232D01*
X155997555Y-108619873D01*
X156162299Y-108673402D01*
X156333389Y-108700500D01*
X156333390Y-108700500D01*
X156506610Y-108700500D01*
X156506611Y-108700500D01*
X156677701Y-108673402D01*
X156842445Y-108619873D01*
X156996788Y-108541232D01*
X157136928Y-108439414D01*
X157259414Y-108316928D01*
X157361232Y-108176788D01*
X157439873Y-108022445D01*
X157493402Y-107857701D01*
X157520500Y-107686611D01*
X157520500Y-107124500D01*
X157523050Y-107115814D01*
X157521762Y-107106853D01*
X157532740Y-107082812D01*
X157540185Y-107057461D01*
X157547025Y-107051533D01*
X157550787Y-107043297D01*
X157573021Y-107029007D01*
X157592989Y-107011706D01*
X157603503Y-107009418D01*
X157609565Y-107005523D01*
X157644500Y-107000500D01*
X157735500Y-107000500D01*
X157802539Y-107020185D01*
G37*
%TD.AperFunction*%
%TA.AperFunction,Conductor*%
G36*
X140078791Y-108905002D02*
G01*
X140089821Y-108914792D01*
X141952147Y-110777118D01*
X141985632Y-110838441D01*
X141980648Y-110908133D01*
X141971854Y-110926798D01*
X141968497Y-110932611D01*
X141968497Y-110932612D01*
X141939500Y-111040831D01*
X141939500Y-111084167D01*
X141919815Y-111151206D01*
X141903181Y-111171848D01*
X141209538Y-111865490D01*
X141209532Y-111865498D01*
X141169979Y-111934007D01*
X141169976Y-111934012D01*
X141158591Y-111976503D01*
X141149497Y-112010441D01*
X141149497Y-113138772D01*
X141159736Y-113176985D01*
X141169976Y-113215201D01*
X141169978Y-113215204D01*
X141196572Y-113261265D01*
X141199562Y-113266443D01*
X141205931Y-113277475D01*
X141209538Y-113283723D01*
X141427775Y-113501959D01*
X141461260Y-113563282D01*
X141464094Y-113589640D01*
X141464094Y-113594825D01*
X141492239Y-113699862D01*
X141493091Y-113703043D01*
X141493092Y-113703046D01*
X141501684Y-113717927D01*
X141549109Y-113800070D01*
X141628331Y-113879292D01*
X141725357Y-113935310D01*
X141833576Y-113964307D01*
X141833578Y-113964307D01*
X141945610Y-113964307D01*
X141945612Y-113964307D01*
X142053831Y-113935310D01*
X142150857Y-113879292D01*
X142230079Y-113800070D01*
X142286097Y-113703044D01*
X142315094Y-113594825D01*
X142315094Y-113482789D01*
X142292174Y-113397250D01*
X142293837Y-113327404D01*
X142324270Y-113277477D01*
X142340485Y-113261263D01*
X142396503Y-113164237D01*
X142425500Y-113056018D01*
X142425500Y-112943982D01*
X142396503Y-112835763D01*
X142340485Y-112738737D01*
X142340482Y-112738734D01*
X142339714Y-112737733D01*
X142339326Y-112736729D01*
X142336421Y-112731698D01*
X142337205Y-112731245D01*
X142314518Y-112672565D01*
X142328555Y-112604120D01*
X142350404Y-112574566D01*
X142963152Y-111961819D01*
X143023860Y-111928469D01*
X143037182Y-111925500D01*
X143056018Y-111925500D01*
X143149125Y-111900552D01*
X143151679Y-111899983D01*
X143184010Y-111902130D01*
X143216408Y-111902902D01*
X143218670Y-111904432D01*
X143221395Y-111904614D01*
X143247430Y-111923898D01*
X143274271Y-111942064D01*
X143275346Y-111944575D01*
X143277540Y-111946200D01*
X143289018Y-111976503D01*
X143301775Y-112006293D01*
X143301322Y-112008985D01*
X143302290Y-112011540D01*
X143295561Y-112043243D01*
X143290189Y-112075195D01*
X143288182Y-112078012D01*
X143287785Y-112079887D01*
X143284446Y-112083259D01*
X143266337Y-112108692D01*
X143259539Y-112115490D01*
X143259535Y-112115495D01*
X143219982Y-112184004D01*
X143219979Y-112184009D01*
X143209119Y-112224541D01*
X143205108Y-112239511D01*
X143199500Y-112260439D01*
X143199500Y-112847521D01*
X143195275Y-112879612D01*
X143174500Y-112957147D01*
X143174500Y-113042853D01*
X143190702Y-113103318D01*
X143196682Y-113125637D01*
X143196682Y-113125638D01*
X143232687Y-113188001D01*
X143249159Y-113255901D01*
X143232687Y-113311999D01*
X143196682Y-113374361D01*
X143196682Y-113374362D01*
X143174500Y-113457147D01*
X143174500Y-113550500D01*
X143154815Y-113617539D01*
X143102011Y-113663294D01*
X143050500Y-113674500D01*
X142957147Y-113674500D01*
X142874362Y-113696682D01*
X142874355Y-113696685D01*
X142800144Y-113739530D01*
X142800136Y-113739536D01*
X142739536Y-113800136D01*
X142739530Y-113800144D01*
X142696685Y-113874355D01*
X142696682Y-113874362D01*
X142674500Y-113957147D01*
X142674500Y-114042853D01*
X142695118Y-114119799D01*
X142696682Y-114125637D01*
X142696685Y-114125644D01*
X142739530Y-114199855D01*
X142739534Y-114199860D01*
X142739535Y-114199862D01*
X142800138Y-114260465D01*
X142800140Y-114260466D01*
X142806589Y-114265415D01*
X142805287Y-114267110D01*
X142845712Y-114309503D01*
X142859500Y-114366329D01*
X142859500Y-115152277D01*
X142839815Y-115219316D01*
X142787011Y-115265071D01*
X142741939Y-115274876D01*
X142741984Y-115275216D01*
X142737913Y-115275751D01*
X142735500Y-115276277D01*
X142733924Y-115276277D01*
X142651139Y-115298459D01*
X142651132Y-115298462D01*
X142576921Y-115341307D01*
X142570470Y-115346258D01*
X142569687Y-115345238D01*
X142515635Y-115374754D01*
X142445943Y-115369770D01*
X142401596Y-115341269D01*
X142353263Y-115292936D01*
X142353255Y-115292930D01*
X142279044Y-115250085D01*
X142279040Y-115250083D01*
X142279038Y-115250082D01*
X142196253Y-115227900D01*
X142110547Y-115227900D01*
X142027762Y-115250082D01*
X142020252Y-115253193D01*
X142019322Y-115250948D01*
X141963371Y-115264508D01*
X141897350Y-115241640D01*
X141865462Y-115206552D01*
X141865415Y-115206589D01*
X141864974Y-115206015D01*
X141861913Y-115202646D01*
X141860465Y-115200138D01*
X141799862Y-115139535D01*
X141799860Y-115139534D01*
X141799855Y-115139530D01*
X141725644Y-115096685D01*
X141725640Y-115096683D01*
X141725638Y-115096682D01*
X141642853Y-115074500D01*
X141642852Y-115074500D01*
X141634793Y-115073439D01*
X141635168Y-115070585D01*
X141581461Y-115054815D01*
X141535706Y-115002011D01*
X141524500Y-114950500D01*
X141524500Y-114736439D01*
X141516983Y-114708386D01*
X141504724Y-114662636D01*
X141500500Y-114630546D01*
X141500500Y-114552480D01*
X141504725Y-114520387D01*
X141512998Y-114489511D01*
X141525500Y-114442853D01*
X141525500Y-114357147D01*
X141503318Y-114274362D01*
X141499131Y-114267110D01*
X141460469Y-114200144D01*
X141460463Y-114200136D01*
X141399863Y-114139536D01*
X141399855Y-114139530D01*
X141325644Y-114096685D01*
X141325640Y-114096683D01*
X141325638Y-114096682D01*
X141242853Y-114074500D01*
X141157147Y-114074500D01*
X141074362Y-114096682D01*
X141074355Y-114096685D01*
X141000144Y-114139530D01*
X141000136Y-114139536D01*
X140939536Y-114200136D01*
X140939530Y-114200144D01*
X140896685Y-114274355D01*
X140896682Y-114274362D01*
X140874500Y-114357147D01*
X140874500Y-114442853D01*
X140884845Y-114481461D01*
X140895275Y-114520387D01*
X140899500Y-114552480D01*
X140899500Y-114791562D01*
X140919275Y-114865361D01*
X140923500Y-114897455D01*
X140923500Y-116378853D01*
X140943324Y-116452834D01*
X140943979Y-116455280D01*
X140967881Y-116496681D01*
X140975824Y-116510438D01*
X140975825Y-116510440D01*
X140975824Y-116510440D01*
X140983535Y-116523796D01*
X140983542Y-116523805D01*
X141325519Y-116865781D01*
X141326903Y-116868317D01*
X141329377Y-116869816D01*
X141343548Y-116898799D01*
X141359004Y-116927104D01*
X141358797Y-116929987D01*
X141360068Y-116932585D01*
X141356321Y-116964619D01*
X141354020Y-116996795D01*
X141352184Y-116999983D01*
X141351951Y-117001981D01*
X141345723Y-117011208D01*
X141333660Y-117032165D01*
X141329802Y-117036861D01*
X141284848Y-117081816D01*
X141265845Y-117114729D01*
X141259375Y-117122607D01*
X141238578Y-117136761D01*
X141220371Y-117154121D01*
X141206849Y-117158354D01*
X141201613Y-117161919D01*
X141194902Y-117162095D01*
X141179746Y-117166842D01*
X141174168Y-117167576D01*
X141097733Y-117188057D01*
X141097732Y-117188058D01*
X141041611Y-117220460D01*
X141029216Y-117227616D01*
X141029210Y-117227620D01*
X140010537Y-118246293D01*
X139949214Y-118279778D01*
X139879522Y-118274794D01*
X139823589Y-118232922D01*
X139799172Y-118167458D01*
X139803081Y-118126518D01*
X139803315Y-118125641D01*
X139803318Y-118125638D01*
X139825500Y-118042853D01*
X139825500Y-117957147D01*
X139803318Y-117874362D01*
X139796146Y-117861940D01*
X139760469Y-117800144D01*
X139760463Y-117800136D01*
X139699863Y-117739536D01*
X139699855Y-117739530D01*
X139625644Y-117696685D01*
X139625640Y-117696683D01*
X139625638Y-117696682D01*
X139542853Y-117674500D01*
X139457147Y-117674500D01*
X139374362Y-117696682D01*
X139374355Y-117696685D01*
X139300144Y-117739530D01*
X139300136Y-117739536D01*
X139239536Y-117800136D01*
X139239530Y-117800144D01*
X139196685Y-117874355D01*
X139196682Y-117874362D01*
X139174500Y-117957147D01*
X139174500Y-118042853D01*
X139186795Y-118088737D01*
X139196682Y-118125637D01*
X139196685Y-118125644D01*
X139239530Y-118199855D01*
X139239534Y-118199860D01*
X139239535Y-118199862D01*
X139300138Y-118260465D01*
X139300140Y-118260466D01*
X139300144Y-118260469D01*
X139374355Y-118303314D01*
X139374362Y-118303318D01*
X139457147Y-118325500D01*
X139457149Y-118325500D01*
X139542850Y-118325500D01*
X139542853Y-118325500D01*
X139625638Y-118303318D01*
X139625641Y-118303315D01*
X139626518Y-118303081D01*
X139696368Y-118304744D01*
X139754231Y-118343906D01*
X139781735Y-118408134D01*
X139770149Y-118477037D01*
X139746293Y-118510537D01*
X138918650Y-119338181D01*
X138857327Y-119371666D01*
X138830969Y-119374500D01*
X136019031Y-119374500D01*
X135989590Y-119365855D01*
X135959604Y-119359332D01*
X135954588Y-119355577D01*
X135951992Y-119354815D01*
X135931350Y-119338181D01*
X135811820Y-119218651D01*
X135778335Y-119157328D01*
X135775501Y-119130970D01*
X135775501Y-118361591D01*
X135795186Y-118294552D01*
X135837502Y-118254203D01*
X135861263Y-118240485D01*
X135940485Y-118161263D01*
X135996503Y-118064237D01*
X136025500Y-117956018D01*
X136025500Y-117843982D01*
X135996503Y-117735763D01*
X135940485Y-117638737D01*
X135861263Y-117559515D01*
X135837498Y-117545794D01*
X135789284Y-117495225D01*
X135775501Y-117438408D01*
X135775501Y-117107147D01*
X136174500Y-117107147D01*
X136174500Y-117192853D01*
X136187258Y-117240465D01*
X136196682Y-117275637D01*
X136196685Y-117275644D01*
X136239530Y-117349855D01*
X136239534Y-117349860D01*
X136239535Y-117349862D01*
X136300138Y-117410465D01*
X136300140Y-117410466D01*
X136300144Y-117410469D01*
X136368615Y-117450000D01*
X136374362Y-117453318D01*
X136457147Y-117475500D01*
X136457149Y-117475500D01*
X136542851Y-117475500D01*
X136542853Y-117475500D01*
X136625638Y-117453318D01*
X136699862Y-117410465D01*
X136760465Y-117349862D01*
X136803318Y-117275638D01*
X136825500Y-117192853D01*
X136825500Y-117107147D01*
X136803318Y-117024362D01*
X136790750Y-117002594D01*
X136760469Y-116950144D01*
X136760463Y-116950136D01*
X136699863Y-116889536D01*
X136699855Y-116889530D01*
X136625644Y-116846685D01*
X136625640Y-116846683D01*
X136625638Y-116846682D01*
X136542853Y-116824500D01*
X136457147Y-116824500D01*
X136374362Y-116846682D01*
X136374355Y-116846685D01*
X136300144Y-116889530D01*
X136300136Y-116889536D01*
X136239536Y-116950136D01*
X136239530Y-116950144D01*
X136196685Y-117024355D01*
X136196682Y-117024362D01*
X136174500Y-117107147D01*
X135775501Y-117107147D01*
X135775501Y-116817242D01*
X135775501Y-116817241D01*
X135755022Y-116740814D01*
X135732587Y-116701955D01*
X135715465Y-116672298D01*
X135715459Y-116672290D01*
X134967179Y-115924010D01*
X134965928Y-115922742D01*
X134955183Y-115911684D01*
X134949559Y-115901942D01*
X134893610Y-115845993D01*
X134813914Y-115766297D01*
X134813331Y-115765697D01*
X134797417Y-115735530D01*
X134781097Y-115705642D01*
X134781163Y-115704718D01*
X134780731Y-115703899D01*
X134783648Y-115669969D01*
X134786081Y-115635950D01*
X134786636Y-115635207D01*
X134786716Y-115634286D01*
X134807522Y-115607308D01*
X134827953Y-115580017D01*
X134828820Y-115579693D01*
X134829386Y-115578960D01*
X134861482Y-115567510D01*
X134893417Y-115555600D01*
X134894656Y-115555677D01*
X134895194Y-115555486D01*
X134896518Y-115555794D01*
X134926455Y-115557667D01*
X135013592Y-115574999D01*
X135013593Y-115575000D01*
X135085000Y-115575000D01*
X135935000Y-115575000D01*
X136006407Y-115575000D01*
X136006410Y-115574999D01*
X136146467Y-115547140D01*
X136146475Y-115547138D01*
X136278413Y-115492488D01*
X136278422Y-115492483D01*
X136397160Y-115413144D01*
X136397164Y-115413141D01*
X136498142Y-115312163D01*
X136522974Y-115275000D01*
X135935000Y-115275000D01*
X135935000Y-115575000D01*
X135085000Y-115575000D01*
X135085000Y-114974000D01*
X135104685Y-114906961D01*
X135110800Y-114901661D01*
X135148060Y-114991614D01*
X135218386Y-115061940D01*
X135310272Y-115100000D01*
X135709728Y-115100000D01*
X135801614Y-115061940D01*
X135871940Y-114991614D01*
X135910000Y-114899728D01*
X135910000Y-114800272D01*
X135871940Y-114708386D01*
X135801614Y-114638060D01*
X135709728Y-114600000D01*
X135510000Y-114600000D01*
X135510000Y-114549000D01*
X135529685Y-114481961D01*
X135582489Y-114436206D01*
X135634000Y-114425000D01*
X136522974Y-114425000D01*
X136498142Y-114387836D01*
X136397164Y-114286858D01*
X136397160Y-114286855D01*
X136278422Y-114207516D01*
X136278413Y-114207511D01*
X136146475Y-114152861D01*
X136146467Y-114152859D01*
X136006410Y-114125000D01*
X135909464Y-114125000D01*
X135842425Y-114105315D01*
X135796670Y-114052511D01*
X135788941Y-114000729D01*
X135785500Y-114000729D01*
X135785500Y-113867400D01*
X135782095Y-113854692D01*
X135753095Y-113746464D01*
X135690495Y-113638036D01*
X135601964Y-113549505D01*
X135493536Y-113486905D01*
X135493537Y-113486905D01*
X135435761Y-113471424D01*
X135372601Y-113454500D01*
X135247399Y-113454500D01*
X135184239Y-113471424D01*
X135126463Y-113486905D01*
X135018037Y-113549504D01*
X135018034Y-113549506D01*
X134929506Y-113638034D01*
X134929504Y-113638037D01*
X134866905Y-113746463D01*
X134834500Y-113867400D01*
X134834500Y-113992601D01*
X134848905Y-114046361D01*
X134847242Y-114116210D01*
X134808079Y-114174073D01*
X134776585Y-114193014D01*
X134741589Y-114207510D01*
X134741577Y-114207516D01*
X134622839Y-114286855D01*
X134622835Y-114286858D01*
X134521858Y-114387835D01*
X134521855Y-114387839D01*
X134442516Y-114506577D01*
X134442511Y-114506586D01*
X134387861Y-114638524D01*
X134387859Y-114638532D01*
X134367979Y-114738475D01*
X134335594Y-114800386D01*
X134274878Y-114834960D01*
X134205109Y-114831221D01*
X134158681Y-114801965D01*
X132375881Y-113019165D01*
X132342396Y-112957842D01*
X132343387Y-112943982D01*
X136574500Y-112943982D01*
X136574500Y-113056018D01*
X136603497Y-113164237D01*
X136659515Y-113261263D01*
X136738737Y-113340485D01*
X136835763Y-113396503D01*
X136943982Y-113425500D01*
X136943984Y-113425500D01*
X137056016Y-113425500D01*
X137056018Y-113425500D01*
X137164237Y-113396503D01*
X137261263Y-113340485D01*
X137340485Y-113261263D01*
X137396503Y-113164237D01*
X137421239Y-113071916D01*
X137457602Y-113012259D01*
X137520449Y-112981729D01*
X137589824Y-112990023D01*
X137643703Y-113034508D01*
X137648399Y-113042011D01*
X137659510Y-113061256D01*
X137659513Y-113061260D01*
X137659515Y-113061263D01*
X137738737Y-113140485D01*
X137835763Y-113196503D01*
X137943982Y-113225500D01*
X137943984Y-113225500D01*
X138056016Y-113225500D01*
X138056018Y-113225500D01*
X138164237Y-113196503D01*
X138261263Y-113140485D01*
X138340485Y-113061263D01*
X138396503Y-112964237D01*
X138425500Y-112856018D01*
X138425500Y-112743982D01*
X138396503Y-112635763D01*
X138340485Y-112538737D01*
X138261263Y-112459515D01*
X138164237Y-112403497D01*
X138056018Y-112374500D01*
X137943982Y-112374500D01*
X137835763Y-112403497D01*
X137835760Y-112403498D01*
X137738740Y-112459513D01*
X137738734Y-112459517D01*
X137659517Y-112538734D01*
X137659513Y-112538740D01*
X137603498Y-112635760D01*
X137603497Y-112635761D01*
X137591938Y-112678902D01*
X137579289Y-112726112D01*
X137578761Y-112728081D01*
X137542396Y-112787741D01*
X137479549Y-112818270D01*
X137410173Y-112809975D01*
X137356295Y-112765490D01*
X137351599Y-112757987D01*
X137344216Y-112745200D01*
X137340485Y-112738737D01*
X137261263Y-112659515D01*
X137164237Y-112603497D01*
X137056018Y-112574500D01*
X136943982Y-112574500D01*
X136835763Y-112603497D01*
X136835760Y-112603498D01*
X136738740Y-112659513D01*
X136738734Y-112659517D01*
X136659517Y-112738734D01*
X136659513Y-112738740D01*
X136603498Y-112835760D01*
X136603497Y-112835763D01*
X136574500Y-112943982D01*
X132343387Y-112943982D01*
X132347380Y-112888150D01*
X132389252Y-112832217D01*
X132454716Y-112807800D01*
X132511016Y-112816923D01*
X132516652Y-112819257D01*
X132516656Y-112819258D01*
X132671202Y-112849999D01*
X132671206Y-112850000D01*
X132750000Y-112850000D01*
X133750000Y-112850000D01*
X133828794Y-112850000D01*
X133828797Y-112849999D01*
X133983343Y-112819258D01*
X133983352Y-112819256D01*
X134128939Y-112758952D01*
X134128948Y-112758947D01*
X134259968Y-112671402D01*
X134371402Y-112559967D01*
X134378062Y-112550000D01*
X133750000Y-112550000D01*
X133750000Y-112850000D01*
X132750000Y-112850000D01*
X132750000Y-112299887D01*
X132750272Y-112300000D01*
X133749728Y-112300000D01*
X133841614Y-112261940D01*
X133911940Y-112191614D01*
X133950000Y-112099728D01*
X133950000Y-112000272D01*
X133932137Y-111957147D01*
X135674500Y-111957147D01*
X135674500Y-112042853D01*
X135692142Y-112108692D01*
X135696682Y-112125637D01*
X135696685Y-112125644D01*
X135739530Y-112199855D01*
X135739534Y-112199860D01*
X135739535Y-112199862D01*
X135800138Y-112260465D01*
X135800140Y-112260466D01*
X135800144Y-112260469D01*
X135868854Y-112300138D01*
X135874362Y-112303318D01*
X135957147Y-112325500D01*
X135957149Y-112325500D01*
X136042851Y-112325500D01*
X136042853Y-112325500D01*
X136125638Y-112303318D01*
X136199862Y-112260465D01*
X136260465Y-112199862D01*
X136303318Y-112125638D01*
X136325500Y-112042853D01*
X136325500Y-111957147D01*
X136303318Y-111874362D01*
X136282359Y-111838060D01*
X136260469Y-111800144D01*
X136260463Y-111800136D01*
X136199863Y-111739536D01*
X136199855Y-111739530D01*
X136125644Y-111696685D01*
X136125640Y-111696683D01*
X136125638Y-111696682D01*
X136042853Y-111674500D01*
X135957147Y-111674500D01*
X135874362Y-111696682D01*
X135874355Y-111696685D01*
X135800144Y-111739530D01*
X135800136Y-111739536D01*
X135739536Y-111800136D01*
X135739530Y-111800144D01*
X135696685Y-111874355D01*
X135696682Y-111874362D01*
X135674500Y-111957147D01*
X133932137Y-111957147D01*
X133911940Y-111908386D01*
X133841614Y-111838060D01*
X133749728Y-111800000D01*
X132750272Y-111800000D01*
X132750000Y-111800112D01*
X132750000Y-111550000D01*
X133750000Y-111550000D01*
X134378063Y-111550000D01*
X134378062Y-111549999D01*
X134371402Y-111540032D01*
X134259968Y-111428597D01*
X134128948Y-111341052D01*
X134128939Y-111341047D01*
X133983351Y-111280743D01*
X133983343Y-111280741D01*
X133828797Y-111250000D01*
X133750000Y-111250000D01*
X133750000Y-111550000D01*
X132750000Y-111550000D01*
X132750000Y-111469587D01*
X132769685Y-111402548D01*
X132786319Y-111381906D01*
X133057268Y-111110957D01*
X133329784Y-110838441D01*
X133640460Y-110527765D01*
X133656200Y-110500502D01*
X133656201Y-110500501D01*
X133680019Y-110459246D01*
X133680020Y-110459245D01*
X133680021Y-110459243D01*
X133700500Y-110382816D01*
X133700500Y-109552480D01*
X133704725Y-109520387D01*
X133704884Y-109519791D01*
X133725500Y-109442853D01*
X133725500Y-109357147D01*
X133703318Y-109274362D01*
X133703314Y-109274355D01*
X133702319Y-109271951D01*
X133702082Y-109269753D01*
X133701214Y-109266511D01*
X133701719Y-109266375D01*
X133698812Y-109239327D01*
X133694143Y-109206853D01*
X133695097Y-109204763D01*
X133694852Y-109202482D01*
X133709534Y-109173151D01*
X133723168Y-109143297D01*
X133725099Y-109142055D01*
X133726127Y-109140003D01*
X133754344Y-109123261D01*
X133781946Y-109105523D01*
X133784975Y-109105087D01*
X133786217Y-109104351D01*
X133816881Y-109100500D01*
X133950500Y-109100500D01*
X134017539Y-109120185D01*
X134063294Y-109172989D01*
X134074500Y-109224500D01*
X134074500Y-109242853D01*
X134088285Y-109294297D01*
X134096682Y-109325637D01*
X134096685Y-109325644D01*
X134139530Y-109399855D01*
X134139534Y-109399860D01*
X134139535Y-109399862D01*
X134200138Y-109460465D01*
X134200140Y-109460466D01*
X134200144Y-109460469D01*
X134233442Y-109479693D01*
X134274362Y-109503318D01*
X134357147Y-109525500D01*
X134357149Y-109525500D01*
X134442851Y-109525500D01*
X134442853Y-109525500D01*
X134525638Y-109503318D01*
X134599862Y-109460465D01*
X134660465Y-109399862D01*
X134703318Y-109325638D01*
X134725500Y-109242853D01*
X134725500Y-109224500D01*
X134745185Y-109157461D01*
X134797989Y-109111706D01*
X134849500Y-109100500D01*
X139447521Y-109100500D01*
X139479612Y-109104724D01*
X139557147Y-109125500D01*
X139557149Y-109125500D01*
X139642851Y-109125500D01*
X139642853Y-109125500D01*
X139725638Y-109103318D01*
X139799862Y-109060465D01*
X139860465Y-108999862D01*
X139894753Y-108940472D01*
X139945319Y-108892258D01*
X140013926Y-108879034D01*
X140078791Y-108905002D01*
G37*
%TD.AperFunction*%
%TA.AperFunction,Conductor*%
G36*
X142562539Y-107020185D02*
G01*
X142608294Y-107072989D01*
X142619500Y-107124500D01*
X142619500Y-107686611D01*
X142622844Y-107707722D01*
X142645806Y-107852705D01*
X142646598Y-107857701D01*
X142700127Y-108022445D01*
X142778768Y-108176788D01*
X142880586Y-108316928D01*
X143003072Y-108439414D01*
X143143212Y-108541232D01*
X143297555Y-108619873D01*
X143462299Y-108673402D01*
X143633389Y-108700500D01*
X143633390Y-108700500D01*
X143806610Y-108700500D01*
X143806611Y-108700500D01*
X143977701Y-108673402D01*
X144142445Y-108619873D01*
X144296788Y-108541232D01*
X144436928Y-108439414D01*
X144559414Y-108316928D01*
X144661232Y-108176788D01*
X144739873Y-108022445D01*
X144793402Y-107857701D01*
X144820500Y-107686611D01*
X144820500Y-107124500D01*
X144823050Y-107115814D01*
X144821762Y-107106853D01*
X144832740Y-107082812D01*
X144840185Y-107057461D01*
X144847025Y-107051533D01*
X144850787Y-107043297D01*
X144873021Y-107029007D01*
X144892989Y-107011706D01*
X144903503Y-107009418D01*
X144909565Y-107005523D01*
X144944500Y-107000500D01*
X145035500Y-107000500D01*
X145102539Y-107020185D01*
X145148294Y-107072989D01*
X145159500Y-107124500D01*
X145159500Y-107686611D01*
X145162844Y-107707722D01*
X145185806Y-107852705D01*
X145186598Y-107857701D01*
X145240127Y-108022445D01*
X145318768Y-108176788D01*
X145420586Y-108316928D01*
X145543072Y-108439414D01*
X145683212Y-108541232D01*
X145837555Y-108619873D01*
X146002299Y-108673402D01*
X146173389Y-108700500D01*
X146173390Y-108700500D01*
X146175166Y-108700500D01*
X146175817Y-108700691D01*
X146178252Y-108700883D01*
X146178211Y-108701394D01*
X146242205Y-108720185D01*
X146287960Y-108772989D01*
X146297904Y-108842147D01*
X146268879Y-108905703D01*
X146262847Y-108912181D01*
X144511848Y-110663181D01*
X144450525Y-110696666D01*
X144424167Y-110699500D01*
X142745763Y-110699500D01*
X142678724Y-110679815D01*
X142638376Y-110637500D01*
X142605462Y-110580492D01*
X142605458Y-110580487D01*
X139784510Y-107759539D01*
X139767186Y-107749537D01*
X139749861Y-107739535D01*
X139749860Y-107739534D01*
X139715994Y-107719981D01*
X139715993Y-107719980D01*
X139706960Y-107717559D01*
X139639562Y-107699500D01*
X139639560Y-107699500D01*
X139352610Y-107699500D01*
X139330855Y-107693112D01*
X139308253Y-107691295D01*
X139294687Y-107682491D01*
X139285571Y-107679815D01*
X139277426Y-107674107D01*
X139270811Y-107669063D01*
X139261263Y-107659515D01*
X139249012Y-107652442D01*
X139249007Y-107652438D01*
X139164239Y-107603498D01*
X139164238Y-107603497D01*
X139164237Y-107603497D01*
X139056018Y-107574500D01*
X138943982Y-107574500D01*
X138835763Y-107603497D01*
X138835760Y-107603498D01*
X138738740Y-107659513D01*
X138738734Y-107659517D01*
X138659517Y-107738734D01*
X138659513Y-107738740D01*
X138603498Y-107835760D01*
X138603497Y-107835763D01*
X138574500Y-107943982D01*
X138574500Y-108056018D01*
X138603497Y-108164237D01*
X138659515Y-108261263D01*
X138659517Y-108261265D01*
X138686071Y-108287819D01*
X138719556Y-108349142D01*
X138714572Y-108418834D01*
X138672700Y-108474767D01*
X138607236Y-108499184D01*
X138598390Y-108499500D01*
X136001610Y-108499500D01*
X135934571Y-108479815D01*
X135888816Y-108427011D01*
X135878872Y-108357853D01*
X135907897Y-108294297D01*
X135913929Y-108287819D01*
X135923296Y-108278452D01*
X135940485Y-108261263D01*
X135996503Y-108164237D01*
X136025500Y-108056018D01*
X136025500Y-107943982D01*
X135996503Y-107835763D01*
X135940485Y-107738737D01*
X135861263Y-107659515D01*
X135794874Y-107621185D01*
X135764239Y-107603498D01*
X135764238Y-107603497D01*
X135764237Y-107603497D01*
X135656018Y-107574500D01*
X135543982Y-107574500D01*
X135435763Y-107603497D01*
X135435760Y-107603498D01*
X135338740Y-107659513D01*
X135338734Y-107659517D01*
X135259517Y-107738734D01*
X135259513Y-107738740D01*
X135203498Y-107835760D01*
X135203497Y-107835763D01*
X135174500Y-107943982D01*
X135174500Y-107949167D01*
X135165855Y-107978607D01*
X135159332Y-108008594D01*
X135155577Y-108013609D01*
X135154815Y-108016206D01*
X135138181Y-108036848D01*
X135111848Y-108063181D01*
X135050525Y-108096666D01*
X135024167Y-108099500D01*
X134249500Y-108099500D01*
X134182461Y-108079815D01*
X134136706Y-108027011D01*
X134125500Y-107975500D01*
X134125500Y-107957149D01*
X134125500Y-107957147D01*
X134103318Y-107874362D01*
X134095295Y-107860465D01*
X134060469Y-107800144D01*
X134060463Y-107800136D01*
X133999863Y-107739536D01*
X133999855Y-107739530D01*
X133925644Y-107696685D01*
X133925640Y-107696683D01*
X133925638Y-107696682D01*
X133842853Y-107674500D01*
X133757147Y-107674500D01*
X133674362Y-107696682D01*
X133674355Y-107696685D01*
X133600144Y-107739530D01*
X133600136Y-107739536D01*
X133539536Y-107800136D01*
X133539530Y-107800144D01*
X133496685Y-107874355D01*
X133496682Y-107874362D01*
X133474500Y-107957147D01*
X133474500Y-107975500D01*
X133454815Y-108042539D01*
X133402011Y-108088294D01*
X133350500Y-108099500D01*
X122960438Y-108099500D01*
X122922224Y-108109739D01*
X122884009Y-108119979D01*
X122884008Y-108119980D01*
X122821520Y-108156058D01*
X122815492Y-108159538D01*
X122815490Y-108159539D01*
X122696577Y-108278452D01*
X122635254Y-108311936D01*
X122565562Y-108306952D01*
X122509629Y-108265080D01*
X122485212Y-108199616D01*
X122500064Y-108131343D01*
X122501469Y-108128840D01*
X122503318Y-108125638D01*
X122525500Y-108042853D01*
X122525500Y-107957147D01*
X122503318Y-107874362D01*
X122495295Y-107860465D01*
X122460469Y-107800144D01*
X122460463Y-107800136D01*
X122399863Y-107739536D01*
X122399858Y-107739532D01*
X122330345Y-107699399D01*
X122304664Y-107679693D01*
X122182118Y-107557147D01*
X140874500Y-107557147D01*
X140874500Y-107642853D01*
X140891882Y-107707722D01*
X140896682Y-107725637D01*
X140896685Y-107725644D01*
X140939530Y-107799855D01*
X140939534Y-107799860D01*
X140939535Y-107799862D01*
X141000138Y-107860465D01*
X141000140Y-107860466D01*
X141000144Y-107860469D01*
X141035709Y-107881002D01*
X141074362Y-107903318D01*
X141157147Y-107925500D01*
X141157149Y-107925500D01*
X141242851Y-107925500D01*
X141242853Y-107925500D01*
X141325638Y-107903318D01*
X141399862Y-107860465D01*
X141460465Y-107799862D01*
X141503318Y-107725638D01*
X141525500Y-107642853D01*
X141525500Y-107557147D01*
X141503318Y-107474362D01*
X141483543Y-107440110D01*
X141460469Y-107400144D01*
X141460463Y-107400136D01*
X141399863Y-107339536D01*
X141399855Y-107339530D01*
X141325644Y-107296685D01*
X141325640Y-107296683D01*
X141325638Y-107296682D01*
X141242853Y-107274500D01*
X141157147Y-107274500D01*
X141074362Y-107296682D01*
X141074355Y-107296685D01*
X141000144Y-107339530D01*
X141000136Y-107339536D01*
X140939536Y-107400136D01*
X140939530Y-107400144D01*
X140896685Y-107474355D01*
X140896682Y-107474362D01*
X140874500Y-107557147D01*
X122182118Y-107557147D01*
X121837152Y-107212181D01*
X121803667Y-107150858D01*
X121808651Y-107081166D01*
X121850523Y-107025233D01*
X121915987Y-107000816D01*
X121924833Y-107000500D01*
X142495500Y-107000500D01*
X142562539Y-107020185D01*
G37*
%TD.AperFunction*%
%TA.AperFunction,Conductor*%
G36*
X153185529Y-108484713D02*
G01*
X153219553Y-108486659D01*
X153220622Y-108487223D01*
X153221216Y-108487266D01*
X153250768Y-108503130D01*
X153298641Y-108537911D01*
X153303212Y-108541232D01*
X153457555Y-108619873D01*
X153622299Y-108673402D01*
X153793389Y-108700500D01*
X153793390Y-108700500D01*
X153966610Y-108700500D01*
X153966611Y-108700500D01*
X154137701Y-108673402D01*
X154302445Y-108619873D01*
X154366807Y-108587078D01*
X154435476Y-108574183D01*
X154500217Y-108600459D01*
X154540474Y-108657566D01*
X154543466Y-108727371D01*
X154510783Y-108785245D01*
X153432848Y-109863181D01*
X153371525Y-109896666D01*
X153345167Y-109899500D01*
X152005833Y-109899500D01*
X151938794Y-109879815D01*
X151893039Y-109827011D01*
X151883095Y-109757853D01*
X151912120Y-109694297D01*
X151918152Y-109687819D01*
X152206116Y-109399855D01*
X153090204Y-108515765D01*
X153120119Y-108499430D01*
X153149797Y-108482671D01*
X153150716Y-108482723D01*
X153151525Y-108482282D01*
X153185529Y-108484713D01*
G37*
%TD.AperFunction*%
%TA.AperFunction,Conductor*%
G36*
X147882666Y-108244816D02*
G01*
X147938600Y-108286687D01*
X147939560Y-108287988D01*
X147960586Y-108316928D01*
X148083072Y-108439414D01*
X148223212Y-108541232D01*
X148377555Y-108619873D01*
X148542299Y-108673402D01*
X148713389Y-108700500D01*
X148713390Y-108700500D01*
X148886610Y-108700500D01*
X148886611Y-108700500D01*
X149057701Y-108673402D01*
X149222445Y-108619873D01*
X149286808Y-108587078D01*
X149355475Y-108574182D01*
X149420216Y-108600457D01*
X149460473Y-108657563D01*
X149463466Y-108727369D01*
X149430783Y-108785244D01*
X149053848Y-109162181D01*
X148992525Y-109195666D01*
X148966167Y-109198500D01*
X147125833Y-109198500D01*
X147058794Y-109178815D01*
X147013039Y-109126011D01*
X147003095Y-109056853D01*
X147032120Y-108993297D01*
X147038152Y-108986819D01*
X147200804Y-108824167D01*
X147751654Y-108273315D01*
X147812975Y-108239832D01*
X147882666Y-108244816D01*
G37*
%TD.AperFunction*%
M02*
