%TF.GenerationSoftware,KiCad,Pcbnew,9.0.6*%
%TF.CreationDate,2026-01-13T22:19:30-05:00*%
%TF.ProjectId,USB_PD_Module,5553425f-5044-45f4-9d6f-64756c652e6b,rev?*%
%TF.SameCoordinates,Original*%
%TF.FileFunction,Copper,L2,Inr*%
%TF.FilePolarity,Positive*%
%FSLAX46Y46*%
G04 Gerber Fmt 4.6, Leading zero omitted, Abs format (unit mm)*
G04 Created by KiCad (PCBNEW 9.0.6) date 2026-01-13 22:19:30*
%MOMM*%
%LPD*%
G01*
G04 APERTURE LIST*
%TA.AperFunction,ComponentPad*%
%ADD10O,1.800000X3.000000*%
%TD*%
%TA.AperFunction,ComponentPad*%
%ADD11O,1.700000X0.850000*%
%TD*%
%TA.AperFunction,ComponentPad*%
%ADD12O,2.000000X1.000000*%
%TD*%
%TA.AperFunction,ComponentPad*%
%ADD13O,2.200000X1.100000*%
%TD*%
%TA.AperFunction,ComponentPad*%
%ADD14C,0.400000*%
%TD*%
%TA.AperFunction,ViaPad*%
%ADD15C,0.250000*%
%TD*%
%TA.AperFunction,ViaPad*%
%ADD16C,0.500000*%
%TD*%
%TA.AperFunction,ViaPad*%
%ADD17C,0.450000*%
%TD*%
G04 APERTURE END LIST*
D10*
X101500000Y-107000000D03*
X104040000Y-107000000D03*
X106580000Y-107000000D03*
X109120000Y-107000000D03*
X111660000Y-107000000D03*
X114200000Y-107000000D03*
X116740000Y-107000000D03*
X119280000Y-107000000D03*
X143720000Y-107000000D03*
X146260000Y-107000000D03*
X148800000Y-107000000D03*
X151340000Y-107000000D03*
X153880000Y-107000000D03*
X156420000Y-107000000D03*
X158960000Y-107000000D03*
X161500000Y-107000000D03*
D11*
X127490000Y-114850000D03*
D12*
X129750000Y-112050000D03*
X133250000Y-112050000D03*
D11*
X135510000Y-114850000D03*
D13*
X131500000Y-117650000D03*
D14*
X125400000Y-111525000D03*
X124300000Y-111525000D03*
D15*
X133800000Y-108000000D03*
X146000000Y-111000000D03*
X130750000Y-115825000D03*
X133400000Y-109400000D03*
X136500000Y-117150000D03*
X117850000Y-115450000D03*
X121000000Y-116800000D03*
X132000000Y-110300000D03*
X144250000Y-112250000D03*
X136000000Y-112000000D03*
X132200000Y-113800000D03*
X132000000Y-111000000D03*
X141200000Y-107600000D03*
X147400000Y-111400000D03*
X104200000Y-110800000D03*
X145500000Y-113000000D03*
D16*
X112000000Y-117000000D03*
X159000000Y-114000000D03*
X153000000Y-119000000D03*
X105000000Y-114000000D03*
D15*
X101500000Y-118300000D03*
X132000000Y-108000000D03*
X135000000Y-110500000D03*
D16*
X156000000Y-117000000D03*
D15*
X147980000Y-113500000D03*
D16*
X93700000Y-116900000D03*
X153000000Y-111000000D03*
X150000000Y-119000000D03*
X93700000Y-110900000D03*
X114000000Y-114000000D03*
X165000000Y-120000000D03*
X122000000Y-118000000D03*
X118000000Y-108500000D03*
X156000000Y-119000000D03*
X148000000Y-109000000D03*
X150000000Y-114000000D03*
X162500000Y-117000000D03*
X153000000Y-117000000D03*
X102000000Y-120000000D03*
X102000000Y-111000000D03*
X144000000Y-109000000D03*
X156000000Y-114000000D03*
X93700000Y-119900000D03*
X114000000Y-111000000D03*
D15*
X120650000Y-114750000D03*
D16*
X150000000Y-117000000D03*
X139000000Y-117000000D03*
X150000000Y-111000000D03*
X108000000Y-117000000D03*
X156000000Y-109000000D03*
X160000000Y-120000000D03*
X168000000Y-120000000D03*
X169000000Y-110000000D03*
X159000000Y-111000000D03*
X93700000Y-107900000D03*
X156000000Y-111000000D03*
X169000000Y-116000000D03*
D15*
X137500000Y-111500000D03*
D16*
X108000000Y-111000000D03*
X139000000Y-111000000D03*
X165000000Y-108000000D03*
X93700000Y-113900000D03*
X169000000Y-113000000D03*
X129000000Y-111000000D03*
D15*
X129000000Y-108000000D03*
D16*
X126000000Y-118000000D03*
X168000000Y-108000000D03*
D15*
X126000000Y-108000000D03*
D16*
X162500000Y-120000000D03*
X117000000Y-111000000D03*
X153000000Y-109000000D03*
D15*
X139600000Y-108800000D03*
X123480000Y-116250000D03*
X146400000Y-112500000D03*
X145000000Y-113000000D03*
X147040000Y-114500000D03*
D17*
X115400000Y-114400000D03*
X139000000Y-108000000D03*
X135600000Y-108000000D03*
X142365000Y-111096849D03*
X141889594Y-113538807D03*
X142000000Y-113000000D03*
X143000000Y-111500000D03*
D16*
X130300000Y-114850000D03*
X132100000Y-114850000D03*
X132700000Y-114850000D03*
X126150000Y-113450000D03*
X126650000Y-112600000D03*
X126650000Y-113700000D03*
X130900000Y-114850000D03*
X131500000Y-114850000D03*
X126150000Y-112900000D03*
X126650000Y-113150000D03*
D17*
X97800000Y-111650000D03*
X96600000Y-111650000D03*
X102950000Y-117150000D03*
X102950000Y-116550000D03*
X102950000Y-117750000D03*
X97200000Y-111650000D03*
X96000000Y-111650000D03*
X98400000Y-111650000D03*
X102350000Y-116550000D03*
D15*
X143500000Y-113000000D03*
D17*
X137000000Y-113000000D03*
D15*
X144000000Y-113500000D03*
X122200000Y-108000000D03*
X144000000Y-113000000D03*
X143500000Y-113500000D03*
X134400000Y-109200000D03*
X117600000Y-109800000D03*
D17*
X138000000Y-112800000D03*
D15*
X147000000Y-119000000D03*
X141200000Y-114400000D03*
X145500000Y-114500000D03*
X145000000Y-114000000D03*
X147000000Y-117400000D03*
X141600000Y-115400000D03*
X144500000Y-113000000D03*
X148600000Y-119000000D03*
X144200000Y-115200000D03*
X121200000Y-112800000D03*
X126400000Y-119600000D03*
D17*
X102950000Y-118350000D03*
D15*
X139500000Y-118000000D03*
D17*
X134900000Y-117900000D03*
D15*
X131800000Y-115400000D03*
X131294594Y-113780405D03*
D17*
X131850000Y-116645937D03*
X141625333Y-118043079D03*
X135600000Y-117900000D03*
X131150000Y-116645937D03*
D15*
X131725001Y-113000000D03*
D17*
X141625333Y-117343079D03*
D15*
X143000000Y-114000000D03*
X142500000Y-116980000D03*
X143500000Y-116980000D03*
X143500000Y-114000000D03*
X166101454Y-115168161D03*
X142153400Y-115553400D03*
X142400000Y-119050000D03*
X142400000Y-118550000D03*
X166455008Y-114814607D03*
X142776777Y-115601777D03*
D16*
X104050000Y-115800000D03*
X104850000Y-115300000D03*
X116250000Y-117750000D03*
X104600000Y-115800000D03*
X116750000Y-117450000D03*
X103750000Y-115300000D03*
X116750000Y-118550000D03*
X116250000Y-118300000D03*
X104300000Y-115300000D03*
X116750000Y-118000000D03*
%TA.AperFunction,Conductor*%
G36*
X100342539Y-107020185D02*
G01*
X100388294Y-107072989D01*
X100399500Y-107124500D01*
X100399500Y-107686611D01*
X100402844Y-107707722D01*
X100425806Y-107852705D01*
X100426598Y-107857701D01*
X100480127Y-108022445D01*
X100558768Y-108176788D01*
X100660586Y-108316928D01*
X100783072Y-108439414D01*
X100923212Y-108541232D01*
X101077555Y-108619873D01*
X101242299Y-108673402D01*
X101413389Y-108700500D01*
X101413390Y-108700500D01*
X101586610Y-108700500D01*
X101586611Y-108700500D01*
X101757701Y-108673402D01*
X101922445Y-108619873D01*
X102076788Y-108541232D01*
X102216928Y-108439414D01*
X102339414Y-108316928D01*
X102441232Y-108176788D01*
X102519873Y-108022445D01*
X102573402Y-107857701D01*
X102600500Y-107686611D01*
X102600500Y-107124500D01*
X102603050Y-107115814D01*
X102601762Y-107106853D01*
X102612740Y-107082812D01*
X102620185Y-107057461D01*
X102627025Y-107051533D01*
X102630787Y-107043297D01*
X102653021Y-107029007D01*
X102672989Y-107011706D01*
X102683503Y-107009418D01*
X102689565Y-107005523D01*
X102724500Y-107000500D01*
X102815500Y-107000500D01*
X102882539Y-107020185D01*
X102928294Y-107072989D01*
X102939500Y-107124500D01*
X102939500Y-107686611D01*
X102942844Y-107707722D01*
X102965806Y-107852705D01*
X102966598Y-107857701D01*
X103020127Y-108022445D01*
X103098768Y-108176788D01*
X103200586Y-108316928D01*
X103323072Y-108439414D01*
X103463212Y-108541232D01*
X103617555Y-108619873D01*
X103782299Y-108673402D01*
X103953389Y-108700500D01*
X103953390Y-108700500D01*
X104126610Y-108700500D01*
X104126611Y-108700500D01*
X104297701Y-108673402D01*
X104462445Y-108619873D01*
X104616788Y-108541232D01*
X104756928Y-108439414D01*
X104879414Y-108316928D01*
X104981232Y-108176788D01*
X105059873Y-108022445D01*
X105113402Y-107857701D01*
X105137156Y-107707720D01*
X105167085Y-107644587D01*
X105226396Y-107607655D01*
X105296259Y-107608653D01*
X105354492Y-107647262D01*
X105382102Y-107707720D01*
X105409548Y-107881002D01*
X105467914Y-108060637D01*
X105553670Y-108228940D01*
X105664685Y-108381741D01*
X105664689Y-108381746D01*
X105798253Y-108515310D01*
X105798258Y-108515314D01*
X105951052Y-108626324D01*
X105951066Y-108626333D01*
X106080000Y-108692027D01*
X107080000Y-108692027D01*
X107208933Y-108626333D01*
X107208947Y-108626324D01*
X107361741Y-108515314D01*
X107361746Y-108515310D01*
X107495310Y-108381746D01*
X107495314Y-108381741D01*
X107606329Y-108228940D01*
X107692085Y-108060637D01*
X107732069Y-107937579D01*
X107771506Y-107879904D01*
X107835865Y-107852705D01*
X107904711Y-107864619D01*
X107956187Y-107911863D01*
X107967931Y-107937579D01*
X108007914Y-108060637D01*
X108093670Y-108228940D01*
X108204685Y-108381741D01*
X108204689Y-108381746D01*
X108338253Y-108515310D01*
X108338258Y-108515314D01*
X108491052Y-108626324D01*
X108491066Y-108626333D01*
X108620000Y-108692027D01*
X108620000Y-107500000D01*
X107905301Y-107500000D01*
X107876358Y-107515804D01*
X107806666Y-107510820D01*
X107789830Y-107500000D01*
X107080000Y-107500000D01*
X107080000Y-108692027D01*
X106080000Y-108692027D01*
X106080000Y-107233974D01*
X106139890Y-107337708D01*
X106242292Y-107440110D01*
X106367708Y-107512518D01*
X106507591Y-107550000D01*
X106652409Y-107550000D01*
X106792292Y-107512518D01*
X106917708Y-107440110D01*
X107020110Y-107337708D01*
X107092518Y-107212292D01*
X107130000Y-107072409D01*
X107130000Y-107000500D01*
X108570000Y-107000500D01*
X108570000Y-107072409D01*
X108607482Y-107212292D01*
X108679890Y-107337708D01*
X108782292Y-107440110D01*
X108907708Y-107512518D01*
X109047591Y-107550000D01*
X109192409Y-107550000D01*
X109332292Y-107512518D01*
X109457708Y-107440110D01*
X109560110Y-107337708D01*
X109620000Y-107233974D01*
X109620000Y-108692027D01*
X109748933Y-108626333D01*
X109748947Y-108626324D01*
X109901741Y-108515314D01*
X109901746Y-108515310D01*
X110035310Y-108381746D01*
X110035314Y-108381741D01*
X110146329Y-108228940D01*
X110232085Y-108060637D01*
X110290451Y-107881002D01*
X110317897Y-107707721D01*
X110347826Y-107644586D01*
X110407138Y-107607655D01*
X110477000Y-107608653D01*
X110535233Y-107647263D01*
X110562843Y-107707721D01*
X110586597Y-107857695D01*
X110586598Y-107857701D01*
X110640127Y-108022445D01*
X110718768Y-108176788D01*
X110820586Y-108316928D01*
X110943072Y-108439414D01*
X111083212Y-108541232D01*
X111237555Y-108619873D01*
X111402299Y-108673402D01*
X111573389Y-108700500D01*
X111573390Y-108700500D01*
X111746610Y-108700500D01*
X111746611Y-108700500D01*
X111917701Y-108673402D01*
X112082445Y-108619873D01*
X112236788Y-108541232D01*
X112376928Y-108439414D01*
X112499414Y-108316928D01*
X112601232Y-108176788D01*
X112679873Y-108022445D01*
X112733402Y-107857701D01*
X112760500Y-107686611D01*
X112760500Y-107124500D01*
X112763050Y-107115814D01*
X112761762Y-107106853D01*
X112772740Y-107082812D01*
X112780185Y-107057461D01*
X112787025Y-107051533D01*
X112790787Y-107043297D01*
X112813021Y-107029007D01*
X112832989Y-107011706D01*
X112843503Y-107009418D01*
X112849565Y-107005523D01*
X112884500Y-107000500D01*
X112975500Y-107000500D01*
X113042539Y-107020185D01*
X113088294Y-107072989D01*
X113099500Y-107124500D01*
X113099500Y-107686611D01*
X113102844Y-107707722D01*
X113125806Y-107852705D01*
X113126598Y-107857701D01*
X113180127Y-108022445D01*
X113258768Y-108176788D01*
X113360586Y-108316928D01*
X113483072Y-108439414D01*
X113623212Y-108541232D01*
X113777555Y-108619873D01*
X113942299Y-108673402D01*
X114113389Y-108700500D01*
X114113390Y-108700500D01*
X114286610Y-108700500D01*
X114286611Y-108700500D01*
X114457701Y-108673402D01*
X114622445Y-108619873D01*
X114776788Y-108541232D01*
X114916928Y-108439414D01*
X115039414Y-108316928D01*
X115141232Y-108176788D01*
X115219873Y-108022445D01*
X115273402Y-107857701D01*
X115300500Y-107686611D01*
X115300500Y-107124500D01*
X115303050Y-107115814D01*
X115301762Y-107106853D01*
X115312740Y-107082812D01*
X115320185Y-107057461D01*
X115327025Y-107051533D01*
X115330787Y-107043297D01*
X115353021Y-107029007D01*
X115372989Y-107011706D01*
X115383503Y-107009418D01*
X115389565Y-107005523D01*
X115424500Y-107000500D01*
X115515500Y-107000500D01*
X115582539Y-107020185D01*
X115628294Y-107072989D01*
X115639500Y-107124500D01*
X115639500Y-107686611D01*
X115642844Y-107707722D01*
X115665806Y-107852705D01*
X115666598Y-107857701D01*
X115720127Y-108022445D01*
X115798768Y-108176788D01*
X115900586Y-108316928D01*
X116023072Y-108439414D01*
X116163212Y-108541232D01*
X116317555Y-108619873D01*
X116482299Y-108673402D01*
X116653389Y-108700500D01*
X116653390Y-108700500D01*
X116826610Y-108700500D01*
X116826611Y-108700500D01*
X116997701Y-108673402D01*
X117162445Y-108619873D01*
X117316788Y-108541232D01*
X117456928Y-108439414D01*
X117579414Y-108316928D01*
X117681232Y-108176788D01*
X117759873Y-108022445D01*
X117813402Y-107857701D01*
X117840500Y-107686611D01*
X117840500Y-107124500D01*
X117843050Y-107115814D01*
X117841762Y-107106853D01*
X117852740Y-107082812D01*
X117860185Y-107057461D01*
X117867025Y-107051533D01*
X117870787Y-107043297D01*
X117893021Y-107029007D01*
X117912989Y-107011706D01*
X117923503Y-107009418D01*
X117929565Y-107005523D01*
X117964500Y-107000500D01*
X118055500Y-107000500D01*
X118122539Y-107020185D01*
X118168294Y-107072989D01*
X118179500Y-107124500D01*
X118179500Y-107686611D01*
X118182844Y-107707722D01*
X118205806Y-107852705D01*
X118206598Y-107857701D01*
X118260127Y-108022445D01*
X118338768Y-108176788D01*
X118440586Y-108316928D01*
X118563072Y-108439414D01*
X118703212Y-108541232D01*
X118857555Y-108619873D01*
X119022299Y-108673402D01*
X119193389Y-108700500D01*
X119193390Y-108700500D01*
X119366610Y-108700500D01*
X119366611Y-108700500D01*
X119537701Y-108673402D01*
X119702445Y-108619873D01*
X119856788Y-108541232D01*
X119996928Y-108439414D01*
X120119414Y-108316928D01*
X120221232Y-108176788D01*
X120299873Y-108022445D01*
X120321090Y-107957147D01*
X121874500Y-107957147D01*
X121874500Y-108042853D01*
X121878028Y-108056017D01*
X121896682Y-108125637D01*
X121896685Y-108125644D01*
X121939530Y-108199855D01*
X121939534Y-108199860D01*
X121939535Y-108199862D01*
X122000138Y-108260465D01*
X122000140Y-108260466D01*
X122000144Y-108260469D01*
X122074355Y-108303314D01*
X122074362Y-108303318D01*
X122157147Y-108325500D01*
X122157149Y-108325500D01*
X122242851Y-108325500D01*
X122242853Y-108325500D01*
X122325638Y-108303318D01*
X122399862Y-108260465D01*
X122460465Y-108199862D01*
X122503318Y-108125638D01*
X122525500Y-108042853D01*
X122525500Y-107957147D01*
X133474500Y-107957147D01*
X133474500Y-108042853D01*
X133478028Y-108056017D01*
X133496682Y-108125637D01*
X133496685Y-108125644D01*
X133539530Y-108199855D01*
X133539534Y-108199860D01*
X133539535Y-108199862D01*
X133600138Y-108260465D01*
X133600140Y-108260466D01*
X133600144Y-108260469D01*
X133674355Y-108303314D01*
X133674362Y-108303318D01*
X133757147Y-108325500D01*
X133757149Y-108325500D01*
X133842851Y-108325500D01*
X133842853Y-108325500D01*
X133925638Y-108303318D01*
X133999862Y-108260465D01*
X134060465Y-108199862D01*
X134103318Y-108125638D01*
X134125500Y-108042853D01*
X134125500Y-107957147D01*
X134121972Y-107943982D01*
X135174500Y-107943982D01*
X135174500Y-108056018D01*
X135203497Y-108164237D01*
X135259515Y-108261263D01*
X135338737Y-108340485D01*
X135435763Y-108396503D01*
X135543982Y-108425500D01*
X135543984Y-108425500D01*
X135656016Y-108425500D01*
X135656018Y-108425500D01*
X135764237Y-108396503D01*
X135861263Y-108340485D01*
X135940485Y-108261263D01*
X135996503Y-108164237D01*
X136025500Y-108056018D01*
X136025500Y-107943982D01*
X138574500Y-107943982D01*
X138574500Y-108056018D01*
X138603497Y-108164237D01*
X138659515Y-108261263D01*
X138738737Y-108340485D01*
X138835763Y-108396503D01*
X138943982Y-108425500D01*
X138943984Y-108425500D01*
X139056016Y-108425500D01*
X139056018Y-108425500D01*
X139164237Y-108396503D01*
X139261263Y-108340485D01*
X139340485Y-108261263D01*
X139396503Y-108164237D01*
X139425500Y-108056018D01*
X139425500Y-107943982D01*
X139396503Y-107835763D01*
X139340485Y-107738737D01*
X139261263Y-107659515D01*
X139255877Y-107656405D01*
X139164239Y-107603498D01*
X139164238Y-107603497D01*
X139164237Y-107603497D01*
X139056018Y-107574500D01*
X138943982Y-107574500D01*
X138835763Y-107603497D01*
X138835760Y-107603498D01*
X138738740Y-107659513D01*
X138738734Y-107659517D01*
X138659517Y-107738734D01*
X138659513Y-107738740D01*
X138603498Y-107835760D01*
X138603497Y-107835763D01*
X138574500Y-107943982D01*
X136025500Y-107943982D01*
X135996503Y-107835763D01*
X135940485Y-107738737D01*
X135861263Y-107659515D01*
X135796579Y-107622169D01*
X135764239Y-107603498D01*
X135764238Y-107603497D01*
X135764237Y-107603497D01*
X135656018Y-107574500D01*
X135543982Y-107574500D01*
X135435763Y-107603497D01*
X135435760Y-107603498D01*
X135338740Y-107659513D01*
X135338734Y-107659517D01*
X135259517Y-107738734D01*
X135259513Y-107738740D01*
X135203498Y-107835760D01*
X135203497Y-107835763D01*
X135174500Y-107943982D01*
X134121972Y-107943982D01*
X134103318Y-107874362D01*
X134095295Y-107860465D01*
X134060469Y-107800144D01*
X134060463Y-107800136D01*
X133999863Y-107739536D01*
X133999855Y-107739530D01*
X133925644Y-107696685D01*
X133925640Y-107696683D01*
X133925638Y-107696682D01*
X133842853Y-107674500D01*
X133757147Y-107674500D01*
X133674362Y-107696682D01*
X133674355Y-107696685D01*
X133600144Y-107739530D01*
X133600136Y-107739536D01*
X133539536Y-107800136D01*
X133539530Y-107800144D01*
X133496685Y-107874355D01*
X133496682Y-107874362D01*
X133474500Y-107957147D01*
X122525500Y-107957147D01*
X122503318Y-107874362D01*
X122495295Y-107860465D01*
X122460469Y-107800144D01*
X122460463Y-107800136D01*
X122399863Y-107739536D01*
X122399855Y-107739530D01*
X122325644Y-107696685D01*
X122325640Y-107696683D01*
X122325638Y-107696682D01*
X122242853Y-107674500D01*
X122157147Y-107674500D01*
X122074362Y-107696682D01*
X122074355Y-107696685D01*
X122000144Y-107739530D01*
X122000136Y-107739536D01*
X121939536Y-107800136D01*
X121939530Y-107800144D01*
X121896685Y-107874355D01*
X121896682Y-107874362D01*
X121874500Y-107957147D01*
X120321090Y-107957147D01*
X120353402Y-107857701D01*
X120380500Y-107686611D01*
X120380500Y-107557147D01*
X140874500Y-107557147D01*
X140874500Y-107642853D01*
X140891882Y-107707722D01*
X140896682Y-107725637D01*
X140896685Y-107725644D01*
X140939530Y-107799855D01*
X140939534Y-107799860D01*
X140939535Y-107799862D01*
X141000138Y-107860465D01*
X141000140Y-107860466D01*
X141000144Y-107860469D01*
X141035709Y-107881002D01*
X141074362Y-107903318D01*
X141157147Y-107925500D01*
X141157149Y-107925500D01*
X141242851Y-107925500D01*
X141242853Y-107925500D01*
X141325638Y-107903318D01*
X141399862Y-107860465D01*
X141460465Y-107799862D01*
X141503318Y-107725638D01*
X141525500Y-107642853D01*
X141525500Y-107557147D01*
X141503318Y-107474362D01*
X141483543Y-107440110D01*
X141460469Y-107400144D01*
X141460463Y-107400136D01*
X141399863Y-107339536D01*
X141399855Y-107339530D01*
X141325644Y-107296685D01*
X141325640Y-107296683D01*
X141325638Y-107296682D01*
X141242853Y-107274500D01*
X141157147Y-107274500D01*
X141074362Y-107296682D01*
X141074355Y-107296685D01*
X141000144Y-107339530D01*
X141000136Y-107339536D01*
X140939536Y-107400136D01*
X140939530Y-107400144D01*
X140896685Y-107474355D01*
X140896682Y-107474362D01*
X140874500Y-107557147D01*
X120380500Y-107557147D01*
X120380500Y-107124500D01*
X120400185Y-107057461D01*
X120452989Y-107011706D01*
X120504500Y-107000500D01*
X142495500Y-107000500D01*
X142562539Y-107020185D01*
X142608294Y-107072989D01*
X142619500Y-107124500D01*
X142619500Y-107686611D01*
X142622844Y-107707722D01*
X142645806Y-107852705D01*
X142646598Y-107857701D01*
X142700127Y-108022445D01*
X142778768Y-108176788D01*
X142880586Y-108316928D01*
X143003072Y-108439414D01*
X143143212Y-108541232D01*
X143297555Y-108619873D01*
X143462299Y-108673402D01*
X143633389Y-108700500D01*
X143633390Y-108700500D01*
X143806610Y-108700500D01*
X143806611Y-108700500D01*
X143977701Y-108673402D01*
X144142445Y-108619873D01*
X144296788Y-108541232D01*
X144436928Y-108439414D01*
X144559414Y-108316928D01*
X144661232Y-108176788D01*
X144739873Y-108022445D01*
X144793402Y-107857701D01*
X144820500Y-107686611D01*
X144820500Y-107124500D01*
X144823050Y-107115814D01*
X144821762Y-107106853D01*
X144832740Y-107082812D01*
X144840185Y-107057461D01*
X144847025Y-107051533D01*
X144850787Y-107043297D01*
X144873021Y-107029007D01*
X144892989Y-107011706D01*
X144903503Y-107009418D01*
X144909565Y-107005523D01*
X144944500Y-107000500D01*
X145035500Y-107000500D01*
X145102539Y-107020185D01*
X145148294Y-107072989D01*
X145159500Y-107124500D01*
X145159500Y-107686611D01*
X145162844Y-107707722D01*
X145185806Y-107852705D01*
X145186598Y-107857701D01*
X145240127Y-108022445D01*
X145318768Y-108176788D01*
X145420586Y-108316928D01*
X145543072Y-108439414D01*
X145683212Y-108541232D01*
X145837555Y-108619873D01*
X146002299Y-108673402D01*
X146173389Y-108700500D01*
X146173390Y-108700500D01*
X146346610Y-108700500D01*
X146346611Y-108700500D01*
X146517701Y-108673402D01*
X146682445Y-108619873D01*
X146836788Y-108541232D01*
X146976928Y-108439414D01*
X147099414Y-108316928D01*
X147201232Y-108176788D01*
X147279873Y-108022445D01*
X147333402Y-107857701D01*
X147360500Y-107686611D01*
X147360500Y-107124500D01*
X147363050Y-107115814D01*
X147361762Y-107106853D01*
X147372740Y-107082812D01*
X147380185Y-107057461D01*
X147387025Y-107051533D01*
X147390787Y-107043297D01*
X147413021Y-107029007D01*
X147432989Y-107011706D01*
X147443503Y-107009418D01*
X147449565Y-107005523D01*
X147484500Y-107000500D01*
X147575500Y-107000500D01*
X147642539Y-107020185D01*
X147688294Y-107072989D01*
X147699500Y-107124500D01*
X147699500Y-107686611D01*
X147702844Y-107707722D01*
X147725806Y-107852705D01*
X147726598Y-107857701D01*
X147780127Y-108022445D01*
X147858768Y-108176788D01*
X147960586Y-108316928D01*
X148083072Y-108439414D01*
X148223212Y-108541232D01*
X148377555Y-108619873D01*
X148542299Y-108673402D01*
X148713389Y-108700500D01*
X148713390Y-108700500D01*
X148886610Y-108700500D01*
X148886611Y-108700500D01*
X149057701Y-108673402D01*
X149222445Y-108619873D01*
X149376788Y-108541232D01*
X149516928Y-108439414D01*
X149639414Y-108316928D01*
X149741232Y-108176788D01*
X149819873Y-108022445D01*
X149873402Y-107857701D01*
X149900500Y-107686611D01*
X149900500Y-107124500D01*
X149903050Y-107115814D01*
X149901762Y-107106853D01*
X149912740Y-107082812D01*
X149920185Y-107057461D01*
X149927025Y-107051533D01*
X149930787Y-107043297D01*
X149953021Y-107029007D01*
X149972989Y-107011706D01*
X149983503Y-107009418D01*
X149989565Y-107005523D01*
X150024500Y-107000500D01*
X150115500Y-107000500D01*
X150182539Y-107020185D01*
X150228294Y-107072989D01*
X150239500Y-107124500D01*
X150239500Y-107686611D01*
X150242844Y-107707722D01*
X150265806Y-107852705D01*
X150266598Y-107857701D01*
X150320127Y-108022445D01*
X150398768Y-108176788D01*
X150500586Y-108316928D01*
X150623072Y-108439414D01*
X150763212Y-108541232D01*
X150917555Y-108619873D01*
X151082299Y-108673402D01*
X151253389Y-108700500D01*
X151253390Y-108700500D01*
X151426610Y-108700500D01*
X151426611Y-108700500D01*
X151597701Y-108673402D01*
X151762445Y-108619873D01*
X151916788Y-108541232D01*
X152056928Y-108439414D01*
X152179414Y-108316928D01*
X152281232Y-108176788D01*
X152359873Y-108022445D01*
X152413402Y-107857701D01*
X152440500Y-107686611D01*
X152440500Y-107124500D01*
X152443050Y-107115814D01*
X152441762Y-107106853D01*
X152452740Y-107082812D01*
X152460185Y-107057461D01*
X152467025Y-107051533D01*
X152470787Y-107043297D01*
X152493021Y-107029007D01*
X152512989Y-107011706D01*
X152523503Y-107009418D01*
X152529565Y-107005523D01*
X152564500Y-107000500D01*
X152655500Y-107000500D01*
X152722539Y-107020185D01*
X152768294Y-107072989D01*
X152779500Y-107124500D01*
X152779500Y-107686611D01*
X152782844Y-107707722D01*
X152805806Y-107852705D01*
X152806598Y-107857701D01*
X152860127Y-108022445D01*
X152938768Y-108176788D01*
X153040586Y-108316928D01*
X153163072Y-108439414D01*
X153303212Y-108541232D01*
X153457555Y-108619873D01*
X153622299Y-108673402D01*
X153793389Y-108700500D01*
X153793390Y-108700500D01*
X153966610Y-108700500D01*
X153966611Y-108700500D01*
X154137701Y-108673402D01*
X154302445Y-108619873D01*
X154456788Y-108541232D01*
X154596928Y-108439414D01*
X154719414Y-108316928D01*
X154821232Y-108176788D01*
X154899873Y-108022445D01*
X154953402Y-107857701D01*
X154980500Y-107686611D01*
X154980500Y-107124500D01*
X154983050Y-107115814D01*
X154981762Y-107106853D01*
X154992740Y-107082812D01*
X155000185Y-107057461D01*
X155007025Y-107051533D01*
X155010787Y-107043297D01*
X155033021Y-107029007D01*
X155052989Y-107011706D01*
X155063503Y-107009418D01*
X155069565Y-107005523D01*
X155104500Y-107000500D01*
X155195500Y-107000500D01*
X155262539Y-107020185D01*
X155308294Y-107072989D01*
X155319500Y-107124500D01*
X155319500Y-107686611D01*
X155322844Y-107707722D01*
X155345806Y-107852705D01*
X155346598Y-107857701D01*
X155400127Y-108022445D01*
X155478768Y-108176788D01*
X155580586Y-108316928D01*
X155703072Y-108439414D01*
X155843212Y-108541232D01*
X155997555Y-108619873D01*
X156162299Y-108673402D01*
X156333389Y-108700500D01*
X156333390Y-108700500D01*
X156506610Y-108700500D01*
X156506611Y-108700500D01*
X156677701Y-108673402D01*
X156842445Y-108619873D01*
X156996788Y-108541232D01*
X157136928Y-108439414D01*
X157259414Y-108316928D01*
X157361232Y-108176788D01*
X157439873Y-108022445D01*
X157493402Y-107857701D01*
X157520500Y-107686611D01*
X157520500Y-107124500D01*
X157523050Y-107115814D01*
X157521762Y-107106853D01*
X157532740Y-107082812D01*
X157540185Y-107057461D01*
X157547025Y-107051533D01*
X157550787Y-107043297D01*
X157573021Y-107029007D01*
X157592989Y-107011706D01*
X157603503Y-107009418D01*
X157609565Y-107005523D01*
X157644500Y-107000500D01*
X157735500Y-107000500D01*
X157802539Y-107020185D01*
X157848294Y-107072989D01*
X157859500Y-107124500D01*
X157859500Y-107686611D01*
X157862844Y-107707722D01*
X157885806Y-107852705D01*
X157886598Y-107857701D01*
X157940127Y-108022445D01*
X158018768Y-108176788D01*
X158120586Y-108316928D01*
X158243072Y-108439414D01*
X158383212Y-108541232D01*
X158537555Y-108619873D01*
X158702299Y-108673402D01*
X158873389Y-108700500D01*
X158873390Y-108700500D01*
X159046610Y-108700500D01*
X159046611Y-108700500D01*
X159217701Y-108673402D01*
X159382445Y-108619873D01*
X159536788Y-108541232D01*
X159676928Y-108439414D01*
X159799414Y-108316928D01*
X159901232Y-108176788D01*
X159979873Y-108022445D01*
X160033402Y-107857701D01*
X160060500Y-107686611D01*
X160060500Y-107124500D01*
X160063050Y-107115814D01*
X160061762Y-107106853D01*
X160072740Y-107082812D01*
X160080185Y-107057461D01*
X160087025Y-107051533D01*
X160090787Y-107043297D01*
X160113021Y-107029007D01*
X160132989Y-107011706D01*
X160143503Y-107009418D01*
X160149565Y-107005523D01*
X160184500Y-107000500D01*
X160275500Y-107000500D01*
X160342539Y-107020185D01*
X160388294Y-107072989D01*
X160399500Y-107124500D01*
X160399500Y-107686611D01*
X160402844Y-107707722D01*
X160425806Y-107852705D01*
X160426598Y-107857701D01*
X160480127Y-108022445D01*
X160558768Y-108176788D01*
X160660586Y-108316928D01*
X160783072Y-108439414D01*
X160923212Y-108541232D01*
X161077555Y-108619873D01*
X161242299Y-108673402D01*
X161413389Y-108700500D01*
X161413390Y-108700500D01*
X161586610Y-108700500D01*
X161586611Y-108700500D01*
X161757701Y-108673402D01*
X161922445Y-108619873D01*
X162076788Y-108541232D01*
X162216928Y-108439414D01*
X162339414Y-108316928D01*
X162441232Y-108176788D01*
X162519873Y-108022445D01*
X162573402Y-107857701D01*
X162600500Y-107686611D01*
X162600500Y-107124500D01*
X162620185Y-107057461D01*
X162672989Y-107011706D01*
X162724500Y-107000500D01*
X169875500Y-107000500D01*
X169942539Y-107020185D01*
X169988294Y-107072989D01*
X169999500Y-107124500D01*
X169999500Y-120276000D01*
X169979815Y-120343039D01*
X169927011Y-120388794D01*
X169875500Y-120400000D01*
X93124500Y-120400000D01*
X93057461Y-120380315D01*
X93011706Y-120327511D01*
X93000500Y-120276000D01*
X93000500Y-119557147D01*
X126074500Y-119557147D01*
X126074500Y-119642852D01*
X126096682Y-119725637D01*
X126096685Y-119725644D01*
X126139530Y-119799855D01*
X126139534Y-119799860D01*
X126139535Y-119799862D01*
X126200138Y-119860465D01*
X126200140Y-119860466D01*
X126200144Y-119860469D01*
X126274355Y-119903314D01*
X126274362Y-119903318D01*
X126357147Y-119925500D01*
X126357149Y-119925500D01*
X126442851Y-119925500D01*
X126442853Y-119925500D01*
X126525638Y-119903318D01*
X126599862Y-119860465D01*
X126660465Y-119799862D01*
X126703318Y-119725638D01*
X126725500Y-119642853D01*
X126725500Y-119557147D01*
X126703318Y-119474362D01*
X126703314Y-119474355D01*
X126660469Y-119400144D01*
X126660463Y-119400136D01*
X126599863Y-119339536D01*
X126599855Y-119339530D01*
X126525644Y-119296685D01*
X126525640Y-119296683D01*
X126525638Y-119296682D01*
X126442853Y-119274500D01*
X126357147Y-119274500D01*
X126274362Y-119296682D01*
X126274355Y-119296685D01*
X126200144Y-119339530D01*
X126200136Y-119339536D01*
X126139536Y-119400136D01*
X126139530Y-119400144D01*
X126096685Y-119474355D01*
X126096682Y-119474362D01*
X126074500Y-119557147D01*
X93000500Y-119557147D01*
X93000500Y-116493982D01*
X101924500Y-116493982D01*
X101924500Y-116606018D01*
X101953497Y-116714237D01*
X102009515Y-116811263D01*
X102088737Y-116890485D01*
X102185763Y-116946503D01*
X102293982Y-116975500D01*
X102293984Y-116975500D01*
X102400500Y-116975500D01*
X102467539Y-116995185D01*
X102513294Y-117047989D01*
X102524500Y-117099500D01*
X102524500Y-117206018D01*
X102549549Y-117299500D01*
X102553497Y-117314236D01*
X102553498Y-117314239D01*
X102596084Y-117388000D01*
X102612557Y-117455900D01*
X102596084Y-117512000D01*
X102553498Y-117585760D01*
X102553497Y-117585763D01*
X102524500Y-117693982D01*
X102524500Y-117806018D01*
X102549683Y-117900000D01*
X102553497Y-117914236D01*
X102553498Y-117914239D01*
X102596084Y-117988000D01*
X102612557Y-118055900D01*
X102596084Y-118112000D01*
X102553498Y-118185760D01*
X102553497Y-118185763D01*
X102524500Y-118293982D01*
X102524500Y-118406018D01*
X102553497Y-118514237D01*
X102609515Y-118611263D01*
X102688737Y-118690485D01*
X102785763Y-118746503D01*
X102893982Y-118775500D01*
X102893984Y-118775500D01*
X103006016Y-118775500D01*
X103006018Y-118775500D01*
X103114237Y-118746503D01*
X103211263Y-118690485D01*
X103290485Y-118611263D01*
X103346503Y-118514237D01*
X103375500Y-118406018D01*
X103375500Y-118293982D01*
X103346503Y-118185763D01*
X103303913Y-118111996D01*
X103287442Y-118044101D01*
X103303913Y-117988004D01*
X103346503Y-117914237D01*
X103375500Y-117806018D01*
X103375500Y-117693982D01*
X103374618Y-117690691D01*
X115799500Y-117690691D01*
X115799500Y-117809309D01*
X115830201Y-117923886D01*
X115839904Y-117940693D01*
X115852784Y-117963001D01*
X115869256Y-118030901D01*
X115852784Y-118086999D01*
X115830201Y-118126113D01*
X115830201Y-118126114D01*
X115799500Y-118240691D01*
X115799500Y-118359309D01*
X115830201Y-118473886D01*
X115889511Y-118576613D01*
X115973387Y-118660489D01*
X116076114Y-118719799D01*
X116190691Y-118750500D01*
X116190694Y-118750500D01*
X116273976Y-118750500D01*
X116341015Y-118770185D01*
X116381362Y-118812499D01*
X116389511Y-118826613D01*
X116473387Y-118910489D01*
X116576114Y-118969799D01*
X116690691Y-119000500D01*
X116690694Y-119000500D01*
X116809306Y-119000500D01*
X116809309Y-119000500D01*
X116923886Y-118969799D01*
X117026613Y-118910489D01*
X117110489Y-118826613D01*
X117169799Y-118723886D01*
X117200500Y-118609309D01*
X117200500Y-118490691D01*
X117169799Y-118376114D01*
X117147216Y-118337000D01*
X117146401Y-118333640D01*
X117144030Y-118331122D01*
X117138222Y-118299928D01*
X117130743Y-118269102D01*
X117131686Y-118264827D01*
X117131241Y-118262433D01*
X117134319Y-118252906D01*
X117139779Y-118228187D01*
X117142977Y-118220341D01*
X117169799Y-118173886D01*
X117176199Y-118150000D01*
X130261803Y-118150000D01*
X130289763Y-118191846D01*
X130408152Y-118310235D01*
X130408160Y-118310241D01*
X130547371Y-118403259D01*
X130702063Y-118467334D01*
X130702071Y-118467336D01*
X130866277Y-118499999D01*
X130866280Y-118500000D01*
X131000000Y-118500000D01*
X132000000Y-118500000D01*
X132133720Y-118500000D01*
X132133722Y-118499999D01*
X132297928Y-118467336D01*
X132297936Y-118467334D01*
X132452627Y-118403259D01*
X132452628Y-118403259D01*
X132591839Y-118310241D01*
X132591847Y-118310235D01*
X132710236Y-118191846D01*
X132738197Y-118150000D01*
X132000000Y-118150000D01*
X132000000Y-118500000D01*
X131000000Y-118500000D01*
X131000000Y-118150000D01*
X130261803Y-118150000D01*
X117176199Y-118150000D01*
X117200500Y-118059309D01*
X117200500Y-117940691D01*
X117169799Y-117826114D01*
X117143214Y-117780068D01*
X117140138Y-117772684D01*
X117137169Y-117745591D01*
X117130743Y-117719102D01*
X117133310Y-117710359D01*
X117132529Y-117703230D01*
X117139532Y-117689167D01*
X117147217Y-117662998D01*
X117169799Y-117623886D01*
X117176126Y-117600272D01*
X130600000Y-117600272D01*
X130600000Y-117699728D01*
X130638060Y-117791614D01*
X130708386Y-117861940D01*
X130800272Y-117900000D01*
X132199728Y-117900000D01*
X132291614Y-117861940D01*
X132309572Y-117843982D01*
X134474500Y-117843982D01*
X134474500Y-117956018D01*
X134503497Y-118064237D01*
X134559515Y-118161263D01*
X134638737Y-118240485D01*
X134735763Y-118296503D01*
X134843982Y-118325500D01*
X134843984Y-118325500D01*
X134956016Y-118325500D01*
X134956018Y-118325500D01*
X135064237Y-118296503D01*
X135161263Y-118240485D01*
X135162319Y-118239429D01*
X135163426Y-118238824D01*
X135167709Y-118235538D01*
X135168221Y-118236205D01*
X135223642Y-118205944D01*
X135293334Y-118210928D01*
X135332071Y-118235823D01*
X135332291Y-118235538D01*
X135335715Y-118238165D01*
X135337681Y-118239429D01*
X135338737Y-118240485D01*
X135435763Y-118296503D01*
X135543982Y-118325500D01*
X135543984Y-118325500D01*
X135656016Y-118325500D01*
X135656018Y-118325500D01*
X135764237Y-118296503D01*
X135861263Y-118240485D01*
X135940485Y-118161263D01*
X135996503Y-118064237D01*
X136025197Y-117957147D01*
X139174500Y-117957147D01*
X139174500Y-118042853D01*
X139189571Y-118099097D01*
X139196682Y-118125637D01*
X139196685Y-118125644D01*
X139239530Y-118199855D01*
X139239534Y-118199860D01*
X139239535Y-118199862D01*
X139300138Y-118260465D01*
X139300140Y-118260466D01*
X139300144Y-118260469D01*
X139362556Y-118296502D01*
X139374362Y-118303318D01*
X139457147Y-118325500D01*
X139457149Y-118325500D01*
X139542851Y-118325500D01*
X139542853Y-118325500D01*
X139625638Y-118303318D01*
X139699862Y-118260465D01*
X139760465Y-118199862D01*
X139803318Y-118125638D01*
X139825500Y-118042853D01*
X139825500Y-117957147D01*
X139803318Y-117874362D01*
X139796146Y-117861940D01*
X139760469Y-117800144D01*
X139760463Y-117800136D01*
X139699863Y-117739536D01*
X139699855Y-117739530D01*
X139625644Y-117696685D01*
X139625640Y-117696683D01*
X139625638Y-117696682D01*
X139542853Y-117674500D01*
X139457147Y-117674500D01*
X139374362Y-117696682D01*
X139374355Y-117696685D01*
X139300144Y-117739530D01*
X139300136Y-117739536D01*
X139239536Y-117800136D01*
X139239530Y-117800144D01*
X139196685Y-117874355D01*
X139196682Y-117874362D01*
X139174500Y-117957147D01*
X136025197Y-117957147D01*
X136025500Y-117956018D01*
X136025500Y-117843982D01*
X135996503Y-117735763D01*
X135940485Y-117638737D01*
X135861263Y-117559515D01*
X135774304Y-117509309D01*
X135764239Y-117503498D01*
X135764238Y-117503497D01*
X135764237Y-117503497D01*
X135656018Y-117474500D01*
X135543982Y-117474500D01*
X135435763Y-117503497D01*
X135435760Y-117503498D01*
X135338740Y-117559513D01*
X135338734Y-117559517D01*
X135337675Y-117560577D01*
X135336562Y-117561184D01*
X135332291Y-117564462D01*
X135331779Y-117563795D01*
X135276349Y-117594057D01*
X135206658Y-117589068D01*
X135167927Y-117564177D01*
X135167709Y-117564462D01*
X135164301Y-117561847D01*
X135162325Y-117560577D01*
X135161265Y-117559517D01*
X135161263Y-117559515D01*
X135074304Y-117509309D01*
X135064239Y-117503498D01*
X135064238Y-117503497D01*
X135064237Y-117503497D01*
X134956018Y-117474500D01*
X134843982Y-117474500D01*
X134735763Y-117503497D01*
X134735760Y-117503498D01*
X134638740Y-117559513D01*
X134638734Y-117559517D01*
X134559517Y-117638734D01*
X134559513Y-117638740D01*
X134503498Y-117735760D01*
X134503497Y-117735763D01*
X134474500Y-117843982D01*
X132309572Y-117843982D01*
X132361940Y-117791614D01*
X132400000Y-117699728D01*
X132400000Y-117600272D01*
X132361940Y-117508386D01*
X132291614Y-117438060D01*
X132199728Y-117400000D01*
X130800272Y-117400000D01*
X130708386Y-117438060D01*
X130638060Y-117508386D01*
X130600000Y-117600272D01*
X117176126Y-117600272D01*
X117200500Y-117509309D01*
X117200500Y-117390691D01*
X117169799Y-117276114D01*
X117110489Y-117173387D01*
X117026613Y-117089511D01*
X116923886Y-117030201D01*
X116809309Y-116999500D01*
X116690691Y-116999500D01*
X116576114Y-117030201D01*
X116576112Y-117030201D01*
X116576112Y-117030202D01*
X116473387Y-117089511D01*
X116473384Y-117089513D01*
X116389513Y-117173384D01*
X116389508Y-117173390D01*
X116352495Y-117237500D01*
X116301928Y-117285716D01*
X116245108Y-117299500D01*
X116190691Y-117299500D01*
X116076114Y-117330201D01*
X116076112Y-117330201D01*
X116076112Y-117330202D01*
X115973387Y-117389511D01*
X115973384Y-117389513D01*
X115889513Y-117473384D01*
X115889511Y-117473387D01*
X115839785Y-117559515D01*
X115830201Y-117576114D01*
X115799500Y-117690691D01*
X103374618Y-117690691D01*
X103346503Y-117585763D01*
X103298856Y-117503236D01*
X103295288Y-117493781D01*
X103293391Y-117468622D01*
X103287442Y-117444101D01*
X103290704Y-117432989D01*
X103290035Y-117424109D01*
X103297201Y-117410863D01*
X103303913Y-117388004D01*
X103346503Y-117314237D01*
X103375500Y-117206018D01*
X103375500Y-117093982D01*
X103346503Y-116985763D01*
X103303913Y-116911996D01*
X103301530Y-116902173D01*
X103295416Y-116894119D01*
X103293432Y-116868791D01*
X103287442Y-116844101D01*
X103290604Y-116832688D01*
X103289960Y-116824463D01*
X103300554Y-116796779D01*
X103302070Y-116791311D01*
X103302950Y-116789671D01*
X103321728Y-116757147D01*
X120674500Y-116757147D01*
X120674500Y-116842853D01*
X120687903Y-116892872D01*
X120696682Y-116925637D01*
X120696685Y-116925644D01*
X120739530Y-116999855D01*
X120739534Y-116999860D01*
X120739535Y-116999862D01*
X120800138Y-117060465D01*
X120800140Y-117060466D01*
X120800144Y-117060469D01*
X120850447Y-117089511D01*
X120874362Y-117103318D01*
X120957147Y-117125500D01*
X120957149Y-117125500D01*
X121042851Y-117125500D01*
X121042853Y-117125500D01*
X121125638Y-117103318D01*
X121199862Y-117060465D01*
X121260465Y-116999862D01*
X121303318Y-116925638D01*
X121325500Y-116842853D01*
X121325500Y-116757147D01*
X121303318Y-116674362D01*
X121263860Y-116606018D01*
X121260469Y-116600144D01*
X121260463Y-116600136D01*
X121199863Y-116539536D01*
X121199855Y-116539530D01*
X121125644Y-116496685D01*
X121125640Y-116496683D01*
X121125638Y-116496682D01*
X121042853Y-116474500D01*
X120957147Y-116474500D01*
X120874362Y-116496682D01*
X120874355Y-116496685D01*
X120800144Y-116539530D01*
X120800136Y-116539536D01*
X120739536Y-116600136D01*
X120739530Y-116600144D01*
X120696685Y-116674355D01*
X120696682Y-116674362D01*
X120674500Y-116757147D01*
X103321728Y-116757147D01*
X103346503Y-116714237D01*
X103375500Y-116606018D01*
X103375500Y-116493982D01*
X103346503Y-116385763D01*
X103290485Y-116288737D01*
X103211263Y-116209515D01*
X103126358Y-116160495D01*
X103114239Y-116153498D01*
X103114238Y-116153497D01*
X103114237Y-116153497D01*
X103006018Y-116124500D01*
X102893982Y-116124500D01*
X102785763Y-116153497D01*
X102785760Y-116153498D01*
X102712000Y-116196084D01*
X102644100Y-116212557D01*
X102588000Y-116196084D01*
X102514239Y-116153498D01*
X102514238Y-116153497D01*
X102514237Y-116153497D01*
X102406018Y-116124500D01*
X102293982Y-116124500D01*
X102185763Y-116153497D01*
X102185760Y-116153498D01*
X102088740Y-116209513D01*
X102088734Y-116209517D01*
X102009517Y-116288734D01*
X102009513Y-116288740D01*
X101953498Y-116385760D01*
X101953497Y-116385763D01*
X101924500Y-116493982D01*
X93000500Y-116493982D01*
X93000500Y-115240691D01*
X103299500Y-115240691D01*
X103299500Y-115359309D01*
X103330201Y-115473886D01*
X103389511Y-115576613D01*
X103473387Y-115660489D01*
X103473388Y-115660490D01*
X103473390Y-115660491D01*
X103537500Y-115697505D01*
X103585716Y-115748072D01*
X103599500Y-115804892D01*
X103599500Y-115859309D01*
X103630201Y-115973886D01*
X103689511Y-116076613D01*
X103773387Y-116160489D01*
X103876114Y-116219799D01*
X103990691Y-116250500D01*
X103990694Y-116250500D01*
X104109306Y-116250500D01*
X104109309Y-116250500D01*
X104223886Y-116219799D01*
X104262999Y-116197216D01*
X104330898Y-116180743D01*
X104387000Y-116197216D01*
X104426114Y-116219799D01*
X104540691Y-116250500D01*
X104540694Y-116250500D01*
X104659306Y-116250500D01*
X104659309Y-116250500D01*
X104773886Y-116219799D01*
X104795800Y-116207147D01*
X123154500Y-116207147D01*
X123154500Y-116292853D01*
X123173077Y-116362181D01*
X123176682Y-116375637D01*
X123176685Y-116375644D01*
X123219530Y-116449855D01*
X123219534Y-116449860D01*
X123219535Y-116449862D01*
X123280138Y-116510465D01*
X123280140Y-116510466D01*
X123280144Y-116510469D01*
X123354355Y-116553314D01*
X123354362Y-116553318D01*
X123437147Y-116575500D01*
X123437149Y-116575500D01*
X123522851Y-116575500D01*
X123522853Y-116575500D01*
X123605638Y-116553318D01*
X123679862Y-116510465D01*
X123740465Y-116449862D01*
X123783318Y-116375638D01*
X123805500Y-116292853D01*
X123805500Y-116207147D01*
X123783318Y-116124362D01*
X123775799Y-116111339D01*
X123740469Y-116050144D01*
X123740463Y-116050136D01*
X123679863Y-115989536D01*
X123679855Y-115989530D01*
X123605644Y-115946685D01*
X123605640Y-115946683D01*
X123605638Y-115946682D01*
X123522853Y-115924500D01*
X123437147Y-115924500D01*
X123354362Y-115946682D01*
X123354355Y-115946685D01*
X123280144Y-115989530D01*
X123280136Y-115989536D01*
X123219536Y-116050136D01*
X123219530Y-116050144D01*
X123176685Y-116124355D01*
X123176682Y-116124362D01*
X123154500Y-116207147D01*
X104795800Y-116207147D01*
X104876613Y-116160489D01*
X104960489Y-116076613D01*
X105019799Y-115973886D01*
X105050500Y-115859309D01*
X105050500Y-115776024D01*
X105070185Y-115708985D01*
X105112502Y-115668636D01*
X105116559Y-115666293D01*
X105126613Y-115660489D01*
X105210489Y-115576613D01*
X105269799Y-115473886D01*
X105300500Y-115359309D01*
X105300500Y-115240691D01*
X105269799Y-115126114D01*
X105210489Y-115023387D01*
X105126613Y-114939511D01*
X105023886Y-114880201D01*
X104909309Y-114849500D01*
X104790691Y-114849500D01*
X104704758Y-114872525D01*
X104676113Y-114880201D01*
X104636999Y-114902784D01*
X104569099Y-114919256D01*
X104513001Y-114902784D01*
X104473886Y-114880201D01*
X104473887Y-114880201D01*
X104445241Y-114872525D01*
X104359309Y-114849500D01*
X104240691Y-114849500D01*
X104154758Y-114872525D01*
X104126113Y-114880201D01*
X104086999Y-114902784D01*
X104019099Y-114919256D01*
X103963001Y-114902784D01*
X103923886Y-114880201D01*
X103923887Y-114880201D01*
X103895241Y-114872525D01*
X103809309Y-114849500D01*
X103690691Y-114849500D01*
X103576114Y-114880201D01*
X103576112Y-114880201D01*
X103576112Y-114880202D01*
X103473387Y-114939511D01*
X103473384Y-114939513D01*
X103389513Y-115023384D01*
X103389511Y-115023387D01*
X103359672Y-115075070D01*
X103330201Y-115126114D01*
X103299500Y-115240691D01*
X93000500Y-115240691D01*
X93000500Y-114405513D01*
X108799500Y-114405513D01*
X108799500Y-114594486D01*
X108829059Y-114781118D01*
X108887454Y-114960836D01*
X108945660Y-115075070D01*
X108973240Y-115129199D01*
X109084310Y-115282073D01*
X109217927Y-115415690D01*
X109370801Y-115526760D01*
X109433927Y-115558924D01*
X109539163Y-115612545D01*
X109539165Y-115612545D01*
X109539168Y-115612547D01*
X109635497Y-115643846D01*
X109718881Y-115670940D01*
X109905514Y-115700500D01*
X109905519Y-115700500D01*
X110094486Y-115700500D01*
X110281118Y-115670940D01*
X110288209Y-115668636D01*
X110460832Y-115612547D01*
X110629199Y-115526760D01*
X110782073Y-115415690D01*
X110790616Y-115407147D01*
X117524500Y-115407147D01*
X117524500Y-115492853D01*
X117543708Y-115564536D01*
X117546682Y-115575637D01*
X117546685Y-115575644D01*
X117589530Y-115649855D01*
X117589534Y-115649860D01*
X117589535Y-115649862D01*
X117650138Y-115710465D01*
X117650140Y-115710466D01*
X117650144Y-115710469D01*
X117719916Y-115750751D01*
X117724362Y-115753318D01*
X117807147Y-115775500D01*
X117807149Y-115775500D01*
X117892851Y-115775500D01*
X117892853Y-115775500D01*
X117975638Y-115753318D01*
X118049862Y-115710465D01*
X118110465Y-115649862D01*
X118153318Y-115575638D01*
X118175500Y-115492853D01*
X118175500Y-115407147D01*
X118153318Y-115324362D01*
X118153316Y-115324358D01*
X118153315Y-115324355D01*
X118124820Y-115275000D01*
X126477026Y-115275000D01*
X126501857Y-115312163D01*
X126602835Y-115413141D01*
X126602839Y-115413144D01*
X126721577Y-115492483D01*
X126721586Y-115492488D01*
X126853524Y-115547138D01*
X126853532Y-115547140D01*
X126993589Y-115574999D01*
X126993593Y-115575000D01*
X127091852Y-115575000D01*
X127158891Y-115594685D01*
X127204646Y-115647489D01*
X127213905Y-115709271D01*
X127214500Y-115709271D01*
X127214500Y-115713241D01*
X127214791Y-115715183D01*
X127214500Y-115717393D01*
X127214500Y-115717399D01*
X127214500Y-115842601D01*
X127246905Y-115963536D01*
X127309505Y-116071964D01*
X127398036Y-116160495D01*
X127506464Y-116223095D01*
X127627399Y-116255500D01*
X127627401Y-116255500D01*
X127752599Y-116255500D01*
X127752601Y-116255500D01*
X127873536Y-116223095D01*
X127981964Y-116160495D01*
X128070495Y-116071964D01*
X128133095Y-115963536D01*
X128165500Y-115842601D01*
X128165500Y-115717399D01*
X128148683Y-115654638D01*
X128150345Y-115584789D01*
X128189506Y-115526926D01*
X128221006Y-115507982D01*
X128258415Y-115492487D01*
X128258422Y-115492483D01*
X128377160Y-115413144D01*
X128377164Y-115413141D01*
X128478142Y-115312163D01*
X128502974Y-115275000D01*
X126477026Y-115275000D01*
X118124820Y-115275000D01*
X118110469Y-115250144D01*
X118110463Y-115250136D01*
X118049863Y-115189536D01*
X118049855Y-115189530D01*
X117975644Y-115146685D01*
X117975640Y-115146683D01*
X117975638Y-115146682D01*
X117892853Y-115124500D01*
X117807147Y-115124500D01*
X117724362Y-115146682D01*
X117724355Y-115146685D01*
X117650144Y-115189530D01*
X117650136Y-115189536D01*
X117589536Y-115250136D01*
X117589530Y-115250144D01*
X117546685Y-115324355D01*
X117546682Y-115324362D01*
X117524500Y-115407147D01*
X110790616Y-115407147D01*
X110915690Y-115282073D01*
X111026760Y-115129199D01*
X111112547Y-114960832D01*
X111170940Y-114781118D01*
X111172620Y-114770513D01*
X111200500Y-114594486D01*
X111200500Y-114405514D01*
X111192539Y-114355254D01*
X111192539Y-114355253D01*
X111190754Y-114343982D01*
X114974500Y-114343982D01*
X114974500Y-114456018D01*
X115003497Y-114564237D01*
X115059515Y-114661263D01*
X115138737Y-114740485D01*
X115235763Y-114796503D01*
X115343982Y-114825500D01*
X115343984Y-114825500D01*
X115456016Y-114825500D01*
X115456018Y-114825500D01*
X115550171Y-114800272D01*
X127090000Y-114800272D01*
X127090000Y-114899728D01*
X127128060Y-114991614D01*
X127198386Y-115061940D01*
X127290272Y-115100000D01*
X127689728Y-115100000D01*
X127781614Y-115061940D01*
X127851940Y-114991614D01*
X127890000Y-114899728D01*
X127890000Y-114800272D01*
X127886031Y-114790691D01*
X129849500Y-114790691D01*
X129849500Y-114909309D01*
X129880201Y-115023886D01*
X129939511Y-115126613D01*
X130023387Y-115210489D01*
X130126114Y-115269799D01*
X130240691Y-115300500D01*
X130240694Y-115300500D01*
X130359306Y-115300500D01*
X130359309Y-115300500D01*
X130473886Y-115269799D01*
X130537999Y-115232782D01*
X130549665Y-115229952D01*
X130559444Y-115222989D01*
X130582987Y-115221867D01*
X130605898Y-115216309D01*
X130618989Y-115220152D01*
X130629235Y-115219665D01*
X130661995Y-115232779D01*
X130726114Y-115269799D01*
X130726116Y-115269799D01*
X130732586Y-115273535D01*
X130780801Y-115324103D01*
X130794023Y-115392710D01*
X130768055Y-115457574D01*
X130711141Y-115498102D01*
X130702679Y-115500697D01*
X130624360Y-115521682D01*
X130624355Y-115521685D01*
X130550144Y-115564530D01*
X130550136Y-115564536D01*
X130489536Y-115625136D01*
X130489530Y-115625144D01*
X130446685Y-115699355D01*
X130446682Y-115699362D01*
X130424500Y-115782147D01*
X130424500Y-115867853D01*
X130440423Y-115927277D01*
X130446682Y-115950637D01*
X130446685Y-115950644D01*
X130489530Y-116024855D01*
X130489534Y-116024860D01*
X130489535Y-116024862D01*
X130550138Y-116085465D01*
X130550140Y-116085466D01*
X130550144Y-116085469D01*
X130594953Y-116111339D01*
X130624362Y-116128318D01*
X130707147Y-116150500D01*
X130707149Y-116150500D01*
X130744327Y-116150500D01*
X130811366Y-116170185D01*
X130857121Y-116222989D01*
X130867065Y-116292147D01*
X130838040Y-116355703D01*
X130832008Y-116362181D01*
X130809517Y-116384671D01*
X130809513Y-116384677D01*
X130753498Y-116481697D01*
X130753497Y-116481700D01*
X130724500Y-116589919D01*
X130724500Y-116701955D01*
X130725637Y-116706199D01*
X130725639Y-116706205D01*
X130725550Y-116709929D01*
X130725561Y-116710011D01*
X130725548Y-116710012D01*
X130723974Y-116776055D01*
X130684810Y-116833916D01*
X130653317Y-116852856D01*
X130547370Y-116896741D01*
X130408160Y-116989758D01*
X130408152Y-116989764D01*
X130289763Y-117108153D01*
X130261803Y-117150000D01*
X132738197Y-117150000D01*
X132710236Y-117108153D01*
X132709230Y-117107147D01*
X136174500Y-117107147D01*
X136174500Y-117192853D01*
X136188966Y-117246839D01*
X136196682Y-117275637D01*
X136196685Y-117275644D01*
X136239530Y-117349855D01*
X136239534Y-117349860D01*
X136239535Y-117349862D01*
X136300138Y-117410465D01*
X136300140Y-117410466D01*
X136300144Y-117410469D01*
X136368615Y-117450000D01*
X136374362Y-117453318D01*
X136457147Y-117475500D01*
X136457149Y-117475500D01*
X136542851Y-117475500D01*
X136542853Y-117475500D01*
X136625638Y-117453318D01*
X136699862Y-117410465D01*
X136760465Y-117349862D01*
X136796723Y-117287061D01*
X141199833Y-117287061D01*
X141199833Y-117399097D01*
X141228830Y-117507316D01*
X141284848Y-117604342D01*
X141284850Y-117604344D01*
X141285910Y-117605404D01*
X141286517Y-117606516D01*
X141289795Y-117610788D01*
X141289128Y-117611299D01*
X141319390Y-117666730D01*
X141314401Y-117736421D01*
X141289510Y-117775151D01*
X141289795Y-117775370D01*
X141287180Y-117778777D01*
X141285910Y-117780754D01*
X141284850Y-117781813D01*
X141284846Y-117781819D01*
X141228831Y-117878839D01*
X141228830Y-117878842D01*
X141199833Y-117987061D01*
X141199833Y-118099097D01*
X141228830Y-118207316D01*
X141284848Y-118304342D01*
X141364070Y-118383564D01*
X141461096Y-118439582D01*
X141569315Y-118468579D01*
X141569317Y-118468579D01*
X141681349Y-118468579D01*
X141681351Y-118468579D01*
X141789570Y-118439582D01*
X141886596Y-118383564D01*
X141886599Y-118383560D01*
X141889805Y-118381710D01*
X141957706Y-118365237D01*
X142023733Y-118388089D01*
X142066923Y-118443010D01*
X142073960Y-118499020D01*
X142074500Y-118499020D01*
X142074500Y-118503319D01*
X142074746Y-118505278D01*
X142074500Y-118507147D01*
X142074500Y-118592853D01*
X142079434Y-118611265D01*
X142096682Y-118675637D01*
X142096682Y-118675638D01*
X142132687Y-118738001D01*
X142149159Y-118805901D01*
X142132687Y-118861999D01*
X142096682Y-118924361D01*
X142096682Y-118924362D01*
X142074500Y-119007147D01*
X142074500Y-119092853D01*
X142083287Y-119125644D01*
X142096682Y-119175637D01*
X142096685Y-119175644D01*
X142139530Y-119249855D01*
X142139534Y-119249860D01*
X142139535Y-119249862D01*
X142200138Y-119310465D01*
X142200140Y-119310466D01*
X142200144Y-119310469D01*
X142274355Y-119353314D01*
X142274362Y-119353318D01*
X142357147Y-119375500D01*
X142357149Y-119375500D01*
X142442851Y-119375500D01*
X142442853Y-119375500D01*
X142525638Y-119353318D01*
X142599862Y-119310465D01*
X142660465Y-119249862D01*
X142703318Y-119175638D01*
X142725500Y-119092853D01*
X142725500Y-119007147D01*
X142712103Y-118957147D01*
X146674500Y-118957147D01*
X146674500Y-119042853D01*
X146687898Y-119092853D01*
X146696682Y-119125637D01*
X146696685Y-119125644D01*
X146739530Y-119199855D01*
X146739534Y-119199860D01*
X146739535Y-119199862D01*
X146800138Y-119260465D01*
X146800140Y-119260466D01*
X146800144Y-119260469D01*
X146824447Y-119274500D01*
X146874362Y-119303318D01*
X146957147Y-119325500D01*
X146957149Y-119325500D01*
X147042851Y-119325500D01*
X147042853Y-119325500D01*
X147125638Y-119303318D01*
X147199862Y-119260465D01*
X147260465Y-119199862D01*
X147303318Y-119125638D01*
X147325500Y-119042853D01*
X147325500Y-118957147D01*
X148274500Y-118957147D01*
X148274500Y-119042853D01*
X148287898Y-119092853D01*
X148296682Y-119125637D01*
X148296685Y-119125644D01*
X148339530Y-119199855D01*
X148339534Y-119199860D01*
X148339535Y-119199862D01*
X148400138Y-119260465D01*
X148400140Y-119260466D01*
X148400144Y-119260469D01*
X148424447Y-119274500D01*
X148474362Y-119303318D01*
X148557147Y-119325500D01*
X148557149Y-119325500D01*
X148642851Y-119325500D01*
X148642853Y-119325500D01*
X148725638Y-119303318D01*
X148799862Y-119260465D01*
X148860465Y-119199862D01*
X148903318Y-119125638D01*
X148925500Y-119042853D01*
X148925500Y-118957147D01*
X148903318Y-118874362D01*
X148896180Y-118861999D01*
X148860469Y-118800144D01*
X148860463Y-118800136D01*
X148799863Y-118739536D01*
X148799855Y-118739530D01*
X148725644Y-118696685D01*
X148725640Y-118696683D01*
X148725638Y-118696682D01*
X148642853Y-118674500D01*
X148557147Y-118674500D01*
X148474362Y-118696682D01*
X148474355Y-118696685D01*
X148400144Y-118739530D01*
X148400136Y-118739536D01*
X148339536Y-118800136D01*
X148339530Y-118800144D01*
X148296685Y-118874355D01*
X148296682Y-118874362D01*
X148274500Y-118957147D01*
X147325500Y-118957147D01*
X147303318Y-118874362D01*
X147296180Y-118861999D01*
X147260469Y-118800144D01*
X147260463Y-118800136D01*
X147199863Y-118739536D01*
X147199855Y-118739530D01*
X147125644Y-118696685D01*
X147125640Y-118696683D01*
X147125638Y-118696682D01*
X147042853Y-118674500D01*
X146957147Y-118674500D01*
X146874362Y-118696682D01*
X146874355Y-118696685D01*
X146800144Y-118739530D01*
X146800136Y-118739536D01*
X146739536Y-118800136D01*
X146739530Y-118800144D01*
X146696685Y-118874355D01*
X146696682Y-118874362D01*
X146674500Y-118957147D01*
X142712103Y-118957147D01*
X142703318Y-118924362D01*
X142663579Y-118855532D01*
X142660652Y-118848673D01*
X142657388Y-118821092D01*
X142650840Y-118794100D01*
X142653231Y-118785956D01*
X142652442Y-118779288D01*
X142659355Y-118765100D01*
X142667313Y-118738000D01*
X142703318Y-118675638D01*
X142725500Y-118592853D01*
X142725500Y-118507147D01*
X142703318Y-118424362D01*
X142679764Y-118383565D01*
X142660469Y-118350144D01*
X142660463Y-118350136D01*
X142599863Y-118289536D01*
X142599855Y-118289530D01*
X142525644Y-118246685D01*
X142525640Y-118246683D01*
X142525638Y-118246682D01*
X142442853Y-118224500D01*
X142357147Y-118224500D01*
X142274362Y-118246682D01*
X142274361Y-118246682D01*
X142222396Y-118276684D01*
X142154495Y-118293155D01*
X142088469Y-118270303D01*
X142045279Y-118215381D01*
X142038638Y-118145827D01*
X142040616Y-118137224D01*
X142050833Y-118099097D01*
X142050833Y-117987061D01*
X142021836Y-117878842D01*
X141965818Y-117781816D01*
X141964762Y-117780760D01*
X141964157Y-117779652D01*
X141960871Y-117775370D01*
X141961538Y-117774857D01*
X141931277Y-117719437D01*
X141936261Y-117649745D01*
X141961156Y-117611007D01*
X141960871Y-117610788D01*
X141963498Y-117607363D01*
X141964762Y-117605398D01*
X141965818Y-117604342D01*
X142021836Y-117507316D01*
X142050833Y-117399097D01*
X142050833Y-117357147D01*
X146674500Y-117357147D01*
X146674500Y-117442853D01*
X146692060Y-117508386D01*
X146696682Y-117525637D01*
X146696685Y-117525644D01*
X146739530Y-117599855D01*
X146739534Y-117599860D01*
X146739535Y-117599862D01*
X146800138Y-117660465D01*
X146800140Y-117660466D01*
X146800144Y-117660469D01*
X146856627Y-117693079D01*
X146874362Y-117703318D01*
X146957147Y-117725500D01*
X146957149Y-117725500D01*
X147042851Y-117725500D01*
X147042853Y-117725500D01*
X147125638Y-117703318D01*
X147199862Y-117660465D01*
X147260465Y-117599862D01*
X147303318Y-117525638D01*
X147325500Y-117442853D01*
X147325500Y-117357147D01*
X147303318Y-117274362D01*
X147287428Y-117246839D01*
X147260469Y-117200144D01*
X147260463Y-117200136D01*
X147199863Y-117139536D01*
X147199855Y-117139530D01*
X147125644Y-117096685D01*
X147125640Y-117096683D01*
X147125638Y-117096682D01*
X147042853Y-117074500D01*
X146957147Y-117074500D01*
X146874362Y-117096682D01*
X146874355Y-117096685D01*
X146800144Y-117139530D01*
X146800136Y-117139536D01*
X146739536Y-117200136D01*
X146739530Y-117200144D01*
X146696685Y-117274355D01*
X146696682Y-117274362D01*
X146674500Y-117357147D01*
X142050833Y-117357147D01*
X142050833Y-117290522D01*
X142070518Y-117223483D01*
X142123322Y-117177728D01*
X142192480Y-117167784D01*
X142256036Y-117196809D01*
X142262514Y-117202841D01*
X142300138Y-117240465D01*
X142300140Y-117240466D01*
X142300144Y-117240469D01*
X142361070Y-117275644D01*
X142374362Y-117283318D01*
X142457147Y-117305500D01*
X142457149Y-117305500D01*
X142542851Y-117305500D01*
X142542853Y-117305500D01*
X142625638Y-117283318D01*
X142699862Y-117240465D01*
X142760465Y-117179862D01*
X142803318Y-117105638D01*
X142825500Y-117022853D01*
X142825500Y-116937147D01*
X143174500Y-116937147D01*
X143174500Y-117022853D01*
X143196225Y-117103930D01*
X143196682Y-117105637D01*
X143196685Y-117105644D01*
X143239530Y-117179855D01*
X143239534Y-117179860D01*
X143239535Y-117179862D01*
X143300138Y-117240465D01*
X143300140Y-117240466D01*
X143300144Y-117240469D01*
X143361070Y-117275644D01*
X143374362Y-117283318D01*
X143457147Y-117305500D01*
X143457149Y-117305500D01*
X143542851Y-117305500D01*
X143542853Y-117305500D01*
X143625638Y-117283318D01*
X143699862Y-117240465D01*
X143760465Y-117179862D01*
X143803318Y-117105638D01*
X143825500Y-117022853D01*
X143825500Y-116937147D01*
X143803318Y-116854362D01*
X143790805Y-116832688D01*
X143760469Y-116780144D01*
X143760463Y-116780136D01*
X143699863Y-116719536D01*
X143699855Y-116719530D01*
X143625644Y-116676685D01*
X143625640Y-116676683D01*
X143625638Y-116676682D01*
X143542853Y-116654500D01*
X143457147Y-116654500D01*
X143374362Y-116676682D01*
X143374355Y-116676685D01*
X143300144Y-116719530D01*
X143300136Y-116719536D01*
X143239536Y-116780136D01*
X143239530Y-116780144D01*
X143196685Y-116854355D01*
X143196682Y-116854362D01*
X143174500Y-116937147D01*
X142825500Y-116937147D01*
X142803318Y-116854362D01*
X142790805Y-116832688D01*
X142760469Y-116780144D01*
X142760463Y-116780136D01*
X142699863Y-116719536D01*
X142699855Y-116719530D01*
X142625644Y-116676685D01*
X142625640Y-116676683D01*
X142625638Y-116676682D01*
X142542853Y-116654500D01*
X142457147Y-116654500D01*
X142374362Y-116676682D01*
X142374355Y-116676685D01*
X142300144Y-116719530D01*
X142300136Y-116719536D01*
X142239536Y-116780136D01*
X142239530Y-116780144D01*
X142196685Y-116854355D01*
X142196682Y-116854362D01*
X142174500Y-116937147D01*
X142174500Y-116991136D01*
X142154815Y-117058175D01*
X142102011Y-117103930D01*
X142032853Y-117113874D01*
X141969297Y-117084849D01*
X141962819Y-117078817D01*
X141886598Y-117002596D01*
X141886596Y-117002594D01*
X141789570Y-116946576D01*
X141681351Y-116917579D01*
X141569315Y-116917579D01*
X141461096Y-116946576D01*
X141461093Y-116946577D01*
X141364073Y-117002592D01*
X141364067Y-117002596D01*
X141284850Y-117081813D01*
X141284846Y-117081819D01*
X141228831Y-117178839D01*
X141228830Y-117178842D01*
X141199833Y-117287061D01*
X136796723Y-117287061D01*
X136803318Y-117275638D01*
X136825500Y-117192853D01*
X136825500Y-117107147D01*
X136803318Y-117024362D01*
X136802446Y-117022851D01*
X136760469Y-116950144D01*
X136760463Y-116950136D01*
X136699863Y-116889536D01*
X136699855Y-116889530D01*
X136625644Y-116846685D01*
X136625640Y-116846683D01*
X136625638Y-116846682D01*
X136542853Y-116824500D01*
X136457147Y-116824500D01*
X136374362Y-116846682D01*
X136374355Y-116846685D01*
X136300144Y-116889530D01*
X136300136Y-116889536D01*
X136239536Y-116950136D01*
X136239530Y-116950144D01*
X136196685Y-117024355D01*
X136196682Y-117024362D01*
X136174500Y-117107147D01*
X132709230Y-117107147D01*
X132591847Y-116989764D01*
X132591839Y-116989758D01*
X132452628Y-116896740D01*
X132346683Y-116852857D01*
X132292280Y-116809016D01*
X132270215Y-116742722D01*
X132274361Y-116706204D01*
X132275500Y-116701955D01*
X132275500Y-116589919D01*
X132246503Y-116481700D01*
X132190485Y-116384674D01*
X132111263Y-116305452D01*
X132024744Y-116255500D01*
X132014239Y-116249435D01*
X132014238Y-116249434D01*
X132014237Y-116249434D01*
X131906018Y-116220437D01*
X131793982Y-116220437D01*
X131685763Y-116249434D01*
X131685760Y-116249435D01*
X131588740Y-116305450D01*
X131588734Y-116305454D01*
X131587675Y-116306514D01*
X131586562Y-116307121D01*
X131582291Y-116310399D01*
X131581779Y-116309732D01*
X131526349Y-116339994D01*
X131456658Y-116335005D01*
X131417927Y-116310114D01*
X131417709Y-116310399D01*
X131414301Y-116307784D01*
X131412325Y-116306514D01*
X131411265Y-116305454D01*
X131411263Y-116305452D01*
X131324744Y-116255500D01*
X131314239Y-116249435D01*
X131314238Y-116249434D01*
X131314237Y-116249434D01*
X131206018Y-116220437D01*
X131111842Y-116220437D01*
X131044803Y-116200752D01*
X130999048Y-116147948D01*
X130989104Y-116078790D01*
X131008375Y-116033040D01*
X131006402Y-116031901D01*
X131045871Y-115963536D01*
X131053318Y-115950638D01*
X131075500Y-115867853D01*
X131075500Y-115782147D01*
X131053318Y-115699362D01*
X131052246Y-115697505D01*
X131010469Y-115625144D01*
X131010463Y-115625136D01*
X130949863Y-115564536D01*
X130949858Y-115564532D01*
X130893314Y-115531887D01*
X130845099Y-115481321D01*
X130831875Y-115412714D01*
X130857843Y-115347849D01*
X130914757Y-115307320D01*
X130955314Y-115300500D01*
X130959306Y-115300500D01*
X130959309Y-115300500D01*
X131073886Y-115269799D01*
X131137999Y-115232782D01*
X131142468Y-115231698D01*
X131145875Y-115228605D01*
X131176108Y-115223536D01*
X131205898Y-115216309D01*
X131211510Y-115217601D01*
X131214783Y-115217053D01*
X131227444Y-115221270D01*
X131248870Y-115226205D01*
X131255624Y-115229101D01*
X131326114Y-115269799D01*
X131391195Y-115287237D01*
X131399370Y-115290743D01*
X131419716Y-115307559D01*
X131442254Y-115321297D01*
X131446223Y-115329468D01*
X131453226Y-115335256D01*
X131461250Y-115360402D01*
X131472783Y-115384144D01*
X131474185Y-115400939D01*
X131474466Y-115401819D01*
X131474307Y-115402407D01*
X131474500Y-115404707D01*
X131474500Y-115442853D01*
X131490702Y-115503318D01*
X131496682Y-115525637D01*
X131496685Y-115525644D01*
X131539530Y-115599855D01*
X131539534Y-115599860D01*
X131539535Y-115599862D01*
X131600138Y-115660465D01*
X131600140Y-115660466D01*
X131600144Y-115660469D01*
X131669481Y-115700500D01*
X131674362Y-115703318D01*
X131757147Y-115725500D01*
X131757149Y-115725500D01*
X131842851Y-115725500D01*
X131842853Y-115725500D01*
X131925638Y-115703318D01*
X131999862Y-115660465D01*
X132060465Y-115599862D01*
X132103318Y-115525638D01*
X132125500Y-115442853D01*
X132125500Y-115404707D01*
X132145185Y-115337668D01*
X132197989Y-115291913D01*
X132200630Y-115290743D01*
X132208804Y-115287237D01*
X132273886Y-115269799D01*
X132344375Y-115229101D01*
X132351130Y-115226205D01*
X132378809Y-115222881D01*
X132405898Y-115216309D01*
X132413921Y-115218665D01*
X132420501Y-115217875D01*
X132434712Y-115224770D01*
X132461999Y-115232782D01*
X132526114Y-115269799D01*
X132640691Y-115300500D01*
X132640694Y-115300500D01*
X132759306Y-115300500D01*
X132759309Y-115300500D01*
X132854476Y-115275000D01*
X134497026Y-115275000D01*
X134521857Y-115312163D01*
X134622835Y-115413141D01*
X134622839Y-115413144D01*
X134741577Y-115492483D01*
X134741586Y-115492488D01*
X134873524Y-115547138D01*
X134873532Y-115547140D01*
X135013589Y-115574999D01*
X135013593Y-115575000D01*
X135085000Y-115575000D01*
X135935000Y-115575000D01*
X136006407Y-115575000D01*
X136006410Y-115574999D01*
X136146467Y-115547140D01*
X136146475Y-115547138D01*
X136278413Y-115492488D01*
X136278422Y-115492483D01*
X136397160Y-115413144D01*
X136397164Y-115413141D01*
X136453158Y-115357147D01*
X141274500Y-115357147D01*
X141274500Y-115442853D01*
X141290702Y-115503318D01*
X141296682Y-115525637D01*
X141296685Y-115525644D01*
X141339530Y-115599855D01*
X141339534Y-115599860D01*
X141339535Y-115599862D01*
X141400138Y-115660465D01*
X141400140Y-115660466D01*
X141400144Y-115660469D01*
X141469481Y-115700500D01*
X141474362Y-115703318D01*
X141557147Y-115725500D01*
X141557149Y-115725500D01*
X141642851Y-115725500D01*
X141642853Y-115725500D01*
X141725638Y-115703318D01*
X141725646Y-115703313D01*
X141733148Y-115700207D01*
X141734080Y-115702457D01*
X141789986Y-115688889D01*
X141856015Y-115711735D01*
X141887936Y-115746848D01*
X141887985Y-115746811D01*
X141888428Y-115747388D01*
X141891485Y-115750751D01*
X141892932Y-115753258D01*
X141892934Y-115753261D01*
X141892935Y-115753262D01*
X141953538Y-115813865D01*
X141953540Y-115813866D01*
X141953544Y-115813869D01*
X141953612Y-115813908D01*
X142027762Y-115856718D01*
X142110547Y-115878900D01*
X142110549Y-115878900D01*
X142196251Y-115878900D01*
X142196253Y-115878900D01*
X142279038Y-115856718D01*
X142353262Y-115813865D01*
X142353267Y-115813859D01*
X142359707Y-115808919D01*
X142360489Y-115809938D01*
X142414542Y-115780423D01*
X142484234Y-115785407D01*
X142528581Y-115813908D01*
X142576915Y-115862242D01*
X142576917Y-115862243D01*
X142576921Y-115862246D01*
X142628040Y-115891759D01*
X142651139Y-115905095D01*
X142733924Y-115927277D01*
X142733926Y-115927277D01*
X142819628Y-115927277D01*
X142819630Y-115927277D01*
X142902415Y-115905095D01*
X142976639Y-115862242D01*
X143037242Y-115801639D01*
X143080095Y-115727415D01*
X143102277Y-115644630D01*
X143102277Y-115558924D01*
X143080095Y-115476139D01*
X143069377Y-115457574D01*
X143037246Y-115401921D01*
X143037240Y-115401913D01*
X142976640Y-115341313D01*
X142976632Y-115341307D01*
X142902421Y-115298462D01*
X142902417Y-115298460D01*
X142902415Y-115298459D01*
X142819630Y-115276277D01*
X142733924Y-115276277D01*
X142651139Y-115298459D01*
X142651132Y-115298462D01*
X142576921Y-115341307D01*
X142576375Y-115341726D01*
X142576224Y-115341998D01*
X142575554Y-115342356D01*
X142570470Y-115346258D01*
X142569828Y-115345421D01*
X142545812Y-115358275D01*
X142515635Y-115374754D01*
X142515098Y-115374715D01*
X142514623Y-115374970D01*
X142480303Y-115372227D01*
X142445943Y-115369770D01*
X142445330Y-115369432D01*
X142444976Y-115369404D01*
X142443253Y-115368286D01*
X142414141Y-115352232D01*
X142407502Y-115347175D01*
X142353262Y-115292935D01*
X142279038Y-115250082D01*
X142196253Y-115227900D01*
X142110547Y-115227900D01*
X142027762Y-115250082D01*
X142020252Y-115253193D01*
X142019322Y-115250948D01*
X141963371Y-115264508D01*
X141897350Y-115241640D01*
X141865462Y-115206552D01*
X141865415Y-115206589D01*
X141864974Y-115206015D01*
X141861913Y-115202646D01*
X141860465Y-115200138D01*
X141817474Y-115157147D01*
X143874500Y-115157147D01*
X143874500Y-115242853D01*
X143893072Y-115312163D01*
X143896682Y-115325637D01*
X143896685Y-115325644D01*
X143939530Y-115399855D01*
X143939534Y-115399860D01*
X143939535Y-115399862D01*
X144000138Y-115460465D01*
X144000140Y-115460466D01*
X144000144Y-115460469D01*
X144067749Y-115499500D01*
X144074362Y-115503318D01*
X144157147Y-115525500D01*
X144157149Y-115525500D01*
X144242851Y-115525500D01*
X144242853Y-115525500D01*
X144325638Y-115503318D01*
X144399862Y-115460465D01*
X144460465Y-115399862D01*
X144503318Y-115325638D01*
X144525500Y-115242853D01*
X144525500Y-115157147D01*
X144503318Y-115074362D01*
X144484932Y-115042516D01*
X144460469Y-115000144D01*
X144460463Y-115000136D01*
X144399863Y-114939536D01*
X144399855Y-114939530D01*
X144325644Y-114896685D01*
X144325640Y-114896683D01*
X144325638Y-114896682D01*
X144242853Y-114874500D01*
X144157147Y-114874500D01*
X144074362Y-114896682D01*
X144074355Y-114896685D01*
X144000144Y-114939530D01*
X144000136Y-114939536D01*
X143939536Y-115000136D01*
X143939530Y-115000144D01*
X143896685Y-115074355D01*
X143896682Y-115074362D01*
X143874500Y-115157147D01*
X141817474Y-115157147D01*
X141799862Y-115139535D01*
X141799860Y-115139534D01*
X141799855Y-115139530D01*
X141725644Y-115096685D01*
X141725640Y-115096683D01*
X141725638Y-115096682D01*
X141642853Y-115074500D01*
X141557147Y-115074500D01*
X141474362Y-115096682D01*
X141474355Y-115096685D01*
X141400144Y-115139530D01*
X141400136Y-115139536D01*
X141339536Y-115200136D01*
X141339530Y-115200144D01*
X141296685Y-115274355D01*
X141296682Y-115274362D01*
X141274500Y-115357147D01*
X136453158Y-115357147D01*
X136498142Y-115312163D01*
X136519546Y-115280130D01*
X136519546Y-115280129D01*
X136522974Y-115275000D01*
X135935000Y-115275000D01*
X135935000Y-115575000D01*
X135085000Y-115575000D01*
X135085000Y-115275000D01*
X134497026Y-115275000D01*
X132854476Y-115275000D01*
X132873886Y-115269799D01*
X132976613Y-115210489D01*
X133060489Y-115126613D01*
X133119799Y-115023886D01*
X133150500Y-114909309D01*
X133150500Y-114800272D01*
X135110000Y-114800272D01*
X135110000Y-114899728D01*
X135148060Y-114991614D01*
X135218386Y-115061940D01*
X135310272Y-115100000D01*
X135709728Y-115100000D01*
X135801614Y-115061940D01*
X135871940Y-114991614D01*
X135910000Y-114899728D01*
X135910000Y-114800272D01*
X135871940Y-114708386D01*
X135801614Y-114638060D01*
X135709728Y-114600000D01*
X135310272Y-114600000D01*
X135218386Y-114638060D01*
X135148060Y-114708386D01*
X135110000Y-114800272D01*
X133150500Y-114800272D01*
X133150500Y-114790691D01*
X133119799Y-114676114D01*
X133060489Y-114573387D01*
X132976613Y-114489511D01*
X132873886Y-114430201D01*
X132854476Y-114425000D01*
X134497026Y-114425000D01*
X136522974Y-114425000D01*
X136518237Y-114417910D01*
X136518236Y-114417909D01*
X136498144Y-114387839D01*
X136498141Y-114387835D01*
X136467453Y-114357147D01*
X140874500Y-114357147D01*
X140874500Y-114442853D01*
X140893269Y-114512898D01*
X140896682Y-114525637D01*
X140896685Y-114525644D01*
X140939530Y-114599855D01*
X140939534Y-114599860D01*
X140939535Y-114599862D01*
X141000138Y-114660465D01*
X141000140Y-114660466D01*
X141000144Y-114660469D01*
X141059752Y-114694883D01*
X141074362Y-114703318D01*
X141157147Y-114725500D01*
X141157149Y-114725500D01*
X141242851Y-114725500D01*
X141242853Y-114725500D01*
X141325638Y-114703318D01*
X141399862Y-114660465D01*
X141460465Y-114599862D01*
X141503318Y-114525638D01*
X141525500Y-114442853D01*
X141525500Y-114357147D01*
X141503318Y-114274362D01*
X141495295Y-114260465D01*
X141460469Y-114200144D01*
X141460463Y-114200136D01*
X141399863Y-114139536D01*
X141399855Y-114139530D01*
X141325644Y-114096685D01*
X141325640Y-114096683D01*
X141325638Y-114096682D01*
X141242853Y-114074500D01*
X141157147Y-114074500D01*
X141074362Y-114096682D01*
X141074355Y-114096685D01*
X141000144Y-114139530D01*
X141000136Y-114139536D01*
X140939536Y-114200136D01*
X140939530Y-114200144D01*
X140896685Y-114274355D01*
X140896682Y-114274362D01*
X140874500Y-114357147D01*
X136467453Y-114357147D01*
X136397164Y-114286858D01*
X136397160Y-114286855D01*
X136278422Y-114207516D01*
X136278413Y-114207511D01*
X136146475Y-114152861D01*
X136146467Y-114152859D01*
X136006410Y-114125000D01*
X135909464Y-114125000D01*
X135842425Y-114105315D01*
X135796670Y-114052511D01*
X135788941Y-114000729D01*
X135785500Y-114000729D01*
X135785500Y-113867400D01*
X135783876Y-113861339D01*
X135753095Y-113746464D01*
X135690495Y-113638036D01*
X135601964Y-113549505D01*
X135493536Y-113486905D01*
X135493537Y-113486905D01*
X135478176Y-113482789D01*
X141464094Y-113482789D01*
X141464094Y-113594825D01*
X141492239Y-113699862D01*
X141493091Y-113703043D01*
X141493092Y-113703046D01*
X141501684Y-113717927D01*
X141549109Y-113800070D01*
X141628331Y-113879292D01*
X141725357Y-113935310D01*
X141833576Y-113964307D01*
X141833578Y-113964307D01*
X141945610Y-113964307D01*
X141945612Y-113964307D01*
X141972334Y-113957147D01*
X142674500Y-113957147D01*
X142674500Y-114042853D01*
X142695118Y-114119799D01*
X142696682Y-114125637D01*
X142696685Y-114125644D01*
X142739530Y-114199855D01*
X142739534Y-114199860D01*
X142739535Y-114199862D01*
X142800138Y-114260465D01*
X142800140Y-114260466D01*
X142800144Y-114260469D01*
X142868854Y-114300138D01*
X142874362Y-114303318D01*
X142957147Y-114325500D01*
X142957149Y-114325500D01*
X143042851Y-114325500D01*
X143042853Y-114325500D01*
X143125638Y-114303318D01*
X143188001Y-114267312D01*
X143255900Y-114250840D01*
X143311998Y-114267312D01*
X143374362Y-114303318D01*
X143457147Y-114325500D01*
X143457149Y-114325500D01*
X143542851Y-114325500D01*
X143542853Y-114325500D01*
X143625638Y-114303318D01*
X143699862Y-114260465D01*
X143760465Y-114199862D01*
X143803318Y-114125638D01*
X143825500Y-114042853D01*
X143825500Y-113957147D01*
X144674500Y-113957147D01*
X144674500Y-114042853D01*
X144695118Y-114119799D01*
X144696682Y-114125637D01*
X144696685Y-114125644D01*
X144739530Y-114199855D01*
X144739534Y-114199860D01*
X144739535Y-114199862D01*
X144800138Y-114260465D01*
X144800140Y-114260466D01*
X144800144Y-114260469D01*
X144868854Y-114300138D01*
X144874362Y-114303318D01*
X144957147Y-114325500D01*
X144957149Y-114325500D01*
X145050500Y-114325500D01*
X145117539Y-114345185D01*
X145163294Y-114397989D01*
X145174500Y-114449500D01*
X145174500Y-114457147D01*
X145174500Y-114542853D01*
X145193764Y-114614745D01*
X145196682Y-114625637D01*
X145196685Y-114625644D01*
X145239530Y-114699855D01*
X145239533Y-114699859D01*
X145239535Y-114699862D01*
X145300138Y-114760465D01*
X145300140Y-114760466D01*
X145300144Y-114760469D01*
X145362556Y-114796502D01*
X145374362Y-114803318D01*
X145457147Y-114825500D01*
X145457149Y-114825500D01*
X145542851Y-114825500D01*
X145542853Y-114825500D01*
X145625638Y-114803318D01*
X145699862Y-114760465D01*
X145760465Y-114699862D01*
X145803318Y-114625638D01*
X145825500Y-114542853D01*
X145825500Y-114457147D01*
X146714500Y-114457147D01*
X146714500Y-114542853D01*
X146733764Y-114614745D01*
X146736682Y-114625637D01*
X146736685Y-114625644D01*
X146779530Y-114699855D01*
X146779533Y-114699859D01*
X146779535Y-114699862D01*
X146840138Y-114760465D01*
X146840140Y-114760466D01*
X146840144Y-114760469D01*
X146902556Y-114796502D01*
X146914362Y-114803318D01*
X146997147Y-114825500D01*
X146997149Y-114825500D01*
X147082851Y-114825500D01*
X147082853Y-114825500D01*
X147165638Y-114803318D01*
X147222458Y-114770513D01*
X151799500Y-114770513D01*
X151799500Y-114959486D01*
X151829059Y-115146118D01*
X151887454Y-115325836D01*
X151964034Y-115476132D01*
X151973240Y-115494199D01*
X152084310Y-115647073D01*
X152217927Y-115780690D01*
X152370801Y-115891760D01*
X152435057Y-115924500D01*
X152539163Y-115977545D01*
X152539165Y-115977545D01*
X152539168Y-115977547D01*
X152635497Y-116008846D01*
X152718881Y-116035940D01*
X152905514Y-116065500D01*
X152905519Y-116065500D01*
X153094486Y-116065500D01*
X153281118Y-116035940D01*
X153315212Y-116024862D01*
X153460832Y-115977547D01*
X153629199Y-115891760D01*
X153782073Y-115780690D01*
X153915690Y-115647073D01*
X154026760Y-115494199D01*
X154112547Y-115325832D01*
X154170940Y-115146118D01*
X154174236Y-115125308D01*
X165775954Y-115125308D01*
X165775954Y-115211014D01*
X165798136Y-115293797D01*
X165798136Y-115293798D01*
X165798139Y-115293805D01*
X165840984Y-115368016D01*
X165840988Y-115368021D01*
X165840989Y-115368023D01*
X165901592Y-115428626D01*
X165901594Y-115428627D01*
X165901598Y-115428630D01*
X165956739Y-115460465D01*
X165975816Y-115471479D01*
X166058601Y-115493661D01*
X166058603Y-115493661D01*
X166144305Y-115493661D01*
X166144307Y-115493661D01*
X166227092Y-115471479D01*
X166301316Y-115428626D01*
X166361919Y-115368023D01*
X166404772Y-115293799D01*
X166423409Y-115224240D01*
X166459772Y-115164583D01*
X166511087Y-115136563D01*
X166580646Y-115117925D01*
X166654870Y-115075072D01*
X166715473Y-115014469D01*
X166758326Y-114940245D01*
X166780508Y-114857460D01*
X166780508Y-114771754D01*
X166758326Y-114688969D01*
X166741872Y-114660469D01*
X166715477Y-114614751D01*
X166715471Y-114614743D01*
X166654871Y-114554143D01*
X166654863Y-114554137D01*
X166580652Y-114511292D01*
X166580648Y-114511290D01*
X166580646Y-114511289D01*
X166497861Y-114489107D01*
X166412155Y-114489107D01*
X166329370Y-114511289D01*
X166329363Y-114511292D01*
X166255152Y-114554137D01*
X166255144Y-114554143D01*
X166194544Y-114614743D01*
X166194538Y-114614751D01*
X166151693Y-114688962D01*
X166151690Y-114688967D01*
X166150105Y-114694883D01*
X166137887Y-114740485D01*
X166133053Y-114758525D01*
X166096688Y-114818185D01*
X166045373Y-114846205D01*
X166018966Y-114853280D01*
X165975814Y-114864843D01*
X165975809Y-114864846D01*
X165901598Y-114907691D01*
X165901590Y-114907697D01*
X165840990Y-114968297D01*
X165840984Y-114968305D01*
X165798139Y-115042516D01*
X165798136Y-115042523D01*
X165775954Y-115125308D01*
X154174236Y-115125308D01*
X154175997Y-115114188D01*
X154178596Y-115097782D01*
X154178596Y-115097781D01*
X154200500Y-114959486D01*
X154200500Y-114770513D01*
X154170940Y-114583881D01*
X154140277Y-114489511D01*
X154112547Y-114404168D01*
X154112545Y-114404165D01*
X154112545Y-114404163D01*
X154064818Y-114310495D01*
X154026760Y-114235801D01*
X153915690Y-114082927D01*
X153782073Y-113949310D01*
X153629199Y-113838240D01*
X153621776Y-113834458D01*
X153460836Y-113752454D01*
X153281118Y-113694059D01*
X153094486Y-113664500D01*
X153094481Y-113664500D01*
X152905519Y-113664500D01*
X152905514Y-113664500D01*
X152718881Y-113694059D01*
X152539163Y-113752454D01*
X152370800Y-113838240D01*
X152309936Y-113882461D01*
X152217927Y-113949310D01*
X152217925Y-113949312D01*
X152217924Y-113949312D01*
X152084312Y-114082924D01*
X152084312Y-114082925D01*
X152084310Y-114082927D01*
X152043759Y-114138740D01*
X151973240Y-114235800D01*
X151887454Y-114404163D01*
X151829059Y-114583881D01*
X151799500Y-114770513D01*
X147222458Y-114770513D01*
X147239862Y-114760465D01*
X147300465Y-114699862D01*
X147343318Y-114625638D01*
X147365500Y-114542853D01*
X147365500Y-114457147D01*
X147343318Y-114374362D01*
X147332286Y-114355254D01*
X147300469Y-114300144D01*
X147300463Y-114300136D01*
X147239863Y-114239536D01*
X147239855Y-114239530D01*
X147165644Y-114196685D01*
X147165640Y-114196683D01*
X147165638Y-114196682D01*
X147082853Y-114174500D01*
X146997147Y-114174500D01*
X146914362Y-114196682D01*
X146914355Y-114196685D01*
X146840144Y-114239530D01*
X146840136Y-114239536D01*
X146779536Y-114300136D01*
X146779530Y-114300144D01*
X146736685Y-114374355D01*
X146736682Y-114374362D01*
X146714500Y-114457147D01*
X145825500Y-114457147D01*
X145803318Y-114374362D01*
X145792286Y-114355254D01*
X145760469Y-114300144D01*
X145760463Y-114300136D01*
X145699863Y-114239536D01*
X145699855Y-114239530D01*
X145625644Y-114196685D01*
X145625640Y-114196683D01*
X145625638Y-114196682D01*
X145542853Y-114174500D01*
X145457147Y-114174500D01*
X145449500Y-114174500D01*
X145382461Y-114154815D01*
X145336706Y-114102011D01*
X145325500Y-114050500D01*
X145325500Y-113957149D01*
X145325500Y-113957147D01*
X145303318Y-113874362D01*
X145303046Y-113873891D01*
X145260469Y-113800144D01*
X145260463Y-113800136D01*
X145199863Y-113739536D01*
X145199855Y-113739530D01*
X145125644Y-113696685D01*
X145125640Y-113696683D01*
X145125638Y-113696682D01*
X145042853Y-113674500D01*
X144957147Y-113674500D01*
X144874362Y-113696682D01*
X144874355Y-113696685D01*
X144800144Y-113739530D01*
X144800136Y-113739536D01*
X144739536Y-113800136D01*
X144739530Y-113800144D01*
X144696685Y-113874355D01*
X144696682Y-113874362D01*
X144674500Y-113957147D01*
X143825500Y-113957147D01*
X143825500Y-113949500D01*
X143827970Y-113941086D01*
X143826683Y-113932414D01*
X143837663Y-113908075D01*
X143845185Y-113882461D01*
X143851810Y-113876720D01*
X143855417Y-113868726D01*
X143877815Y-113854186D01*
X143897989Y-113836706D01*
X143908207Y-113834458D01*
X143914022Y-113830684D01*
X143947827Y-113825744D01*
X143948934Y-113825501D01*
X143957012Y-113825464D01*
X143957147Y-113825500D01*
X144042853Y-113825500D01*
X144125638Y-113803318D01*
X144199862Y-113760465D01*
X144260465Y-113699862D01*
X144303318Y-113625638D01*
X144325500Y-113542853D01*
X144325500Y-113457147D01*
X144325500Y-113449500D01*
X144345185Y-113382461D01*
X144397989Y-113336706D01*
X144449500Y-113325500D01*
X144542851Y-113325500D01*
X144542853Y-113325500D01*
X144625638Y-113303318D01*
X144688001Y-113267312D01*
X144755900Y-113250840D01*
X144811998Y-113267312D01*
X144874362Y-113303318D01*
X144957147Y-113325500D01*
X144957149Y-113325500D01*
X145042851Y-113325500D01*
X145042853Y-113325500D01*
X145125638Y-113303318D01*
X145188001Y-113267312D01*
X145255900Y-113250840D01*
X145311998Y-113267312D01*
X145374362Y-113303318D01*
X145457147Y-113325500D01*
X145457149Y-113325500D01*
X145542851Y-113325500D01*
X145542853Y-113325500D01*
X145625638Y-113303318D01*
X145699862Y-113260465D01*
X145760465Y-113199862D01*
X145803318Y-113125638D01*
X145825500Y-113042853D01*
X145825500Y-112957147D01*
X145803318Y-112874362D01*
X145789252Y-112849999D01*
X145760469Y-112800144D01*
X145760463Y-112800136D01*
X145699863Y-112739536D01*
X145699855Y-112739530D01*
X145625644Y-112696685D01*
X145625640Y-112696683D01*
X145625638Y-112696682D01*
X145542853Y-112674500D01*
X145457147Y-112674500D01*
X145374362Y-112696682D01*
X145374361Y-112696682D01*
X145311999Y-112732687D01*
X145244099Y-112749159D01*
X145188001Y-112732687D01*
X145125638Y-112696682D01*
X145042853Y-112674500D01*
X144957147Y-112674500D01*
X144874362Y-112696682D01*
X144874361Y-112696682D01*
X144811999Y-112732687D01*
X144808680Y-112733492D01*
X144806196Y-112735834D01*
X144774978Y-112741667D01*
X144744099Y-112749159D01*
X144739876Y-112748227D01*
X144737515Y-112748669D01*
X144728108Y-112745632D01*
X144703263Y-112740154D01*
X144695373Y-112736943D01*
X144625638Y-112696682D01*
X144542853Y-112674500D01*
X144541919Y-112674500D01*
X144532954Y-112670852D01*
X144511426Y-112653724D01*
X144487937Y-112639407D01*
X144484476Y-112632282D01*
X144478278Y-112627351D01*
X144469427Y-112601303D01*
X144457408Y-112576560D01*
X144458348Y-112568695D01*
X144455800Y-112561196D01*
X144462436Y-112534499D01*
X144465702Y-112507185D01*
X144471272Y-112498954D01*
X144472656Y-112493390D01*
X144479241Y-112487181D01*
X144492011Y-112468316D01*
X144503180Y-112457147D01*
X146074500Y-112457147D01*
X146074500Y-112542853D01*
X146090750Y-112603497D01*
X146096682Y-112625637D01*
X146096685Y-112625644D01*
X146139530Y-112699855D01*
X146139534Y-112699860D01*
X146139535Y-112699862D01*
X146200138Y-112760465D01*
X146200140Y-112760466D01*
X146200144Y-112760469D01*
X146268854Y-112800138D01*
X146274362Y-112803318D01*
X146357147Y-112825500D01*
X146357149Y-112825500D01*
X146442851Y-112825500D01*
X146442853Y-112825500D01*
X146525638Y-112803318D01*
X146599862Y-112760465D01*
X146660465Y-112699862D01*
X146703318Y-112625638D01*
X146725500Y-112542853D01*
X146725500Y-112457147D01*
X146703318Y-112374362D01*
X146675107Y-112325499D01*
X146660469Y-112300144D01*
X146660463Y-112300136D01*
X146599863Y-112239536D01*
X146599855Y-112239530D01*
X146525644Y-112196685D01*
X146525640Y-112196683D01*
X146525638Y-112196682D01*
X146442853Y-112174500D01*
X146357147Y-112174500D01*
X146274362Y-112196682D01*
X146274355Y-112196685D01*
X146200144Y-112239530D01*
X146200136Y-112239536D01*
X146139536Y-112300136D01*
X146139530Y-112300144D01*
X146096685Y-112374355D01*
X146096682Y-112374362D01*
X146074500Y-112457147D01*
X144503180Y-112457147D01*
X144510465Y-112449862D01*
X144553318Y-112375638D01*
X144575500Y-112292853D01*
X144575500Y-112207147D01*
X144553318Y-112124362D01*
X144525107Y-112075499D01*
X144510469Y-112050144D01*
X144510463Y-112050136D01*
X144449863Y-111989536D01*
X144449855Y-111989530D01*
X144375644Y-111946685D01*
X144375640Y-111946683D01*
X144375638Y-111946682D01*
X144292853Y-111924500D01*
X144207147Y-111924500D01*
X144124362Y-111946682D01*
X144124355Y-111946685D01*
X144050144Y-111989530D01*
X144050136Y-111989536D01*
X143989536Y-112050136D01*
X143989530Y-112050144D01*
X143946685Y-112124355D01*
X143946682Y-112124362D01*
X143924500Y-112207147D01*
X143924500Y-112292853D01*
X143933248Y-112325499D01*
X143946682Y-112375637D01*
X143946685Y-112375644D01*
X143989530Y-112449855D01*
X143989536Y-112449863D01*
X144007989Y-112468316D01*
X144023890Y-112497436D01*
X144040645Y-112526081D01*
X144040565Y-112527975D01*
X144041474Y-112529639D01*
X144039107Y-112562736D01*
X144037716Y-112595890D01*
X144036625Y-112597440D01*
X144036490Y-112599331D01*
X144016605Y-112625893D01*
X143997510Y-112653032D01*
X143995548Y-112654020D01*
X143994618Y-112655264D01*
X143967045Y-112670852D01*
X143958080Y-112674500D01*
X143957147Y-112674500D01*
X143874362Y-112696682D01*
X143804626Y-112736943D01*
X143796737Y-112740154D01*
X143770111Y-112742848D01*
X143744099Y-112749159D01*
X143734783Y-112746423D01*
X143727222Y-112747189D01*
X143713320Y-112740121D01*
X143688001Y-112732687D01*
X143625638Y-112696682D01*
X143542853Y-112674500D01*
X143457147Y-112674500D01*
X143374362Y-112696682D01*
X143374355Y-112696685D01*
X143300144Y-112739530D01*
X143300136Y-112739536D01*
X143239536Y-112800136D01*
X143239530Y-112800144D01*
X143196685Y-112874355D01*
X143196682Y-112874362D01*
X143174500Y-112957147D01*
X143174500Y-113042853D01*
X143190702Y-113103318D01*
X143196682Y-113125637D01*
X143196682Y-113125638D01*
X143232687Y-113188001D01*
X143249159Y-113255901D01*
X143232687Y-113311999D01*
X143196682Y-113374361D01*
X143196682Y-113374362D01*
X143174500Y-113457147D01*
X143174500Y-113550500D01*
X143154815Y-113617539D01*
X143102011Y-113663294D01*
X143050500Y-113674500D01*
X142957147Y-113674500D01*
X142874362Y-113696682D01*
X142874355Y-113696685D01*
X142800144Y-113739530D01*
X142800136Y-113739536D01*
X142739536Y-113800136D01*
X142739530Y-113800144D01*
X142696685Y-113874355D01*
X142696682Y-113874362D01*
X142674500Y-113957147D01*
X141972334Y-113957147D01*
X142053831Y-113935310D01*
X142150857Y-113879292D01*
X142230079Y-113800070D01*
X142286097Y-113703044D01*
X142315094Y-113594825D01*
X142315094Y-113482789D01*
X142292174Y-113397250D01*
X142293837Y-113327404D01*
X142324270Y-113277477D01*
X142340485Y-113261263D01*
X142396503Y-113164237D01*
X142425500Y-113056018D01*
X142425500Y-112943982D01*
X142396503Y-112835763D01*
X142340485Y-112738737D01*
X142261263Y-112659515D01*
X142164237Y-112603497D01*
X142056018Y-112574500D01*
X141943982Y-112574500D01*
X141835763Y-112603497D01*
X141835760Y-112603498D01*
X141738740Y-112659513D01*
X141738734Y-112659517D01*
X141659517Y-112738734D01*
X141659513Y-112738740D01*
X141603498Y-112835760D01*
X141603497Y-112835763D01*
X141574500Y-112943982D01*
X141574500Y-113056018D01*
X141593154Y-113125638D01*
X141597419Y-113141552D01*
X141595756Y-113211402D01*
X141565327Y-113261324D01*
X141549109Y-113277541D01*
X141493092Y-113374567D01*
X141493091Y-113374570D01*
X141464094Y-113482789D01*
X135478176Y-113482789D01*
X135435761Y-113471424D01*
X135372601Y-113454500D01*
X135247399Y-113454500D01*
X135184239Y-113471424D01*
X135126463Y-113486905D01*
X135018037Y-113549504D01*
X135018034Y-113549506D01*
X134929506Y-113638034D01*
X134929504Y-113638037D01*
X134866905Y-113746463D01*
X134852523Y-113800136D01*
X134838041Y-113854186D01*
X134834500Y-113867400D01*
X134834500Y-113992601D01*
X134848905Y-114046361D01*
X134847242Y-114116210D01*
X134808079Y-114174073D01*
X134776585Y-114193014D01*
X134741589Y-114207510D01*
X134741577Y-114207516D01*
X134622839Y-114286855D01*
X134622835Y-114286858D01*
X134521857Y-114387836D01*
X134497026Y-114425000D01*
X132854476Y-114425000D01*
X132759309Y-114399500D01*
X132640691Y-114399500D01*
X132535505Y-114427684D01*
X132526110Y-114430202D01*
X132462000Y-114467217D01*
X132394100Y-114483690D01*
X132338000Y-114467217D01*
X132273889Y-114430202D01*
X132273890Y-114430202D01*
X132264494Y-114427684D01*
X132159309Y-114399500D01*
X132040691Y-114399500D01*
X131935505Y-114427684D01*
X131926110Y-114430202D01*
X131862000Y-114467217D01*
X131794100Y-114483690D01*
X131738000Y-114467217D01*
X131673889Y-114430202D01*
X131673890Y-114430202D01*
X131664494Y-114427684D01*
X131559309Y-114399500D01*
X131440691Y-114399500D01*
X131335505Y-114427684D01*
X131326110Y-114430202D01*
X131262000Y-114467217D01*
X131194100Y-114483690D01*
X131138000Y-114467217D01*
X131073889Y-114430202D01*
X131073890Y-114430202D01*
X131064494Y-114427684D01*
X130959309Y-114399500D01*
X130840691Y-114399500D01*
X130735505Y-114427684D01*
X130726110Y-114430202D01*
X130662000Y-114467217D01*
X130594100Y-114483690D01*
X130538000Y-114467217D01*
X130473889Y-114430202D01*
X130473890Y-114430202D01*
X130464494Y-114427684D01*
X130359309Y-114399500D01*
X130240691Y-114399500D01*
X130126114Y-114430201D01*
X130126112Y-114430201D01*
X130126112Y-114430202D01*
X130023387Y-114489511D01*
X130023384Y-114489513D01*
X129939513Y-114573384D01*
X129939511Y-114573387D01*
X129888778Y-114661259D01*
X129880201Y-114676114D01*
X129849500Y-114790691D01*
X127886031Y-114790691D01*
X127851940Y-114708386D01*
X127781614Y-114638060D01*
X127689728Y-114600000D01*
X127290272Y-114600000D01*
X127198386Y-114638060D01*
X127128060Y-114708386D01*
X127090000Y-114800272D01*
X115550171Y-114800272D01*
X115564237Y-114796503D01*
X115661263Y-114740485D01*
X115740485Y-114661263D01*
X115796503Y-114564237D01*
X115825500Y-114456018D01*
X115825500Y-114343982D01*
X115796503Y-114235763D01*
X115740485Y-114138737D01*
X115661263Y-114059515D01*
X115564237Y-114003497D01*
X115456018Y-113974500D01*
X115343982Y-113974500D01*
X115235763Y-114003497D01*
X115235760Y-114003498D01*
X115138740Y-114059513D01*
X115138734Y-114059517D01*
X115059517Y-114138734D01*
X115059513Y-114138740D01*
X115003498Y-114235760D01*
X115003497Y-114235763D01*
X114974500Y-114343982D01*
X111190754Y-114343982D01*
X111184313Y-114303316D01*
X111170940Y-114218882D01*
X111112547Y-114039168D01*
X111112545Y-114039165D01*
X111112545Y-114039163D01*
X111045752Y-113908075D01*
X111026760Y-113870801D01*
X110915690Y-113717927D01*
X110782073Y-113584310D01*
X110629199Y-113473240D01*
X110597615Y-113457147D01*
X110460836Y-113387454D01*
X110281118Y-113329059D01*
X110094486Y-113299500D01*
X110094481Y-113299500D01*
X109905519Y-113299500D01*
X109905514Y-113299500D01*
X109718881Y-113329059D01*
X109539163Y-113387454D01*
X109370800Y-113473240D01*
X109283579Y-113536610D01*
X109217927Y-113584310D01*
X109217925Y-113584312D01*
X109217924Y-113584312D01*
X109084312Y-113717924D01*
X109084312Y-113717925D01*
X109084310Y-113717927D01*
X109054246Y-113759306D01*
X108973240Y-113870800D01*
X108887454Y-114039163D01*
X108829059Y-114218881D01*
X108799500Y-114405513D01*
X93000500Y-114405513D01*
X93000500Y-112757147D01*
X120874500Y-112757147D01*
X120874500Y-112842853D01*
X120881534Y-112869102D01*
X120896682Y-112925637D01*
X120896685Y-112925644D01*
X120939530Y-112999855D01*
X120939534Y-112999860D01*
X120939535Y-112999862D01*
X121000138Y-113060465D01*
X121000140Y-113060466D01*
X121000144Y-113060469D01*
X121074355Y-113103314D01*
X121074362Y-113103318D01*
X121157147Y-113125500D01*
X121157149Y-113125500D01*
X121242851Y-113125500D01*
X121242853Y-113125500D01*
X121325638Y-113103318D01*
X121399862Y-113060465D01*
X121460465Y-112999862D01*
X121503318Y-112925638D01*
X121525500Y-112842853D01*
X121525500Y-112840691D01*
X125699500Y-112840691D01*
X125699500Y-112959309D01*
X125730201Y-113073886D01*
X125739904Y-113090693D01*
X125752784Y-113113001D01*
X125769256Y-113180901D01*
X125752784Y-113236999D01*
X125730201Y-113276113D01*
X125729818Y-113277544D01*
X125699500Y-113390691D01*
X125699500Y-113509309D01*
X125730201Y-113623886D01*
X125789511Y-113726613D01*
X125873387Y-113810489D01*
X125976114Y-113869799D01*
X126090691Y-113900500D01*
X126090694Y-113900500D01*
X126173976Y-113900500D01*
X126241015Y-113920185D01*
X126281362Y-113962499D01*
X126289511Y-113976613D01*
X126373387Y-114060489D01*
X126476114Y-114119799D01*
X126500356Y-114126294D01*
X126560016Y-114162659D01*
X126590545Y-114225506D01*
X126582250Y-114294882D01*
X126555944Y-114333749D01*
X126501857Y-114387836D01*
X126477026Y-114425000D01*
X127065000Y-114425000D01*
X127915000Y-114425000D01*
X128502974Y-114425000D01*
X128478142Y-114387836D01*
X128377164Y-114286858D01*
X128377160Y-114286855D01*
X128258422Y-114207516D01*
X128258413Y-114207511D01*
X128126475Y-114152861D01*
X128126467Y-114152859D01*
X127986410Y-114125000D01*
X127915000Y-114125000D01*
X127915000Y-114425000D01*
X127065000Y-114425000D01*
X127065000Y-114125000D01*
X127043408Y-114103408D01*
X127009923Y-114042085D01*
X127014907Y-113972393D01*
X127023703Y-113953726D01*
X127050060Y-113908075D01*
X127069799Y-113873886D01*
X127100500Y-113759309D01*
X127100500Y-113737552D01*
X130969094Y-113737552D01*
X130969094Y-113823258D01*
X130987537Y-113892086D01*
X130991276Y-113906042D01*
X130991279Y-113906049D01*
X131034124Y-113980260D01*
X131034128Y-113980265D01*
X131034129Y-113980267D01*
X131094732Y-114040870D01*
X131094734Y-114040871D01*
X131094738Y-114040874D01*
X131128713Y-114060489D01*
X131168956Y-114083723D01*
X131251741Y-114105905D01*
X131251743Y-114105905D01*
X131337445Y-114105905D01*
X131337447Y-114105905D01*
X131420232Y-114083723D01*
X131494456Y-114040870D01*
X131555059Y-113980267D01*
X131597912Y-113906043D01*
X131620094Y-113823258D01*
X131620094Y-113757147D01*
X131874500Y-113757147D01*
X131874500Y-113842853D01*
X131891432Y-113906042D01*
X131896682Y-113925637D01*
X131896685Y-113925644D01*
X131939530Y-113999855D01*
X131939534Y-113999860D01*
X131939535Y-113999862D01*
X132000138Y-114060465D01*
X132000140Y-114060466D01*
X132000144Y-114060469D01*
X132040422Y-114083723D01*
X132074362Y-114103318D01*
X132157147Y-114125500D01*
X132157149Y-114125500D01*
X132242851Y-114125500D01*
X132242853Y-114125500D01*
X132325638Y-114103318D01*
X132399862Y-114060465D01*
X132460465Y-113999862D01*
X132503318Y-113925638D01*
X132525500Y-113842853D01*
X132525500Y-113757147D01*
X132503318Y-113674362D01*
X132492001Y-113654760D01*
X132460469Y-113600144D01*
X132460463Y-113600136D01*
X132399863Y-113539536D01*
X132399855Y-113539530D01*
X132325644Y-113496685D01*
X132325640Y-113496683D01*
X132325638Y-113496682D01*
X132242853Y-113474500D01*
X132157147Y-113474500D01*
X132074362Y-113496682D01*
X132074355Y-113496685D01*
X132000144Y-113539530D01*
X132000136Y-113539536D01*
X131939536Y-113600136D01*
X131939530Y-113600144D01*
X131896685Y-113674355D01*
X131896682Y-113674362D01*
X131874500Y-113757147D01*
X131620094Y-113757147D01*
X131620094Y-113737552D01*
X131597912Y-113654767D01*
X131597908Y-113654760D01*
X131555063Y-113580549D01*
X131555057Y-113580541D01*
X131500605Y-113526089D01*
X131494456Y-113519940D01*
X131420232Y-113477087D01*
X131337447Y-113454905D01*
X131251741Y-113454905D01*
X131168956Y-113477087D01*
X131168949Y-113477090D01*
X131094738Y-113519935D01*
X131094730Y-113519941D01*
X131034130Y-113580541D01*
X131034124Y-113580549D01*
X130991279Y-113654760D01*
X130991276Y-113654767D01*
X130969094Y-113737552D01*
X127100500Y-113737552D01*
X127100500Y-113640691D01*
X127069799Y-113526114D01*
X127047216Y-113487000D01*
X127030743Y-113419102D01*
X127047217Y-113362998D01*
X127069799Y-113323886D01*
X127100500Y-113209309D01*
X127100500Y-113090691D01*
X127069799Y-112976114D01*
X127058848Y-112957147D01*
X131399501Y-112957147D01*
X131399501Y-113042853D01*
X131415703Y-113103318D01*
X131421683Y-113125637D01*
X131421686Y-113125644D01*
X131464531Y-113199855D01*
X131464535Y-113199860D01*
X131464536Y-113199862D01*
X131525139Y-113260465D01*
X131599363Y-113303318D01*
X131682148Y-113325500D01*
X131682151Y-113325500D01*
X131767852Y-113325500D01*
X131767854Y-113325500D01*
X131850639Y-113303318D01*
X131924863Y-113260465D01*
X131985466Y-113199862D01*
X132028319Y-113125638D01*
X132050501Y-113042853D01*
X132050501Y-112957147D01*
X132046973Y-112943982D01*
X136574500Y-112943982D01*
X136574500Y-113056018D01*
X136603497Y-113164237D01*
X136659515Y-113261263D01*
X136738737Y-113340485D01*
X136835763Y-113396503D01*
X136943982Y-113425500D01*
X136943984Y-113425500D01*
X137056016Y-113425500D01*
X137056018Y-113425500D01*
X137164237Y-113396503D01*
X137261263Y-113340485D01*
X137340485Y-113261263D01*
X137396503Y-113164237D01*
X137421239Y-113071916D01*
X137457602Y-113012259D01*
X137520449Y-112981729D01*
X137589824Y-112990023D01*
X137643703Y-113034508D01*
X137648399Y-113042011D01*
X137659510Y-113061256D01*
X137659513Y-113061260D01*
X137659515Y-113061263D01*
X137738737Y-113140485D01*
X137835763Y-113196503D01*
X137943982Y-113225500D01*
X137943984Y-113225500D01*
X138056016Y-113225500D01*
X138056018Y-113225500D01*
X138164237Y-113196503D01*
X138261263Y-113140485D01*
X138340485Y-113061263D01*
X138396503Y-112964237D01*
X138425500Y-112856018D01*
X138425500Y-112743982D01*
X138396503Y-112635763D01*
X138340485Y-112538737D01*
X138261263Y-112459515D01*
X138164237Y-112403497D01*
X138056018Y-112374500D01*
X137943982Y-112374500D01*
X137835763Y-112403497D01*
X137835760Y-112403498D01*
X137738740Y-112459513D01*
X137738734Y-112459517D01*
X137659517Y-112538734D01*
X137659513Y-112538740D01*
X137603498Y-112635760D01*
X137603497Y-112635761D01*
X137592482Y-112676871D01*
X137579289Y-112726112D01*
X137578761Y-112728081D01*
X137542396Y-112787741D01*
X137479549Y-112818270D01*
X137410173Y-112809975D01*
X137356295Y-112765490D01*
X137351599Y-112757987D01*
X137345964Y-112748227D01*
X137340485Y-112738737D01*
X137261263Y-112659515D01*
X137164237Y-112603497D01*
X137056018Y-112574500D01*
X136943982Y-112574500D01*
X136835763Y-112603497D01*
X136835760Y-112603498D01*
X136738740Y-112659513D01*
X136738734Y-112659517D01*
X136659517Y-112738734D01*
X136659513Y-112738740D01*
X136603498Y-112835760D01*
X136603497Y-112835763D01*
X136574500Y-112943982D01*
X132046973Y-112943982D01*
X132028319Y-112874362D01*
X132014253Y-112849999D01*
X131985470Y-112800144D01*
X131985464Y-112800136D01*
X131924864Y-112739536D01*
X131924856Y-112739530D01*
X131850645Y-112696685D01*
X131850641Y-112696683D01*
X131850639Y-112696682D01*
X131767854Y-112674500D01*
X131682148Y-112674500D01*
X131599363Y-112696682D01*
X131599356Y-112696685D01*
X131525145Y-112739530D01*
X131525137Y-112739536D01*
X131464537Y-112800136D01*
X131464531Y-112800144D01*
X131421686Y-112874355D01*
X131421683Y-112874362D01*
X131399501Y-112957147D01*
X127058848Y-112957147D01*
X127047216Y-112937000D01*
X127030743Y-112869102D01*
X127047217Y-112812998D01*
X127069799Y-112773886D01*
X127100500Y-112659309D01*
X127100500Y-112550000D01*
X128621937Y-112550000D01*
X128628597Y-112559967D01*
X128740031Y-112671402D01*
X128871051Y-112758947D01*
X128871060Y-112758952D01*
X129016648Y-112819256D01*
X129016656Y-112819258D01*
X129171202Y-112849999D01*
X129171206Y-112850000D01*
X129250000Y-112850000D01*
X130250000Y-112850000D01*
X130328794Y-112850000D01*
X130328797Y-112849999D01*
X130483343Y-112819258D01*
X130483351Y-112819256D01*
X130628939Y-112758952D01*
X130628948Y-112758947D01*
X130759968Y-112671402D01*
X130871402Y-112559967D01*
X130878062Y-112550000D01*
X132121937Y-112550000D01*
X132128597Y-112559967D01*
X132240031Y-112671402D01*
X132371051Y-112758947D01*
X132371060Y-112758952D01*
X132516648Y-112819256D01*
X132516656Y-112819258D01*
X132671202Y-112849999D01*
X132671206Y-112850000D01*
X132750000Y-112850000D01*
X133750000Y-112850000D01*
X133828794Y-112850000D01*
X133828797Y-112849999D01*
X133983343Y-112819258D01*
X133983352Y-112819256D01*
X134128939Y-112758952D01*
X134128948Y-112758947D01*
X134259968Y-112671402D01*
X134371402Y-112559967D01*
X134378062Y-112550000D01*
X133750000Y-112550000D01*
X133750000Y-112850000D01*
X132750000Y-112850000D01*
X132750000Y-112550000D01*
X132121937Y-112550000D01*
X130878062Y-112550000D01*
X130250000Y-112550000D01*
X130250000Y-112850000D01*
X129250000Y-112850000D01*
X129250000Y-112550000D01*
X128621937Y-112550000D01*
X127100500Y-112550000D01*
X127100500Y-112540691D01*
X127069799Y-112426114D01*
X127010489Y-112323387D01*
X126926613Y-112239511D01*
X126823886Y-112180201D01*
X126709309Y-112149500D01*
X126590691Y-112149500D01*
X126476114Y-112180201D01*
X126476112Y-112180201D01*
X126476112Y-112180202D01*
X126373387Y-112239511D01*
X126373384Y-112239513D01*
X126289513Y-112323384D01*
X126289508Y-112323390D01*
X126252495Y-112387500D01*
X126201928Y-112435716D01*
X126145108Y-112449500D01*
X126090691Y-112449500D01*
X125976114Y-112480201D01*
X125976112Y-112480201D01*
X125976112Y-112480202D01*
X125873387Y-112539511D01*
X125873384Y-112539513D01*
X125789513Y-112623384D01*
X125789511Y-112623387D01*
X125730201Y-112726114D01*
X125699500Y-112840691D01*
X121525500Y-112840691D01*
X121525500Y-112757147D01*
X121503318Y-112674362D01*
X121494627Y-112659309D01*
X121460469Y-112600144D01*
X121460463Y-112600136D01*
X121399863Y-112539536D01*
X121399855Y-112539530D01*
X121325644Y-112496685D01*
X121325640Y-112496683D01*
X121325638Y-112496682D01*
X121242853Y-112474500D01*
X121157147Y-112474500D01*
X121074362Y-112496682D01*
X121074355Y-112496685D01*
X121000144Y-112539530D01*
X121000136Y-112539536D01*
X120939536Y-112600136D01*
X120939530Y-112600144D01*
X120896685Y-112674355D01*
X120896682Y-112674362D01*
X120874500Y-112757147D01*
X93000500Y-112757147D01*
X93000500Y-111593982D01*
X95574500Y-111593982D01*
X95574500Y-111706018D01*
X95603497Y-111814237D01*
X95659515Y-111911263D01*
X95738737Y-111990485D01*
X95835763Y-112046503D01*
X95943982Y-112075500D01*
X95943984Y-112075500D01*
X96056016Y-112075500D01*
X96056018Y-112075500D01*
X96164237Y-112046503D01*
X96238003Y-112003913D01*
X96305899Y-111987442D01*
X96361995Y-112003913D01*
X96435763Y-112046503D01*
X96543982Y-112075500D01*
X96543984Y-112075500D01*
X96656016Y-112075500D01*
X96656018Y-112075500D01*
X96764237Y-112046503D01*
X96838003Y-112003913D01*
X96905899Y-111987442D01*
X96961995Y-112003913D01*
X97035763Y-112046503D01*
X97143982Y-112075500D01*
X97143984Y-112075500D01*
X97256016Y-112075500D01*
X97256018Y-112075500D01*
X97364237Y-112046503D01*
X97438003Y-112003913D01*
X97505899Y-111987442D01*
X97561995Y-112003913D01*
X97635763Y-112046503D01*
X97743982Y-112075500D01*
X97743984Y-112075500D01*
X97856016Y-112075500D01*
X97856018Y-112075500D01*
X97964237Y-112046503D01*
X98038003Y-112003913D01*
X98105899Y-111987442D01*
X98161995Y-112003913D01*
X98235763Y-112046503D01*
X98343982Y-112075500D01*
X98343984Y-112075500D01*
X98456016Y-112075500D01*
X98456018Y-112075500D01*
X98564237Y-112046503D01*
X98656876Y-111993018D01*
X124114822Y-111993018D01*
X124234176Y-112025000D01*
X124365824Y-112025000D01*
X124485175Y-111993018D01*
X125214822Y-111993018D01*
X125334176Y-112025000D01*
X125465824Y-112025000D01*
X125558104Y-112000272D01*
X129050000Y-112000272D01*
X129050000Y-112099728D01*
X129088060Y-112191614D01*
X129158386Y-112261940D01*
X129250272Y-112300000D01*
X130249728Y-112300000D01*
X130341614Y-112261940D01*
X130411940Y-112191614D01*
X130450000Y-112099728D01*
X130450000Y-112000272D01*
X132550000Y-112000272D01*
X132550000Y-112099728D01*
X132588060Y-112191614D01*
X132658386Y-112261940D01*
X132750272Y-112300000D01*
X133749728Y-112300000D01*
X133841614Y-112261940D01*
X133911940Y-112191614D01*
X133950000Y-112099728D01*
X133950000Y-112000272D01*
X133932137Y-111957147D01*
X135674500Y-111957147D01*
X135674500Y-112042853D01*
X135689740Y-112099728D01*
X135696682Y-112125637D01*
X135696685Y-112125644D01*
X135739530Y-112199855D01*
X135739534Y-112199860D01*
X135739535Y-112199862D01*
X135800138Y-112260465D01*
X135800140Y-112260466D01*
X135800144Y-112260469D01*
X135868854Y-112300138D01*
X135874362Y-112303318D01*
X135957147Y-112325500D01*
X135957149Y-112325500D01*
X136042851Y-112325500D01*
X136042853Y-112325500D01*
X136125638Y-112303318D01*
X136199862Y-112260465D01*
X136260465Y-112199862D01*
X136303318Y-112125638D01*
X136325500Y-112042853D01*
X136325500Y-111957147D01*
X136303318Y-111874362D01*
X136283759Y-111840485D01*
X136260469Y-111800144D01*
X136260463Y-111800136D01*
X136199863Y-111739536D01*
X136199855Y-111739530D01*
X136125644Y-111696685D01*
X136125640Y-111696683D01*
X136125638Y-111696682D01*
X136042853Y-111674500D01*
X135957147Y-111674500D01*
X135874362Y-111696682D01*
X135874355Y-111696685D01*
X135800144Y-111739530D01*
X135800136Y-111739536D01*
X135739536Y-111800136D01*
X135739530Y-111800144D01*
X135696685Y-111874355D01*
X135696682Y-111874362D01*
X135674500Y-111957147D01*
X133932137Y-111957147D01*
X133911940Y-111908386D01*
X133841614Y-111838060D01*
X133749728Y-111800000D01*
X132750272Y-111800000D01*
X132658386Y-111838060D01*
X132588060Y-111908386D01*
X132550000Y-112000272D01*
X130450000Y-112000272D01*
X130411940Y-111908386D01*
X130341614Y-111838060D01*
X130249728Y-111800000D01*
X129250272Y-111800000D01*
X129158386Y-111838060D01*
X129088060Y-111908386D01*
X129050000Y-112000272D01*
X125558104Y-112000272D01*
X125585175Y-111993018D01*
X125400000Y-111807842D01*
X125214822Y-111993018D01*
X124485175Y-111993018D01*
X124300000Y-111807842D01*
X124114822Y-111993018D01*
X98656876Y-111993018D01*
X98661263Y-111990485D01*
X98740485Y-111911263D01*
X98796503Y-111814237D01*
X98825500Y-111706018D01*
X98825500Y-111593982D01*
X98796503Y-111485763D01*
X98781152Y-111459174D01*
X123800000Y-111459174D01*
X123800000Y-111590823D01*
X123831980Y-111710174D01*
X124017156Y-111524999D01*
X123997266Y-111505109D01*
X124200000Y-111505109D01*
X124200000Y-111544891D01*
X124215224Y-111581645D01*
X124243355Y-111609776D01*
X124280109Y-111625000D01*
X124319891Y-111625000D01*
X124356645Y-111609776D01*
X124384776Y-111581645D01*
X124400000Y-111544891D01*
X124400000Y-111524999D01*
X124582842Y-111524999D01*
X124768018Y-111710175D01*
X124817905Y-111696808D01*
X124882093Y-111696808D01*
X124931979Y-111710175D01*
X125117156Y-111524999D01*
X125097266Y-111505109D01*
X125300000Y-111505109D01*
X125300000Y-111544891D01*
X125315224Y-111581645D01*
X125343355Y-111609776D01*
X125380109Y-111625000D01*
X125419891Y-111625000D01*
X125456645Y-111609776D01*
X125484776Y-111581645D01*
X125500000Y-111544891D01*
X125500000Y-111524999D01*
X125682842Y-111524999D01*
X125868018Y-111710175D01*
X125900000Y-111590824D01*
X125900000Y-111549999D01*
X128621937Y-111549999D01*
X128621937Y-111550000D01*
X129250000Y-111550000D01*
X130250000Y-111550000D01*
X130878063Y-111550000D01*
X130878062Y-111549999D01*
X130871402Y-111540032D01*
X130759968Y-111428597D01*
X130628948Y-111341052D01*
X130628939Y-111341047D01*
X130483351Y-111280743D01*
X130483343Y-111280741D01*
X130328797Y-111250000D01*
X130250000Y-111250000D01*
X130250000Y-111550000D01*
X129250000Y-111550000D01*
X129250000Y-111250000D01*
X129171202Y-111250000D01*
X129016656Y-111280741D01*
X129016648Y-111280743D01*
X128871060Y-111341047D01*
X128871051Y-111341052D01*
X128740031Y-111428597D01*
X128628597Y-111540032D01*
X128621937Y-111549999D01*
X125900000Y-111549999D01*
X125900000Y-111459175D01*
X125868018Y-111339822D01*
X125682842Y-111524999D01*
X125500000Y-111524999D01*
X125500000Y-111505109D01*
X125484776Y-111468355D01*
X125456645Y-111440224D01*
X125419891Y-111425000D01*
X125380109Y-111425000D01*
X125343355Y-111440224D01*
X125315224Y-111468355D01*
X125300000Y-111505109D01*
X125097266Y-111505109D01*
X124931979Y-111339822D01*
X124882092Y-111353190D01*
X124817906Y-111353190D01*
X124768018Y-111339822D01*
X124582842Y-111524999D01*
X124400000Y-111524999D01*
X124400000Y-111505109D01*
X124384776Y-111468355D01*
X124356645Y-111440224D01*
X124319891Y-111425000D01*
X124280109Y-111425000D01*
X124243355Y-111440224D01*
X124215224Y-111468355D01*
X124200000Y-111505109D01*
X123997266Y-111505109D01*
X123831979Y-111339822D01*
X123800000Y-111459174D01*
X98781152Y-111459174D01*
X98740485Y-111388737D01*
X98661263Y-111309515D01*
X98576306Y-111260465D01*
X98564239Y-111253498D01*
X98564238Y-111253497D01*
X98564237Y-111253497D01*
X98456018Y-111224500D01*
X98343982Y-111224500D01*
X98235763Y-111253497D01*
X98235760Y-111253498D01*
X98162000Y-111296084D01*
X98094100Y-111312557D01*
X98038000Y-111296084D01*
X97964239Y-111253498D01*
X97964238Y-111253497D01*
X97964237Y-111253497D01*
X97856018Y-111224500D01*
X97743982Y-111224500D01*
X97635763Y-111253497D01*
X97635760Y-111253498D01*
X97562000Y-111296084D01*
X97494100Y-111312557D01*
X97438000Y-111296084D01*
X97364239Y-111253498D01*
X97364238Y-111253497D01*
X97364237Y-111253497D01*
X97256018Y-111224500D01*
X97143982Y-111224500D01*
X97035763Y-111253497D01*
X97035760Y-111253498D01*
X96962000Y-111296084D01*
X96894100Y-111312557D01*
X96838000Y-111296084D01*
X96764239Y-111253498D01*
X96764238Y-111253497D01*
X96764237Y-111253497D01*
X96656018Y-111224500D01*
X96543982Y-111224500D01*
X96435763Y-111253497D01*
X96435760Y-111253498D01*
X96362000Y-111296084D01*
X96294100Y-111312557D01*
X96238000Y-111296084D01*
X96164239Y-111253498D01*
X96164238Y-111253497D01*
X96164237Y-111253497D01*
X96056018Y-111224500D01*
X95943982Y-111224500D01*
X95835763Y-111253497D01*
X95835760Y-111253498D01*
X95738740Y-111309513D01*
X95738734Y-111309517D01*
X95659517Y-111388734D01*
X95659513Y-111388740D01*
X95603498Y-111485760D01*
X95603497Y-111485763D01*
X95574500Y-111593982D01*
X93000500Y-111593982D01*
X93000500Y-110757147D01*
X103874500Y-110757147D01*
X103874500Y-110842852D01*
X103896682Y-110925637D01*
X103896685Y-110925644D01*
X103939530Y-110999855D01*
X103939534Y-110999860D01*
X103939535Y-110999862D01*
X104000138Y-111060465D01*
X104000140Y-111060466D01*
X104000144Y-111060469D01*
X104037214Y-111081871D01*
X104074362Y-111103318D01*
X104157147Y-111125500D01*
X104157149Y-111125500D01*
X104242851Y-111125500D01*
X104242853Y-111125500D01*
X104325638Y-111103318D01*
X104399862Y-111060465D01*
X104403348Y-111056979D01*
X124114822Y-111056979D01*
X124299999Y-111242156D01*
X124485174Y-111056980D01*
X124485170Y-111056979D01*
X125214822Y-111056979D01*
X125399999Y-111242156D01*
X125585174Y-111056980D01*
X125465823Y-111025000D01*
X125334174Y-111025000D01*
X125214822Y-111056979D01*
X124485170Y-111056979D01*
X124365823Y-111025000D01*
X124234174Y-111025000D01*
X124114822Y-111056979D01*
X104403348Y-111056979D01*
X104460465Y-110999862D01*
X104503318Y-110925638D01*
X104525500Y-110842853D01*
X104525500Y-110757147D01*
X104503318Y-110674362D01*
X104503314Y-110674355D01*
X104460469Y-110600144D01*
X104460463Y-110600136D01*
X104399863Y-110539536D01*
X104399855Y-110539530D01*
X104325644Y-110496685D01*
X104325640Y-110496683D01*
X104325638Y-110496682D01*
X104242853Y-110474500D01*
X104157147Y-110474500D01*
X104074362Y-110496682D01*
X104074355Y-110496685D01*
X104000144Y-110539530D01*
X104000136Y-110539536D01*
X103939536Y-110600136D01*
X103939530Y-110600144D01*
X103896685Y-110674355D01*
X103896682Y-110674362D01*
X103874500Y-110757147D01*
X93000500Y-110757147D01*
X93000500Y-110257147D01*
X131674500Y-110257147D01*
X131674500Y-110342852D01*
X131696682Y-110425637D01*
X131696685Y-110425644D01*
X131739530Y-110499855D01*
X131739536Y-110499863D01*
X131801992Y-110562319D01*
X131835477Y-110623642D01*
X131830493Y-110693334D01*
X131801992Y-110737681D01*
X131739536Y-110800136D01*
X131739530Y-110800144D01*
X131696685Y-110874355D01*
X131696682Y-110874362D01*
X131674500Y-110957147D01*
X131674500Y-111042853D01*
X131690750Y-111103497D01*
X131696682Y-111125637D01*
X131696685Y-111125644D01*
X131739530Y-111199855D01*
X131739534Y-111199860D01*
X131739535Y-111199862D01*
X131800138Y-111260465D01*
X131800140Y-111260466D01*
X131800144Y-111260469D01*
X131861832Y-111296084D01*
X131874362Y-111303318D01*
X131957147Y-111325500D01*
X131957149Y-111325500D01*
X132043767Y-111325500D01*
X132110806Y-111345185D01*
X132156561Y-111397989D01*
X132166505Y-111467147D01*
X132137480Y-111530703D01*
X132131448Y-111537181D01*
X132128601Y-111540027D01*
X132128598Y-111540031D01*
X132121937Y-111549999D01*
X132121937Y-111550000D01*
X132750000Y-111550000D01*
X133750000Y-111550000D01*
X134378063Y-111550000D01*
X134378062Y-111549999D01*
X134371402Y-111540032D01*
X134259968Y-111428597D01*
X134128948Y-111341052D01*
X134128939Y-111341047D01*
X133983351Y-111280743D01*
X133983343Y-111280741D01*
X133828797Y-111250000D01*
X133750000Y-111250000D01*
X133750000Y-111550000D01*
X132750000Y-111550000D01*
X132750000Y-111250000D01*
X132671202Y-111250000D01*
X132516656Y-111280741D01*
X132516644Y-111280744D01*
X132456053Y-111305842D01*
X132386584Y-111313311D01*
X132324105Y-111282035D01*
X132288453Y-111221946D01*
X132288530Y-111160313D01*
X132292753Y-111143935D01*
X132303318Y-111125638D01*
X132325500Y-111042853D01*
X132325500Y-111040831D01*
X141939500Y-111040831D01*
X141939500Y-111152867D01*
X141962510Y-111238740D01*
X141968497Y-111261085D01*
X141968498Y-111261088D01*
X141980592Y-111282035D01*
X142024515Y-111358112D01*
X142103737Y-111437334D01*
X142200763Y-111493352D01*
X142308982Y-111522349D01*
X142308984Y-111522349D01*
X142421014Y-111522349D01*
X142421018Y-111522349D01*
X142436027Y-111518327D01*
X142505872Y-111519987D01*
X142563736Y-111559148D01*
X142587894Y-111606006D01*
X142603497Y-111664237D01*
X142659515Y-111761263D01*
X142738737Y-111840485D01*
X142835763Y-111896503D01*
X142943982Y-111925500D01*
X142943984Y-111925500D01*
X143056016Y-111925500D01*
X143056018Y-111925500D01*
X143164237Y-111896503D01*
X143261263Y-111840485D01*
X143340485Y-111761263D01*
X143396503Y-111664237D01*
X143425500Y-111556018D01*
X143425500Y-111443982D01*
X143402233Y-111357147D01*
X147074500Y-111357147D01*
X147074500Y-111442853D01*
X147095801Y-111522348D01*
X147096682Y-111525637D01*
X147096685Y-111525644D01*
X147139530Y-111599855D01*
X147139534Y-111599860D01*
X147139535Y-111599862D01*
X147200138Y-111660465D01*
X147200140Y-111660466D01*
X147200144Y-111660469D01*
X147224447Y-111674500D01*
X147274362Y-111703318D01*
X147357147Y-111725500D01*
X147357149Y-111725500D01*
X147442851Y-111725500D01*
X147442853Y-111725500D01*
X147525638Y-111703318D01*
X147599862Y-111660465D01*
X147660465Y-111599862D01*
X147703318Y-111525638D01*
X147725500Y-111442853D01*
X147725500Y-111357147D01*
X147703318Y-111274362D01*
X147695295Y-111260465D01*
X147660469Y-111200144D01*
X147660463Y-111200136D01*
X147599863Y-111139536D01*
X147599855Y-111139530D01*
X147525644Y-111096685D01*
X147525640Y-111096683D01*
X147525638Y-111096682D01*
X147442853Y-111074500D01*
X147357147Y-111074500D01*
X147274362Y-111096682D01*
X147274355Y-111096685D01*
X147200144Y-111139530D01*
X147200136Y-111139536D01*
X147139536Y-111200136D01*
X147139530Y-111200144D01*
X147096685Y-111274355D01*
X147096682Y-111274362D01*
X147074500Y-111357147D01*
X143402233Y-111357147D01*
X143396503Y-111335763D01*
X143340485Y-111238737D01*
X143261263Y-111159515D01*
X143164237Y-111103497D01*
X143056018Y-111074500D01*
X142943982Y-111074500D01*
X142943980Y-111074500D01*
X142928971Y-111078522D01*
X142919920Y-111078306D01*
X142911596Y-111081871D01*
X142885536Y-111077487D01*
X142859121Y-111076859D01*
X142851622Y-111071783D01*
X142842694Y-111070282D01*
X142823141Y-111052505D01*
X142801259Y-111037695D01*
X142796327Y-111028129D01*
X142790996Y-111023282D01*
X142777106Y-110990844D01*
X142768077Y-110957147D01*
X145674500Y-110957147D01*
X145674500Y-111042853D01*
X145690750Y-111103497D01*
X145696682Y-111125637D01*
X145696685Y-111125644D01*
X145739530Y-111199855D01*
X145739534Y-111199860D01*
X145739535Y-111199862D01*
X145800138Y-111260465D01*
X145800140Y-111260466D01*
X145800144Y-111260469D01*
X145861832Y-111296084D01*
X145874362Y-111303318D01*
X145957147Y-111325500D01*
X145957149Y-111325500D01*
X146042851Y-111325500D01*
X146042853Y-111325500D01*
X146125638Y-111303318D01*
X146199862Y-111260465D01*
X146260465Y-111199862D01*
X146303318Y-111125638D01*
X146325500Y-111042853D01*
X146325500Y-110957147D01*
X146303318Y-110874362D01*
X146303314Y-110874355D01*
X146260469Y-110800144D01*
X146260463Y-110800136D01*
X146199863Y-110739536D01*
X146199855Y-110739530D01*
X146125644Y-110696685D01*
X146125640Y-110696683D01*
X146125638Y-110696682D01*
X146042853Y-110674500D01*
X145957147Y-110674500D01*
X145874362Y-110696682D01*
X145874355Y-110696685D01*
X145800144Y-110739530D01*
X145800136Y-110739536D01*
X145739536Y-110800136D01*
X145739530Y-110800144D01*
X145696685Y-110874355D01*
X145696682Y-110874362D01*
X145674500Y-110957147D01*
X142768077Y-110957147D01*
X142761503Y-110932612D01*
X142705485Y-110835586D01*
X142626263Y-110756364D01*
X142529237Y-110700346D01*
X142421018Y-110671349D01*
X142308982Y-110671349D01*
X142200763Y-110700346D01*
X142200760Y-110700347D01*
X142103740Y-110756362D01*
X142103734Y-110756366D01*
X142024517Y-110835583D01*
X142024513Y-110835589D01*
X141968498Y-110932609D01*
X141968497Y-110932612D01*
X141939500Y-111040831D01*
X132325500Y-111040831D01*
X132325500Y-110957147D01*
X132303318Y-110874362D01*
X132303314Y-110874355D01*
X132260469Y-110800144D01*
X132260463Y-110800136D01*
X132198008Y-110737681D01*
X132164523Y-110676358D01*
X132169507Y-110606666D01*
X132198008Y-110562319D01*
X132220797Y-110539530D01*
X132260465Y-110499862D01*
X132303318Y-110425638D01*
X132325500Y-110342853D01*
X132325500Y-110257147D01*
X132303318Y-110174362D01*
X132262301Y-110103318D01*
X132260469Y-110100144D01*
X132260463Y-110100136D01*
X132199863Y-110039536D01*
X132199855Y-110039530D01*
X132125644Y-109996685D01*
X132125640Y-109996683D01*
X132125638Y-109996682D01*
X132042853Y-109974500D01*
X131957147Y-109974500D01*
X131874362Y-109996682D01*
X131874355Y-109996685D01*
X131800144Y-110039530D01*
X131800136Y-110039536D01*
X131739536Y-110100136D01*
X131739530Y-110100144D01*
X131696685Y-110174355D01*
X131696682Y-110174362D01*
X131674500Y-110257147D01*
X93000500Y-110257147D01*
X93000500Y-109757147D01*
X117274500Y-109757147D01*
X117274500Y-109842852D01*
X117296682Y-109925637D01*
X117296685Y-109925644D01*
X117339530Y-109999855D01*
X117339534Y-109999860D01*
X117339535Y-109999862D01*
X117400138Y-110060465D01*
X117400140Y-110060466D01*
X117400144Y-110060469D01*
X117468854Y-110100138D01*
X117474362Y-110103318D01*
X117557147Y-110125500D01*
X117557149Y-110125500D01*
X117642851Y-110125500D01*
X117642853Y-110125500D01*
X117725638Y-110103318D01*
X117799862Y-110060465D01*
X117860465Y-109999862D01*
X117903318Y-109925638D01*
X117925500Y-109842853D01*
X117925500Y-109757147D01*
X117903318Y-109674362D01*
X117895295Y-109660465D01*
X117860469Y-109600144D01*
X117860463Y-109600136D01*
X117799863Y-109539536D01*
X117799855Y-109539530D01*
X117725644Y-109496685D01*
X117725640Y-109496683D01*
X117725638Y-109496682D01*
X117642853Y-109474500D01*
X117557147Y-109474500D01*
X117474362Y-109496682D01*
X117474355Y-109496685D01*
X117400144Y-109539530D01*
X117400136Y-109539536D01*
X117339536Y-109600136D01*
X117339530Y-109600144D01*
X117296685Y-109674355D01*
X117296682Y-109674362D01*
X117274500Y-109757147D01*
X93000500Y-109757147D01*
X93000500Y-109357147D01*
X133074500Y-109357147D01*
X133074500Y-109442853D01*
X133090702Y-109503318D01*
X133096682Y-109525637D01*
X133096685Y-109525644D01*
X133139530Y-109599855D01*
X133139534Y-109599860D01*
X133139535Y-109599862D01*
X133200138Y-109660465D01*
X133200140Y-109660466D01*
X133200144Y-109660469D01*
X133224196Y-109674355D01*
X133274362Y-109703318D01*
X133357147Y-109725500D01*
X133357149Y-109725500D01*
X133442851Y-109725500D01*
X133442853Y-109725500D01*
X133525638Y-109703318D01*
X133599862Y-109660465D01*
X133660465Y-109599862D01*
X133703318Y-109525638D01*
X133725500Y-109442853D01*
X133725500Y-109357147D01*
X133703318Y-109274362D01*
X133703314Y-109274355D01*
X133666748Y-109211019D01*
X133660469Y-109200144D01*
X133660463Y-109200136D01*
X133617474Y-109157147D01*
X134074500Y-109157147D01*
X134074500Y-109242852D01*
X134096682Y-109325637D01*
X134096685Y-109325644D01*
X134139530Y-109399855D01*
X134139534Y-109399860D01*
X134139535Y-109399862D01*
X134200138Y-109460465D01*
X134200140Y-109460466D01*
X134200144Y-109460469D01*
X134224447Y-109474500D01*
X134274362Y-109503318D01*
X134357147Y-109525500D01*
X134357149Y-109525500D01*
X134442851Y-109525500D01*
X134442853Y-109525500D01*
X134525638Y-109503318D01*
X134599862Y-109460465D01*
X134660465Y-109399862D01*
X134703318Y-109325638D01*
X134725500Y-109242853D01*
X134725500Y-109157147D01*
X134703318Y-109074362D01*
X134695295Y-109060465D01*
X134660469Y-109000144D01*
X134660463Y-109000136D01*
X134599863Y-108939536D01*
X134599855Y-108939530D01*
X134525644Y-108896685D01*
X134525640Y-108896683D01*
X134525638Y-108896682D01*
X134442853Y-108874500D01*
X134357147Y-108874500D01*
X134274362Y-108896682D01*
X134274355Y-108896685D01*
X134200144Y-108939530D01*
X134200136Y-108939536D01*
X134139536Y-109000136D01*
X134139530Y-109000144D01*
X134096685Y-109074355D01*
X134096682Y-109074362D01*
X134074500Y-109157147D01*
X133617474Y-109157147D01*
X133599863Y-109139536D01*
X133599855Y-109139530D01*
X133525644Y-109096685D01*
X133525640Y-109096683D01*
X133525638Y-109096682D01*
X133442853Y-109074500D01*
X133357147Y-109074500D01*
X133274362Y-109096682D01*
X133274355Y-109096685D01*
X133200144Y-109139530D01*
X133200136Y-109139536D01*
X133139536Y-109200136D01*
X133139530Y-109200144D01*
X133096685Y-109274355D01*
X133096682Y-109274362D01*
X133074500Y-109357147D01*
X93000500Y-109357147D01*
X93000500Y-108757147D01*
X139274500Y-108757147D01*
X139274500Y-108842853D01*
X139288924Y-108896682D01*
X139296682Y-108925637D01*
X139296685Y-108925644D01*
X139339530Y-108999855D01*
X139339534Y-108999860D01*
X139339535Y-108999862D01*
X139400138Y-109060465D01*
X139400140Y-109060466D01*
X139400144Y-109060469D01*
X139424196Y-109074355D01*
X139474362Y-109103318D01*
X139557147Y-109125500D01*
X139557149Y-109125500D01*
X139642851Y-109125500D01*
X139642853Y-109125500D01*
X139725638Y-109103318D01*
X139799862Y-109060465D01*
X139860465Y-108999862D01*
X139903318Y-108925638D01*
X139925500Y-108842853D01*
X139925500Y-108757147D01*
X139903318Y-108674362D01*
X139875589Y-108626333D01*
X139860469Y-108600144D01*
X139860463Y-108600136D01*
X139799863Y-108539536D01*
X139799855Y-108539530D01*
X139725644Y-108496685D01*
X139725640Y-108496683D01*
X139725638Y-108496682D01*
X139642853Y-108474500D01*
X139557147Y-108474500D01*
X139474362Y-108496682D01*
X139474357Y-108496684D01*
X139421987Y-108526919D01*
X139421976Y-108526926D01*
X139400138Y-108539535D01*
X139387963Y-108551709D01*
X139387960Y-108551712D01*
X139339533Y-108600140D01*
X139339530Y-108600144D01*
X139296685Y-108674355D01*
X139296682Y-108674362D01*
X139274500Y-108757147D01*
X93000500Y-108757147D01*
X93000500Y-107124500D01*
X93020185Y-107057461D01*
X93072989Y-107011706D01*
X93124500Y-107000500D01*
X100275500Y-107000500D01*
X100342539Y-107020185D01*
G37*
%TD.AperFunction*%
M02*
